<svg id="Layer_1" data-name="Layer 1" xmlns="http://www.w3.org/2000/svg" viewBox="0 0 450 450"><defs><style>.cls-1{fill:#c1add3;}.cls-1,.cls-2,.cls-4,.cls-5,.cls-7,.cls-8,.cls-9{fill-rule:evenodd;}.cls-3,.cls-6{fill:none;stroke-linecap:round;stroke-linejoin:round;stroke-width:2.83px;}.cls-3{stroke:#000;}.cls-4{fill:#57a695;}.cls-5{fill:#d6a87e;}.cls-6{stroke:#fefefe;}.cls-7{fill:#fefefe;}.cls-8{fill:#f5874f;}.cls-9{fill:#fc0;}</style></defs><title>Thech Peeps_Alert</title><path class="cls-1" d="M319.65,399.24c3.46-.59,15.27-19.2,12-21.5-9.19-6.56-14.11-2.26-15.83-12.45-4.44-10.7-8.6-19.24-10.87-24.16-5.27-11.45-6.41-9-20.77-9.71H165.67c-10.74,0-7.83,4.27-15.44,14.23,0,.11-9.14,16-10.54,19.48,2.54,13.44-28.93-6.52-19,20.79,1.31,3.61,12.5,10.29,12.85,11.45Z"/><path class="cls-2" d="M296.87,371.38l-142.58-.72c6.15-2.76,7.82-16.1,19.31-16.1,19.55,0,80.16.1,94.09.89,5.21.29,18.36-3.24,22.44,1.87C292.54,360.35,296.84,368.14,296.87,371.38Z"/><path class="cls-3" d="M296.87,371.38l-142.58-.72c6.15-2.76,7.82-16.1,19.31-16.1,19.55,0,80.16.1,94.09.89,5.21.29,18.36-3.24,22.44,1.87C292.54,360.35,296.84,368.14,296.87,371.38Z"/><path class="cls-4" d="M310.34,186.29c-4.27-12.11-15.68-15.76-27.33-14.45-6.36.72-24.78,5.4-24.87,5.38-3.72-.91-1.47-6-11.07-6-1.76,0-2.1.94-4.94,1.13-12.49.88-9.78.78-29,.47-5.18,0-5.56,2.95-9,3.87-3.2.83-7.51.61-23.1-1.78-9.07-1.39-24.82.13-29.39,9.35-5.6,11.28-3.93,22.17,0,44.41.86,4.8,5,36.51,6.59,45.41.32,1.77.5,9.58-3.51,23.9-1.3,4.61-5.82,19.32-5.68,21.11.37,4.57,20.29,12.31,23.13,12.31h99.94c23.65,0,37.16-10.64,37.74-12.5,1.91-6.09-11.68-33-8.51-50.92C307,235.88,314.68,198.62,310.34,186.29Z"/><path class="cls-3" d="M310.34,186.29c-4.27-12.11-15.68-15.76-27.33-14.45-6.36.72-24.78,5.4-24.87,5.38-3.72-.91-1.47-6-11.07-6-1.76,0-2.1.94-4.94,1.13-12.49.88-9.78.78-29,.47-5.18,0-5.56,2.95-9,3.87-3.2.83-7.51.61-23.1-1.78-9.07-1.39-24.82.13-29.39,9.35-5.6,11.28-3.93,22.17,0,44.41.86,4.8,5,36.51,6.59,45.41.32,1.77.5,9.58-3.51,23.9-1.3,4.61-5.82,19.32-5.68,21.11.37,4.57,20.29,12.31,23.13,12.31h99.94c23.65,0,37.16-10.64,37.74-12.5,1.91-6.09-11.68-33-8.51-50.92C307,235.88,314.68,198.62,310.34,186.29Z"/><path class="cls-2" d="M205.66,111.32c-6.74,2-8.76-5.32-4.31-7.75.16-.09-10.37-5.72-5.12-11.19,2-2.07,2.32.11-.44-3.61-5.67-7.68,5.1-8.3,4.34-9.21-1.5-1.8-1.38-11.06,5.83-11.06,1.57,0,.28-1.7,1.51-5.07,2.56-7,9.15-3.12,9.95-5.17,3.91-10.11,10.81-2.26,11.28-2.83,3.47-4.25,11.4-5.48,14.38,1.2,1,2.35-.26,0,5.35-1.67,4.33-1.27,6,2.89,6,6.75,1.43.35,8.6-2.56,7.6,5.74-.5,4.17-3.78.76,3.06,3.18s-1.77,6.71.82,7.55c2.18.7,8.11,4.95,2.46,7.45-3.21,1.42,7.67,4.63-1.12,8.25-.24.1,1.13,2.06,1.16,4.51.07,5.65-6.27-.44-.82,6.41,1.69,2.12-.11,5.12-2.94,6.62-9,4.76-13.58,2.4-23.34,2.48-11.23.09-23.3-2.26-35-2.26C205.88,111.64,205.92,111.25,205.66,111.32Z"/><path class="cls-3" d="M205.66,111.32c-6.74,2-8.76-5.32-4.31-7.75.16-.09-10.37-5.72-5.12-11.19,2-2.07,2.32.11-.44-3.61-5.67-7.68,5.1-8.3,4.34-9.21-1.5-1.8-1.38-11.06,5.83-11.06,1.57,0,.28-1.7,1.51-5.07,2.56-7,9.15-3.12,9.95-5.17,3.91-10.11,10.81-2.26,11.28-2.83,3.47-4.25,11.4-5.48,14.38,1.2,1,2.35-.26,0,5.35-1.67,4.33-1.27,6,2.89,6,6.75,1.43.35,8.6-2.56,7.6,5.74-.5,4.17-3.78.76,3.06,3.18s-1.77,6.71.82,7.55c2.18.7,8.11,4.95,2.46,7.45-3.21,1.42,7.67,4.63-1.12,8.25-.24.1,1.13,2.06,1.16,4.51.07,5.65-6.27-.44-.82,6.41,1.69,2.12-.11,5.12-2.94,6.62-9,4.76-13.58,2.4-23.34,2.48-11.23.09-23.3-2.26-35-2.26C205.88,111.64,205.92,111.25,205.66,111.32Z"/><path class="cls-5" d="M203.37,98.45s-9,0-8,7.24c.75,5.76,6.45,5.54,6.22,6.56-4.18,18.22-9.32,41.55,9.65,48.75,3.45,1.32,1.64,8.91,1.85,14.86.56,15.91,33.89,19,36,.37.78-6.79-.59-14.19,1.63-14.9,22.73-7.21,18.48-31.09,13.82-48-.3-1.11,6.12-.8,5.58-7.85-.44-5.69-6.68-5.67-6.5-6.69C271.12,55.23,200.26,48.64,203.37,98.45Z"/><path class="cls-3" d="M203.37,98.45s-9,0-8,7.24c.75,5.76,6.45,5.54,6.22,6.56-4.18,18.22-9.32,41.55,9.65,48.75,3.45,1.32,1.64,8.91,1.85,14.86.56,15.91,33.89,19,36,.37.78-6.79-.59-14.19,1.63-14.9,22.73-7.21,18.48-31.09,13.82-48-.3-1.11,6.12-.8,5.58-7.85-.44-5.69-6.68-5.67-6.5-6.69C271.12,55.23,200.26,48.64,203.37,98.45Z"/><path class="cls-3" d="M208.82,159.93c5.93,4.25,11.87.7,16.62,4.56a10,10,0,0,0,12.65.17"/><path class="cls-3" d="M227.2,122.75c-2.11-7.2,12.79-8.15,10.16-.85l-.12.34"/><path class="cls-3" d="M214.58,92.92C217,91.6,221,90,223.74,90.11"/><path class="cls-3" d="M241.89,97c4.08,1,4.24,1.36,7.41,3.49.22.15.35.45.65.43"/><path class="cls-6" d="M257,113.87c.24,1.19,2.87,10.53-1.87,9.42-1.09-.25-1.42-3.66-.57-4.13"/><path class="cls-2" d="M241.78,114.4c.26.58.61.53.76-2.08.07-1.22.26-5.52-.27-5S241.4,113.57,241.78,114.4Z"/><path class="cls-3" d="M241.78,114.4c.26.58.61.53.76-2.08.07-1.22.26-5.52-.27-5S241.4,113.57,241.78,114.4Z"/><path class="cls-2" d="M222.45,114.23c-.27.56-.62.5-.72-2.11,0-1.22-.15-5.53.37-5S222.84,113.42,222.45,114.23Z"/><path class="cls-3" d="M222.45,114.23c-.27.56-.62.5-.72-2.11,0-1.22-.15-5.53.37-5S222.84,113.42,222.45,114.23Z"/><path class="cls-7" d="M219,133a15.09,15.09,0,0,1,7.12.45c3.91,1.26,10.93.25,15-.07,4.95-.39,12.05-1,11.44,8-.2,2.9-2.6,6.46-4.78,7.2-3.15,1.08-3.9,2.13-7.79,2.13-5.2,0-12,.65-17-.07C208.61,148.56,213.93,134.28,219,133Z"/><path class="cls-6" d="M219,133a15.09,15.09,0,0,1,7.12.45c3.91,1.26,10.93.25,15-.07,4.95-.39,12.05-1,11.44,8-.2,2.9-2.6,6.46-4.78,7.2-3.15,1.08-3.9,2.13-7.79,2.13-5.2,0-12,.65-17-.07C208.61,148.56,213.93,134.28,219,133Z"/><path class="cls-3" d="M202.47,107.8c2.45-1.6,1-3.86.7-3.93"/><path class="cls-3" d="M263.62,108.64c-1.84-1-1.79-2.43-.51-3.84"/><path class="cls-2" d="M201.83,98.16c3.17.59,8.54-1.75,7.77-6.64-.45-2.83-5.45-3.16,1.8-6.61,4.9-2.34,3-7.73,3.53-7.73,9.38,0,5.93-7.39,8.21-5.93,3.58,2.31,9.15.56,9.11-2.68.05,0,3.74,7.74,11.48,3.71,1-.53.27.84,1.76,3.12,3.33,5.11,8.87,1.67,8.29,2.78-2.39,4.52,2.5,9.91,6.42,9.91-6.7,4.82,1.84,14.38,5.9,9.39,5.79-7.12,1.39-18.61-3.9-25-8.83-10.65-12-10.37-25.41-12.12C218.73,58,202,67.69,198.14,85.89c-.88,4-.24,11.13,4.31,12.5C202.89,98.52,201.42,98.08,201.83,98.16Z"/><path class="cls-3" d="M201.83,98.16c3.17.59,8.54-1.75,7.77-6.64-.45-2.83-5.45-3.16,1.8-6.61,4.9-2.34,3-7.73,3.53-7.73,9.38,0,5.93-7.39,8.21-5.93,3.58,2.31,9.15.56,9.11-2.68.05,0,3.74,7.74,11.48,3.71,1-.53.27.84,1.76,3.12,3.33,5.11,8.87,1.67,8.29,2.78-2.39,4.52,2.5,9.91,6.42,9.91-6.7,4.82,1.84,14.38,5.9,9.39,5.79-7.12,1.39-18.61-3.9-25-8.83-10.65-12-10.37-25.41-12.12C218.73,58,202,67.69,198.14,85.89c-.88,4-.24,11.13,4.31,12.5C202.89,98.52,201.42,98.08,201.83,98.16Z"/><path class="cls-3" d="M217.32,132.34c-2.78-.79-3.93,6-4.49,8.11-2.53,9.65,8.81,11.36,15.52,11.36,3.65,0,7.12.18,10.79.18"/><path class="cls-3" d="M137.62,369.88c1.4-3.51,12.58-24.12,12.61-24.23,7.61-10,4.7-14.23,15.44-14.23H284.22c14.36.67,15.5-1.74,20.77,9.71,2.27,4.92,6.43,13.46,10.87,24.16"/><path class="cls-3" d="M205.14,181c4.8,14.48,15.74,18.81,30.61,17.62,7.06-.57,17.34-8.2,20.18-14.62"/><path class="cls-5" d="M146.71,325.48c3.95-9.52,1.92-15.05,12.42-18.36,8.84-2.78,15.88.26,18.91,3.37,3.59,3.67,2.57,4.95,1.06,14.53-.2,1.24,1.39,9.24,1.5,10.71.47,6.53.23,9.13-1,18.24-.23,1.77-.19,7.92-4.19,6.65-2.85-.9-2.23-5.65-1.77-10.07a11.39,11.39,0,0,0-2.07-7.05c-1.15,2.89-2.8,5.78-3.9,10.64-.89,3.92-1.41,9.87-1.08,12.33.22,1.72,1,12.76-3.73,9.83-1-.6-1.29-3.41-1.68-5.86-1.14-7.27-.48-19.12.13-22.39.48-2.62-2.41,6.65-2.76,8.58-1.18,6.51.61,15.37-2.83,19.38-2.08,1.26-3.88,2.25-4.12-1.82a159.22,159.22,0,0,1,.86-20.76c.62-4.72,3.75-12.67-.65-2.17-1.93,4.62-3,16.44-4.39,19.89-1.14,1.45-2.74,1.8-3.42.4-2.25-4.62.51-16.52,1.53-19.79.45-1.45.82-4.91,1.39-6.36-.63,1.6-3.57,18.16-4.2,18.51-.13.07-3.94,1.22-3.25-2.91.14-.83-1.43-7.41.05-12.8C142.06,339.08,146.41,326.2,146.71,325.48Z"/><path class="cls-3" d="M146.71,325.48c3.95-9.52,1.92-15.05,12.42-18.36,8.84-2.78,15.88.26,18.91,3.37,3.59,3.67,2.57,4.95,1.06,14.53-.2,1.24,1.39,9.24,1.5,10.71.47,6.53.23,9.13-1,18.24-.23,1.77-.19,7.92-4.19,6.65-2.85-.9-2.23-5.65-1.77-10.07a11.39,11.39,0,0,0-2.07-7.05c-1.15,2.89-2.8,5.78-3.9,10.64-.89,3.92-1.41,9.87-1.08,12.33.22,1.72,1,12.76-3.73,9.83-1-.6-1.29-3.41-1.68-5.86-1.14-7.27-.48-19.12.13-22.39.48-2.62-2.41,6.65-2.76,8.58-1.18,6.51.61,15.37-2.83,19.38-2.08,1.26-3.88,2.25-4.12-1.82a159.22,159.22,0,0,1,.86-20.76c.62-4.72,3.75-12.67-.65-2.17-1.93,4.62-3,16.44-4.39,19.89-1.14,1.45-2.74,1.8-3.42.4-2.25-4.62.51-16.52,1.53-19.79.45-1.45.82-4.91,1.39-6.36-.63,1.6-3.57,18.16-4.2,18.51-.13.07-3.94,1.22-3.25-2.91.14-.83-1.43-7.41.05-12.8C142.06,339.08,146.41,326.2,146.71,325.48Z"/><path class="cls-5" d="M312.55,327.67c-3.2-9.95-.71-14.54-8.19-18.21-12-5.88-25,2.87-22.47,12.67.33,1.25-6.48,18.78-6.29,23.05,0,1,.49,8.62,1.8,13,.44,1.46,1.11,2.66,3.63,2,3-.73,1.72-4.74,1.7-9.82,0-1.42,2.34-7.63,2.74-7.87,1,3.27,2.67,11.58,3.07,14.21a53.22,53.22,0,0,1-.65,11.32c-.38,1.68,1.28,11.72,5.88,8.57,1.44-1,0-4,.11-4.7,1.4-7.13,2.27-20.53,1.94-23.91-.27-2.66,1.8,5.15,1.78,7.11,0,3.37-2.61,6,.56,10.43,2,1.51,3.14-1.06,4.55-4.85,1.53-4.11,1.9-2.43,1.74-6-.23-4.76-3-13,.57-2,1.58,4.83-2.89,7.44-1.79,11,1,1.58,2.65,2.13,3.47.82,2.71-4.32,5.47-7.21,4.71-10.58-.33-1.5-.58-3.23-1-4.73.23.75.76,2.27,1.73,5.21,1.18,3.59-2.9,6.83-2.57,7.07.13.08,4.43,3,6.07-1.51a12.6,12.6,0,0,0,1.59-8.66c-.73-3.92-1.59-8.46-2.38-12.51C313.67,333,312.7,328.14,312.55,327.67Z"/><path class="cls-3" d="M312.55,327.67c-3.2-9.95-.71-14.54-8.19-18.21-12-5.88-25,2.87-22.47,12.67.33,1.25-6.48,18.78-6.29,23.05,0,1,.49,8.62,1.8,13,.44,1.46,1.11,2.66,3.63,2,3-.73,1.72-4.74,1.7-9.82,0-1.42,2.34-7.63,2.74-7.87,1,3.27,2.67,11.58,3.07,14.21a53.22,53.22,0,0,1-.65,11.32c-.38,1.68,1.28,11.72,5.88,8.57,1.44-1,0-4,.11-4.7,1.4-7.13,2.27-20.53,1.94-23.91-.27-2.66,1.8,5.15,1.78,7.11,0,3.37-2.61,6,.56,10.43,2,1.51,3.14-1.06,4.55-4.85,1.53-4.11,1.9-2.43,1.74-6-.23-4.76-3-13,.57-2,1.58,4.83-2.89,7.44-1.79,11,1,1.58,2.65,2.13,3.47.82,2.71-4.32,5.47-7.21,4.71-10.58-.33-1.5-.58-3.23-1-4.73.23.75.76,2.27,1.73,5.21,1.18,3.59-2.9,6.83-2.57,7.07.13.08,4.43,3,6.07-1.51a12.6,12.6,0,0,0,1.59-8.66c-.73-3.92-1.59-8.46-2.38-12.51C313.67,333,312.7,328.14,312.55,327.67Z"/><path class="cls-3" d="M183.82,227.11c.18,15,7.4,46.63,6.94,50.63-1.46,12.75-8.57,33.31-9.94,39.86"/><path class="cls-3" d="M275.35,226.73c-.3,7.07-1.56,43.42-3.2,50-.24.95-1.66,8.75,1.91,19.13.63,1.84,7.45,27.06,7.46,28.13"/><path class="cls-3" d="M181.82,225.69c3.41.21,3.23,1.3,6.46-.12"/><path class="cls-3" d="M271.52,224.3c3,1,1.75,1.31,4.79,1.31"/><path class="cls-3" d="M154.7,301.55c3.06-2.54,13.61-4.77,21.13.47"/><path class="cls-7" d="M126,400.41c10,7.09,18.23,4.21,31,4.21,30.14,0,59-.6,89.22.78,7.49.35,75.75.62,78.52-2.41.55-.59.22.44,1.16-1.09.38-1.35.36-.49.83-1.62,8.79-21.26,8.56-28.5-4.09-29.09L125,370.76c-5.33-.51-9.89,3.79-7.18,11.82,2,6,7,16.32,8.17,17.83"/><path class="cls-3" d="M126,400.41c-1.19-1.51-6.16-11.87-8.17-17.83-2.71-8,1.85-12.33,7.18-11.82l197.67.43c12.65.59,12.88,7.83,4.09,29.09-.47,1.13-.45.27-.83,1.62"/><path class="cls-3" d="M219.9,336.55c-4.14,0-3.55-.05-6,4.87-.57,1.15-4.25,7.24-2.3,7.14.49.56,33.3.82,34.42-.66s-1.13-6.39-1.16-8.92"/><path class="cls-3" d="M162.81,342.63c-.47-2.12-.66-1.92.7-4"/><path class="cls-3" d="M154.83,341.22a2.82,2.82,0,0,1,.53-2.76"/><path class="cls-3" d="M147.1,340.8a3.72,3.72,0,0,1-.15-1.08"/><path class="cls-3" d="M296.41,341.3c.08.55.81-1,0-3"/><path class="cls-3" d="M304,343.19a4.67,4.67,0,0,0,.3-2.53"/><path class="cls-3" d="M310.88,345.3a4.15,4.15,0,0,0-.12-2.2"/><line class="cls-3" x1="153.74" y1="350.35" x2="120.34" y2="186.86"/><line class="cls-3" x1="116.7" y1="327.57" x2="126.62" y2="352.71"/><line class="cls-3" x1="91.61" y1="263.97" x2="113.34" y2="319.05"/><line class="cls-6" x1="260.71" y1="355.19" x2="268.6" y2="203.3"/><line class="cls-6" x1="288.54" y1="356.7" x2="300.9" y2="308.16"/><line class="cls-6" x1="206.73" y1="354.63" x2="185.79" y2="168.46"/><line class="cls-6" x1="184.89" y1="357.12" x2="168.37" y2="283.82"/><line class="cls-3" x1="186.04" y1="170.7" x2="183.03" y2="141.12"/><line class="cls-3" x1="269.33" y1="181.02" x2="270.96" y2="161.17"/><line class="cls-3" x1="307.65" y1="290.19" x2="320.89" y2="238.5"/><line class="cls-3" x1="323.48" y1="361.72" x2="360.78" y2="281.94"/><line class="cls-3" x1="188.96" y1="72.93" x2="177.81" y2="67.23"/><line class="cls-3" x1="186.16" y1="89.41" x2="175.38" y2="89.71"/><line class="cls-3" x1="198.82" y1="57.65" x2="191.09" y2="49.71"/><line class="cls-3" x1="213.27" y1="50.91" x2="210.22" y2="45.81"/><line class="cls-3" x1="265.91" y1="54.95" x2="267.96" y2="51.65"/><line class="cls-3" x1="270.82" y1="64.69" x2="279.29" y2="59.29"/><path class="cls-3" d="M204.6,285.47c6.35-1.37,8.9-2.39,16.14-3.34,11.66-1.55,16-2.2,27.87-.4a1,1,0,0,0,.49,0"/><path class="cls-3" d="M217.71,276.78a113.78,113.78,0,0,1,39.3,1.11c.33.07.14-.08.47.13"/><path class="cls-8" d="M85.16,155.12,168.8,124a9.21,9.21,0,0,1,11.8,5.41l21,56.44a9.21,9.21,0,0,1-5.41,11.8l-83.63,31.07a9.2,9.2,0,0,1-11.8-5.4l-21-56.44A9.2,9.2,0,0,1,85.16,155.12Z"/><path class="cls-3" d="M85.16,155.12,168.8,124a9.21,9.21,0,0,1,11.8,5.41l21,56.44a9.21,9.21,0,0,1-5.41,11.8l-83.63,31.07a9.2,9.2,0,0,1-11.8-5.4l-21-56.44A9.2,9.2,0,0,1,85.16,155.12Z"/><path class="cls-3" d="M137.91,192.34l21-8.09c6-2.85,4.6-8.44,1.23-10L141.26,160c-4.65-3.08-9.11-2.47-10.17,3.79l-4.3,23.75c-.94,4.3,2.73,8.55,7.12,6.43"/><line class="cls-3" x1="137.67" y1="166.66" x2="142.19" y2="177.93"/><line class="cls-3" x1="143.42" y1="181.3" x2="144.02" y2="182.68"/><line class="cls-3" x1="165.73" y1="133.8" x2="174.36" y2="137.28"/><line class="cls-3" x1="172.24" y1="131.44" x2="167.84" y2="139.64"/><path class="cls-9" d="M370.65,135.21l-16.19,82.9A8.71,8.71,0,0,1,344.27,225L288.33,214a8.72,8.72,0,0,1-6.87-10.19l16.2-82.9a8.71,8.71,0,0,1,10.19-6.86L363.79,125A8.71,8.71,0,0,1,370.65,135.21Z"/><path class="cls-3" d="M370.65,135.21l-16.19,82.9A8.71,8.71,0,0,1,344.27,225L288.33,214a8.72,8.72,0,0,1-6.87-10.19l16.2-82.9a8.71,8.71,0,0,1,10.19-6.86L363.79,125A8.71,8.71,0,0,1,370.65,135.21Z"/><line class="cls-3" x1="357.38" y1="130.12" x2="362.61" y2="137.53"/><line class="cls-3" x1="356.24" y1="136.39" x2="363.97" y2="131.33"/><path class="cls-3" d="M325.48,193.87c10.31-3.35,9.76-7,15.47-12.7,2.68-2.65,7.93-3.32,8-4.8.16-2.78-3.5-4.11-7.89-2.43-3.35,1.28-6.17,1.35-7.73,2.76-.2.18,5.5-21.81,6.55-27,.92-4.57-2.65-4.94-4.5-1.23-2.47,5-6.93,18.4-7.12,19.31-.82,3.92,4.28-22.24,4.33-22.53.5-3.28-2.2-4.55-4.4.6A157.06,157.06,0,0,0,322,166.58c-.32,2.84,3.11-21.32,2-22-5.53-3.19-8.45,20.12-8.3,22.85-.25-4.49,2.58-17.9.67-17.81-5.79-.42-5.66,16-6.58,20.57-1.69,8.4-3.13,14.43-1.16,18.14"/><path class="cls-3" d="M316.73,186.3c2.26-4.94,5.28-8.21,10.71-9.61"/></svg>
