<svg id="Layer_1" data-name="Layer 1" xmlns="http://www.w3.org/2000/svg" xmlns:xlink="http://www.w3.org/1999/xlink" viewBox="0 0 450 450"><defs><style>.cls-1,.cls-10,.cls-3,.cls-7{fill:none;}.cls-1{clip-rule:evenodd;}.cls-2{fill:#fac384;}.cls-2,.cls-4,.cls-6,.cls-8,.cls-9{fill-rule:evenodd;}.cls-3{stroke:#fac384;}.cls-10,.cls-3,.cls-7{stroke-linecap:round;stroke-linejoin:round;stroke-width:2.83px;}.cls-4{fill:#ffc4e2;}.cls-5{clip-path:url(#clip-path);}.cls-6{fill:#5ca47a;}.cls-7{stroke:#000;}.cls-8{fill:#69f;}.cls-10{stroke:#96989a;}</style><clipPath id="clip-path"><path class="cls-1" d="M162.88,399c8.1,2.41,63.63,4.88,64.5,2.09,4.5-14.39,2.53-22.13,5.43-1,.48,3.49,47.76,1.71,55.18.08,13.77-3,10.56.52,10.56-18.59,0-3.22.83-39.05-.23-39-29.73,1.54-61,5.8-90.75,3.26-12.17-1-28,.74-40.44-.17-1.14,13.69-3.14,26.17-2.66,40.2.11,3.26-1.59,10-1.59,13.11"/></clipPath></defs><title>Thech Peeps_Forgot</title><path class="cls-2" d="M169.49,415.42c.25-1.45-.16-14.36.59-14.58,3.18-.9,43.52,1.47,52.23,1.47,2,0-3.37,16.59-3.34,17-6,0-10.89-.95-17.37-.95-7.29,0-10.92-1-18.39,0-2.51.32-12.65.18-13.59-2.46C169.58,415.75,169.46,415.55,169.49,415.42Z"/><path class="cls-3" d="M169.49,415.42c.25-1.45-.16-14.36.59-14.58,3.18-.9,43.52,1.47,52.23,1.47,2,0-3.37,16.59-3.34,17-6,0-10.89-.95-17.37-.95-7.29,0-10.92-1-18.39,0-2.51.32-12.65.18-13.59-2.46C169.58,415.75,169.46,415.55,169.49,415.42Z"/><path class="cls-2" d="M294.55,414.31c-.26-1.45.15-14.37-.6-14.58-3.17-.9-44.66,2.07-53.37,2.07-2,0-1.12,16.78,1.31,17,6,0,11,.31,17.45.31,7.28,0,10.91-1,18.38,0,2.51.32,15.76-1.73,16.69-4.36C294.45,414.64,294.57,414.44,294.55,414.31Z"/><path class="cls-3" d="M294.55,414.31c-.26-1.45.15-14.37-.6-14.58-3.17-.9-44.66,2.07-53.37,2.07-2,0-1.12,16.78,1.31,17,6,0,11,.31,17.45.31,7.28,0,10.91-1,18.38,0,2.51.32,15.76-1.73,16.69-4.36C294.45,414.64,294.57,414.44,294.55,414.31Z"/><path class="cls-4" d="M162.88,399c8.1,2.41,63.63,4.88,64.5,2.09,4.5-14.39,2.53-22.13,5.43-1,.48,3.49,47.76,1.71,55.18.08,13.77-3,10.56.52,10.56-18.59,0-3.22.83-39.05-.23-39-29.73,1.54-61,5.8-90.75,3.26-12.17-1-28,.74-40.44-.17-1.14,13.69-3.14,26.17-2.66,40.2.11,3.26-1.59,10-1.59,13.11"/><g class="cls-5"><path class="cls-6" d="M216.65,398.24c5.31,6.51-6.84,13.54-7.85.9-.12-1.61-1,1.27-4.89,1.76-6.55.84-5.83-8.83-.76-9.25,0,0-4.78-5.38,2-7.79,2.67-.95,7.09,3.13,5.59,5.72.88-1.92,1.74-9.46,7.1-4.75,3.63,3.19-3.49,8.47,1.16,6.27s8.46,7.68-1.12,7.31c-.25,0-1.35-.32-1.23-.17"/><path class="cls-6" d="M179.65,367.21c-7.54-3.71.56-15.17,6.75-4.09.79,1.41.41-1.59,3.71-3.65,5.61-3.5,9,5.6,4.56,8.09,0,0,6.59,2.9,1.42,7.92-2,2-7.74.11-7.46-2.87,0,2.11,2.36,9.33-4.48,7.28-4.62-1.39-.35-9.16-3.66-5.22s-10.9-3.45-2-7.11c.23-.09,1.36-.27,1.19-.35"/><path class="cls-6" d="M215.8,346.09c5.23-6.58,14.7,3.78,2.56,7.47-1.55.47,1.46.73,2.77,4.4,2.22,6.22-7.39,7.58-8.88,2.72,0,0-4.24,5.82-8-.3-1.49-2.4,1.55-7.59,4.4-6.68-2.07-.45-9.62.32-6.16-5.92,2.34-4.22,9,1.61,5.88-2.47s5.7-9.91,7.38-.46c0,.24,0,1.38.09,1.24"/><path class="cls-6" d="M242.37,377.79c-5,6.75-14.81-3.29-2.8-7.38,1.53-.52-1.49-.68-2.92-4.3-2.43-6.15,7.13-7.83,8.78-3,0,0,4-6,8,0,1.57,2.35-1.3,7.64-4.18,6.83,2.08.38,9.6-.64,6.35,5.72-2.19,4.29-9.07-1.31-5.79,2.66s-5.36,10.09-7.35.71c-.06-.25,0-1.39-.14-1.24"/><path class="cls-6" d="M273.56,349.81c-7.77-3.19-.45-15.17,6.47-4.53.88,1.35.29-1.61,3.45-3.89,5.36-3.86,9.34,5,5.09,7.77,0,0,6.77,2.45,1.95,7.81-1.89,2.1-7.72.62-7.64-2.37.14,2.11,3,9.15-4,7.56-4.7-1.07-1-9.11-4-5s-11.09-2.72-2.49-6.95c.22-.12,1.33-.37,1.16-.44"/><path class="cls-6" d="M295.94,370.13c1.18-8.33,14.59-4.17,6,5.15-1.1,1.18,1.63-.11,4.61,2.39,5.06,4.24-2.53,10.28-6.28,6.84,0,0-.71,7.17-7.08,3.82-2.5-1.32-2.51-7.34.41-8-2,.65-8.13,5.14-8.31-2-.12-4.82,8.6-3.18,3.82-5.1s-.09-11.43,6.13-4.13c.17.19.69,1.2.71,1"/><path class="cls-6" d="M269.92,392.33c8.36-.91,7.63,13.11-3.52,7.06-1.42-.77.5,1.56-1.19,5.06-2.86,6-10.58.08-8.17-4.4,0,0-7.12,1.08-5.44-5.93.66-2.75,6.49-4.23,7.85-1.56-1.13-1.79-7-6.62-.11-8.55,4.64-1.3,5.19,7.56,5.88,2.45s11.06-2.9,5.51,4.93c-.14.2-1,1-.81.94"/><path class="cls-6" d="M171.3,401.73c2.93,7.88-10.84,10.62-7.72-1.67.4-1.57-1.38.87-5.2.09-6.47-1.31-2.67-10.24,2.26-9,0,0-2.79-6.64,4.41-6.73,2.83,0,5.7,5.25,3.44,7.22,1.46-1.54,4.7-8.4,8.26-2.21,2.4,4.18-6,6.89-.93,6.31s5.54,10-3.41,6.55c-.24-.09-1.18-.73-1.11-.56"/></g><path class="cls-7" d="M162.88,399c8.1,2.41,63.63,4.88,64.5,2.09,4.5-14.39,2.53-22.13,5.43-1,.48,3.49,47.76,1.71,55.18.08,13.77-3,10.56.52,10.56-18.59,0-3.22.83-39.05-.23-39-29.73,1.54-61,5.8-90.75,3.26-12.17-1-28,.74-40.44-.17-1.14,13.69-3.14,26.17-2.66,40.2C164.58,389.13,162.88,395.9,162.88,399Z"/><path class="cls-8" d="M206.31,165.37c6.13-2.85,11.6,8.22,30.05-.44,4.2-2,6.71-3.34,16.75-10.87,14.51-10.89,33.76-6.05,43.93,6.1,5.19,6.2,32,53.68,26.86,54.36-7.15.94-32,19.58-37.65,23.69,2.18,4.66,15.94,83.7,16.17,90.07.37,10.21,2.06,12.83-.8,13.85-18,6.38-71.39,8.39-91.29,7.44-13.56-.64-50.84-3-51.28-6.13,1-14.23,11.86-97.27,7.9-100.7-1.54-.29-24.5-18.69-40.7-21.33-2.12-.34,9.84-20.74,10.46-21.4,4.92-10.42,13.48-20.06,19-27.69C169.62,153.33,190.22,152.26,206.31,165.37Z"/><path class="cls-7" d="M206.31,165.37c6.13-2.85,11.6,8.22,30.05-.44,4.2-2,6.71-3.34,16.75-10.87,14.51-10.89,33.76-6.05,43.93,6.1,5.19,6.2,32,53.68,26.86,54.36-7.15.94-32,19.58-37.65,23.69,2.18,4.66,15.94,83.7,16.17,90.07.37,10.21,2.06,12.83-.8,13.85-18,6.38-71.39,8.39-91.29,7.44-13.56-.64-50.84-3-51.28-6.13,1-14.23,11.86-97.27,7.9-100.7-1.54-.29-24.5-18.69-40.7-21.33-2.12-.34,9.84-20.74,10.46-21.4,4.92-10.42,13.48-20.06,19-27.69C169.62,153.33,190.22,152.26,206.31,165.37Z"/><path class="cls-7" d="M167.8,246.13c1.11-6.82,1.91-21.62,2.45-29.19"/><path class="cls-7" d="M286.25,238.21c-2.23-8.23-3-15-6.47-25"/><path class="cls-7" d="M201.26,168.73c2.74,13,27.79,13.08,37.7,7.84,3.65-1.93,9.06-7.11,10.39-10.81"/><path class="cls-2" d="M168.31,241.71c-.51,9.89-1.93,27.46-15.05,31-12.57,3.39-11.11,1.12-22.46-7.94-14.89-11.88-14.06-71.38-16.59-88.94-1.45-10.08-13.74-12.19-21.23-17.55-5.88-4.2-22.66-6.47-25.78-18.08.68-9.5,6.86,4.74,4.58-2.12-1.75-5.25,5.06-6.26,5.85-2.43,1.43-.43-2.25-8,3.48-5.57,1.67.69,4.09,5.65,7.35,6.87,3.5,1.31,15.94,5,21.14,6.27,2.09-.36.68-2.41-.07-3.45-5.3-7.4-3.48-12.46,3.07-7.88,3,2.12,13.65,10.73,16.65,18.71a21.09,21.09,0,0,1,1.42,4.79c5.86,12.72,12,40.21,18.67,60.08,2.68,7.92,5.15,14.65,6.57,19.6.55,1.9,2.94.75,4.66,2C160.73,237.15,168,241.61,168.31,241.71Z"/><path class="cls-7" d="M168.31,241.71c-.51,9.89-1.93,27.46-15.05,31-12.57,3.39-11.11,1.12-22.46-7.94-14.89-11.88-14.06-71.38-16.59-88.94-1.45-10.08-13.74-12.19-21.23-17.55-5.88-4.2-22.66-6.47-25.78-18.08.68-9.5,6.86,4.74,4.58-2.12-1.75-5.25,5.06-6.26,5.85-2.43,1.43-.43-2.25-8,3.48-5.57,1.67.69,4.09,5.65,7.35,6.87,3.5,1.31,15.94,5,21.14,6.27,2.09-.36.68-2.41-.07-3.45-5.3-7.4-3.48-12.46,3.07-7.88,3,2.12,13.65,10.73,16.65,18.71a21.09,21.09,0,0,1,1.42,4.79c5.86,12.72,12,40.21,18.67,60.08,2.68,7.92,5.15,14.65,6.57,19.6.55,1.9,2.94.75,4.66,2C160.73,237.15,168,241.61,168.31,241.71Z"/><path class="cls-7" d="M153,226.06c2.35,4.28,3.95,13.34,4.5,18.4a8,8,0,0,0,.34,1.58"/><path class="cls-7" d="M84.43,134c4,16.95,25.48,13.1,34.6,18.22"/><path class="cls-7" d="M91.66,156.74c-9-6.06-9.65-6.15-13-16.33-.19-.57-.38-4.17-1-5.06"/><path class="cls-7" d="M72,138.2c.73.89,1.34,5.08,2.9,6.75,1.35,1.44,2.72,4.48,4.8,5"/><path class="cls-2" d="M286.05,234.79c1.06,9.8,3.45,27.17,16.73,29.31,12.72,2,11.13-.06,22-10.29,14.18-13.42,10-72.65,11.58-90.43.88-10.21,13-13.61,20.19-19.74,5.62-4.81,22.23-8.85,24.7-20.75-1.22-9.4-6.58,5.45-4.69-1.63,1.45-5.42-5.39-5.71-6-1.8-1.45-.28,1.8-8.18-3.78-5.19-1.62.86-3.76,6.07-6.95,7.63-3.42,1.67-17.84,6.73-23,8.53,1.6-3.57,4.77-7.33,5.19-9.88.55-3.39-2.92-6.39-5.85-2.07-2.12,3.14-13.74,13-16.28,21.33a22.06,22.06,0,0,0-1.15,4.93c-5.13,13.3-9.68,41.35-15.27,61.87-2.23,8.18-4.31,15.15-5.46,20.23-.44,2-2.88,1.07-4.53,2.47C293.35,229.44,286.31,234.66,286.05,234.79Z"/><path class="cls-7" d="M286.05,234.79c1.06,9.8,3.45,27.17,16.73,29.31,12.72,2,11.13-.06,22-10.29,14.18-13.42,10-72.65,11.58-90.43.88-10.21,13-13.61,20.19-19.74,5.62-4.81,22.23-8.85,24.7-20.75-1.22-9.4-6.58,5.45-4.69-1.63,1.45-5.42-5.39-5.71-6-1.8-1.45-.28,1.8-8.18-3.78-5.19-1.62.86-3.76,6.07-6.95,7.63-3.42,1.67-17.84,6.73-23,8.53,1.6-3.57,4.77-7.33,5.19-9.88.55-3.39-2.92-6.39-5.85-2.07-2.12,3.14-13.74,13-16.28,21.33a22.06,22.06,0,0,0-1.15,4.93c-5.13,13.3-9.68,41.35-15.27,61.87-2.23,8.18-4.31,15.15-5.46,20.23-.44,2-2.88,1.07-4.53,2.47C293.35,229.44,286.31,234.66,286.05,234.79Z"/><path class="cls-7" d="M300.47,217.56c-2.11,4.52-3.2,13.72-3.46,18.82a8.85,8.85,0,0,1-.26,1.62"/><path class="cls-7" d="M363.67,118.51c-3,17.32-24.68,15.75-33.49,21.81"/><path class="cls-7" d="M358,142.27c8.59-7,9-7.45,11.79-18,.16-.59.14-4.19.73-5.15"/><path class="cls-7" d="M376.28,121.42c-.68,1-1,5.2-2.51,7-1.27,1.58-2.47,4.75-4.51,5.53"/><path class="cls-7" d="M337.91,130.06c-1.62.65-4.49,2-6,2.43"/><path class="cls-7" d="M297.58,343.34c1.21,10.71,1.29,34,1.29,45.71v5.48"/><path class="cls-7" d="M169.72,401c-.15,3.71-.48,8.06-.48,11.76"/><path class="cls-7" d="M223.11,402c-.21,1.88-1.44,11.75-1.44,13.15"/><path class="cls-7" d="M238,401.6c.17,3.82.78,9.53.78,13.27"/><path class="cls-7" d="M295.5,398.67c-.12,5.2-.44,8.75-.44,13.81"/><path class="cls-7" d="M223.1,384.84c5.26.27,13.85,1.52,19.52-.33H243"/><path class="cls-9" d="M330,144.93c-7.25-4.27-11.54-6.38-12.16-8.21-.53-1.59.29-2.85,2.48-4.25,8.09-5.14,31.8-18,42.4-23.94,3.4-1.92,4.71-2.24,7.36-1.15,2,.82,8.41,4.3,9.85,5.07,5.67,3,1.91,4.11-1.34,6.54-.82.6-1.07-.3-1.93-1-1.56-1.21-3.77-2.66-5.35-.13-.8,1.3-.55-5.9-5.21-3-.95.58-2.65,5.53-5.18,10.69a26.26,26.26,0,0,1-7.3,9.26c-7.51,4.54-11.62,7.29-14.72,9.52A7.91,7.91,0,0,1,330,144.93Z"/><path class="cls-7" d="M330,144.93c-7.25-4.27-11.54-6.38-12.16-8.21-.53-1.59.29-2.85,2.48-4.25,8.09-5.14,31.8-18,42.4-23.94,3.4-1.92,4.71-2.24,7.36-1.15,2,.82,8.41,4.3,9.85,5.07,5.67,3,1.91,4.11-1.34,6.54-.82.6-1.07-.3-1.93-1-1.56-1.21-3.77-2.66-5.35-.13-.8,1.3-.55-5.9-5.21-3-.95.58-2.65,5.53-5.18,10.69a26.26,26.26,0,0,1-7.3,9.26c-7.51,4.54-11.62,7.29-14.72,9.52A7.91,7.91,0,0,1,330,144.93Z"/><path class="cls-7" d="M265.67,209.6a1.91,1.91,0,0,0-.95.08c-4.48,1.85-20.76,2.92-26.06,2.82-.67,1.86.47,21.84,1.72,22.47,2.59,1.32,13.83,8.41,15.39,7.82,5.91-2.24,12.8-11.39,12.88-13.53,0-1.6-1.88-15.54-2-16.44"/><path class="cls-9" d="M208.6,38c-16.59-8.33-40.15,15.5-35,41.05.6,3,2.62,12,6,12.22,12,1,13.61-4.71,21.5-14.26,7.74-9.37,13.78-20.67,12.63-33.35C213.26,39.35,209.49,38.48,208.6,38Z"/><path class="cls-7" d="M208.6,38c-16.59-8.33-40.15,15.5-35,41.05.6,3,2.62,12,6,12.22,12,1,13.61-4.71,21.5-14.26,7.74-9.37,13.78-20.67,12.63-33.35C213.26,39.35,209.49,38.48,208.6,38Z"/><path class="cls-2" d="M246.45,82.37c1.27-3,5.79-5.43,9.47-1.44,5.2,5.65,1.24,13.25-6.46,12.23C244.46,92.5,245.87,83.71,246.45,82.37Z"/><path class="cls-7" d="M246.45,82.37c1.27-3,5.79-5.43,9.47-1.44,5.2,5.65,1.24,13.25-6.46,12.23C244.46,92.5,245.87,83.71,246.45,82.37Z"/><path class="cls-7" d="M251.73,84.16c-1.73,2.32-.1,3.58,0,4.38"/><path class="cls-2" d="M206.57,143.28c-.13,8.83,1.38,17,.79,21.16,1,7.16,30.47,10.95,33.86-3.09l.19-1.7c-.67-12.52-1.14-18.19-.55-20,0,0,8.53-3.56,13.54-14,11.08-23.16-7.69-29.68-8.5-50.26-1.21-31.07-52.89-38-58.93,3.76-.74,5.06.08,7.85.6,10.76-2.08-1.61-5.43-2-8,1.4-4.72,6.08-.57,13,6.72,11.55C182.65,119.63,185.11,137.34,206.57,143.28Z"/><path class="cls-7" d="M206.57,143.28c-.13,8.83,1.38,17,.79,21.16,1,7.16,30.47,10.95,33.86-3.09l.19-1.7c-.67-12.52-1.14-18.19-.55-20,0,0,8.53-3.56,13.54-14,11.08-23.16-7.69-29.68-8.5-50.26-1.21-31.07-52.89-38-58.93,3.76-.74,5.06.08,7.85.6,10.76-2.08-1.61-5.43-2-8,1.4-4.72,6.08-.57,13,6.72,11.55C182.65,119.63,185.11,137.34,206.57,143.28Z"/><path class="cls-7" d="M204.74,143s9.83.76,9.86.78c3.5,2.67,9.32,2.92,12.83-.11a5.66,5.66,0,0,1,.65-.5"/><path class="cls-7" d="M210.63,75.12c-1.92.63-10,3.45-11.32,4.11"/><path class="cls-7" d="M225.07,72.13a54.92,54.92,0,0,1,9.76,2.06"/><path class="cls-7" d="M216.06,99.54c-1.59-7.55,11-8,10.58-2.69l-.06.79"/><path class="cls-7" d="M218.6,121.75c-.87-3.7,4.93-6.26,8.74-2.19,3,3.22,7.84-2.25,6-4.79"/><path class="cls-9" d="M211.33,90.37c-.21.64-.59.63-1.05-2.1-.22-1.28-.92-5.8-.3-5.34C210.76,83.5,211.63,89.44,211.33,90.37Z"/><path class="cls-7" d="M211.33,90.37c-.21.64-.59.63-1.05-2.1-.22-1.28-.92-5.8-.3-5.34C210.76,83.5,211.63,89.44,211.33,90.37Z"/><path class="cls-9" d="M227.07,88.82c.31.58.68.49.67-2.29,0-1.3-.08-5.89-.62-5.3S226.61,88,227.07,88.82Z"/><path class="cls-7" d="M227.07,88.82c.31.58.68.49.67-2.29,0-1.3-.08-5.89-.62-5.3S226.61,88,227.07,88.82Z"/><path class="cls-7" d="M184,94.06c1.87,2.11.33,3.55.27,4.37"/><path class="cls-9" d="M208.6,38c6.18-11.83,22.9-6.62,30.16-3.21,8.17,3.84,15.35,16.74,16,27,.31,5.34.64,15.41-5.21,16.61-3.25.66-7.06,1-6.22-10.46.29-4-2.27-3.12-5.75-4.13C223,59.62,211.93,58.19,208.6,38Z"/><path class="cls-7" d="M208.6,38c6.18-11.83,22.9-6.62,30.16-3.21,8.17,3.84,15.35,16.74,16,27,.31,5.34.64,15.41-5.21,16.61-3.25.66-7.06,1-6.22-10.46.29-4-2.27-3.12-5.75-4.13C223,59.62,211.93,58.19,208.6,38Z"/><path class="cls-3" d="M212.19,54c-2.1-2.19-2.5-5.93-3.59-8.64a.93.93,0,0,1,0-.29"/><line class="cls-7" x1="163.14" y1="58.99" x2="149.94" y2="55.99"/><line class="cls-7" x1="162.39" y1="68.89" x2="152.64" y2="69.64"/><line class="cls-7" x1="255.09" y1="43.54" x2="260.19" y2="40.09"/><line class="cls-7" x1="258.54" y1="52.99" x2="266.94" y2="51.64"/><path class="cls-10" d="M324.85,137.85l6.23,3.53c3.94,2.15,6.41.14,8.51-1.18.2-.13,13.14-8.34,13.33-8.45"/></svg>
