<svg id="Layer_1" data-name="Layer 1" xmlns="http://www.w3.org/2000/svg" viewBox="0 0 450 450"><defs><style>.cls-1{fill:#fefefe;}.cls-1,.cls-2,.cls-3,.cls-5,.cls-7{fill-rule:evenodd;}.cls-2{fill:#a6bbe6;}.cls-3{fill:#d6a87e;}.cls-4,.cls-6,.cls-8,.cls-9{fill:none;stroke-linecap:round;stroke-linejoin:round;stroke-width:2.83px;}.cls-4{stroke:#000;}.cls-6{stroke:#727376;}.cls-7{fill:#66f;}.cls-8{stroke:#4242ad;}.cls-9{stroke:#fefefe;}</style></defs><title>Thech Peeps_Listening</title><path class="cls-1" d="M119.13,308c1.27-4.53-5.09-31.12-5.46-42-.18-5.14.32-4.36,5.81.19,6.1,5.06.84-3.8,6.32-13.89.1-.17-19.76-37.81-20.65-45-3.45-27.62,3.95-35.51,28.48-43.89,5.23-1.78,35.84-13.76,38.87-9.56,4.83,6.68,37.94,8.95,37.05-2.35,18,0,21.12.46,38.55,2.45a93.1,93.1,0,0,1,26.42,8c23,11.52,8.23,58.88,6.3,77.38-.67,6.5-9,55.7-11.31,75.65-.79,6.89,4.77,8.25.78,14.83-1,2.08,1,4,2.49,8.53,2,6.13,3.44,14.64,0,12.7-1.72-1-4.87-7.17-9.27-10.81C226.56,309.58,175,295.3,159,301.9c-9.57,3.94-16.38,7.55-23.9,21.15-7.19,13-5.33,25.5-12.7,37.65-1,1.65.65,2.49-2.56.55,0,.1-4.75.13-4.75-13.78,0-10.13,6.77-11,2.8-20.65-1.33-3.24-.52-15.41,2.16-17.84Z"/><path class="cls-2" d="M108.47,402.7c.21,2.42,1.51-8.77,1.8-10.17,2.28-11.11.83-24.77,4.16-33.25.33-.85,5.06,2.81,5.4,2,5.71-14,12.43-26.5,18.85-43.39,8.07-21.22,39.67-19,60.19-11.59,8.58,3.08,37.34,16.76,42.7,19.75,6.68,3.73,27.79,19,31.35,28.3.9,2.34,5.25,34.32,5.14,38.63s-.48,18.6-6.77,18.6c-10.75,0-5.4-1.15-7,3.25-10.55,2.42-27,1.67-39.26,3.88-1.61.28-53.88,2.8-55.67.1-3.32-5,6.55-8.81-13.21-4.75-5.05,1-38.72.34-40.11-3.23,0,0-7.69-2.86-7.11-7.65Z"/><path class="cls-3" d="M211.06,133.52c14-5.75,20.22-26.28,9.83-50.9,3.49-.11,7.48-4.07,6.31-8.55-1.25-4.78-5.88-7.75-10.73-5.7-.06.21-1,.67-1.65,1.37-3.8-15.3-7.44-36.9-39.49-25.74C161,49,158,65.28,156.92,77.05c-2.72-1.26-4.33-4-9.45-.94-4.75,2.82-6.09,13.54,4.19,13.54a6.1,6.1,0,0,0,2-.32c-6.8,39.06,17.65,46.73,17.63,47-.28,3.79.22,13.64,0,16.23-.84,9.83,25.81,11.26,37.61,3.05,1.76-1.22,1-1.59,1.47-3.6C210.74,146.34,210.66,138.91,211.06,133.52Z"/><path class="cls-4" d="M211.06,133.52c14-5.75,20.22-26.28,9.83-50.9,3.49-.11,7.48-4.07,6.31-8.55-1.25-4.78-5.88-7.75-10.73-5.7-.06.21-1,.67-1.65,1.37-3.8-15.3-7.44-36.9-39.49-25.74C161,49,158,65.28,156.92,77.05c-2.72-1.26-4.33-4-9.45-.94-4.75,2.82-6.09,13.54,4.19,13.54a6.1,6.1,0,0,0,2-.32c-6.8,39.06,17.65,46.73,17.63,47-.28,3.79.22,13.64,0,16.23-.84,9.83,25.81,11.26,37.61,3.05,1.76-1.22,1-1.59,1.47-3.6C210.74,146.34,210.66,138.91,211.06,133.52Z"/><path class="cls-4" d="M212.61,150.32c6.48.45,53.66,6.9,58.07,9,17.25,8.24,17.42,25.24,13.57,48.17-5.77,34.32-7.08,49.3-20.72,67.12-8,10.45-15.87,20.5-27.88,22.43-10.05,1.62-22.56.29-35.58-2.52"/><path class="cls-4" d="M175.88,257.12c6.93-17.64,22.71-55,29.58-67.94,2.81-5.32,38.87-5.88,35.34,3,0,.08-24.93,97.93-39.57,101.9-16.11,4.37-22.81,6.91-34.86-.25-26.6-15.81-50.91-58-59.33-84.4-1.63-11.94-12.93-35.86,26.59-46.06,2.42-.62,35.55-10.79,37.8-10.79"/><path class="cls-4" d="M109.79,217.28c-3,8.31,5.89,58.81,9.34,90.67.46,4.29-3,7.64-2.83,11.1.2,3.12,2.72,11.34,2.66,13.56,0,1.77-9.87,24.7.54,28.27"/><path class="cls-4" d="M272.92,354.32c3.9-8.17-2.36-22.14-2.63-24.55s2.73-2.36,1.78-6.42c-.85-3.66-2.54-5-2.56-7-.25-34.72,12.2-61.64,13.53-101.57"/><path class="cls-4" d="M152.52,79.82c.42,1,.1,3.48-1.26,3.83"/><path class="cls-4" d="M217.19,73.52c-.09,1.2.36,3.69,1.73,4"/><path class="cls-5" d="M175.48,51.57c5.26-.34,35.89-3,35.43-4.26C208,39.85,201,32.63,188.81,31.47c-11.16-1.06-27.75,10-29.31,21.44C159,56.48,174.74,51.62,175.48,51.57Z"/><path class="cls-4" d="M175.48,51.57c5.26-.34,35.89-3,35.43-4.26C208,39.85,201,32.63,188.81,31.47c-11.16-1.06-27.75,10-29.31,21.44C159,56.48,174.74,51.62,175.48,51.57Z"/><path class="cls-5" d="M167.66,115.05c.05,8.72-1.43,24.47,10.09,26.27,9,1.42,27,1.19,34.5-4,6.59-4.54,3.21-25.79,2.25-33.08C213.69,98,190,94,173.17,103.61,168.22,106.44,167.61,107.4,167.66,115.05Z"/><path class="cls-4" d="M167.66,115.05c.05,8.72-1.43,24.47,10.09,26.27,9,1.42,27,1.19,34.5-4,6.59-4.54,3.21-25.79,2.25-33.08C213.69,98,190,94,173.17,103.61,168.22,106.44,167.61,107.4,167.66,115.05Z"/><path class="cls-3" d="M170.82,123c.22-3.68-1-14.71,1.35-16.63,5-4.12,10.32-4.52,15.88-6.07,3.06-.85,22-1,23.68,3.75,1.32,3.84,5.21,21.72-1,21.85-3,.06-7.81,1.86-10-1-9.15-12.27-10.77,1.31-16,.79-2.4-.23-12.92,3.27-13.87-1.63A2.84,2.84,0,0,1,170.82,123Z"/><path class="cls-4" d="M170.82,123c.22-3.68-1-14.71,1.35-16.63,5-4.12,10.32-4.52,15.88-6.07,3.06-.85,22-1,23.68,3.75,1.32,3.84,5.21,21.72-1,21.85-3,.06-7.81,1.86-10-1-9.15-12.27-10.77,1.31-16,.79-2.4-.23-12.92,3.27-13.87-1.63A2.84,2.84,0,0,1,170.82,123Z"/><path class="cls-4" d="M197.12,109.37c4.48,0,8.29-2.85,9-2.85"/><path class="cls-4" d="M186.36,88.37c-3.22-.2.67-8.18,6.51-5.75.51.22,1.66,1.48,1.6,2"/><path class="cls-5" d="M178.29,81.48c.33.57.7.47.62-2.32,0-1.31-.22-5.91-.74-5.3C177.52,74.62,177.81,80.65,178.29,81.48Z"/><path class="cls-4" d="M178.29,81.48c.33.57.7.47.62-2.32,0-1.31-.22-5.91-.74-5.3C177.52,74.62,177.81,80.65,178.29,81.48Z"/><path class="cls-5" d="M198.89,81.23c-.37.55-.73.45-.44-2.28.14-1.28.69-5.77,1.16-5.17S199.43,80.42,198.89,81.23Z"/><path class="cls-4" d="M198.89,81.23c-.37.55-.73.45-.44-2.28.14-1.28.69-5.77,1.16-5.17S199.43,80.42,198.89,81.23Z"/><path class="cls-4" d="M170.78,69.34c1.05-2.32,4.8-3.17,7.33-2.31s3.72-.44,4.58-.36"/><path class="cls-4" d="M195.3,69.39a44.12,44.12,0,0,1,7.88.65,13.52,13.52,0,0,1,2.37.65"/><path class="cls-4" d="M180.28,242.41c-8.46-15.39-14.58-29.42-29.1-40.1a9.94,9.94,0,0,1-1.29-1.2"/><path class="cls-4" d="M242.76,197.89a72.8,72.8,0,0,0-5.94,10"/><path class="cls-3" d="M124.62,269.17c-3.38-2.06-3.88-2-7.16-4.51-4.11-3.19-17.35-5.64-16.31-14,.31-2.51,3.37-1-.28-5-.57-.63-1.05-4.17.06-5.25,0,0-3.53-4.91-1.29-8,1.54-2.14-4.25-4.91.78-12.63,2.3-3.52,3.53-3.8,6.8-5.59,4.39,1.77,16.4,31.68,18.54,36.37C126.68,252.53,121.29,258.79,124.62,269.17Z"/><path class="cls-4" d="M124.62,269.17c-3.38-2.06-3.88-2-7.16-4.51-4.11-3.19-17.35-5.64-16.31-14,.31-2.51,3.37-1-.28-5-.57-.63-1.05-4.17.06-5.25,0,0-3.53-4.91-1.29-8,1.54-2.14-4.25-4.91.78-12.63,2.3-3.52,3.53-3.8,6.8-5.59,4.39,1.77,16.4,31.68,18.54,36.37C126.68,252.53,121.29,258.79,124.62,269.17Z"/><path class="cls-4" d="M238.13,255.77s-7-2-9.37-2c-2.68,0-2.73-.51-5.43-.51"/><path class="cls-4" d="M124.62,269.17c2.62,2.88,22.42,11.5,24,10.2"/><path class="cls-4" d="M109.3,221.89c1.48.36,3.12,1.58,4,1.8"/><path class="cls-5" d="M250.92,172.73l-28.26-7L251.78,136c5.41-5.25,7.72-6.37,15.6-5.74.54,0,11.3,1.38,12.17,1.45,5.79.46,8.07.7,3.41,6.42Z"/><path class="cls-4" d="M250.92,172.73l-28.26-7L251.78,136c5.41-5.25,7.72-6.37,15.6-5.74.54,0,11.3,1.38,12.17,1.45,5.79.46,8.07.7,3.41,6.42Z"/><path class="cls-3" d="M206.58,188.72c8-14.73,4.89-19.4,8.27-25.14,5.14-8.73,12-10.18,23.82-9.92,3.48.07,6.17-1,9.54-1a2.93,2.93,0,0,1,1.13,3.81c-.75,1.9-3.19,3.39-6.52,4.54-.42.15,16.94-1.5,22-6.33,6.17-5.9,13.13-4.86,10.9-.78-.7,1.28,4.78,3.62-3.94,11.41-1.27,1.14-.45,6.16-8.6,9.65-.13.06-1.61,4.17-2.88,5.06-7.94,5.55-16.37,5.67-17.67,6.78s-1.61,3.37-2.71,6.23C238.34,197.09,206.24,189.36,206.58,188.72Z"/><path class="cls-4" d="M206.58,188.72c8-14.73,4.89-19.4,8.27-25.14,5.14-8.73,12-10.18,23.82-9.92,3.48.07,6.17-1,9.54-1a2.93,2.93,0,0,1,1.13,3.81c-.75,1.9-3.19,3.39-6.52,4.54-.42.15,16.94-1.5,22-6.33,6.17-5.9,13.13-4.86,10.9-.78-.7,1.28,4.78,3.62-3.94,11.41-1.27,1.14-.45,6.16-8.6,9.65-.13.06-1.61,4.17-2.88,5.06-7.94,5.55-16.37,5.67-17.67,6.78s-1.61,3.37-2.71,6.23C238.34,197.09,206.24,189.36,206.58,188.72Z"/><path class="cls-4" d="M244.59,160.8c-1.77.18-10.33,1.38-13.81,1.73a19.73,19.73,0,0,0-4,1"/><path class="cls-4" d="M276.17,153.57c-.34-.21-10.52,9.66-10.88,10-1.5,1.38-6.17,3.06-8.44,3.47-1.05.19-3.51.87-4.28.95"/><path class="cls-4" d="M272.51,164.59s-3.76,3.69-6,4.73c-4.36,2-9.76,4.3-14.55,4.72"/><path class="cls-4" d="M263.17,174.93a29.69,29.69,0,0,1-10.91,3.89"/><path class="cls-6" d="M240.29,150.77l15-15.46a13.11,13.11,0,0,1,10.81-3.44"/><path class="cls-1" d="M262.79,136.14h0c1.4.21,1.54,1.4.31,2.64l-3.63,3.68a6.44,6.44,0,0,1-4.76,1.87h0c-1.4-.21-1.54-1.4-.31-2.64L258,138a6.4,6.4,0,0,1,4.76-1.87"/><path class="cls-4" d="M272.92,354.32c-2.58-17.46-71.43-52.56-96.08-54.45-.69-.05-1.34-.07-2-.07-18.35,0-32.24,4.59-40.82,27.15-.15.38-15.82,39.58-17.52,47.89-.58,2.81-8.08,27.83-8.08,27.86"/><path class="cls-4" d="M169.3,409.3c2.35-5.33,28.46-54.38,29.53-54.6"/><path class="cls-4" d="M189.68,370.58c6.25-3.18,11-4.33,17-9.28"/><path class="cls-4" d="M189.68,370.58C213.85,359.43,237,369,250.44,387.7c1.72,2.37,11.2,19.65,12.33,22.8"/><path class="cls-4" d="M245.37,321.41c4.64,3.62,8.71,4.67,14.1,6.17a48,48,0,0,0,6,.73"/><path class="cls-4" d="M237.71,304c5,6.55,17,10.42,24.72,13.31l.29,0"/><path class="cls-4" d="M124.94,309c6.24-2.16,11.15-3.58,17.26-6.45"/><path class="cls-4" d="M120.45,332.2c4.14-1.18,10-3.07,13.34-5.7"/><path class="cls-4" d="M158.65,203.35c-.61-3.58-3.55-7.09-4.26-9.3"/><path class="cls-4" d="M165.86,161.4c9.23,6.93,22.23,7.16,33.25,5.25a1.5,1.5,0,0,0,.38-.15"/><path class="cls-4" d="M275.74,413.65C281.66,393,279,375.9,274.14,359a48.87,48.87,0,0,1-.61-6.58"/><path class="cls-4" d="M115.48,356.82c-3,5.4-4.29,25.77-3.54,32.6"/><path class="cls-7" d="M340.15,187H247.91c-1.71-2.8-6-6.87-9.3-7.29-5.71-.72-3.21,1-3,1.64,1.06,3.37.32,4.82-1.21,5.65h-1.09c-9.17,0-11.7,7.46-11.7,14.32v25.42a11.37,11.37,0,0,0,11.34,11.34H340.34a11.38,11.38,0,0,0,11.34-11.34V201.29C351.68,194.57,349.67,187,340.15,187Z"/><path class="cls-4" d="M340.15,187H247.91c-1.71-2.8-6-6.87-9.3-7.29-5.71-.72-3.21,1-3,1.64,1.06,3.37.32,4.82-1.21,5.65h-1.09c-9.17,0-11.7,7.46-11.7,14.32v25.42a11.37,11.37,0,0,0,11.34,11.34H340.34a11.38,11.38,0,0,0,11.34-11.34V201.29C351.68,194.57,349.67,187,340.15,187Z"/><line class="cls-8" x1="267.94" y1="222.19" x2="267.94" y2="212.63"/><line class="cls-8" x1="273.65" y1="222.19" x2="273.65" y2="214.05"/><line class="cls-8" x1="279.37" y1="222.19" x2="279.37" y2="215.46"/><line class="cls-8" x1="285.08" y1="222.19" x2="285.08" y2="216.87"/><line class="cls-8" x1="290.79" y1="222.19" x2="290.79" y2="217.01"/><line class="cls-9" x1="296.5" y1="222.19" x2="296.5" y2="218.07"/><line class="cls-9" x1="302.22" y1="222.19" x2="302.22" y2="220.05"/><line class="cls-9" x1="307.93" y1="222.19" x2="307.93" y2="218.13"/><line class="cls-9" x1="313.64" y1="222.19" x2="313.64" y2="212.93"/><line class="cls-9" x1="319.35" y1="222.19" x2="319.35" y2="206.59"/><line class="cls-9" x1="325.07" y1="222.19" x2="325.07" y2="202.85"/><line class="cls-9" x1="330.78" y1="222.19" x2="330.78" y2="206.22"/><line class="cls-9" x1="336.49" y1="222.19" x2="336.49" y2="211.74"/><path class="cls-9" d="M243.6,223.56a10.92,10.92,0,1,1,4.53-1"/><line class="cls-9" x1="241.3" y1="209.1" x2="241.3" y2="215.55"/><line class="cls-9" x1="246.17" y1="209.1" x2="246.17" y2="215.55"/><path class="cls-4" d="M104.19,233.64a4.58,4.58,0,0,1-1.72-1.12"/><path class="cls-4" d="M104.72,242.49c-.41-.1-2.09-.52-2.25-.9"/><path class="cls-4" d="M104.94,250.07l-1.72-.83"/><path class="cls-4" d="M244.82,169.89a2.61,2.61,0,0,0,2.1-.3"/><path class="cls-4" d="M244.67,175.67c1,.16,1.52.36,2.32-.23"/><path class="cls-4" d="M245.94,180.32c1.11,0,1.34.31,2.18-.3"/></svg>
