<svg id="Layer_1" data-name="Layer 1" xmlns="http://www.w3.org/2000/svg" viewBox="0 0 450 450"><defs><style>.cls-1{fill:#fefefe;}.cls-1,.cls-10,.cls-2,.cls-4,.cls-5,.cls-8,.cls-9{fill-rule:evenodd;}.cls-2{fill:#fac384;}.cls-12,.cls-3,.cls-6,.cls-7{fill:none;stroke-linecap:round;stroke-linejoin:round;}.cls-3,.cls-7{stroke:#000;}.cls-12,.cls-3,.cls-6{stroke-width:2.83px;}.cls-4{fill:#f63;}.cls-5{fill:#c28774;}.cls-6{stroke:#fefefe;}.cls-7{stroke-width:3.4px;}.cls-9{fill:#ffcc29;}.cls-10{fill:#f96;}.cls-11{fill:#3c6;}.cls-12{stroke:#4d4d4d;}</style></defs><title>Thech Peeps_Security</title><path class="cls-1" d="M128.58,190.45c-.08-.34,9.87-1.29,10.75-4.59,1.06-4,3.95-13.48,8.76-13.74,2.42-.14,37.35-1.73,38.43-.76,4.92,4.45,7.7,12.64,12.54,12.48,5.4-.17,2.74,5,2.92,9.3.34,7.88-10.27,27.48-17,32.2-9.43,6.61-41.57-13.63-47.28-22.26-1.34-2-9-12.1-9.1-12.63"/><path class="cls-2" d="M294.55,277.28c-.89-6.31-5-20.16-.15-23.26,6.27-4,8.24,20.32,7.35,21.12C300,276.68,294.61,277.69,294.55,277.28Z"/><path class="cls-3" d="M294.55,277.28c-.89-6.31-5-20.16-.15-23.26,6.27-4,8.24,20.32,7.35,21.12C300,276.68,294.61,277.69,294.55,277.28Z"/><path class="cls-4" d="M63.89,316.43c-2-25.49,2.4-87.22,14-103.82,4.3-6.14,43.46-21.83,46.6-17.82,14.6,18.69,25.16,34.58,49.09,42.34,18.22,5.91,21.52-16.24,30.11-28.49,3-4.26,8.39-22.45,14.16-20,21.41,9.08,41.56,8.5,45.31,39,2.57,20.93,2.23,39.95,1.13,58.07,9.6,4.29,51.2-3.8,55.59,2.79,1.2,1.82,23.89,11.13,26,20.73,1,4.42-14.44,13.9-16.77,13.83-10.21-.3-46.6,10.44-62.8,9.6-31-1.6-12.52,31.23-18.7,46.2-2.57,6.22,3.23,23.05-5.61,23.05-16,0-19.05,0-34.35,4.05-8.8,2.34-38.17-5.29-54.14,0-17.35,5.75-30.34-6.31-43.61-2.4-2.81.83-15.37,1.28-13.64-3.45,0-3.17-.25-53.51,0-53.45,4.23,1-11.35,4.05-20.23-5.1-10.75-11.07-12.19-7.59-12.19-25.1"/><path class="cls-5" d="M188,61.12c4.79-1.66,10.58,3.69,12.93,11.95s.38,16.29-4.41,18-10.58-3.68-12.94-11.94S183.19,62.79,188,61.12Z"/><path class="cls-3" d="M188,61.12c4.79-1.66,10.58,3.69,12.93,11.95s.38,16.29-4.41,18-10.58-3.68-12.94-11.94S183.19,62.79,188,61.12Z"/><path class="cls-2" d="M202.16,98.28c-1.69-14.32-1.81-23.07-20-38.07-21.24-17.56-57.51,6.08-49.12,41.11-11.53-1.25-7.9,22.06,1.95,16.61,2.32-1.28,1.8-3.15,2.78,1.63,2.18,10.57,6.05,22.22,7.35,32.17,1.54,11.72.34,21.45.51,29.43.14,6.47,9.36,11.76,19.54,12.93,2.79.32,8.52,15.28,10.67,13.74.75-.54,3.87-14.85,5.83-15.56a10.33,10.33,0,0,0,5.86-5.13c1.51-2.66-.38-25,.3-26.18a33.72,33.72,0,0,0,14.38-6.15c10.26-7.39,11.37-23.2,9.33-32.57C209.09,111,203,104.61,202.16,98.28Z"/><path class="cls-3" d="M202.16,98.28c-1.69-14.32-1.81-23.07-20-38.07-21.24-17.56-57.51,6.08-49.12,41.11-11.53-1.25-7.9,22.06,1.95,16.61,2.32-1.28,1.8-3.15,2.78,1.63,2.18,10.57,6.05,22.22,7.35,32.17,1.54,11.72.34,21.45.51,29.43.14,6.47,9.36,11.76,19.54,12.93,2.79.32,8.52,15.28,10.67,13.74.75-.54,3.87-14.85,5.83-15.56a10.33,10.33,0,0,0,5.86-5.13c1.51-2.66-.38-25,.3-26.18a33.72,33.72,0,0,0,14.38-6.15c10.26-7.39,11.37-23.2,9.33-32.57C209.09,111,203,104.61,202.16,98.28Z"/><path class="cls-3" d="M199.57,156.54c-6.61,5-16.29,5.44-25.07,3.51"/><path class="cls-1" d="M185.38,132c5.48,2,9.83-.91,14.52-3.27,1.3-.65,1.86,6.84-2.52,8.54C189.27,140.43,185,131.88,185.38,132Z"/><path class="cls-6" d="M185.38,132c5.48,2,9.83-.91,14.52-3.27,1.3-.65,1.86,6.84-2.52,8.54C189.27,140.43,185,131.88,185.38,132Z"/><path class="cls-3" d="M201.14,127.09c-6.15.14-8.89,5.68-16.37,4.27"/><path class="cls-5" d="M175,70c-13.84,2.4-11.17,10.53-26.94,11.31-.26,0-5.19,3.26-3.87,7.85,2,6.79,9.79,17.89,8.32,18-.53.06-10.15,4.91-10.41,3.9-3.52-13.77-9.59-7.28-11.83-10.31-5.49-7.42-10.66-22-9.58-29.38,2.75-18.74,68.26-45.06,71.22-11C192.06,61.74,193.73,66.73,175,70Z"/><path class="cls-3" d="M175,70c-13.84,2.4-11.17,10.53-26.94,11.31-.26,0-5.19,3.26-3.87,7.85,2,6.79,9.79,17.89,8.32,18-.53.06-10.15,4.91-10.41,3.9-3.52-13.77-9.59-7.28-11.83-10.31-5.49-7.42-10.66-22-9.58-29.38,2.75-18.74,68.26-45.06,71.22-11C192.06,61.74,193.73,66.73,175,70Z"/><path class="cls-3" d="M130.86,107.3c1.76-.07,4.13,1,4.36,3"/><path class="cls-7" d="M174.44,88.07c-2.24,0-12.13,3-12.89,3.73"/><path class="cls-7" d="M189.73,87a69,69,0,0,1,9.43.33l.29,0"/><path class="cls-3" d="M145.21,171.83c-3.38,2.39-8.3,16.26-6.22,20.62,4.53,9.51,21.77,26.44,30.27,23.36,5.2-1.9,5-9.89,10.19-5.55,7,5.86,7.14,1.63,12.67-5.7a21.37,21.37,0,0,0,3.46-19.9c-1-3.26-3.22-8.29-5.49-10.48-.83-.8-.65-1.73-2.15-1.83"/><path class="cls-3" d="M138,187.92c-9.65,1.08-57,21.8-57.21,21.81-20.93,16.64-14.07,97.75-15.57,115.11-.87,10.08,13,18.55,19.2,22.67,1.72,1.15,81.56-17,85.73-18.68,7.09-2.81,29.31-4.36,28.21-12.25,0-.22-8-5.58-8.37-11.35s-2.32-14.18,2-20.23c0-.07,1.16-4.78-3.41-4-17.27,2.93-69.72,13.4-91.45,18.68l-.75.08"/><path class="cls-3" d="M197.49,183.85c6.3.33,59,16,59.66,24.54.19,2.47,2.83,5.6,3.8,9.1,6.27,22.71,3.25,47.29,5.21,65.69.25,2.36-.34,1.56-.07,3.83,21.75,1.8,49.33-8.64,71.39-1.52"/><path class="cls-3" d="M265.27,284.21c-2.89-1-9.67.49-12.59,1.26"/><path class="cls-3" d="M266.09,287c-4.48,1.8-5.89,1.94-9.78,5.16"/><path class="cls-3" d="M185.28,210.87c-1-2.39-.4-11.28-2.54-13.86"/><path class="cls-3" d="M169.26,215.81c0-.06-5.54-16.88-4.48-17.54"/><path class="cls-3" d="M247.63,395.14a11.08,11.08,0,0,1-.13-2c.95-23.2.91-108.57-2.26-138.94a99.85,99.85,0,0,0,4.52-12.48"/><path class="cls-3" d="M245.09,255.67c-.7-6-1.13-6.66-.8-13"/><path class="cls-3" d="M346.86,307.23C343,317,329,323.09,319.55,324.33c-19.29,2.54-33,5.38-51.64,8.94-5.38,1-13.11,1.69-18.79,2.44"/><path class="cls-3" d="M251.35,210.19c-3.38,3.21-6.54,9.35-7.76,13.77"/><path class="cls-3" d="M94.12,229.17c-.65-3-7.28-13.15-10.08-13.81"/><path class="cls-3" d="M105.26,296.14c-1.62-.81-6-2.73-7.76-2.91"/><path class="cls-3" d="M95.63,395C95,384.4,95,356.2,96,346.56"/><path class="cls-3" d="M197.61,111.63c-.18-6.34-7.3-6.11-11.42-2.21"/><path class="cls-8" d="M177.63,107.37c-.15.61-.51.62-1.13-1.92-.29-1.19-1.26-5.39-.64-5S177.85,106.49,177.63,107.37Z"/><path class="cls-3" d="M177.63,107.37c-.15.61-.51.62-1.13-1.92-.29-1.19-1.26-5.39-.64-5S177.85,106.49,177.63,107.37Z"/><path class="cls-8" d="M193.92,103.77c-.16.59-.51.6-1.12-1.88-.29-1.16-1.25-5.27-.63-4.88S194.14,102.9,193.92,103.77Z"/><path class="cls-3" d="M193.92,103.77c-.16.59-.51.6-1.12-1.88-.29-1.16-1.25-5.27-.63-4.88S194.14,102.9,193.92,103.77Z"/><path class="cls-3" d="M151.5,81c-.87-.3-4.13-.15-6.2-.6S138.08,79,136,79.49"/><path class="cls-3" d="M107.9,296.59c-.63-11.51.48-22.09-.49-33.73-.32-3.86.44-12.17.33-13.8"/><path class="cls-9" d="M229.58,265.55c5.09-5.89,13.53-4.87,16.44-.87.28.38,14.56-7.47,25.28-12.63,6.44-3.1,8-5.16,9.08-2.49.25.41,1.49,2.65,1.14,3.07-1.78,2.2-4,2.36-3.65,3.23a42.67,42.67,0,0,0,2.72,4.62c2.55,4-2.62,1.2-3.61,3.89a1.72,1.72,0,0,1-3.25.31c-1-1.65-2.8-5.47-3.2-5.19s-21.16,10.11-20.9,10.74c3.27,8.21-4.88,14.84-12.42,14.87C226.92,285.14,224.14,271.85,229.58,265.55Z"/><path class="cls-3" d="M229.58,265.55c5.09-5.89,13.53-4.87,16.44-.87.28.38,14.56-7.47,25.28-12.63,6.44-3.1,8-5.16,9.08-2.49.25.41,1.49,2.65,1.14,3.07-1.78,2.2-4,2.36-3.65,3.23a42.67,42.67,0,0,0,2.72,4.62c2.55,4-2.62,1.2-3.61,3.89a1.72,1.72,0,0,1-3.25.31c-1-1.65-2.8-5.47-3.2-5.19s-21.16,10.11-20.9,10.74c3.27,8.21-4.88,14.84-12.42,14.87C226.92,285.14,224.14,271.85,229.58,265.55Z"/><path class="cls-2" d="M189.86,281.64c3.48-.22,10.15-4.71,14.15-8.31,6.47-5.81,11-10.9,21.75-3.88,1.31.85,3.53.51,6-.13,6.77-1.75,13.08-2,11.24,7.32-1,5.14-11.44,5.08-3.63,4.93,4.18-.08,1,9.32-2,10.34,4.4,5.72.15,8.87-2.12,9.5-2.5.7,4.67,5.43-4.33,9.08-3.42,1.38-10.17,2.73-18.05,4.56-3.71.87-15.19,2.64-18.3.69C181.66,307.67,180.59,282.22,189.86,281.64Z"/><path class="cls-3" d="M189.86,281.64c3.48-.22,10.15-4.71,14.15-8.31,6.47-5.81,11-10.9,21.75-3.88,1.31.85,3.53.51,6-.13,6.77-1.75,13.08-2,11.24,7.32-1,5.14-11.44,5.08-3.63,4.93,4.18-.08,1,9.32-2,10.34,4.4,5.72.15,8.87-2.12,9.5-2.5.7,4.67,5.43-4.33,9.08-3.42,1.38-10.17,2.73-18.05,4.56-3.71.87-15.19,2.64-18.3.69C181.66,307.67,180.59,282.22,189.86,281.64Z"/><line class="cls-3" x1="229.82" y1="269.76" x2="216.62" y2="273.92"/><path class="cls-3" d="M225.63,282.85a8,8,0,0,1,3.06-.25"/><path class="cls-3" d="M226,292.36c2.58-.49,2-.65,3.8.08"/><line class="cls-3" x1="226.21" y1="302.28" x2="227.78" y2="302.03"/><path class="cls-10" d="M129,190.37c-1.49.19-10.94,2.58-10.18,4.12C131,219,156.48,236,183.59,238.69c6,.6,13.74-9.08,17.14-13.68,10.07-13.63,9-25.18,12.2-37.47-1.42-1-8.92-2.43-9.9-2.66l-.08.53c-.29,2.67-.33,4.79-.77,7.62-1.5,9.5-2.8,16.1-8.88,24.11-4.38,5.78-8.71,8.8-11.15,9.72-1.54.57-8.41-.24-15.12-2.78-6.94-2.63-13.84-6.23-19.32-11.36C142.09,207.44,131,197.78,129,190.37Z"/><path class="cls-3" d="M129,190.37c-1.49.19-10.94,2.58-10.18,4.12C131,219,156.48,236,183.59,238.69c6,.6,13.74-9.08,17.14-13.68,10.07-13.63,9-25.18,12.2-37.47-1.42-1-8.92-2.43-9.9-2.66l-.08.53c-.29,2.67-.33,4.79-.77,7.62-1.5,9.5-2.8,16.1-8.88,24.11-4.38,5.78-8.71,8.8-11.15,9.72-1.54.57-8.41-.24-15.12-2.78-6.94-2.63-13.84-6.23-19.32-11.36C142.09,207.44,131,197.78,129,190.37Z"/><path class="cls-3" d="M185.24,238.61c-.09-.27-2.58-10.94-2.51-11.7"/><path class="cls-3" d="M176.28,209.06c-.08.49,2.16,9.21,2.05,11.57a31.39,31.39,0,0,0,.76,4.31"/><rect class="cls-11" x="208.77" y="167.95" width="176.39" height="39.75" rx="19.88" ry="19.88"/><rect class="cls-3" x="208.77" y="167.95" width="176.39" height="39.75" rx="19.88" ry="19.88"/><line class="cls-6" x1="225.9" y1="183.72" x2="233.3" y2="191.12"/><line class="cls-6" x1="224.37" y1="187.42" x2="234.83" y2="187.42"/><line class="cls-6" x1="233.3" y1="183.72" x2="225.9" y2="191.12"/><line class="cls-6" x1="229.6" y1="182.19" x2="229.6" y2="192.65"/><line class="cls-6" x1="242.37" y1="187.42" x2="252.83" y2="187.42"/><line class="cls-6" x1="243.9" y1="191.12" x2="251.3" y2="183.72"/><line class="cls-6" x1="247.6" y1="182.19" x2="247.6" y2="192.65"/><line class="cls-6" x1="243.9" y1="183.72" x2="251.3" y2="191.12"/><line class="cls-6" x1="261.89" y1="191.12" x2="269.29" y2="183.72"/><line class="cls-6" x1="265.59" y1="192.65" x2="265.59" y2="182.19"/><line class="cls-6" x1="261.89" y1="183.72" x2="269.29" y2="191.12"/><line class="cls-6" x1="260.36" y1="187.42" x2="270.82" y2="187.42"/><line class="cls-6" x1="298.46" y1="191.12" x2="305.86" y2="183.72"/><line class="cls-6" x1="302.16" y1="192.65" x2="302.16" y2="182.19"/><line class="cls-6" x1="298.46" y1="183.72" x2="305.86" y2="191.12"/><line class="cls-6" x1="296.93" y1="187.42" x2="307.39" y2="187.42"/><line class="cls-6" x1="283.59" y1="192.65" x2="283.59" y2="182.19"/><line class="cls-6" x1="287.29" y1="191.12" x2="279.89" y2="183.72"/><line class="cls-6" x1="278.36" y1="187.42" x2="288.82" y2="187.42"/><line class="cls-6" x1="279.89" y1="191.12" x2="287.29" y2="183.72"/><line class="cls-6" x1="320.16" y1="192.65" x2="320.16" y2="182.19"/><line class="cls-6" x1="323.86" y1="191.12" x2="316.46" y2="183.72"/><line class="cls-6" x1="314.93" y1="187.42" x2="325.39" y2="187.42"/><line class="cls-6" x1="316.46" y1="191.12" x2="323.86" y2="183.72"/><polyline class="cls-6" points="352.55 188.4 359 195 370.1 180.45"/><line class="cls-3" x1="167.67" y1="290.2" x2="182.9" y2="287.65"/><path class="cls-3" d="M182.92,295.5l-8.18,1.11c-2.73.37-5.08,1.32-7.87,1.89"/><line class="cls-3" x1="183.74" y1="302.03" x2="170.09" y2="305.18"/><path class="cls-3" d="M184.61,310.42c-3.63,1-9.32,3-13.5,3.6"/><path class="cls-3" d="M191.39,314.55c-5.15,1.93-9.52,3.73-13.12,4.73"/><path class="cls-8" d="M347.29,239.13c3.08-8.82.12-12.33-7.83-11-3.73.61-16.2,2.89-19.73,3.77-8.83,2.21-11.67,1.55-14.19,8.61-4,11.19-17.37,59.82-19.29,65.68-1,3.08-2.09,9.7,6.23,9.62,2.23,0,14.49-1.18,21.23-2,9.53-1.16,13.2-3.86,16-13.18C336.39,278.21,343.81,249.1,347.29,239.13Z"/><path class="cls-3" d="M347.29,239.13c3.08-8.82.12-12.33-7.83-11-3.73.61-16.2,2.89-19.73,3.77-8.83,2.21-11.67,1.55-14.19,8.61-4,11.19-17.37,59.82-19.29,65.68-1,3.08-2.09,9.7,6.23,9.62,2.23,0,14.49-1.18,21.23-2,9.53-1.16,13.2-3.86,16-13.18C336.39,278.21,343.81,249.1,347.29,239.13Z"/><path class="cls-1" d="M314.91,277.39l-7,1.16,6-11.93c-1.75-1.67.68-5,2.73-5.27s3.58,1.87,1.17,4.59a4,4,0,0,1-.56.52Z"/><path class="cls-12" d="M344.33,229.25c1.58,2.16-.56,7.18-1.6,10.72l-9.89,33.51"/><path class="cls-12" d="M302.44,310.88l12.3-1.39c7.32-1.22,8.48-3.35,10.8-9.66"/><path class="cls-2" d="M345.36,308.34c3.61-3.33,10-17.1,11.56-21.74,4.51-13.73,9.46-27-9.84-38.46-1.9-1.13-5.4-1.63-8.93-1.6-7.59.06-12.35,1.15-10.5,5.65s10.18,3.3,8.63,3.29c-2.48,0-12.8.46-12.78,2.88.07,7.95,8.48,5.89,9.16,6.16,0,0-6.4-.37-9.93,1-1.68.66-.73,6.6,1.57,7.16s5.87.44,7.74.6,2.18.5-.31.14c-2.23-.32-7.86-.11-8.29,1.38-1.15,3.95.72,6,8.67,8.14a3.78,3.78,0,0,1,2.33,3.31c0,3.59-4.33,11-2.38,16C334.35,308.17,337.78,309.17,345.36,308.34Z"/><path class="cls-3" d="M345.36,308.34c3.61-3.33,10-17.1,11.56-21.74,4.51-13.73,9.46-27-9.84-38.46-1.9-1.13-5.4-1.63-8.93-1.6-7.59.06-12.35,1.15-10.5,5.65s10.18,3.3,8.63,3.29c-2.48,0-12.8.46-12.78,2.88.07,7.95,8.48,5.89,9.16,6.16,0,0-6.4-.37-9.93,1-1.68.66-.73,6.6,1.57,7.16s5.87.44,7.74.6,2.18.5-.31.14c-2.23-.32-7.86-.11-8.29,1.38-1.15,3.95.72,6,8.67,8.14a3.78,3.78,0,0,1,2.33,3.31c0,3.59-4.33,11-2.38,16C334.35,308.17,337.78,309.17,345.36,308.34Z"/><path class="cls-3" d="M335.82,255.61c3.43-.33,8.49.84,10.22,3.4,0,0,1.78,1.86,2,2"/><path class="cls-3" d="M332.66,264.52c8-.22,4.23-.69,10.55,3.33.24.15,1.94,1.72,2.31,2.13"/><path class="cls-3" d="M332.45,273.38a13,13,0,0,1,7.67,3c.44.42,1.73,2.21,2,2.25"/><path class="cls-3" d="M352.76,265.05c2.29,1.67,2.4,1.29,2.4,3.48"/><path class="cls-3" d="M350.36,272.58c2.53,3.18,1.33,1.32,1.33,3.31"/><line class="cls-3" x1="345.65" y1="283.08" x2="346.56" y2="285.31"/><line class="cls-3" x1="334.4" y1="284.36" x2="338.49" y2="288.21"/><path class="cls-3" d="M333.81,305.86s-7,6.43-8.74,6.08"/><path class="cls-3" d="M337,311.55c-.57.53-4.17,3.27-4.8,3.23"/></svg>
