<svg id="Layer_1" data-name="Layer 1" xmlns="http://www.w3.org/2000/svg" viewBox="0 0 450 450"><defs><style>.cls-1{fill:#cfc;}.cls-1,.cls-2,.cls-4,.cls-5,.cls-7,.cls-8,.cls-9{fill-rule:evenodd;}.cls-2{fill:#f60;}.cls-10,.cls-3,.cls-6{fill:none;stroke-linecap:round;stroke-linejoin:round;}.cls-3{stroke:#000;stroke-width:2.83px;}.cls-4{fill:#fac384;}.cls-6{stroke:#f60;}.cls-10,.cls-6{stroke-width:3.4px;}.cls-7{fill:#f9c;}.cls-8{fill:#fefefe;}.cls-9{fill:#ffcc29;}.cls-10{stroke:#fc0;}</style></defs><title>Thech Peeps_Selfie</title><path class="cls-1" d="M213.07,386c4.12,7.4,42,9.31,51.49,11.34,8.69,1.85,41.59,1.35,47.9-3.53.81-.62,14.65-8.7,15-8.7,2.14,2.88,15.84,42,12.9,43.28C327.13,434.11,290,424.13,275,427c-5.89,1.13-32.4,2.47-39.5,2.47-3.68,0-36.56-.2-36.81.21,1.32-1.59,3.88-34.47,14.37-43.72"/><path class="cls-2" d="M247.83,113.88c-2-2.86-8.67-11.91-12.32-10.42-18.09,7.39-7.86,18.91-26,26.88-16.33,7.15,3.66,20.24-21.34,27.15-18.59,5.14-3.65,22.3-17.95,32.4-9.53,6.74,2.87,14.45,7.41,19.47,7.25,8,38,21.61,49.68,12.12,20-16.34,29.68-41.59,33.93-64.32,3.82-20.46,6.68-31.53-7.66-44.87C245.07,104.42,249.46,116.15,247.83,113.88Z"/><path class="cls-3" d="M247.83,113.88c-2-2.86-8.67-11.91-12.32-10.42-18.09,7.39-7.86,18.91-26,26.88-16.33,7.15,3.66,20.24-21.34,27.15-18.59,5.14-3.65,22.3-17.95,32.4-9.53,6.74,2.87,14.45,7.41,19.47,7.25,8,38,21.61,49.68,12.12,20-16.34,29.68-41.59,33.93-64.32,3.82-20.46,6.68-31.53-7.66-44.87C245.07,104.42,249.46,116.15,247.83,113.88Z"/><path class="cls-4" d="M213.07,385.4c-4.11,6.44,56.91,11.91,59.78,11.87,14.16-.2,35,.44,47.47-7.29,12.89-8-6.85-29.17-11-45.76-1.19-4.77-12.34-.69-18-.79-16.82-.28-46.21,7.38-61.37,4.57-3.64-.67-14.38-2.61-15.46-4C217.26,359.85,213.07,375.54,213.07,385.4Z"/><path class="cls-3" d="M213.07,385.4c-4.11,6.44,56.91,11.91,59.78,11.87,14.16-.2,35,.44,47.47-7.29,12.89-8-6.85-29.17-11-45.76-1.19-4.77-12.34-.69-18-.79-16.82-.28-46.21,7.38-61.37,4.57-3.64-.67-14.38-2.61-15.46-4C217.26,359.85,213.07,375.54,213.07,385.4Z"/><path class="cls-4" d="M175.55,195.17c-11.19-7.22-46.13-38.86-47.2-42.92-5.36-20.35-18-48.63-26.19-70.27-1.68-4.47,10.21-13.27,6.36-26.22C98.6,67.37,78.38,81.83,82.9,97.9c.39,1.4,6.34,26.65,10.33,39.44,4.83,15.51,9.82,32.7,15.5,38.83,15.42,16.65,43.09,50.22,56,55.32C165.72,225.67,186.7,203,175.55,195.17Z"/><path class="cls-3" d="M175.55,195.17c-11.19-7.22-46.13-38.86-47.2-42.92-5.36-20.35-18-48.63-26.19-70.27-1.68-4.47,10.21-13.27,6.36-26.22C98.6,67.37,78.38,81.83,82.9,97.9c.39,1.4,6.34,26.65,10.33,39.44,4.83,15.51,9.82,32.7,15.5,38.83,15.42,16.65,43.09,50.22,56,55.32C165.72,225.67,186.7,203,175.55,195.17Z"/><path class="cls-5" d="M105.57,23.37,111,39.44c1.34,4,.21,11.3-2.5,16.32l-26.88,49.6c-2.71,5-6,5.88-7.37,1.92L68.82,91.2c-1.34-4-.22-11.3,2.5-16.31L98.19,25.28C100.91,20.27,104.23,19.41,105.57,23.37Z"/><path class="cls-3" d="M105.57,23.37,111,39.44c1.34,4,.21,11.3-2.5,16.32l-26.88,49.6c-2.71,5-6,5.88-7.37,1.92L68.82,91.2c-1.34-4-.22-11.3,2.5-16.31L98.19,25.28C100.91,20.27,104.23,19.41,105.57,23.37Z"/><path class="cls-4" d="M92.35,34c-.95-1.14-6.86-2.22-7.85,2.24-.25,1.17-1.63,5.51-2.53,5.88-4.42,1.81-1.08,4.25-5.14,6-2.75,1.19-1.82,7-3,7.5C69.38,57.4,70.16,69,69.27,73.06c-1,4.53,5.12,8.52,8.06,11.31A5.23,5.23,0,0,0,80.56,86c3,.57,3.44-3.75,3.44-3.75,6.79.28,4.5-5.66,4.76-5.72,4.74-1,3.93-8.18,3.93-8.18,7.55-6-2.2-10.14-1.9-15,.4-6.53-4-9.89-.45-14.7C90.84,38,92.7,34.42,92.35,34Z"/><path class="cls-3" d="M92.35,34c-.95-1.14-6.86-2.22-7.85,2.24-.25,1.17-1.63,5.51-2.53,5.88-4.42,1.81-1.08,4.25-5.14,6-2.75,1.19-1.82,7-3,7.5C69.38,57.4,70.16,69,69.27,73.06c-1,4.53,5.12,8.52,8.06,11.31A5.23,5.23,0,0,0,80.56,86c3,.57,3.44-3.75,3.44-3.75,6.79.28,4.5-5.66,4.76-5.72,4.74-1,3.93-8.18,3.93-8.18,7.55-6-2.2-10.14-1.9-15,.4-6.53-4-9.89-.45-14.7C90.84,38,92.7,34.42,92.35,34Z"/><path class="cls-4" d="M234.78,189.46c-20.43-2.84-21.7-16.66-19.93-26.09-.17-.13-.47-.22-1.08-.56a3,3,0,0,0-.6,0c-1.39.58-3.74.53-3.9-1.34-.49-5.64,4.46-4.23,3.48-7.91-.68-2.52,1.13-4.77,3.05-3.95,2.75,1.18,1.45,3.38,3,2.06,3.78-8.38,4.26-5.06,3.4-8.7-2.62-11,4.59-10.92,6.2-8.19.86,1.47,4.65-24.68,13.94-31.76,24.94-8,37.63-9.85,50.54,17.2,13.6,28.49-2,51.73-19,76.91-1.42,2.12-3.21,20-3.21,22.31,0,53.25-33.66,45.17-40.26-5.74C230.36,213,234.59,190.2,234.78,189.46Z"/><path class="cls-3" d="M234.78,189.46c-20.43-2.84-21.7-16.66-19.93-26.09-.17-.13-.47-.22-1.08-.56a3,3,0,0,0-.6,0c-1.39.58-3.74.53-3.9-1.34-.49-5.64,4.46-4.23,3.48-7.91-.68-2.52,1.13-4.77,3.05-3.95,2.75,1.18,1.45,3.38,3,2.06,3.78-8.38,4.26-5.06,3.4-8.7-2.62-11,4.59-10.92,6.2-8.19.86,1.47,4.65-24.68,13.94-31.76,24.94-8,37.63-9.85,50.54,17.2,13.6,28.49-2,51.73-19,76.91-1.42,2.12-3.21,20-3.21,22.31,0,53.25-33.66,45.17-40.26-5.74C230.36,213,234.59,190.2,234.78,189.46Z"/><path class="cls-2" d="M247.83,113.88c6.07,1.9,12.81,3.38,13,9.64.62,17.75.89,15.26,11.73,25.47,10.09,9.5-9.48,12.41.76,28.46,11.11,17.42-17,15.69.38,40.65,2.79,4,81.74-9.9,81.74-9.9,16.54-4.85,18.57-26.42,5.83-36.7-4.78-3.86-10.19-6.72-9.49-21.28.9-18.81-19-8.79-21.38-27.95-2.19-17.8-18.23-5.72-22.94-16.83-9-21.17-17.71-8.08-28.33-13.67C239.88,71.07,220.45,105.28,247.83,113.88Z"/><path class="cls-3" d="M247.83,113.88c6.07,1.9,12.81,3.38,13,9.64.62,17.75.89,15.26,11.73,25.47,10.09,9.5-9.48,12.41.76,28.46,11.11,17.42-17,15.69.38,40.65,2.79,4,81.74-9.9,81.74-9.9,16.54-4.85,18.57-26.42,5.83-36.7-4.78-3.86-10.19-6.72-9.49-21.28.9-18.81-19-8.79-21.38-27.95-2.19-17.8-18.23-5.72-22.94-16.83-9-21.17-17.71-8.08-28.33-13.67C239.88,71.07,220.45,105.28,247.83,113.88Z"/><path class="cls-3" d="M233.76,189.3c3.47-.29,10,.46,18.46-6.25l.21-.14"/><path class="cls-5" d="M233.5,136.82c.06.65.43.73,1.51-1.76.51-1.17,2.24-5.31,1.53-5C235.65,130.43,233.42,135.88,233.5,136.82Z"/><path class="cls-3" d="M233.5,136.82c.06.65.43.73,1.51-1.76.51-1.17,2.24-5.31,1.53-5C235.65,130.43,233.42,135.88,233.5,136.82Z"/><path class="cls-6" d="M249.11,128.42c-1-1.23-.67-2.52-2.12-3.75-3.05-2.6-8.14,2.1-8.91-2.69"/><path class="cls-1" d="M342.09,297.21c3.46-1.87-19.94-69.93-33.12-78-9-5.52-34.94-7.29-37.23-4.2s1.87,37-14.64,30.34c-7.49-3-9.91-7.8-14.39-14.14-5.25-7.44-11.53-16.58-12.26-17.52-5.71-5.85-18.63-2.39-29.33-8.34-2.2-1.23-33.48-21.73-34.69-19.88-5.3,8.1-14.87,29.15-20,38.84-6.61,12.57-4.8,7.51,11.15,19.5,5.44,4.09,23.94,16.81,25.06,21.84,2.27,10.23,9.27,30,10.43,45.74.18,2.51,1.51,16.25,1.51,17.87-.21,4.81,9.25,12.44,36.08,17.23,32.29,5.77,60.06,4.92,91.54-5.05,3.17-1-8.94-27-6.4-28.69,1.91-1.26,4.54-2.12,6.25-7.87C322.57,303.29,328.43,304.59,342.09,297.21Z"/><path class="cls-3" d="M342.09,297.21c3.46-1.87-19.94-69.93-33.12-78-9-5.52-34.94-7.29-37.23-4.2s1.87,37-14.64,30.34c-7.49-3-9.91-7.8-14.39-14.14-5.25-7.44-11.53-16.58-12.26-17.52-5.71-5.85-18.63-2.39-29.33-8.34-2.2-1.23-33.48-21.73-34.69-19.88-5.3,8.1-14.87,29.15-20,38.84-6.61,12.57-4.8,7.51,11.15,19.5,5.44,4.09,23.94,16.81,25.06,21.84,2.27,10.23,9.27,30,10.43,45.74.18,2.51,1.51,16.25,1.51,17.87-.21,4.81,9.25,12.44,36.08,17.23,32.29,5.77,60.06,4.92,91.54-5.05,3.17-1-8.94-27-6.4-28.69,1.91-1.26,4.54-2.12,6.25-7.87C322.57,303.29,328.43,304.59,342.09,297.21Z"/><path class="cls-3" d="M213.07,385.4c-10.49,9.26-13,42.14-14.37,43.72"/><path class="cls-3" d="M324.19,377.53c8.21,16.48,14.75,41.91,17.55,49.72"/><path class="cls-3" d="M212.69,300.37c3.46,8.71,19,16.45,28.8,15.87"/><path class="cls-3" d="M304.09,316.52c7.31,0,13.68-2.53,17.36-10.14,1.82-3.74,1.07-7.78-.1-12.84"/><path class="cls-3" d="M281.16,372.81c0,.2.7,9.36,2.39,6.58a.77.77,0,0,0,.1-.49"/><path class="cls-5" d="M274.73,122.64c.48,2.88.35,5.73-2.23,7.64a3,3,0,0,1-2.38-4.29c-.92-5.58-11.06-42.32-12.35-42.66l7-2.38Z"/><path class="cls-3" d="M274.73,122.64c.48,2.88.35,5.73-2.23,7.64a3,3,0,0,1-2.38-4.29c-.92-5.58-11.06-42.32-12.35-42.66l7-2.38Z"/><line class="cls-3" x1="247.9" y1="86.12" x2="270.54" y2="78.11"/><path class="cls-3" d="M267.17,125.11c6.31,19.82,29.39,11.18,24.07,35.5-.76,3.52-1.19,8.25,3.53,10.7"/><path class="cls-3" d="M289.52,124.06c5.47,6,14.79,3.38,14.75,13.37,0,10.39,11.64,6.07,16.77,13.91,6.27,9.6-3.35,12,2,23.31"/><path class="cls-3" d="M296.87,111c5.93,12.21,14.81,5.95,20.38,12.37,4.48,5.15,1.21,8.6,5.12,12.68"/><path class="cls-3" d="M333,146.41c6.55,4.11,4.78,9.39,4.06,17.25-.79,8.64,6.15,9,9.44,18.6"/><path class="cls-3" d="M295.52,203.26c-2.79-10.43,7.06-12.29,4.06-22.38"/><path class="cls-3" d="M190.89,187.73c4.25-5.43-3.64-14.38,14.27-19.55,3.54-1,7.06-2.85,8-5.36"/><path class="cls-3" d="M205.44,193.28c2.44-3.33,1.05-6.81,4-11,2.07-2.94,6.31-2.45,6.47-3.44"/><path class="cls-3" d="M325.82,196.81c-3.47-8.64.44-9.08-1.05-14.85"/><path class="cls-3" d="M253.67,98.86c7.84,7,21,3.61,27.75,14.55"/><path class="cls-3" d="M298.43,250c4.89,13.17,3.79,11.82,12,23.65.67,1,5.25,6.85,5.55,7.7"/><path class="cls-3" d="M92.69,68.3c-3.17-.45-3.61-2.59-5.59-4.94-4.89-5.8-3.66-4.62-5.37-12.64"/><path class="cls-3" d="M89.33,76.48c-2.44-1.35-4.93-4.51-7.8-7.17-5.28-4.88-3.72-4.83-5-10.5l-.13-.44"/><path class="cls-3" d="M84.32,82c-3.8-3.83-7.63-6.63-10.08-11.83"/><path class="cls-3" d="M117.28,160.67c.41-.33,6.74-4.91,6.75-4.95"/><path class="cls-3" d="M204.42,206.9c19,15.68-16.3,100.65-24.44,123"/><path class="cls-3" d="M166.64,250.45c-3.71,4.38-23.37,40.31-25.06,45.22"/><path class="cls-7" d="M130.78,293.72c9.67-1.45,1.44,1.44,5.1,3.1,2.72,1.23,3.11-2.35,3.57,2.37s4.82-2.91,9,5.78c1.81,3.76.46-4.08,4.11,4.95,1.88,4.67,3.46-.84,4.72,3.75.81,2.95,4.1-3.36,7,4.28,2.49,6.5,4.4-.43,5.81,5,.72,2.82,7.16,1.66,11.17,8.78.72,1.27,4.09,3.58,2.68,3.87-.92,2.65,2.13.83.6,4.12-.68,1.45.78,3.59,0,5.13s-.23,9.51-3.65,13.5c-6.73,7.83,5.72,11.33-13.48,26-5,3.8-6.06,2.2-12.4,2.2-10.68,0-7.43-8.46-13.65-9-10.24-.89-.38-3.55-9.45-6.5-2.89-.94.81-2.38-6.93-5.25-2.39-.89,1.89-2.1-8-5.75-2.06-.76.54-3.36-6.17-8.4-1.3-1,.73-1.22-2.88-4.3-.91-.77.1-4.5-6.87-6.32-5.82-1.53-5.27-4.46-4-9.43,1.47-6,4.88-2.05,5.3-6,.37-3.46,7.83-.25,7.83-9.57,3.68.23,1.32-4.44,4.13-6.45,11.6-8.33.46-7,13.59-13.73.65-.33,2.08-2,3-2.17"/><path class="cls-3" d="M178.48,336.47c4.57,7.42,3.64,13.63,3.91,19.36"/><path class="cls-3" d="M175.91,355.66c.72,9.83,0,9.78,0,18.76"/><path class="cls-3" d="M167.23,370.07c0,1.52-.41,12.38-2.84,16.19"/><line class="cls-3" x1="155.53" y1="371.42" x2="148.48" y2="387.32"/><path class="cls-3" d="M113.68,324.17c-6.66,0-11.94,1.7-17.86,4.35"/><path class="cls-3" d="M123.43,313.82c-12.42.59-8.88.16-17.82,2.66a1,1,0,0,1-.48,0"/><path class="cls-3" d="M127.78,305.12c-6.62.16-9.76-.23-15.3,1.2"/><path class="cls-3" d="M141,304.82s-6.54-11.46-7.64-11.43"/><line class="cls-3" x1="149.38" y1="311.27" x2="149.53" y2="301.37"/><path class="cls-3" d="M155.43,314.92s2.35-6.41,2.4-7.2"/><line class="cls-3" x1="161.68" y1="321.32" x2="165.73" y2="316.07"/><path class="cls-3" d="M167.83,326.42c2.71-1.95,8.29-1.52,9.9-1.2"/><path class="cls-3" d="M113.23,335.12c-5.36.12-9.83,3.79-14.31,6.18"/><path class="cls-3" d="M120.88,341.72c-1.33,1.14-12.24,11.58-12.16,12.6"/><path class="cls-3" d="M127.77,352.07s-7.75,10.83-9.3,11.1"/><path class="cls-3" d="M136.62,361.52s-7.13,11.85-9.75,12.45"/><path class="cls-3" d="M146.68,363.92c-.49.91-6.8,15.63-10.36,17.55"/><path class="cls-3" d="M137.07,318.17c-1.85.49-11.33,4.9-11.55,5.85"/><path class="cls-3" d="M142.77,325.37c-1.11,1.37-5.3,5-7.2,6.9"/><path class="cls-3" d="M151.62,333.32s-7.09,10-7.2,10.65"/><line class="cls-3" x1="159.57" y1="340.07" x2="156.57" y2="349.37"/><path class="cls-3" d="M167.07,342.17s.32,11.62-1.8,12.9"/><path class="cls-8" d="M352.74,257.88c2.22-1.06,5.2-2.88,7.89-4.46,5.19-3.07,14.08-6.7,19.82-4.13,2.35,1.05.95,3.59.08,6.34-3.23,10.26-11.46,15.66-22,13.35a6.08,6.08,0,0,1-.94-.8c0,2.11-.8,5.42-1.14,8s-.89,5.89.66,8.35c4.89,7.76,9.89,10.85,6.7,27.49-4.53,23.63-44.2,30.45-48.15,9.05-3.45-18.67,16.31-30.79,16.76-35.47.07-.76-6.22-1.46-6.35-7.75,0-1.76-1.32-5.89-.5-8.52.2-.67.42-1.32.64-1.95-7-.41-12.49-6.39-14.52-13.23-1.25-4.22,1.12-5.45,3.81-5.59,4.52-.23,11.9,1,19,6.93C338.89,253.16,348.24,252.38,352.74,257.88Z"/><path class="cls-3" d="M352.74,257.88c2.22-1.06,5.2-2.88,7.89-4.46,5.19-3.07,14.08-6.7,19.82-4.13,2.35,1.05.95,3.59.08,6.34-3.23,10.26-11.46,15.66-22,13.35a6.08,6.08,0,0,1-.94-.8c0,2.11-.8,5.42-1.14,8s-.89,5.89.66,8.35c4.89,7.76,9.89,10.85,6.7,27.49-4.53,23.63-44.2,30.45-48.15,9.05-3.45-18.67,16.31-30.79,16.76-35.47.07-.76-6.22-1.46-6.35-7.75,0-1.76-1.32-5.89-.5-8.52.2-.67.42-1.32.64-1.95-7-.41-12.49-6.39-14.52-13.23-1.25-4.22,1.12-5.45,3.81-5.59,4.52-.23,11.9,1,19,6.93C338.89,253.16,348.24,252.38,352.74,257.88Z"/><path class="cls-4" d="M358.74,323.14c1.28-.63,1.86-5.16,2.65-6.93.57-1.28,2.8-7,5.31-9.59,1.35-1.4-1.94-5.33-6.11-1.34-.06.05-4.77,7.52-5.13,8.88C353.58,321.17,359.11,323,358.74,323.14Z"/><path class="cls-3" d="M358.74,323.14c1.28-.63,1.86-5.16,2.65-6.93.57-1.28,2.8-7,5.31-9.59,1.35-1.4-1.94-5.33-6.11-1.34-.06.05-4.77,7.52-5.13,8.88C353.58,321.17,359.11,323,358.74,323.14Z"/><path class="cls-4" d="M336.66,343.57c1.89.55,2.64-1.23,4.29-1.88,1.09-.43,3.21-.38,4.21-1.13s1.71-2.65,2.74-3.33c1.21-.8,3.56-.43,4.63-1.27.87-.68,1.44-2.19,2.23-2.77.51-.37,2.71-.47,3.24-.66,2.67-1,4.89-3.36,3-12.07-1-4.77-8-12.46-12.59-15.6-1.72-1.17-5.8.47-2.22,4.94,1.86,2.32,8.72,12.65,2.54,4.18a55.75,55.75,0,0,0-6.35-5.57c-3.12-2.33-4.82.64-3.53,3.13,1.52,3,7.14,12.39,7,11.73s-6.43-8.46-10-11.74c-2.15-1.95-4.1,2.16-2.14,5.93,2.24,4.31,5.23,8.71,2.15,4.89-.34-.42-2.33-1.66-5.26-4.09-1-.85-5.33-.73-3,3.59.59,1.08,3.75,3.86,5.05,5.88,2.44,3.81,1.83,5.5.95,6-1.27.67-5.86-6-14.73-6.55,0,0,2.47,9,3.75,10.36S333.51,342.66,336.66,343.57Z"/><path class="cls-3" d="M336.66,343.57c1.89.55,2.64-1.23,4.29-1.88,1.09-.43,3.21-.38,4.21-1.13s1.71-2.65,2.74-3.33c1.21-.8,3.56-.43,4.63-1.27.87-.68,1.44-2.19,2.23-2.77.51-.37,2.71-.47,3.24-.66,2.67-1,4.89-3.36,3-12.07-1-4.77-8-12.46-12.59-15.6-1.72-1.17-5.8.47-2.22,4.94,1.86,2.32,8.72,12.65,2.54,4.18a55.75,55.75,0,0,0-6.35-5.57c-3.12-2.33-4.82.64-3.53,3.13,1.52,3,7.14,12.39,7,11.73s-6.43-8.46-10-11.74c-2.15-1.95-4.1,2.16-2.14,5.93,2.24,4.31,5.23,8.71,2.15,4.89-.34-.42-2.33-1.66-5.26-4.09-1-.85-5.33-.73-3,3.59.59,1.08,3.75,3.86,5.05,5.88,2.44,3.81,1.83,5.5.95,6-1.27.67-5.86-6-14.73-6.55,0,0,2.47,9,3.75,10.36S333.51,342.66,336.66,343.57Z"/><path class="cls-5" d="M346.55,273.27c.09-2.33.86-3.34,2.45-2.83.61.52,1.41,5.91-1.58,4.79C346.91,275,346.52,273.88,346.55,273.27Z"/><path class="cls-3" d="M346.55,273.27c.09-2.33.86-3.34,2.45-2.83.61.52,1.41,5.91-1.58,4.79C346.91,275,346.52,273.88,346.55,273.27Z"/><path class="cls-3" d="M330.26,271.94c0-3.32,2.41-4.19,2.63-1.22.18,2.36-.26,3.36-1.63,3.59C330.47,274.45,330.26,272.44,330.26,271.94Z"/><path class="cls-7" d="M338.2,275c4.85-.39,3.49,5.31-.83,5.39C336.14,280.43,332.07,275.51,338.2,275Z"/><path class="cls-3" d="M338.2,275c4.85-.39,3.49,5.31-.83,5.39C336.14,280.43,332.07,275.51,338.2,275Z"/><path class="cls-3" d="M370.31,254.26c-1.74.55-11.38,5.44-10.44,7.58a4.78,4.78,0,0,0,1.22,1.55"/><path class="cls-3" d="M326,262.69c1.48-3.73-.28-5.37-4.36-6.86l-.16-.05"/><path class="cls-8" d="M358.7,301.29c-.23,3.43,1.62,11.78-2.64,13.11-5.31,1.66-4.78-8.27-5.41-12-.12-.74,7.63-.39,7.72-.35Z"/><path class="cls-3" d="M358.7,301.29c-.23,3.43,1.62,11.78-2.64,13.11-5.31,1.66-4.78-8.27-5.41-12"/><path class="cls-3" d="M330.49,295.49c-10.5,11.67-2.28,14.05.1,11.53.68-.72,4.32-5,4.76-5"/><path class="cls-3" d="M331.22,284.79c3.64,1.45,6.76-1.17,6.84-.84.28,1.19,4.24,2.76,6.32,2.1"/><path class="cls-3" d="M336.69,323.06c.68,1.54,2.26,3.64,2.82,4.7a26.86,26.86,0,0,1,1.95,3.14"/><path class="cls-3" d="M344.74,321.54a36.12,36.12,0,0,1,3.23,6.11"/><path class="cls-3" d="M350.68,316.6c1.17,2.62,2.22,4.12,3,6.72,0,.16.37.75.36.84"/><path class="cls-7" d="M334.73,285.12c1.19,2.34-1.21,5.9,3.35,6.91,2.79.61,4.23-2.41,4.51-4.64.17-1.44-.63-.53-2.2-1.43-1.26-.73-1.37-.27-2.57-1.6C337.38,283.87,335.29,286.22,334.73,285.12Z"/><path class="cls-3" d="M334.73,285.12c1.19,2.34-1.21,5.9,3.35,6.91,2.79.61,4.23-2.41,4.51-4.64.17-1.44-.63-.53-2.2-1.43-1.26-.73-1.37-.27-2.57-1.6C337.38,283.87,335.29,286.22,334.73,285.12Z"/><path class="cls-3" d="M231.91,205.17c11.7,6.42,27.8,8.05,36.58,5.2"/><path class="cls-3" d="M232.48,202.73c11.49,6.31,27.31,7.91,35.94,5.11"/><path class="cls-3" d="M119.78,324.23c2,8.6,15.41,14.43,21.59,21.16,7,7.66,9.82,9,20,11.2,2,.44,6.73,1.07,8.47,0"/><path class="cls-9" d="M139,347.12c-8.49-4.41-9.07-14.19,1.86-10.54,6.46,2.16,12.59,13.39,1.33,12A30.1,30.1,0,0,1,139,347.12Z"/><path class="cls-3" d="M139,347.12c-8.49-4.41-9.07-14.19,1.86-10.54,6.46,2.16,12.59,13.39,1.33,12A30.1,30.1,0,0,1,139,347.12Z"/><path class="cls-3" d="M258.9,155c3.18,4.76,11,3.22,12.2-3.5.3-1.62-.3-4.55-1.67-5.54"/><path class="cls-3" d="M262.24,150.63c-.48-2.16.41-2.55,2.32-2.55"/><path class="cls-10" d="M183.51,99.75V83.25c-.5-5.8,2.79-9.3,9.9-9.3h17.32"/><path class="cls-10" d="M183.51,206.35v16.5c-.5,5.8,2.79,9.3,9.9,9.3h17.32"/><path class="cls-10" d="M316,206.35v16.5c.51,5.8-2.79,9.3-9.9,9.3H288.78"/><path class="cls-10" d="M316,99.75V83.25c.51-5.8-2.79-9.3-9.9-9.3H288.78"/><path class="cls-10" d="M321.27,255.62v-4.69c-.14-1.65.8-2.65,2.82-2.65H329"/><path class="cls-10" d="M321.27,286v4.7c-.14,1.65.8,2.64,2.82,2.64H329"/><path class="cls-10" d="M359,286v4.7c.14,1.65-.8,2.64-2.82,2.64h-4.93"/><path class="cls-10" d="M359,255.62v-4.69c.14-1.65-.8-2.65-2.82-2.65h-4.93"/></svg>
