<svg id="Layer_1" data-name="Layer 1" xmlns="http://www.w3.org/2000/svg" viewBox="0 0 450 450"><defs><style>.cls-1{fill:#a98f71;}.cls-1,.cls-10,.cls-12,.cls-3,.cls-4,.cls-5,.cls-6,.cls-7,.cls-9{fill-rule:evenodd;}.cls-2,.cls-8{fill:none;stroke-linecap:round;stroke-linejoin:round;stroke-width:2.83px;}.cls-2{stroke:#000;}.cls-3{fill:#fac384;}.cls-4{fill:red;}.cls-6{fill:#f9c;}.cls-7{fill:#f96;}.cls-8{stroke:#ccf;}.cls-9{fill:#ccf;}.cls-10{fill:#66f;}.cls-11{fill:#fefefe;}.cls-12{fill:#3c6;}</style></defs><title>Thech Peeps_Translation</title><polygon class="cls-1" points="111.52 270.22 164.47 270.22 168.86 289.76 115.91 289.76 111.52 270.22"/><polygon class="cls-2" points="111.52 270.22 164.47 270.22 168.86 289.76 115.91 289.76 111.52 270.22"/><path class="cls-3" d="M109.08,269.9h0a6.72,6.72,0,0,1,6.19,5.06l2.19,9.74a3.93,3.93,0,0,1-3.92,5.06,6.71,6.71,0,0,1-6.19-5.06L105.16,275A3.93,3.93,0,0,1,109.08,269.9Z"/><path class="cls-2" d="M109.08,269.9h0a6.72,6.72,0,0,1,6.19,5.06l2.19,9.74a3.93,3.93,0,0,1-3.92,5.06,6.71,6.71,0,0,1-6.19-5.06L105.16,275A3.93,3.93,0,0,1,109.08,269.9Z"/><polygon class="cls-1" points="104.51 241.78 157.46 241.78 163.18 259.51 110.23 259.51 104.51 241.78"/><polygon class="cls-2" points="104.51 241.78 157.46 241.78 163.18 259.51 110.23 259.51 104.51 241.78"/><path class="cls-3" d="M102.05,241.5h0a7.59,7.59,0,0,1,6.68,5.05l2.55,7.9c.9,2.79-.64,5.06-3.42,5.06a7.61,7.61,0,0,1-6.69-5.06l-2.55-7.9C97.72,243.77,99.26,241.5,102.05,241.5Z"/><path class="cls-2" d="M102.05,241.5h0a7.59,7.59,0,0,1,6.68,5.05l2.55,7.9c.9,2.79-.64,5.06-3.42,5.06a7.61,7.61,0,0,1-6.69-5.06l-2.55-7.9C97.72,243.77,99.26,241.5,102.05,241.5Z"/><polygon class="cls-1" points="121.33 299.84 174.28 299.84 176.54 319.38 123.59 319.38 121.33 299.84"/><polygon class="cls-2" points="121.33 299.84 174.28 299.84 176.54 319.38 123.59 319.38 121.33 299.84"/><path class="cls-3" d="M118.92,299.53h0a5.84,5.84,0,0,1,5.64,5.05l1.13,9.75a4.42,4.42,0,0,1-4.47,5.05,5.84,5.84,0,0,1-5.64-5.05l-1.13-9.75A4.42,4.42,0,0,1,118.92,299.53Z"/><path class="cls-2" d="M118.92,299.53h0a5.84,5.84,0,0,1,5.64,5.05l1.13,9.75a4.42,4.42,0,0,1-4.47,5.05,5.84,5.84,0,0,1-5.64-5.05l-1.13-9.75A4.42,4.42,0,0,1,118.92,299.53Z"/><polygon class="cls-1" points="127.25 329.47 180.21 329.47 180.57 349.01 127.62 349.01 127.25 329.47"/><polygon class="cls-2" points="127.25 329.47 180.21 329.47 180.57 349.01 127.62 349.01 127.25 329.47"/><path class="cls-3" d="M124.88,329.15h0a5.19,5.19,0,0,1,5.15,5.06l.18,9.74a5,5,0,0,1-5,5.06A5.19,5.19,0,0,1,120.1,344l-.18-9.74A5,5,0,0,1,124.88,329.15Z"/><path class="cls-2" d="M124.88,329.15h0a5.19,5.19,0,0,1,5.15,5.06l.18,9.74a5,5,0,0,1-5,5.06A5.19,5.19,0,0,1,120.1,344l-.18-9.74A5,5,0,0,1,124.88,329.15Z"/><polygon class="cls-1" points="127.01 359.1 179.96 359.1 182.63 378.64 129.68 378.64 127.01 359.1"/><polygon class="cls-2" points="127.01 359.1 179.96 359.1 182.63 378.64 129.68 378.64 127.01 359.1"/><path class="cls-3" d="M124.59,358.78h0a6,6,0,0,1,5.75,5.05l1.34,9.75a4.33,4.33,0,0,1-4.37,5.06,6,6,0,0,1-5.74-5.06l-1.34-9.75A4.31,4.31,0,0,1,124.59,358.78Z"/><path class="cls-2" d="M124.59,358.78h0a6,6,0,0,1,5.75,5.05l1.34,9.75a4.33,4.33,0,0,1-4.37,5.06,6,6,0,0,1-5.74-5.06l-1.34-9.75A4.31,4.31,0,0,1,124.59,358.78Z"/><polygon class="cls-1" points="127.08 388.72 180.03 388.72 185.64 408.26 132.69 408.26 127.08 388.72"/><polygon class="cls-2" points="127.08 388.72 180.03 388.72 185.64 408.26 132.69 408.26 127.08 388.72"/><path class="cls-3" d="M124.62,388.4h0a7.28,7.28,0,0,1,6.51,5.06l2.79,9.75c.8,2.78-.82,5.05-3.6,5.05a7.27,7.27,0,0,1-6.51-5.05l-2.8-9.75C120.22,390.68,121.84,388.4,124.62,388.4Z"/><path class="cls-2" d="M124.62,388.4h0a7.28,7.28,0,0,1,6.51,5.06l2.79,9.75c.8,2.78-.82,5.05-3.6,5.05a7.27,7.27,0,0,1-6.51-5.05l-2.8-9.75C120.22,390.68,121.84,388.4,124.62,388.4Z"/><path class="cls-4" d="M255.46,265.93c3.89,3.26,13.46,13.07,18.69,17.09,10.05,7.76,17.46,13.25,28.18,12.86,5.82-.21,80.38-49.6,74.2-58.08-7.63-10.46-5.13-17.8-11.4-14.58-3.48.27-60.73,34.21-62.42,33.19-24.31-14.74-35.1-36.05-48.94-53.51-10.37-13.1-30.69-17.82-46.45-5.26-.61.12-4.21,6.29-5.06,7.55-1.42,2.09-24.91,3.31-28-6.1-1.45-4.5-15.82-8.9-20.37-8.9-19.55,0-20.5,9.18-26,24.79-2.8,7.89-9.53,54.88-10.08,64.65-1,17.12.8,38.58,23,37.09,2.67-.18,8.73-3.69,10.41-3.3,2.56.6,1.48,11.09.46,11.68-4,2.31,24,3.53,28.75-2.26,2.1-2.57,54.51-50.35,75-56.91"/><path class="cls-2" d="M207.32,197.64c15.76-12.56,36.08-7.84,46.45,5.26,13.84,17.46,18.11,38.77,42.42,53.51,1.69,1,58.94-32.92,62.42-33.19,6.28-3.22,3.77,4.12,11.4,14.58,2.08,2.85-8.09,13.26-16.9,20.67-2.81,2.36-51.63,37.21-57.29,37.41-10.73.39-11.62-5.1-21.67-12.86-5.22-4-13.58-11.64-17.48-14.89"/><path class="cls-5" d="M305,166.55l65.69,13a7,7,0,0,1,5.32,9.49l-33.58,94.36a10,10,0,0,1-10.92,6.28l-65.69-13.05a7,7,0,0,1-5.32-9.49l33.58-94.36A10,10,0,0,1,305,166.55Z"/><path class="cls-2" d="M305,166.55l65.69,13a7,7,0,0,1,5.32,9.49l-33.58,94.36a10,10,0,0,1-10.92,6.28l-65.69-13.05a7,7,0,0,1-5.32-9.49l33.58-94.36A10,10,0,0,1,305,166.55Z"/><path class="cls-6" d="M151.94,326c3.41.11,22.94-2.39,28.49-3.17.92-.13,8.51-7.36,9.37-8.33,12.59-14,41.44-39.38,58.64-47.24,11.92-5.45,33.5,1.35,37.83,6.67,1.78,2.19,19.63-11.06,33.58,6.64,6.8,8.63,17,31.1,24,42,6.87,10.65,32.85,54.92,37.93,60.6,3,3.34,14.47,18.43,9.82,22.13-18.64,14.84-21.06,5.63-42.1-15-9-8.79-35.84-32.08-41.1-43.7-1.06-2.34-9.35-14.85-9.35-12.76,0,10.26,3.61,29.52,5.68,40.09,1.48,7.58,1.15,20.87,3.62,28.49.55,1.68,5.91,19.32,2.61,19.73-4.16.51-6.74,4.32-12.91,4.45-2.24,0-16.41-.2-17.39-2.45-5.17-11.8-7.15-22.44-10.93-29.53-.05-.09-6.5,8-8,9.58-21.31,22.24-43.61,5.63-51.08,7.35-16.13,3.73-29,8.05-44.51-.82-22.26-12.74-25.64-42.93-21.33-65.7.18-1,2.71-3.54,4.21-7.54a82,82,0,0,0,2.9-11.52"/><path class="cls-3" d="M378.1,181.36c3.72-6.67,11.24-7.88,5.91,3.46-.85,1.82-3.73,9.44-5.15,9.44-4.82,0-6.78-6.29-2.9-11.2C376.62,182.24,378,181.64,378.1,181.36Z"/><path class="cls-2" d="M378.1,181.36c3.72-6.67,11.24-7.88,5.91,3.46-.85,1.82-3.73,9.44-5.15,9.44-4.82,0-6.78-6.29-2.9-11.2C376.62,182.24,378,181.64,378.1,181.36Z"/><path class="cls-2" d="M174.58,199.27C156,181,133,195.58,129.93,206.2c-2.53,6.41-11.12,49.22-12.9,78.92-1,16.79,3.59,19.26,6.68,24.25,6.38,10.3,17.35,13.25,47.77-7.47,18-12.23,28.21-17.16,43.75-29.3"/><path class="cls-2" d="M147.7,273.76c11.65-7.67,53-21.6,53.76-22.27"/><path class="cls-3" d="M369.19,241.79c4-3,9.76-12.16,9.9-17.63.24-8.76,1.43-32.87-.31-35.75-3-5,1.34-6.2-17.82-8.49-.84-.1-5.18,4.63.07,6.33.87.28-3.9-.52-5.41.87-1,.89-1.14,5,2.63,6.08.42.12-3.66-.32-5.05,1.16-1.18,1.25,0,5.09,3.94,5.71.16,0-3.67.2-3.84,1.71a4.76,4.76,0,0,0,4.38,5c1.6.11,10.56,2.05,10.47,2.61-.63,3.76-5.43,15.88-6.1,20.27C361.77,231.42,368.08,242.61,369.19,241.79Z"/><path class="cls-2" d="M369.19,241.79c4-3,9.76-12.16,9.9-17.63.24-8.76,1.43-32.87-.31-35.75-3-5,1.34-6.2-17.82-8.49-.84-.1-5.18,4.63.07,6.33.87.28-3.9-.52-5.41.87-1,.89-1.14,5,2.63,6.08.42.12-3.66-.32-5.05,1.16-1.18,1.25,0,5.09,3.94,5.71.16,0-3.67.2-3.84,1.71a4.76,4.76,0,0,0,4.38,5c1.6.11,10.56,2.05,10.47,2.61-.63,3.76-5.43,15.88-6.1,20.27C361.77,231.42,368.08,242.61,369.19,241.79Z"/><path class="cls-2" d="M360.34,185.9a45.62,45.62,0,0,0,7.61,1.69c.81.11,6.16.76,6.34,1.8"/><path class="cls-2" d="M357.07,193.37c1.18-.54,12.11.15,13.38.67s2.11.38,3.64,1.6"/><path class="cls-2" d="M356.65,200c.74-.1,14.09,1.24,15,2a16.92,16.92,0,0,1,1.57,1.6"/><path class="cls-2" d="M95.24,155.24C90,237.87,186,311.36,267.87,285c-3.28,1.21-16-1.6-19.44-4.43"/><path class="cls-2" d="M267.52,285.12c-4.83,2.69-8.16,10.73-9.44,14.46"/><path class="cls-2" d="M321.2,89.63C266.64,16.46,159,3.5,120.78,59.44c-.9,1.31,2-9.48.85-16.26"/><path class="cls-2" d="M120.79,59.44c3.61-2.58,13.16-5.07,14.94-5.17"/><path class="cls-2" d="M262.86,324.68c0,.05-12.12,29.78-12.31,30.13-17.86,32.64-18.59,54.6-57,59.92C148,421,133.89,368,149,337.53c.66-2.83,2.59-5.69,2.89-9.38.2-2.49-.14-2-.14-4.28,0-1.07-.57-9.62-.57-10.45"/><path class="cls-2" d="M182.92,319.62c13.1-10.13,53.25-50,68.88-53.08,25.29-5,44.65,6.3,44.14,34.52-.11,5.86,10.25,100.18,13.73,107.83.23.52,2.88,9,2.31,9.47"/><path class="cls-2" d="M284.28,264.64c8.86-6.33,32.52,5,40.25,20.45,6.34,12.7,48,87.37,58.87,101.6"/><path class="cls-2" d="M258.73,334.83c-3.53,14.16-.13,19.79,7.31,43.76,2.59,8.34,5.62,19.74,8.59,27.9,1.66,4.55,2.62,12.77,5.69,16.9"/><path class="cls-2" d="M181.8,322.71c-9.16,0-21.48,1.18-29.68,3.39"/><path class="cls-2" d="M179.42,323a49,49,0,0,0-10.79,7.73c-.16.15-1.57,1.17-1.61,1.28"/><path class="cls-2" d="M179.94,323.47c-1.83,2-3.42,7.71-4.18,10.43"/><path class="cls-2" d="M201.45,413.28c10.79-3.2,19.43.9,29.68,1.32,8.11.34,16.87-1.17,22.16-4a34.27,34.27,0,0,0,14.76-14.81"/><path class="cls-2" d="M299.11,329.09c3.93,23.82,55.33,63.86,69.82,79.57"/><path class="cls-2" d="M158.49,267.93c-.62-8.35,2-20.55,2-28.1"/><path class="cls-2" d="M238.31,230.65c.44,7.38,16.75,19.83,19.84,31.24a12.56,12.56,0,0,0,.56,2.06"/><path class="cls-3" d="M253.1,238.71c-1.08.1-4.41,2.44-7.95,3-1.21.19-7.68,2.25-3.87,4.34,2.38,1.3,9.46-.39,12.27-1.72,1.83-.87,16.66-6.55,10.51-10.38-2.29-1.43-8.22,4.56-10.75,4.66Z"/><path class="cls-2" d="M253.1,238.71c-1.08.1-4.41,2.44-7.95,3-1.21.19-7.68,2.25-3.87,4.34,2.38,1.3,9.46-.39,12.27-1.72,1.83-.87,16.66-6.55,10.51-10.38-2.29-1.43-8.22,4.56-10.75,4.66Z"/><path class="cls-3" d="M263.25,245.32c5.58-3.77,6.46-2.78,10.44-9.06.56-.89.77-2.71-.56-3-3.51-.69-3.88,1.52-6.32,3.44-3,2.36-3.85,2-7,3.43-1.4.64-11.06,3.37-8.61,6.35,1,1.19,6.48,1.24,8.2.46C259.8,246.77,263.12,245.41,263.25,245.32Z"/><path class="cls-2" d="M263.25,245.32c5.58-3.77,6.46-2.78,10.44-9.06.56-.89.77-2.71-.56-3-3.51-.69-3.88,1.52-6.32,3.44-3,2.36-3.85,2-7,3.43-1.4.64-11.06,3.37-8.61,6.35,1,1.19,6.48,1.24,8.2.46C259.8,246.77,263.12,245.41,263.25,245.32Z"/><path class="cls-3" d="M260.17,244c2.7-.4,7.91-2,10.21-3.79s4.94-6.45,7.3-6.79,3.88.85,1.51,5.89C276,246,273.32,247.45,265,252.12c-4.57,2.58-9.07,6.43-14.56,6.78-4.65.3-19.71.73-23.5,2.74-3.5,1.86-11.41,11.37-13.27,10.79-2.78-.86-8.62-10.32-10.16-13.92-.86-2-3.14-6.53-.52-7.53.93-.35,8.39-3.48,8.76-4.11,8.11-12.89,18.83-10.13,27.14-8,3.34.85,19.1.07,20.74,2.58A7.85,7.85,0,0,1,260.17,244Z"/><path class="cls-2" d="M260.17,244c2.7-.4,7.91-2,10.21-3.79s4.94-6.45,7.3-6.79,3.88.85,1.51,5.89C276,246,273.32,247.45,265,252.12c-4.57,2.58-9.07,6.43-14.56,6.78-4.65.3-19.71.73-23.5,2.74-3.5,1.86-11.41,11.37-13.27,10.79-2.78-.86-8.62-10.32-10.16-13.92-.86-2-3.14-6.53-.52-7.53.93-.35,8.39-3.48,8.76-4.11,8.11-12.89,18.83-10.13,27.14-8,3.34.85,19.1.07,20.74,2.58A7.85,7.85,0,0,1,260.17,244Z"/><path class="cls-2" d="M260.08,242.52c.36,3-.49,4.6-5.87,5.14-3.76.37-5.62,1.25-9.66,1.25-3.29,0-8.52-.56-11.47.69l-.26,0"/><path class="cls-2" d="M156.08,268.47c-3.57,0-7.25-.37-11-.37"/><path class="cls-2" d="M238.31,230.65c-1.7-.42,2.31-.86,3.35-2.23"/><path class="cls-2" d="M157.81,237.72c2.39,1.34,4.19,1.05,6.75,1.05"/><path class="cls-2" d="M257.56,337.68c-.3-2.84-.16-6.42-.16-9.36"/><path class="cls-2" d="M163.5,399.87c11.27,0,14.74-8.33,17.9-6.83,5.7,2.72,16,.89,17.58,3.23,4.11,6.28,9.32,4.69,3.22,9.87-.24.21-.84.67-.9.93"/><path class="cls-2" d="M237.45,409c4.15-.68,7.17-5.1,8.1-5.1,5.53,0,5.5-1,9.29-2.27.51-.17,3.2,4.29,4.89,4.58"/><path class="cls-3" d="M207,197.39a86,86,0,0,1,1.16-15.25c.44-2.12,8.44-2.41,13.39-15.77,6.17-16.65-5.31-27.86-4.27-42,1.76-23.77-21.69-34.13-38.93-29.31-9.34,3.11-15.94,14.11-15.28,23.21,2,27-14.12,46.51,9.31,61.73,4.11,2.67,3.78,13.24,3.89,20.14C176.5,212.51,207.16,211.1,207,197.39Z"/><path class="cls-2" d="M207,197.39a86,86,0,0,1,1.16-15.25c.44-2.12,8.44-2.41,13.39-15.77,6.17-16.65-5.31-27.86-4.27-42,1.76-23.77-21.69-34.13-38.93-29.31-9.34,3.11-15.94,14.11-15.28,23.21,2,27-14.12,46.51,9.31,61.73,4.11,2.67,3.78,13.24,3.89,20.14C176.5,212.51,207.16,211.1,207,197.39Z"/><path class="cls-2" d="M210.59,180.06c-2.51,2.77-10.24,3.83-13.75,3.83"/><path class="cls-2" d="M191.66,124.57a26.89,26.89,0,0,0-6.82.78"/><path class="cls-2" d="M206.4,124.87a32.43,32.43,0,0,1,4.57-.32h.14"/><path class="cls-2" d="M206.05,145.66c-1.4-6.23-4.51-3.89-7-2.25"/><path class="cls-5" d="M193.1,140.12c-.26.58-.61.53-.79-2.07-.08-1.22-.33-5.52.21-5S193.46,139.29,193.1,140.12Z"/><path class="cls-2" d="M193.1,140.12c-.26.58-.61.53-.79-2.07-.08-1.22-.33-5.52.21-5S193.46,139.29,193.1,140.12Z"/><path class="cls-5" d="M209.69,140.11c-.26.55-.61.51-.79-2-.09-1.19-.34-5.38.2-4.9S210.05,139.29,209.69,140.11Z"/><path class="cls-2" d="M209.69,140.11c-.26.55-.61.51-.79-2-.09-1.19-.34-5.38.2-4.9S210.05,139.29,209.69,140.11Z"/><path class="cls-7" d="M160.91,166.58c-1.38.28-4.13-4.23-19.63.5-13,4-22.27.07-22.27.07-.11-1.4,5.13-8.41,7.89-19,2.95-11.38,3.76-26.95,14.32-45.51C159,71.38,196.6,69.91,217.23,87c16.72,13.84,12.27,31.42,32.09,42.49,1.29.72-1.2,5.45-4.35,6.95a14.7,14.7,0,0,1-6.1,1.1c1.77,12.58,3.14,23.45-5.71,29-1.93.4-11.84.53-11.57-.18.41-1.06,5.1-9.3-.59-23.2-7.14-17.45-2-23.92-5.77-32.31C210,99.21,200,97.48,199.79,98.07c-3.33,10.48-10.77,20.53-18.3,29.68-3,3.61-5.54,12.64-3.53,18.29.68,1.9-7-5.65-7.09-5.55-2.13,1.53-4.15,5.25-5.79,7.67C158.62,157.79,161.36,166.49,160.91,166.58Z"/><path class="cls-2" d="M160.91,166.58c-1.38.28-4.13-4.23-19.63.5-13,4-22.27.07-22.27.07-.11-1.4,5.13-8.41,7.89-19,2.95-11.38,3.76-26.95,14.32-45.51C159,71.38,196.6,69.91,217.23,87c16.72,13.84,12.27,31.42,32.09,42.49,1.29.72-1.2,5.45-4.35,6.95a14.7,14.7,0,0,1-6.1,1.1c1.77,12.58,3.14,23.45-5.71,29-1.93.4-11.84.53-11.57-.18.41-1.06,5.1-9.3-.59-23.2-7.14-17.45-2-23.92-5.77-32.31C210,99.21,200,97.48,199.79,98.07c-3.33,10.48-10.77,20.53-18.3,29.68-3,3.61-5.54,12.64-3.53,18.29.68,1.9-7-5.65-7.09-5.55-2.13,1.53-4.15,5.25-5.79,7.67C158.62,157.79,161.36,166.49,160.91,166.58Z"/><path class="cls-2" d="M198.92,100.71c.85-1,3-8.79,2.89-10.56,0-.19,0-.05.08-.22"/><path class="cls-5" d="M191.47,163.94c1.28.24,1.94.51,1.63,2.28-.24,1.38-2.77,2.39-4.18,2.36a11.5,11.5,0,0,1-10-5.41c-.8-1.37-1.07-3.75.11-4.65,2.17-1.67,3.83.94,5.1,2.08A13.58,13.58,0,0,0,191.47,163.94Z"/><path class="cls-2" d="M191.47,163.94c1.28.24,1.94.51,1.63,2.28-.24,1.38-2.77,2.39-4.18,2.36a11.5,11.5,0,0,1-10-5.41c-.8-1.37-1.07-3.75.11-4.65,2.17-1.67,3.83.94,5.1,2.08A13.58,13.58,0,0,0,191.47,163.94Z"/><path class="cls-2" d="M216.84,120.45c1.57,4.63,5.11,12.86,10.64,14.3.29.08.17,0,.46,0"/><path class="cls-2" d="M165.52,97c.75,14-9.94,28.22,5.07,42.9"/><path class="cls-2" d="M185.6,94c-.12,4.19-2.83,14-4.57,17.19"/><path class="cls-2" d="M227.32,166.87c0-2.56,1.82-3.12,3-6.44.71-2,1.06-3.8,1.67-5.68"/><path class="cls-2" d="M160.8,230.36c0-9.56-10.16-23.77-18-27.3"/><path class="cls-2" d="M237.15,224.51c-2.11-5.18-3.58-19.67-1.16-24.15"/><path class="cls-8" d="M334.21,217.93a22.73,22.73,0,0,1-.7,12.28,28.47,28.47,0,0,1-4.78,8.89m-30.86-5.48a24.6,24.6,0,0,1,1.19-9,28.18,28.18,0,0,1,8.18-12.45"/><path class="cls-8" d="M343.45,213.23a32.26,32.26,0,0,1-.71,19.26,43.18,43.18,0,0,1-8.62,14.86m-46.18-9.62a37.28,37.28,0,0,1,1.83-13.9,43.28,43.28,0,0,1,12.54-19.12"/><path class="cls-9" d="M319.24,217.58c4.31.71,6.46,5.45,4.8,10.6s-6.51,8.76-10.83,8-6.46-5.45-4.79-10.6S314.93,216.88,319.24,217.58Z"/><path class="cls-8" d="M319.24,217.58c4.31.71,6.46,5.45,4.8,10.6s-6.51,8.76-10.83,8-6.46-5.45-4.79-10.6S314.93,216.88,319.24,217.58Z"/><path class="cls-10" d="M70.33,70.78h65.9a16.93,16.93,0,0,1,16.88,16.88v32a17,17,0,0,1-10.8,15.74c-3.34,1.3-3.89,2.56-3.81,5.71.08,3.72,3.18,7.58,6.9,8.87,2,.7,1.15,2.37-2.17,2.37-14.7,0-15.14-9.43-22.78-15.81H70.33a16.92,16.92,0,0,1-16.88-16.88v-32A16.93,16.93,0,0,1,70.33,70.78Z"/><path class="cls-2" d="M70.33,70.78h65.9a16.93,16.93,0,0,1,16.88,16.88v32a17,17,0,0,1-10.8,15.74c-3.34,1.3-3.89,2.56-3.81,5.71.08,3.72,3.18,7.58,6.9,8.87,2,.7,1.15,2.37-2.17,2.37-14.7,0-15.14-9.43-22.78-15.81H70.33a16.92,16.92,0,0,1-16.88-16.88v-32A16.93,16.93,0,0,1,70.33,70.78Z"/><path class="cls-11" d="M128.28,110.15A3.35,3.35,0,0,0,131,108.9a5,5,0,0,0,1-3.26,4.72,4.72,0,0,0-1-3.14,3.37,3.37,0,0,0-2.7-1.23,3.42,3.42,0,0,0-2.71,1.23,4.67,4.67,0,0,0-1,3.14,4.89,4.89,0,0,0,1,3.26,3.41,3.41,0,0,0,2.71,1.25m0,3a7,7,0,0,1-5.23-2.07,7.41,7.41,0,0,1-2-5.4,7.18,7.18,0,0,1,2-5.26,7.72,7.72,0,0,1,10.49,0,7.15,7.15,0,0,1,2,5.25,7.45,7.45,0,0,1-2,5.4A7,7,0,0,1,128.28,113.11Zm-10.44-.28q-3.28,0-3.28-3.11V93.94a.38.38,0,0,1,.4-.41h2.61a.38.38,0,0,1,.41.41V108.7a1.53,1.53,0,0,0,.26,1,1.2,1.2,0,0,0,.9.29h.5c.28,0,.41.13.41.4v2a.44.44,0,0,1-.11.3.42.42,0,0,1-.3.11Zm-7.53,0q-3.28,0-3.28-3.11V93.94a.44.44,0,0,1,.11-.3.41.41,0,0,1,.3-.11H110a.42.42,0,0,1,.3.11.44.44,0,0,1,.11.3V108.7a1.53,1.53,0,0,0,.26,1,1.2,1.2,0,0,0,.9.29h.5c.28,0,.41.13.41.4v2a.44.44,0,0,1-.11.3.41.41,0,0,1-.3.11Zm-15.69-8.9h6.25c.32,0,.43-.14.33-.44a3.1,3.1,0,0,0-1.3-1.8,4,4,0,0,0-2.22-.61,3.68,3.68,0,0,0-2.15.61,3.22,3.22,0,0,0-1.26,1.78.31.31,0,0,0,0,.33A.38.38,0,0,0,94.62,103.93Zm3.06,9.15a7,7,0,0,1-5.2-2,7.12,7.12,0,0,1-2-5.21,8.71,8.71,0,0,1,.45-2.75,8,8,0,0,1,1.3-2.39A5.9,5.9,0,0,1,94.46,99a7.42,7.42,0,0,1,3.15-.65,7.78,7.78,0,0,1,2.66.45,6.71,6.71,0,0,1,2.24,1.3,6,6,0,0,1,1.6,2.3,9,9,0,0,1,.62,3.31V106a.35.35,0,0,1-.39.4H94.45c-.3,0-.43.16-.38.46a3.94,3.94,0,0,0,1.26,2.4,4,4,0,0,0,4.4.36,2.79,2.79,0,0,0,1.14-1.27.5.5,0,0,1,.48-.33H104a.47.47,0,0,1,.33.1.25.25,0,0,1,.06.26,6.58,6.58,0,0,1-2.33,3.36A7,7,0,0,1,97.68,113.08Zm-25.28-.25a.38.38,0,0,1-.4-.41V93.94a.38.38,0,0,1,.4-.41h2.84a.36.36,0,0,1,.4.41v7.19a.4.4,0,0,0,.11.29.37.37,0,0,0,.3.11H83.5a.38.38,0,0,0,.41-.4V93.94a.44.44,0,0,1,.11-.3.42.42,0,0,1,.29-.11h2.83a.42.42,0,0,1,.3.11.44.44,0,0,1,.11.3v18.48a.44.44,0,0,1-.11.3.42.42,0,0,1-.3.11H84.31a.42.42,0,0,1-.29-.11.44.44,0,0,1-.11-.3V105.2a.42.42,0,0,0-.11-.3.44.44,0,0,0-.3-.11H76.05a.41.41,0,0,0-.3.11.42.42,0,0,0-.11.3v7.22a.36.36,0,0,1-.4.41Z"/><path class="cls-12" d="M280.19,102.42h99.48a16.93,16.93,0,0,1,16.88,16.88v32a16.93,16.93,0,0,1-16.88,16.88H354.84c-6.49,0-11,2.9-13.26,6.95-6.2,11-10.53,26.35-20.37,27.94-1.63.26-4.46,1-5.36-.43-1.45-3.18,2.52-2.37,5.49-8.4,4.07-8.26,4.3-25.77-7.87-26.06H280.19a16.93,16.93,0,0,1-16.87-16.88v-32A16.93,16.93,0,0,1,280.19,102.42Z"/><path class="cls-2" d="M280.19,102.42h99.48a16.93,16.93,0,0,1,16.88,16.88v32a16.93,16.93,0,0,1-16.88,16.88H354.84c-6.49,0-11,2.9-13.26,6.95-6.2,11-10.53,26.35-20.37,27.94-1.63.26-4.46,1-5.36-.43-1.45-3.18,2.52-2.37,5.49-8.4,4.07-8.26,4.3-25.77-7.87-26.06H280.19a16.93,16.93,0,0,1-16.87-16.88v-32A16.93,16.93,0,0,1,280.19,102.42Z"/><path class="cls-11" d="M371.52,143.53a.35.35,0,0,1-.39-.4V129.76c0-.27.13-.41.39-.41H374a.41.41,0,0,1,.3.11.39.39,0,0,1,.11.3v.83c0,.16,0,.26.14.29s.2,0,.29-.13a4.78,4.78,0,0,1,1.75-1.27,4.92,4.92,0,0,1,1.92-.44h.07a.36.36,0,0,1,.4.41V132a.36.36,0,0,1-.4.41h-.53a3.11,3.11,0,0,0-2.61,1.13,4.87,4.87,0,0,0-.88,3.09v6.52a.4.4,0,0,1-.11.29.37.37,0,0,1-.3.11Zm-11.36.25q-3.32,0-4.45-2.37a6,6,0,0,1-.41-1.3,7.81,7.81,0,0,1-.15-1.2c0-.32,0-.79,0-1.41v-7.74a.42.42,0,0,1,.11-.3.44.44,0,0,1,.3-.11h2.6a.36.36,0,0,1,.4.41v7.65a5.41,5.41,0,0,0,.41,2.41,2.89,2.89,0,0,0,4.38.33,3.6,3.6,0,0,0,.68-2.28v-8.11a.39.39,0,0,1,.11-.3.4.4,0,0,1,.29-.11H367a.36.36,0,0,1,.4.41v13.37a.35.35,0,0,1-.4.4h-2.48a.38.38,0,0,1-.41-.4v-.25c0-.34-.19-.37-.58-.1A5.94,5.94,0,0,1,360.16,143.78Zm-14.35-2.93a3.35,3.35,0,0,0,2.71-1.25,4.93,4.93,0,0,0,1-3.25,4.7,4.7,0,0,0-1-3.14,3.59,3.59,0,0,0-5.41,0,4.65,4.65,0,0,0-1.05,3.14,4.89,4.89,0,0,0,1.05,3.26A3.4,3.4,0,0,0,345.81,140.85Zm0,3a7,7,0,0,1-5.23-2.08,7.39,7.39,0,0,1-2-5.39,7.22,7.22,0,0,1,2-5.27,7.75,7.75,0,0,1,10.49,0,7.18,7.18,0,0,1,2,5.26,7.42,7.42,0,0,1-2,5.39A7,7,0,0,1,345.81,143.82Zm-15.39,5.45a.35.35,0,0,1-.4-.4v-2a.35.35,0,0,1,.4-.4h.91q1.32,0,1.32-1.47V129.76a.36.36,0,0,1,.4-.41h2.63a.4.4,0,0,1,.29.11.39.39,0,0,1,.12.3V146a3.16,3.16,0,0,1-.89,2.41,3.53,3.53,0,0,1-2.55.84Zm5.36-22.13a2,2,0,0,1-1.41.54,2.07,2.07,0,0,1-1.43-.52,1.84,1.84,0,0,1,0-2.7,2.1,2.1,0,0,1,1.45-.54,1.94,1.94,0,0,1,1.39.54,1.88,1.88,0,0,1,0,2.68Zm-18.45,16.39a.35.35,0,0,1-.39-.4V129.76c0-.27.13-.41.39-.41h2.49a.4.4,0,0,1,.29.11.39.39,0,0,1,.11.3v.17c0,.16,0,.26.14.3a.35.35,0,0,0,.34-.09,6.24,6.24,0,0,1,3.51-1.1c2.21,0,3.69.8,4.46,2.39a5.36,5.36,0,0,1,.4,1.3,10.16,10.16,0,0,1,.16,1.21c0,.33,0,.81,0,1.42v7.77a.38.38,0,0,1-.4.4h-2.6a.37.37,0,0,1-.3-.11.4.4,0,0,1-.11-.29v-7.71a5.29,5.29,0,0,0-.4-2.38,2.85,2.85,0,0,0-4.38-.34,3.55,3.55,0,0,0-.68,2.29v8.14a.4.4,0,0,1-.11.29.37.37,0,0,1-.3.11Zm-10.12-2.68a3.33,3.33,0,0,0,2.71-1.25,4.93,4.93,0,0,0,1-3.25,4.65,4.65,0,0,0-1-3.14,3.37,3.37,0,0,0-2.7-1.23,3.42,3.42,0,0,0-2.71,1.23,4.65,4.65,0,0,0-1.05,3.14,4.89,4.89,0,0,0,1.05,3.26A3.4,3.4,0,0,0,307.21,140.85Zm0,3a7,7,0,0,1-5.23-2.08,7.39,7.39,0,0,1-2-5.39,7.22,7.22,0,0,1,2-5.27,7.75,7.75,0,0,1,10.49,0,7.15,7.15,0,0,1,2,5.26,7.42,7.42,0,0,1-2,5.39A7,7,0,0,1,307.21,143.82Zm-20.09-3.54h3.52l.71,0a5.13,5.13,0,0,0,.71-.07,3.82,3.82,0,0,0,.72-.17,3.42,3.42,0,0,0,.61-.3,1.86,1.86,0,0,0,.53-.47,2.53,2.53,0,0,0,.33-.68,3.24,3.24,0,0,0,.13-.92,2.69,2.69,0,0,0-.22-1.12,1.93,1.93,0,0,0-.53-.72,2.34,2.34,0,0,0-.84-.39,6.31,6.31,0,0,0-1-.17c-.29,0-.66,0-1.1,0h-3.59a.39.39,0,0,0-.3.12.4.4,0,0,0-.11.29v4.25a.4.4,0,0,0,.11.29A.39.39,0,0,0,287.12,140.28Zm0-8h3.33c2.11,0,3.16-.8,3.16-2.4a2.37,2.37,0,0,0-.28-1.22,1.8,1.8,0,0,0-.8-.72,3.86,3.86,0,0,0-1.07-.32,8,8,0,0,0-1.28-.09h-3.06a.36.36,0,0,0-.41.4v3.94a.41.41,0,0,0,.11.3A.39.39,0,0,0,287.12,132.26Zm-3.62,11.27a.38.38,0,0,1-.4-.4V124.65a.39.39,0,0,1,.11-.3.4.4,0,0,1,.29-.11h7.24a10.5,10.5,0,0,1,3,.37,4.8,4.8,0,0,1,1.95,1,4.26,4.26,0,0,1,1,1.52,5.42,5.42,0,0,1,.32,1.91A4.19,4.19,0,0,1,295,133c-.27.16-.26.3.05.43a4.7,4.7,0,0,1,2.31,1.77,5.18,5.18,0,0,1,.7,2.75,6,6,0,0,1-.3,2,4.94,4.94,0,0,1-.76,1.45,4.56,4.56,0,0,1-1.13,1,6.18,6.18,0,0,1-1.28.65,8.44,8.44,0,0,1-1.34.36,10.17,10.17,0,0,1-1.19.16c-.31,0-.63,0-.95,0Z"/></svg>
