<svg id="Layer_1" data-name="Layer 1" xmlns="http://www.w3.org/2000/svg" viewBox="0 0 450 450"><defs><style>.cls-1{fill:#fefefe;}.cls-1,.cls-3,.cls-4,.cls-5,.cls-6,.cls-8{fill-rule:evenodd;}.cls-2,.cls-7,.cls-9{fill:none;stroke-linecap:round;stroke-linejoin:round;}.cls-2,.cls-7{stroke:#000;}.cls-2,.cls-9{stroke-width:2.83px;}.cls-3{fill:#d6a87e;}.cls-4{fill:#ec268f;}.cls-5{fill:#ff6;}.cls-7{stroke-width:3.4px;}.cls-8{fill:#fff;}.cls-9{stroke:#fff;}</style></defs><title>Thech Peeps_Success</title><path class="cls-1" d="M157.48,109.53c2.26,2.87,1.9,3.41,7.14,3.9,10.16.95,6.45,11.16,13.37,8,0,0,.49,4.28-.71,5.35-.82.73-2.33.93-4.81.15-6.47-2-1.84-10.35-13.2-8.43-3.05.51-8.11-4-4.68-6C155,112.24,157.44,109.48,157.48,109.53Z"/><path class="cls-2" d="M157.48,109.53c2.26,2.87,1.9,3.41,7.14,3.9,10.16.95,6.45,11.16,13.37,8,0,0,.49,4.28-.71,5.35-.82.73-2.33.93-4.81.15-6.47-2-1.84-10.35-13.2-8.43-3.05.51-8.11-4-4.68-6C155,112.24,157.44,109.48,157.48,109.53Z"/><path class="cls-1" d="M106.65,60.49C117.4,69.21,118.7,50.3,128.4,49c2-.27-2-5-2-5-7,0-12.22,12.05-14.16,12.14s-2.79-1.08-3.52-.92C108.19,55.27,107.81,57.73,106.65,60.49Z"/><path class="cls-2" d="M106.65,60.49C117.4,69.21,118.7,50.3,128.4,49c2-.27-2-5-2-5-7,0-12.22,12.05-14.16,12.14s-2.79-1.08-3.52-.92C108.19,55.27,107.81,57.73,106.65,60.49Z"/><path class="cls-1" d="M332,81.2c4.16,3.57,5.73,10.22,5.73,15.44,0,3.78-2.54,1.78-4.93,3.46-.43.31.42-6.64-1.78-9.47C327,85.38,329.47,87.91,332,81.2Z"/><path class="cls-2" d="M332,81.2c4.16,3.57,5.73,10.22,5.73,15.44,0,3.78-2.54,1.78-4.93,3.46-.43.31.42-6.64-1.78-9.47C327,85.38,329.47,87.91,332,81.2Z"/><path class="cls-1" d="M135.89,168.54c-8.38,1.75-4.41,13.29-16.95,17.27-2,.64-1.1.24.73,3.72,1.27,2.44,2.72,1.78,5.47.56,7.08-3.14,7-10.79,13.43-15.91C138.78,174,136.16,168.48,135.89,168.54Z"/><path class="cls-2" d="M135.89,168.54c-8.38,1.75-4.41,13.29-16.95,17.27-2,.64-1.1.24.73,3.72,1.27,2.44,2.72,1.78,5.47.56,7.08-3.14,7-10.79,13.43-15.91C138.78,174,136.16,168.48,135.89,168.54Z"/><path class="cls-1" d="M289.26,196.47c9.35-1.89,8.1-1.37,13.95-7,.3-.29,1.22-1.79,1.52-1.81-.38-.58-4.34-4.51-4.91-3.83-1.46,1.77-2.07,4.47-4.87,7.26C294,192,290.29,196.26,289.26,196.47Z"/><path class="cls-2" d="M289.26,196.47c9.35-1.89,8.1-1.37,13.95-7,.3-.29,1.22-1.79,1.52-1.81-.38-.58-4.34-4.51-4.91-3.83-1.46,1.77-2.07,4.47-4.87,7.26C294,192,290.29,196.26,289.26,196.47Z"/><path class="cls-3" d="M119.42,49.37c0-16.3,11.42-20.9-4.48-26.41-1.75-4.58-2.65-7.18-6.18-8.23-3-.9-7.29-.72-9.25,4.95-3.06-1.3-6.8.48-6.45,6.22.09,1.54-3.73-1.22-4.45,6.66a9,9,0,0,0-2.55,7,9.34,9.34,0,0,0,7.3,8.35c1.31,1.67,2.52,5.72,3.7,11.27,4.74,22.38,8.92,72.83,16.5,87.24,2.69,5.09,39,67.41,39.61,69.41,5,16,3.59,38.62,5.51,36.75,5-4.88,23-53.69,17.4-56.86-9.88-6.21-4-10.16-14.73-27.31-5.42-8.69-20.49-31.94-22.44-40.43-5.46-23.76-12.88-42.8-18.53-66.84C120.25,60.58,119.39,49.73,119.42,49.37Z"/><path class="cls-2" d="M119.42,49.37c0-16.3,11.42-20.9-4.48-26.41-1.75-4.58-2.65-7.18-6.18-8.23-3-.9-7.29-.72-9.25,4.95-3.06-1.3-6.8.48-6.45,6.22.09,1.54-3.73-1.22-4.45,6.66a9,9,0,0,0-2.55,7,9.34,9.34,0,0,0,7.3,8.35c1.31,1.67,2.52,5.72,3.7,11.27,4.74,22.38,8.92,72.83,16.5,87.24,2.69,5.09,39,67.41,39.61,69.41,5,16,3.59,38.62,5.51,36.75,5-4.88,23-53.69,17.4-56.86-9.88-6.21-4-10.16-14.73-27.31-5.42-8.69-20.49-31.94-22.44-40.43-5.46-23.76-12.88-42.8-18.53-66.84C120.25,60.58,119.39,49.73,119.42,49.37Z"/><path class="cls-4" d="M168.52,423.29c-5.12-6.71-5.87-30.53-1.86-38.61,1.1-2.21,2.79-12.91,6-11.81,7.71,2.66,21.08,6.33,29,6.78,8.54.48,11.35,1,20.54.56,6.2-.29,29-5.47,34.47-8.39,5.08-2.7,10.07-6.84,14.93-11.22,6.29-5.68,16.47,48.5,16.39,53.64-.22,13.64.21,18.55-26.66,21.63-24.38,2.79-40.21,0-58.62-3.92-3.34-.71-.11-3.91-4.89-3.91-4.54,0-25.92-1.51-26.88-3.1-.46-.74-2.16-1.42-2.34-1.65"/><path class="cls-5" d="M284.61,279.44a12.58,12.58,0,0,1-.42,1.19c-.44,1.27-2.3,18.36-1.36,20.13,3.85,7.34,8.78,3.62,8.87,15.51,0,2,2.07-.42,2.94-1.53,1.56-2,2.21-13.36,1.3-16.5C295,294.89,284.81,278.65,284.61,279.44Z"/><path class="cls-2" d="M284.61,279.44a12.58,12.58,0,0,1-.42,1.19c-.44,1.27-2.3,18.36-1.36,20.13,3.85,7.34,8.78,3.62,8.87,15.51,0,2,2.07-.42,2.94-1.53,1.56-2,2.21-13.36,1.3-16.5C295,294.89,284.81,278.65,284.61,279.44Z"/><path class="cls-5" d="M147.73,315.62C147,302,167.86,297.83,164,286.87c-2.57-7.23-27.22-4.7-18.69,25.08C145.6,313.15,147.73,315.48,147.73,315.62Z"/><path class="cls-2" d="M147.73,315.62C147,302,167.86,297.83,164,286.87c-2.57-7.23-27.22-4.7-18.69,25.08C145.6,313.15,147.73,315.48,147.73,315.62Z"/><path class="cls-5" d="M143.73,296.74c0,.1.08,17.41,1.8,23.4,2.13,7.38,21.64,8.4,23.55,10.95,2.41,3.22-.93-5.63-.42-10.15.52-4.68.44-6.31-5.71-7.21-6-.87-16.15-1.57-18.09-8.34A58.92,58.92,0,0,1,143.73,296.74Z"/><path class="cls-2" d="M143.73,296.74c0,.1.08,17.41,1.8,23.4,2.13,7.38,21.64,8.4,23.55,10.95,2.41,3.22-.93-5.63-.42-10.15.52-4.68.44-6.31-5.71-7.21-6-.87-16.15-1.57-18.09-8.34A58.92,58.92,0,0,1,143.73,296.74Z"/><path class="cls-6" d="M213.21,126.46c-3.84-3.07-6.58,1.4-7.89.18s-3.1-2.2-6.14-1.19c-3.64,1.21-1.55,4.44-5.39,2.35-3.12-1.69-7.1.4-7.94,4.67-1.54-.05-6.64-2.89-8.18,3.6-.71,3,1.2,0-2.91,2.25-6.67,3.72-1,10.53-3.47,10.23-5.35-.65-9.17,6.08-5.43,9.59-.69,1.42-8.18,1-4.51,10.26.1.24-8.28,2.07-3.67,9.56.45.72-5.35,6.87.48,10.76.87.58-.19,6.48,7.61,6.34,11.32-.21,20.17,4.45,26.42-6.33,13.22-22.8,6.65-30.58,15.84-46.93.82-1.45,8.33-8.46,6.19-9.46C213.9,132.19,215.05,127.93,213.21,126.46Z"/><path class="cls-2" d="M213.21,126.46c-3.84-3.07-6.58,1.4-7.89.18s-3.1-2.2-6.14-1.19c-3.64,1.21-1.55,4.44-5.39,2.35-3.12-1.69-7.1.4-7.94,4.67-1.54-.05-6.64-2.89-8.18,3.6-.71,3,1.2,0-2.91,2.25-6.67,3.72-1,10.53-3.47,10.23-5.35-.65-9.17,6.08-5.43,9.59-.69,1.42-8.18,1-4.51,10.26.1.24-8.28,2.07-3.67,9.56.45.72-5.35,6.87.48,10.76.87.58-.19,6.48,7.61,6.34,11.32-.21,20.17,4.45,26.42-6.33,13.22-22.8,6.65-30.58,15.84-46.93.82-1.45,8.33-8.46,6.19-9.46C213.9,132.19,215.05,127.93,213.21,126.46Z"/><path class="cls-6" d="M199.93,87.5c5.31-3.79,8.52,2.63,10.39,1.18s4.36-2.53,8.25-.84c4.66,2,1.52,6,6.83,3.75,4.33-1.86,9.33,1.38,9.93,7.11,2,.13,9.11-1.7,10.36,7.07.58,4-1.57-.21,3.57,3.3,8.36,5.71,0,13,3.36,12.61,7.14-.77,11.37,9.12,6,13.31.74,2,10.32,4.83,4.36,16.61-.16.3,9.61,5.05,4.06,11.25-.76.84,9.7,2.75,1.7,12.25-3.94,4.67-4.4,18.38-11.81,18.38-15,0-29.78-6.28-36.74-21.26-14.71-31.69-5.11-41.17-15.29-63.85-.9-2-10-12.17-7-13.23C198.33,95,197.09,89.53,199.93,87.5Z"/><path class="cls-2" d="M199.93,87.5c5.31-3.79,8.52,2.63,10.39,1.18s4.36-2.53,8.25-.84c4.66,2,1.52,6,6.83,3.75,4.33-1.86,9.33,1.38,9.93,7.11,2,.13,9.11-1.7,10.36,7.07.58,4-1.57-.21,3.57,3.3,8.36,5.71,0,13,3.36,12.61,7.14-.77,11.37,9.12,6,13.31.74,2,10.32,4.83,4.36,16.61-.16.3,9.61,5.05,4.06,11.25-.76.84,9.7,2.75,1.7,12.25-3.94,4.67-4.4,18.38-11.81,18.38-15,0-29.78-6.28-36.74-21.26-14.71-31.69-5.11-41.17-15.29-63.85-.9-2-10-12.17-7-13.23C198.33,95,197.09,89.53,199.93,87.5Z"/><path class="cls-6" d="M196.18,91.94c-9.67-3.08-10.07,6.14-10.23,6.14-4.25-.17-9.68,1.76-9.33,7.42,0,.46-5.48,1-5.2,6.11.19,3.43,1.31,2.93-1.79,5.87-1.91,1.82-1.46,6,.11,8.3-.17.29-6,4.22-.72,10.22,4.22,4.83,4.81.88,12.91.16,9.33-.84,20.41-24.31,20-32.43-.1-2,1.63-5.23-2.63-6.11C199.15,97.24,200.33,93.27,196.18,91.94Z"/><path class="cls-2" d="M196.18,91.94c-9.67-3.08-10.07,6.14-10.23,6.14-4.25-.17-9.68,1.76-9.33,7.42,0,.46-5.48,1-5.2,6.11.19,3.43,1.31,2.93-1.79,5.87-1.91,1.82-1.46,6,.11,8.3-.17.29-6,4.22-.72,10.22,4.22,4.83,4.81.88,12.91.16,9.33-.84,20.41-24.31,20-32.43-.1-2,1.63-5.23-2.63-6.11C199.15,97.24,200.33,93.27,196.18,91.94Z"/><path class="cls-3" d="M170.41,371.25c5.46,3.33,14.23,6.5,33.14,8,16.38,1.33,39.17,1.1,55.22-9.08,4.59-2.91,13.49-8.42,13-10.59-4.46-19.1-14.1-14.9-12.83-47.27.21-5.24-51.78,4-60.9,4-5.78,0-23.18,0-28.08-.64l-1.22,3.45c-1.27,6.73,2,15.31,4,25.41,1.12,5.61,1.71,6.74.31,12.14C171.86,361.46,170.6,366.09,170.41,371.25Z"/><path class="cls-2" d="M170.41,371.25c5.46,3.33,14.23,6.5,33.14,8,16.38,1.33,39.17,1.1,55.22-9.08,4.59-2.91,13.49-8.42,13-10.59-4.46-19.1-14.1-14.9-12.83-47.27.21-5.24-51.78,4-60.9,4-5.78,0-23.18,0-28.08-.64l-1.22,3.45c-1.27,6.73,2,15.31,4,25.41,1.12,5.61,1.71,6.74.31,12.14C171.86,361.46,170.6,366.09,170.41,371.25Z"/><path class="cls-3" d="M217.62,168.91c-.41-6,.68-20.35,2.56-19.17,6.53,4.11,14.81-8.76,7.82-12.9-4.16-2.46-7.5,3.8-3.85-4.91,13-31.1-31.8-41.83-41.22-13.63-2.94,8.82-1.86,6-8.72,13.78S165.24,152,169,161c3.41,8.15,8,10.52,16.51,13.47.6,1.74,0,16.46-1.72,16.75a14.37,14.37,0,0,1-5.15,1.17c-7.1-.28-10.91,19.07-10.91,24.51,0,11,6.55,17.76,14.84,24.47,14.26,11.53,41.81,2.93,49.52-15.26,4.58-10.82,5.73-17.24,9.24-27.25.3-.88,3-6.74,3.56-7.24l-1.27-.57c-5.2-.51-15.12-4.27-20.75-3.83C220,187.47,218.46,171.35,217.62,168.91Z"/><path class="cls-2" d="M217.62,168.91c-.41-6,.68-20.35,2.56-19.17,6.53,4.11,14.81-8.76,7.82-12.9-4.16-2.46-7.5,3.8-3.85-4.91,13-31.1-31.8-41.83-41.22-13.63-2.94,8.82-1.86,6-8.72,13.78S165.24,152,169,161c3.41,8.15,8,10.52,16.51,13.47.6,1.74,0,16.46-1.72,16.75a14.37,14.37,0,0,1-5.15,1.17c-7.1-.28-10.91,19.07-10.91,24.51,0,11,6.55,17.76,14.84,24.47,14.26,11.53,41.81,2.93,49.52-15.26,4.58-10.82,5.73-17.24,9.24-27.25.3-.88,3-6.74,3.56-7.24l-1.27-.57c-5.2-.51-15.12-4.27-20.75-3.83C220,187.47,218.46,171.35,217.62,168.91Z"/><path class="cls-3" d="M250.73,187.91c-1.46,1-8.95,3.17-10,6.16-7.41,21.16,2.12,83.32,21,69,9.66-7.34,6.09-28.3,10.95-36.79,19.93-47.74,46.07-97.47,63.09-151.07,1.58-5,15.44-20.84,21.08-32.24,3.63-7.36,2-10.44-2.14-12.83,0,0-1.25-5.41-5.63-4.86-.92.12-.08-2.64-3.74-4.34-1-.47-2.86.15-3.35-.66-2.65-4.41-6.67-2.51-8.05-.74s-3.53,6.17-5.11,9.15c-.19.36-4.8,1.74-8.23,2.39-8.26,1.58.85,19.53-4.63,31.84-9.34,21-27,50.13-35.89,77.05C278.83,143.62,252.27,182.17,250.73,187.91Z"/><path class="cls-2" d="M250.73,187.91c-1.46,1-8.95,3.17-10,6.16-7.41,21.16,2.12,83.32,21,69,9.66-7.34,6.09-28.3,10.95-36.79,19.93-47.74,46.07-97.47,63.09-151.07,1.58-5,15.44-20.84,21.08-32.24,3.63-7.36,2-10.44-2.14-12.83,0,0-1.25-5.41-5.63-4.86-.92.12-.08-2.64-3.74-4.34-1-.47-2.86.15-3.35-.66-2.65-4.41-6.67-2.51-8.05-.74s-3.53,6.17-5.11,9.15c-.19.36-4.8,1.74-8.23,2.39-8.26,1.58.85,19.53-4.63,31.84-9.34,21-27,50.13-35.89,77.05C278.83,143.62,252.27,182.17,250.73,187.91Z"/><path class="cls-2" d="M326.65,29.69c3.23-.6,5.17-.5,6.26,0s5.87,6.51,5.76,7.6a4,4,0,0,1-3.26,3.28c-1.92.28-5-2.51-6.1-1.92-2.48,1.28-.39-.75,2.33,4.56,1.38,2.68,3.54,8.47,3.41,11.58"/><path class="cls-2" d="M330,38.2c-.8-.51-.88-2.08-.85-3"/><path class="cls-2" d="M328.21,39.24a6.71,6.71,0,0,0-3.07.54"/><path class="cls-2" d="M341.55,21.16c-1.52,1.23-4.16,8-5.67,9.61"/><path class="cls-2" d="M348.76,24.74s-5.87,10-6.31,10.33c-.93.76-2.91,2.35-4.41.48"/><path class="cls-2" d="M354.08,30.26a49.49,49.49,0,0,1-2.72,4.81c-1.76,2.6-6.75,8-8.47,1.56a10.31,10.31,0,0,1,.41-3"/><path class="cls-2" d="M354.49,30.14a83.1,83.1,0,0,0-4.53,8c-.75,1.71-.12,5.39,3,4.21a8.6,8.6,0,0,0,2.23-1.87"/><path class="cls-2" d="M283.19,143.37a52.16,52.16,0,0,1,5.3,8"/><path class="cls-4" d="M168.28,318.64c10.94,10.64,91.42,2.51,90.85-6-1.15-17.5,9-53.7,8.73-58-.22-3.78-12.53,17.36-20.47-7.48-4.07-12.71-11.93-45.43-5.11-56.75-2.82-1.18-6.74-.59-8.76-.15-5.37,1.17-10.05,17.2-14.44,28.64-10.76,28-40.22,31.83-40.22-6.73,0-8,6.59-20.11,5.48-20.56,0,0-6.25-.56-7.94-.05-6,1.8-7.66,10.31-9.44,17-5.13,19.16-5.83,28.92-16,48.39-15.82,30.21,11.64,35.42,13,47.39C164.59,309.91,166.71,313.8,168.28,318.64Z"/><path class="cls-2" d="M168.28,318.64c10.94,10.64,91.42,2.51,90.85-6-1.15-17.5,9-53.7,8.73-58-.22-3.78-12.53,17.36-20.47-7.48-4.07-12.71-11.93-45.43-5.11-56.75-2.82-1.18-6.74-.59-8.76-.15-5.37,1.17-10.05,17.2-14.44,28.64-10.76,28-40.22,31.83-40.22-6.73,0-8,6.59-20.11,5.48-20.56,0,0-6.25-.56-7.94-.05-6,1.8-7.66,10.31-9.44,17-5.13,19.16-5.83,28.92-16,48.39-15.82,30.21,11.64,35.42,13,47.39C164.59,309.91,166.71,313.8,168.28,318.64Z"/><path class="cls-1" d="M164.77,306.82c-.84-5.13-1.89-9.91-3-14.72-1.81-7.92-6.19-10.21-5.24-25.59.31-5,4.58-2.69,13.45-2.63,15.34.11,43.48-.25,53.38-1.81,1-.16.54,4.58.92,10.8.35,5.74,1.5,13,3.36,16.55.47.89,1.65-.1,1.83.9,1.42,8.23,2.24,18.12,2.24,18.12C222,316,168.33,316.08,165.23,310,164.68,308.88,165.08,308.71,164.77,306.82Z"/><path class="cls-2" d="M164.77,306.82c-.84-5.13-1.89-9.91-3-14.72-1.81-7.92-6.19-10.21-5.24-25.59.31-5,4.58-2.69,13.45-2.63,15.34.11,43.48-.25,53.38-1.81,1-.16.54,4.58.92,10.8.35,5.74,1.5,13,3.36,16.55.47.89,1.65-.1,1.83.9,1.42,8.23,2.24,18.12,2.24,18.12C222,316,168.33,316.08,165.23,310,164.68,308.88,165.08,308.71,164.77,306.82Z"/><path class="cls-2" d="M222,289.64c14.55.58,19.78-7.32,22.16-7.81l.31-.53"/><path class="cls-2" d="M168.2,276.53c0-7,7.61-8.29,7.61,1.19,0,3.1.18,3.17-.68,6.06-1.77,6-4.84,15.62-3.86,22,0,.16,7.76.66,9.19.7"/><path class="cls-2" d="M186.53,306c-4.31-6.53-2-13.41.8-20.22,1.21-2.92,3.36-17.35-2.91-14.79-2.43,1-.42,8,1.19,10.42,3.33,4.91,9.14,13.26,9,19.37-.14,5.11-1.88,7.06-6.6,6.28A3.33,3.33,0,0,1,186.53,306Z"/><path class="cls-2" d="M194.65,279.63c.25-.49,5.06-8.24,5.1-9,1.09,6.38.41,12.81,1.83,20.25.92,4.85.71,10.22,1.73,15.78a4.73,4.73,0,0,1,.17,1"/><path class="cls-2" d="M212.28,269.71c.09,3-4.83,24.43-3.4,24.47,3.52.11,6.61.57,9.84-.6"/><path class="cls-2" d="M214.68,287.52c.38,6,.83,10.85,1.73,16.8.06.37.05,1.85.06,2.35"/><path class="cls-2" d="M256.06,233.91c.25-4-6-13.79-6-20.39,1.06-2.86,1.91-10.2.14-13.07"/><path class="cls-2" d="M184.82,174.24c2.94,1,10.4,1.25,13.1-.28"/><path class="cls-2" d="M195.56,196c6,5.87,5.81.19,11.5-1.29"/><path class="cls-2" d="M199.14,350.38c.22.84,1.87,6,0,6.18a1,1,0,0,1-.71-.3"/><path class="cls-2" d="M193.58,323.66c-.38,6.34,1.45,4.43,1.84,9a61,61,0,0,0,1.14,7.64"/><path class="cls-2" d="M235.62,344.63c-3.16,6.81-5,19-4.88,19.25"/><path class="cls-2" d="M193.53,239.91c.21-1.71,1.59-8.29,1.59-9"/><path class="cls-2" d="M170.46,370.62c-.56,7.89-7.86,23.5-4.77,44.31"/><path class="cls-2" d="M271.41,358.21c6.95,9.52,15.64,41.58,16.29,50,.4,5.08.38,8.65.38,13.73"/><path class="cls-2" d="M215.07,398.4c-3.7,5.48-9,12.51-10.61,19.36"/><path class="cls-7" d="M202.76,115.49c1.62,0,8.79,2.87,9.34,3.57"/><path class="cls-7" d="M191.69,114.47a37.1,37.1,0,0,0-6.83.32l-.22,0"/><path class="cls-2" d="M185,136.76c.13-4.43,5.09-4.27,8-1.54"/><path class="cls-6" d="M201.12,134c.15.58.49.6,1.08-1.84.28-1.14,1.21-5.16.61-4.78S200.91,133.13,201.12,134Z"/><path class="cls-2" d="M201.12,134c.15.58.49.6,1.08-1.84.28-1.14,1.21-5.16.61-4.78S200.91,133.13,201.12,134Z"/><path class="cls-6" d="M185.52,130.52c.15.57.49.58,1.08-1.79.27-1.12,1.19-5,.6-4.67S185.31,129.69,185.52,130.52Z"/><path class="cls-2" d="M185.52,130.52c.15.57.49.58,1.08-1.79.27-1.12,1.19-5,.6-4.67S185.31,129.69,185.52,130.52Z"/><path class="cls-2" d="M224,141.21c-.94.41-1.54,2.35-.65,3.23"/><path class="cls-6" d="M199.21,101.28c1.59,1.47,5.88,0,7.66-.5,0,0-2.23,9.73,7.42,7.76.61-.13-1,.83-1.45,2.61-1,4.39.68,7.88,5.34,9.07-2.28.8-6.86,7.53-1.38,9.77,0,.39-5.19,5.4,3.24,7.83,6.81,2,17.35-8,17.44-16.06.13-10.9-.8-15.89-9.33-24.19C210.5,80.41,190.24,93,199.21,101.28Z"/><path class="cls-2" d="M199.21,101.28c1.59,1.47,5.88,0,7.66-.5,0,0-2.23,9.73,7.42,7.76.61-.13-1,.83-1.45,2.61-1,4.39.68,7.88,5.34,9.07-2.28.8-6.86,7.53-1.38,9.77,0,.39-5.19,5.4,3.24,7.83,6.81,2,17.35-8,17.44-16.06.13-10.9-.8-15.89-9.33-24.19C210.5,80.41,190.24,93,199.21,101.28Z"/><path class="cls-6" d="M219.63,149.94c-4.25-.48-9.4,4.11-7.24,8.23,1.21,2.3,2.46-.93-1.43,3-2.28,2.32-.06,6.39,2.58,8.2-5.56,3.07-4.17,9.26.3,10.46.37.09-1,5.8,5.46,6.76.19,0,3,8.56,15.77,1.23,6.88-4,6.1-9.84,3.18-17.34C234.79,161.62,220,153.6,219.63,149.94Z"/><path class="cls-2" d="M219.63,149.94c-4.25-.48-9.4,4.11-7.24,8.23,1.21,2.3,2.46-.93-1.43,3-2.28,2.32-.06,6.39,2.58,8.2-5.56,3.07-4.17,9.26.3,10.46.37.09-1,5.8,5.46,6.76.19,0,3,8.56,15.77,1.23,6.88-4,6.1-9.84,3.18-17.34C234.79,161.62,220,153.6,219.63,149.94Z"/><path class="cls-5" d="M289,324.17c-3.27,1.09-7.45-.07-11.54,5.83-3.45,5-5.24,12.56-6.13,14.94-1.17,3.12-.34,3.76-1.86,6.54s-3.29,5.19-8.3,8.66c-11.49,8-19.23,11.3-39.42,11.71-14.56.3-36.54-1.74-45-5.34-4-1.71-4.67-3.23-5-4.3-.07-.21,1.09-17.66,1.09-17.68s2.62,6.22,18.77,8.41c24.85,3.37,49.36,5.41,68-13.15,5.74-5.72,1.44-4.32,4.1-11.45,1.32-3.56,2.17-7,4.6-10.95,2.87-4.62,9.76-9.26,14.32-10.95,3.51-1.3,13.87-3.21,13.89-6.42,0-2.49,0,1.69,0,9.2,0,2.46.05,3.85.12,6.21C296.75,321.49,295,322.16,289,324.17Z"/><path class="cls-2" d="M289,324.17c-3.27,1.09-7.45-.07-11.54,5.83-3.45,5-5.24,12.56-6.13,14.94-1.17,3.12-.34,3.76-1.86,6.54s-3.29,5.19-8.3,8.66c-11.49,8-19.23,11.3-39.42,11.71-14.56.3-36.54-1.74-45-5.34-4-1.71-4.67-3.23-5-4.3-.07-.21,1.09-17.66,1.09-17.68s2.62,6.22,18.77,8.41c24.85,3.37,49.36,5.41,68-13.15,5.74-5.72,1.44-4.32,4.1-11.45,1.32-3.56,2.17-7,4.6-10.95,2.87-4.62,9.76-9.26,14.32-10.95,3.51-1.3,13.87-3.21,13.89-6.42,0-2.49,0,1.69,0,9.2,0,2.46.05,3.85.12,6.21C296.75,321.49,295,322.16,289,324.17Z"/><path class="cls-5" d="M292.11,291.38c3.64,3.57,4.08,7.85,4.25,11.65.14,3.29.22,6.37.27,6.41,0-2-.23-4.74-.27-6.41-.13-4.56-.56-7.23-3.64-10.94-3.8-4.6-13.82-12.66-3.53-18.37,9.13-5.07,36.23,1.08,54.7-6.12,3.65-1.42,11.69-7.52,14.63-10.56,1.05,9.51-.23,9.61-.23,17.83-8,7.83-13.47,13.61-30.12,13.61C324,288.48,290.44,289.73,292.11,291.38Z"/><path class="cls-2" d="M292.11,291.38c3.64,3.57,4.08,7.85,4.25,11.65.14,3.29.22,6.37.27,6.41,0-2-.23-4.74-.27-6.41-.13-4.56-.56-7.23-3.64-10.94-3.8-4.6-13.82-12.66-3.53-18.37,9.13-5.07,36.23,1.08,54.7-6.12,3.65-1.42,11.69-7.52,14.63-10.56,1.05,9.51-.23,9.61-.23,17.83-8,7.83-13.47,13.61-30.12,13.61C324,288.48,290.44,289.73,292.11,291.38Z"/><line class="cls-2" x1="262.66" y1="332.7" x2="266.82" y2="341.33"/><path class="cls-2" d="M114.94,23c-4,1.14-4.08-1.54-7.19,4.83-1.56,3.18-7,9.84,2.2,7,2.08-.65,3.82-2.92,5.31-4.29"/><line class="cls-2" x1="113.58" y1="32.7" x2="116.17" y2="33.05"/><path class="cls-2" d="M111.77,34.52c-4.26,3.76-2.61,2.62-5.12,6.32A12.59,12.59,0,0,0,105.13,47"/><path class="cls-2" d="M100.09,20.82c1,1.74,3.84,6.82,5.87,7.62"/><path class="cls-2" d="M94.36,27.46s5.64,6,6.43,6.45c.15.08,2.29,1.92,2.87,1"/><path class="cls-2" d="M89.57,33.23c2.33,1.85,7.24,7.3,10.62,7.3A2.32,2.32,0,0,0,102.64,39"/><path class="cls-2" d="M89.62,34.07c1,.7,8.5,5.93,9,7.14,1.27,2.9,0,3.95-3.14,3.48a18.36,18.36,0,0,1-3.44-.7"/><path class="cls-2" d="M123.86,137.13c1.23-1.54,8.22-5.89,10.34-6.57"/><path class="cls-2" d="M151.4,199.48c2.37,4.72,7.4,11.73,7.4,17.05"/><path class="cls-8" d="M181.68,149.25c1.45-.91,5-.41,7.4-1.4,5.21-2.13,10.22-2,10.4,4.59.09,3.53-5.41,5.77-7.49,6.22-4.72,1-8.85.64-11.61-3.65A4,4,0,0,1,181.68,149.25Z"/><path class="cls-9" d="M181.68,149.25c1.45-.91,5-.41,7.4-1.4,5.21-2.13,10.22-2,10.4,4.59.09,3.53-5.41,5.77-7.49,6.22-4.72,1-8.85.64-11.61-3.65A4,4,0,0,1,181.68,149.25Z"/><path class="cls-1" d="M157.53,60.07c-2.63,10.94-9.77,8.34-9.77,17,4.1-.48,6.47,2.09,6.72-.69.53-6,6.7-4.79,9.47-13.72,1.1-3.57-.72-.65-5.5-2.62C158.07,59.84,157.6,59.79,157.53,60.07Z"/><path class="cls-2" d="M157.53,60.07c-2.63,10.94-9.77,8.34-9.77,17,4.1-.48,6.47,2.09,6.72-.69.53-6,6.7-4.79,9.47-13.72,1.1-3.57-.72-.65-5.5-2.62C158.07,59.84,157.6,59.79,157.53,60.07Z"/><path class="cls-1" d="M185.79,37.47c-1,10.47,12,9.86,7.26,22.14-1.39,3.59-.09,4.88.45,5.91.59.1,8.7,1.18,6.42-2s5.16-11.37-4.89-19.68c-3.24-2.67-1.73-5.23-2.38-5.86S189.48,37.33,185.79,37.47Z"/><path class="cls-2" d="M185.79,37.47c-1,10.47,12,9.86,7.26,22.14-1.39,3.59-.09,4.88.45,5.91.59.1,8.7,1.18,6.42-2s5.16-11.37-4.89-19.68c-3.24-2.67-1.73-5.23-2.38-5.86S189.48,37.33,185.79,37.47Z"/><path class="cls-1" d="M280.09,44.19c-14.7,6.85-12.54,6-14.34,10.78a28.7,28.7,0,0,1-3.25,5.91c-.4.63,3.3,5.32,4.68,3.69.85-1,3.92-6.59,4.28-8.88.71-4.44,11.1-4.34,10.89-6.12C282.34,49.52,280.49,44,280.09,44.19Z"/><path class="cls-2" d="M280.09,44.19c-14.7,6.85-12.54,6-14.34,10.78a28.7,28.7,0,0,1-3.25,5.91c-.4.63,3.3,5.32,4.68,3.69.85-1,3.92-6.59,4.28-8.88.71-4.44,11.1-4.34,10.89-6.12C282.34,49.52,280.49,44,280.09,44.19Z"/><path class="cls-1" d="M272.92,101.09c-3.9,13.28,14.05,7.18,19,15.61,1,1.71,3.88-3.76,3.88-3.76-2.73-6.47-15.84-6.62-16.67-8.38s-.09-3-.51-3.6C278.33,100.5,275.91,101.09,272.92,101.09Z"/><path class="cls-2" d="M272.92,101.09c-3.9,13.28,14.05,7.18,19,15.61,1,1.71,3.88-3.76,3.88-3.76-2.73-6.47-15.84-6.62-16.67-8.38s-.09-3-.51-3.6C278.33,100.5,275.91,101.09,272.92,101.09Z"/><path class="cls-1" d="M95.06,118.53c11.87,6.34,12.44-1.9,19.73,0,.53.14.87,5.64-.3,5.64-6,0-11.44,5.31-20.39-.09C91.86,122.77,94.42,118.18,95.06,118.53Z"/><path class="cls-2" d="M95.06,118.53c11.87,6.34,12.44-1.9,19.73,0,.53.14.87,5.64-.3,5.64-6,0-11.44,5.31-20.39-.09C91.86,122.77,94.42,118.18,95.06,118.53Z"/><path class="cls-1" d="M232,22.71c6-3.9,12.56-7.74,23.42.72,1,.74-3.12,6.84-4.11,5.59-2.88-3.64-10.36-6.38-15.83-.56-.88.94-7.88-5.25-4.27-5C232,23.56,231.38,23.09,232,22.71Z"/><path class="cls-2" d="M232,22.71c6-3.9,12.56-7.74,23.42.72,1,.74-3.12,6.84-4.11,5.59-2.88-3.64-10.36-6.38-15.83-.56-.88.94-7.88-5.25-4.27-5C232,23.56,231.38,23.09,232,22.71Z"/><path class="cls-1" d="M244.6,83.59c0,11.53-5.66,12-5.2,17,9,4.49,3.39,1.92,8.25-4.89,2-2.81,6.27-12.22.61-12.22C247.35,83.44,244.6,83.3,244.6,83.59Z"/><path class="cls-2" d="M244.6,83.59c0,11.53-5.66,12-5.2,17,9,4.49,3.39,1.92,8.25-4.89,2-2.81,6.27-12.22.61-12.22C247.35,83.44,244.6,83.3,244.6,83.59Z"/><path class="cls-1" d="M247.1,131.28c5.68,4.75,12.89,2.84,21.26,3.78,3.29.37-1.27,5.82-1.27,5.82-2.75-1.13-18.85,1.58-23.19-5.5C243.55,134.8,247.09,131.27,247.1,131.28Z"/><path class="cls-2" d="M247.1,131.28c5.68,4.75,12.89,2.84,21.26,3.78,3.29.37-1.27,5.82-1.27,5.82-2.75-1.13-18.85,1.58-23.19-5.5C243.55,134.8,247.09,131.27,247.1,131.28Z"/><path class="cls-1" d="M283.58,184.19c3.43,2.23,7.11,9.53,14.77,8.94.6,0-8.75,7.67-17.46-1.06-4.43-4.44-3.63-3.71,1.95-7.91Z"/><path class="cls-2" d="M283.58,184.19c3.43,2.23,7.11,9.53,14.77,8.94.6,0-8.75,7.67-17.46-1.06-4.43-4.44-3.63-3.71,1.95-7.91Z"/><path class="cls-1" d="M164.26,187c1.2,7.31,14,7.36,17.87,14.05,2.51,4.3,4.23-4.3,4-4.49-3.82-3.75-6.68-4.89-11.54-7-5.08-2.21-6.07-7.42-6.72-6.21C167.38,184.36,164.25,187,164.26,187Z"/><path class="cls-2" d="M164.26,187c1.2,7.31,14,7.36,17.87,14.05,2.51,4.3,4.23-4.3,4-4.49-3.82-3.75-6.68-4.89-11.54-7-5.08-2.21-6.07-7.42-6.72-6.21C167.38,184.36,164.25,187,164.26,187Z"/><path class="cls-1" d="M295.73,154.52c4.58-3.24,6.34-3.3,12.18-2.87a12.75,12.75,0,0,0,8.88-2.68c-.29.37,2.44,5,2.12,5.36-6.29,7-12.79,1.78-19.64,5.13C298.66,159.76,295,155,295.73,154.52Z"/><path class="cls-2" d="M295.73,154.52c4.58-3.24,6.34-3.3,12.18-2.87a12.75,12.75,0,0,0,8.88-2.68c-.29.37,2.44,5,2.12,5.36-6.29,7-12.79,1.78-19.64,5.13C298.66,159.76,295,155,295.73,154.52Z"/><path class="cls-6" d="M315.61,43.36c2.4,2.28.7-3.53.79-5,.2-3.21-1.45-6.39,2.71-7.21,2.25-.44,8.71-1.81,9.69-3.88.74-1.56,3-5.09,1.35-5.87A53.2,53.2,0,0,0,324.27,18c-2.41-1.25-4.8-1.78-6.14-.33a103.73,103.73,0,0,0-9.68,13.05c-1.9,3.33-1.51,5.14-.25,6.63A76.91,76.91,0,0,0,315.61,43.36Z"/><path class="cls-2" d="M315.61,43.36c2.4,2.28.7-3.53.79-5,.2-3.21-1.45-6.39,2.71-7.21,2.25-.44,8.71-1.81,9.69-3.88.74-1.56,3-5.09,1.35-5.87A53.2,53.2,0,0,0,324.27,18c-2.41-1.25-4.8-1.78-6.14-.33a103.73,103.73,0,0,0-9.68,13.05c-1.9,3.33-1.51,5.14-.25,6.63A76.91,76.91,0,0,0,315.61,43.36Z"/><path class="cls-6" d="M335,53.51c-.16-2.62-3.09-9.43-4-11.42-2.23-5-2.26-2.45,4.39-2.45,3,0,2.48-2.93,3.87-2.93,3.77,0-.14-1.66,4.31,2.43,1.22,1.12,4.44.39,5.81-.2.34,1.17-.47,2.42,2.21,3.13,2.34.63,4.68-2.17,6.06-3.21.18-.14,0-.35.42-.06,1.23.73,4.89,2.4,5.49,3.67,1,2.17-.12,3.29-.24,3.83l-8.69,13.82c-1.74,2.65-3.54,3.7-7,2l-.67-.45Z"/><path class="cls-2" d="M335,53.51c-.16-2.62-3.09-9.43-4-11.42-2.23-5-2.26-2.45,4.39-2.45,3,0,2.48-2.93,3.87-2.93,3.77,0-.14-1.66,4.31,2.43,1.22,1.12,4.44.39,5.81-.2.34,1.17-.47,2.42,2.21,3.13,2.34.63,4.68-2.17,6.06-3.21.18-.14,0-.35.42-.06,1.23.73,4.89,2.4,5.49,3.67,1,2.17-.12,3.29-.24,3.83l-8.69,13.82c-1.74,2.65-3.54,3.7-7,2l-.67-.45Z"/></svg>
