<svg id="Layer_1" data-name="Layer 1" xmlns="http://www.w3.org/2000/svg" viewBox="0 0 450 450"><defs><style>.cls-1{fill:#c3a786;}.cls-1,.cls-10,.cls-11,.cls-12,.cls-13,.cls-2,.cls-4,.cls-5,.cls-6,.cls-7,.cls-8,.cls-9{fill-rule:evenodd;}.cls-2{fill:#fefefe;}.cls-14,.cls-15,.cls-3{fill:none;stroke-linecap:round;stroke-linejoin:round;stroke-width:2.83px;}.cls-3{stroke:#000;}.cls-5{fill:#f7b6c8;}.cls-6{fill:#f96;}.cls-7{fill:#373435;}.cls-8{fill:#e6e7e8;}.cls-9{fill:#d2d3d5;}.cls-10{fill:#bdbfc1;}.cls-11{fill:#bfe2ff;}.cls-12{fill:#887054;}.cls-13{fill:#fac384;}.cls-14{stroke:#bdbfc1;}.cls-15{stroke:#373435;}</style></defs><title>Thech Peeps_Transport</title><path class="cls-1" d="M178.18,323.87c19.39,25.63,42.24,12.2,42.42,12.29,1.81,10-5.24,81.86,4,82.67,22.51,2,20.08-2.15,41.49-3.15,5.14-.24,22.73,5.39,32.48,2.63,11.23-3.17,63.54,13.92,64.08-8.19.13-5.15.45-24.31,1.62-24.95,10.07-5.45,22.84-12.54,24.52-26.72,3.74-31.6-3.55-77.72-6.2-116.8-.72-10.67-33.46-30.77-59.58-40.16-14.83-5.34-24.79-3.2-32.37-4-25.44-2.54-26.17-2.75-55.54,4.73C205,210,209.57,203.9,205.13,234c-1.48,10-8.27,26.58-7.94,50.23,0,.83.89,14.58-7.57,24.89-3.2,3.89-7.51,10.55-11.44,14.8"/><path class="cls-2" d="M311,188.22c4.31,3.11,6.95,8.35,9.27,14,2.66,6.53-2.14,12.15-10.58,16.18-3.4,1.63-17.15,12.91-20,9.74-14.51-16.33-3.36-11.66-14.81-7.88-4.83,1.59-5.21,9.77-7.35-1.13-1.54-7.85-.61-14.7,4.88-23.15.84-1.3,2.48-5.83,5.49-7C287.26,185.58,300.34,184.23,311,188.22Z"/><path class="cls-3" d="M311,188.22c4.31,3.11,6.95,8.35,9.27,14,2.66,6.53-2.14,12.15-10.58,16.18-3.4,1.63-17.15,12.91-20,9.74-14.51-16.33-3.36-11.66-14.81-7.88-4.83,1.59-5.21,9.77-7.35-1.13-1.54-7.85-.61-14.7,4.88-23.15.84-1.3,2.48-5.83,5.49-7C287.26,185.58,300.34,184.23,311,188.22Z"/><path class="cls-4" d="M343,75c0-2.23,1.05-2.08,2.11-1.54.74.38,2.77,2.14,2.91,3.66.28,2.87-3.21,1.59-4.13-1.07a1.8,1.8,0,0,0-.81-.76C343,75,343,75.23,343,75Z"/><path class="cls-3" d="M343,75c0-2.23,1.05-2.08,2.11-1.54.74.38,2.77,2.14,2.91,3.66.28,2.87-3.21,1.59-4.13-1.07a1.8,1.8,0,0,0-.81-.76C343,75,343,75.23,343,75Z"/><path class="cls-1" d="M295.84,78.66c16.59-8,36.28-22.56,55.57,7.86,3.76,5.93,2,17-1.72,22.92-6.49,10.17-.16,4.94-12.7-5.09-3.21-2.56-6.49-6.72-10.39-9.14-6.53-4-5.76-5.92-15.22-9.27-3.56-1.26-15.7-2.72-16.83-4.09C294,81.23,295.3,79.17,295.84,78.66Z"/><path class="cls-3" d="M295.84,78.66c16.59-8,36.28-22.56,55.57,7.86,3.76,5.93,2,17-1.72,22.92-6.49,10.17-.16,4.94-12.7-5.09-3.21-2.56-6.49-6.72-10.39-9.14-6.53-4-5.76-5.92-15.22-9.27-3.56-1.26-15.7-2.72-16.83-4.09C294,81.23,295.3,79.17,295.84,78.66Z"/><path class="cls-5" d="M274.48,118.19c-.82,6.39-15.26,22.41-10.53,43,3.35,14.57,13.73,16.27,13.73,16.27,2.72,3-2.39,20.71.35,27.88.79,2,3,9.39,4.4,8.9.79-.26,6.79-2.56,9.63-3.51,10.41-3.47,19.2-7.1,19.83-14.23.54-6.13,2.25-16.71,2.25-16.71,6.44-1.42,21.13-8.9,19.19-39.88-.15-2.49,2.83,0,8-4.44,3.78-3.28,2-12.63-6.79-12-4.28.29,19.61-38.25-36.3-38.25C281.49,85.19,275.7,108.62,274.48,118.19Z"/><path class="cls-3" d="M274.48,118.19c-.82,6.39-15.26,22.41-10.53,43,3.35,14.57,13.73,16.27,13.73,16.27,2.72,3-2.39,20.71.35,27.88.79,2,3,9.39,4.4,8.9.79-.26,6.79-2.56,9.63-3.51,10.41-3.47,19.2-7.1,19.83-14.23.54-6.13,2.25-16.71,2.25-16.71,6.44-1.42,21.13-8.9,19.19-39.88-.15-2.49,2.83,0,8-4.44,3.78-3.28,2-12.63-6.79-12-4.28.29,19.61-38.25-36.3-38.25C281.49,85.19,275.7,108.62,274.48,118.19Z"/><path class="cls-3" d="M274.94,176.53c4.9,2,9.23,4.58,19.35,2.41.52-.11,6.3-.17,6.83-.17"/><path class="cls-3" d="M335.87,128.47c-.81.29-1.55,2.42-.58,3.13"/><path class="cls-3" d="M306.33,110.8c1.94-1.73,5.17-2.44,7.45-.91a9.48,9.48,0,0,1,3.45,5"/><path class="cls-3" d="M293.57,109.33c-1.93-2.8-2.62-4.43-6.13-5.2a5.29,5.29,0,0,0-6,3.4"/><path class="cls-3" d="M293.45,131c-2.69,1-4.69-.69-6.6-.54a3.17,3.17,0,0,0-3,4c.25,1.18,3,2.5,3,3.42"/><path class="cls-6" d="M278.12,147.35c5.24-2.69,11-.4,15.34,3.14,3.83,3.12,1.81,10.91,1,14-1.67,6.15-3.69,3.92-11.05.69-4.65-2-10.71,1.93-10.35-2.75C273.31,158.68,274.08,149.43,278.12,147.35ZM276.23,141c8.67-4.47,14.85-3.3,21.43,3.21,6.72,6.66,2.85,18.05,1.45,23.18-2.77,10.16.44,13.23-15.79,12.46-8.38-.41-16.75-5.67-16.15-13.41C267.65,160.26,269.53,144.49,276.23,141Z"/><path class="cls-3" d="M278.12,147.35c5.24-2.69,11-.4,15.34,3.14,3.83,3.12,1.81,10.91,1,14-1.67,6.15-3.69,3.92-11.05.69-4.65-2-10.71,1.93-10.35-2.75C273.31,158.68,274.08,149.43,278.12,147.35ZM276.23,141c8.67-4.47,14.85-3.3,21.43,3.21,6.72,6.66,2.85,18.05,1.45,23.18-2.77,10.16.44,13.23-15.79,12.46-8.38-.41-16.75-5.67-16.15-13.41C267.65,160.26,269.53,144.49,276.23,141Z"/><path class="cls-6" d="M330.35,95.16c.56-1.26-7.39,10,2.69,10.82.66,0-1.77,2.4-2.58,4.37-7.17,17.5,3.81,10.74,8.76,14s11.09-3.88,7.09-7.21c-.27-.23,6.72-5.51.91-10.89-2.56-2.36,1.63-4.53-2.87-8.53C340.87,94.64,334.63,93.85,330.35,95.16Z"/><path class="cls-3" d="M330.35,95.16c.56-1.26-7.39,10,2.69,10.82.66,0-1.77,2.4-2.58,4.37-7.17,17.5,3.81,10.74,8.76,14s11.09-3.88,7.09-7.21c-.27-.23,6.72-5.51.91-10.89-2.56-2.36,1.63-4.53-2.87-8.53C340.87,94.64,334.63,93.85,330.35,95.16Z"/><path class="cls-4" d="M284.07,123.92c.14.7.54.74,1.35-2.07.37-1.32,1.65-6,.93-5.58C285.47,116.78,283.85,122.91,284.07,123.92Z"/><path class="cls-3" d="M284.07,123.92c.14.7.54.74,1.35-2.07.37-1.32,1.65-6,.93-5.58C285.47,116.78,283.85,122.91,284.07,123.92Z"/><path class="cls-4" d="M304,127.56c.15.7.55.74,1.35-2.07.38-1.32,1.65-6,.94-5.57C305.37,120.42,303.76,126.55,304,127.56Z"/><path class="cls-3" d="M304,127.56c.15.7.55.74,1.35-2.07.38-1.32,1.65-6,.94-5.57C305.37,120.42,303.76,126.55,304,127.56Z"/><path class="cls-4" d="M283.88,86.6c0,5,4.2.12,11.91.34,11.31.32,25,1.36,33.49,7.76,2,1.52,0-17.29-.31-19.56-2.14-14.23-18-22.32-29-21.78C283.45,54.17,279.23,68.57,283.88,86.6Z"/><path class="cls-3" d="M283.88,86.6c0,5,4.2.12,11.91.34,11.31.32,25,1.36,33.49,7.76,2,1.52,0-17.29-.31-19.56-2.14-14.23-18-22.32-29-21.78C283.45,54.17,279.23,68.57,283.88,86.6Z"/><path class="cls-3" d="M278.57,155.49c2,3.77,8.42,6.23,13,3.29l.3,0"/><path class="cls-6" d="M298.68,82.81c-16.48-8.57-18.64,14-4.59,11,3.73-.78,2.39-4.2,8.09.82,3,2.6,14,.37,17.13-4.49.76-1.15-5.89-1.3-11.87-7.56C304,79,302.4,84.75,298.68,82.81Z"/><path class="cls-3" d="M298.68,82.81c-16.48-8.57-18.64,14-4.59,11,3.73-.78,2.39-4.2,8.09.82,3,2.6,14,.37,17.13-4.49.76-1.15-5.89-1.3-11.87-7.56C304,79,302.4,84.75,298.68,82.81Z"/><path class="cls-3" d="M333,106c1.8.64,3.94-.77,4.77-1"/><path class="cls-3" d="M345.62,116.43a30.82,30.82,0,0,1-4.73,1.66"/><path class="cls-3" d="M298.31,92.05c-1.05-.84-3.09-3.5-4.09-3.76"/><path class="cls-3" d="M321.08,200.82c10.48,3.18,23.86,9.51,35.35,16,6,3.44,23.61,15.65,25.24,20.85,4.62,14.68,12.51,117,4.91,130.08-4.63,8-19.41,18.1-27.78,18.77-6.21.49-80-34.08-74.81-37,11.19-6.17,14.25-35.32,14.85-36C301.46,310.43,333,327,340.32,328c2.81.38,13.43,4.69,17.45,5.71"/><path class="cls-3" d="M347.82,327.66a54.2,54.2,0,0,1,7.65-3.85"/><path class="cls-3" d="M370.79,240.45C362.16,241,348.08,253,345,265.18"/><path class="cls-3" d="M342.91,328.61c.47-18.33-1.08-33.82-.63-52.09"/><path class="cls-3" d="M270.59,195.69c-5.48-.05-59,7.22-62.43,16.85-3.88,11-2.27,6.39-4.06,18.3-3.2,21.42-7.18,31.09-7.75,54.06"/><path class="cls-7" d="M179.88,288.19c-7.08-1.95,3.83-6.53,9.63-6.53l71.62,12.84c4,.57,5.49,5.68-5,5.68-2.67,0-5.66.63-8,.63Z"/><path class="cls-3" d="M179.88,288.19c-7.08-1.95,3.83-6.53,9.63-6.53l71.62,12.84c4,.57,5.49,5.68-5,5.68-2.67,0-5.66.63-8,.63Z"/><path class="cls-8" d="M187.56,307.89s4.8,15.67-23.15,1c-3.09-2.3-10.11-25.36,16.94-25.36h1.87l76.23,13.88,3.31,1.43c27,26.53,10.09,49-23.76,19.46-.42-.36-.29.26-.63-.79Z"/><path class="cls-3" d="M187.56,307.89s4.8,15.67-23.15,1c-3.09-2.3-10.11-25.36,16.94-25.36h1.87l76.23,13.88,3.31,1.43c27,26.53,10.09,49-23.76,19.46-.42-.36-.29.26-.63-.79Z"/><path class="cls-5" d="M298.84,313.56c-2.81-2.7-10.46-6.88-13-14.14-1.85-5.22-3.74-8-6.58-16-.67-1.88-4.07-3-6.15-1.26-3.45,2.8,4.39,20.48-1.18,23.86-8.62,5.23-18.89,17.93-36,8.32-3.91-2.19-4.38,4.46-.21,8.5,3.31,3.22,1.66.1,4.12,3.63,4.41,6.32,7,5,8.3,7.73,1.43,3,4.65,1.26,7.1,5.13,1.78,2.83,10.08,5.59,14.5,3.89,2.53-1,18.24-.88,19.58-2.24C293.08,337.09,299.35,314.05,298.84,313.56Z"/><path class="cls-3" d="M298.84,313.56c-2.81-2.7-10.46-6.88-13-14.14-1.85-5.22-3.74-8-6.58-16-.67-1.88-4.07-3-6.15-1.26-3.45,2.8,4.39,20.48-1.18,23.86-8.62,5.23-18.89,17.93-36,8.32-3.91-2.19-4.38,4.46-.21,8.5,3.31,3.22,1.66.1,4.12,3.63,4.41,6.32,7,5,8.3,7.73,1.43,3,4.65,1.26,7.1,5.13,1.78,2.83,10.08,5.59,14.5,3.89,2.53-1,18.24-.88,19.58-2.24C293.08,337.09,299.35,314.05,298.84,313.56Z"/><line class="cls-3" x1="236.32" y1="314.9" x2="229.21" y2="305.97"/><path class="cls-9" d="M260.8,297.51c.32-4.65,6-6.27,1.75-10.6-1.75-1.77.41-7.23,8.42-2.26,13,8.05-.81,8-1.09,8.33-1.24,1.55-5.13,7.11-7.12,5.84C262.29,298.52,260.75,298.27,260.8,297.51Z"/><path class="cls-3" d="M260.8,297.51c.32-4.65,6-6.27,1.75-10.6-1.75-1.77.41-7.23,8.42-2.26,13,8.05-.81,8-1.09,8.33-1.24,1.55-5.13,7.11-7.12,5.84C262.29,298.52,260.75,298.27,260.8,297.51Z"/><path class="cls-5" d="M173.22,272.1c-3.68,2.08-21.12,30-18.45,38.4,2.91,9.07,14.94,13.56,17.94,14.05,3.39.56,7.66-1.36,11.55-3.92,2.77-1.83,6.38-7.91,6.38-7.91.78-1.22,1.63-2,.4-3.14-1.73-1.55-1.06.89-2.72-2.36-2.58-5.05-7.52,1.11-12.56,2.85-.54.19-12-4-12.24-5-3.21-13.24,3.56-22,17.28-21.71l.7.08c-.36-1.91.76-3.65,2.23-5,9.91-9.18,4.73-14.88,1.2-13.22C182.42,266.39,176.13,269.13,173.22,272.1Z"/><path class="cls-3" d="M173.22,272.1c-3.68,2.08-21.12,30-18.45,38.4,2.91,9.07,14.94,13.56,17.94,14.05,3.39.56,7.66-1.36,11.55-3.92,2.77-1.83,6.38-7.91,6.38-7.91.78-1.22,1.63-2,.4-3.14-1.73-1.55-1.06.89-2.72-2.36-2.58-5.05-7.52,1.11-12.56,2.85-.54.19-12-4-12.24-5-3.21-13.24,3.56-22,17.28-21.71l.7.08c-.36-1.91.76-3.65,2.23-5,9.91-9.18,4.73-14.88,1.2-13.22C182.42,266.39,176.13,269.13,173.22,272.1Z"/><path class="cls-9" d="M179,285.53c-.14-4.64,5.36-7.73.66-11.6-1.91-1.59-.3-7.22,8.18-3.08,13.75,6.72,0,8-.26,8.38-1.09,1.66-4.39,8.48-6.5,7.42C180.58,286.39,179,286.3,179,285.53Z"/><path class="cls-3" d="M179,285.53c-.14-4.64,5.36-7.73.66-11.6-1.91-1.59-.3-7.22,8.18-3.08,13.75,6.72,0,8-.26,8.38-1.09,1.66-4.39,8.48-6.5,7.42C180.58,286.39,179,286.3,179,285.53Z"/><path class="cls-3" d="M182.74,305.91c-.07-.62-1.46-2.47-2.25-3.69-.63-1-1.44-1.86-2.19-3.22"/><path class="cls-10" d="M185.46,293.75c5.41,5.35,9.27-1.35,8.45-3.46l-35.73-31.43c-7.76-1.64-6.93,3.79-4.19,6.17Z"/><path class="cls-3" d="M185.46,293.75c5.41,5.35,9.27-1.35,8.45-3.46l-35.73-31.43c-7.76-1.64-6.93,3.79-4.19,6.17Z"/><path class="cls-10" d="M219.65,298.59c3.21,5.7,8.62-1.45,8.52-3.69l-22.33-33.54c-6.39-1.75-7.27,4.05-5.54,6.58Z"/><path class="cls-3" d="M219.65,298.59c3.21,5.7,8.62-1.45,8.52-3.69l-22.33-33.54c-6.39-1.75-7.27,4.05-5.54,6.58Z"/><path class="cls-4" d="M289.44,342.33c-1.16,1.36-4.91,11.42-7.28,5.72-.37-.89-1.93-5.63-.35-5.81C282.71,342.13,289.81,341.9,289.44,342.33Z"/><path class="cls-3" d="M289.44,342.33c-1.16,1.36-4.91,11.42-7.28,5.72-.37-.89-1.93-5.63-.35-5.81C282.71,342.13,289.81,341.9,289.44,342.33Z"/><path class="cls-3" d="M237.09,323.48a32.42,32.42,0,0,0,9.78,3.09,16,16,0,0,0,6.5-.23c2.06-.46,3.66-.72,6.07-1.35"/><path class="cls-3" d="M245.3,331.8c7.06,1.36,9,1.26,16.22-1.05a6.55,6.55,0,0,0,1.24-.54"/><path class="cls-3" d="M254.1,337c6.73.93,5.72.48,11.71-.78.25-.05,2-.55,2.12-.55"/><path class="cls-3" d="M266.14,324c1.37,0,1.6.17,2.85-.7"/><line class="cls-3" x1="269.62" y1="329.93" x2="272.47" y2="329.22"/><line class="cls-3" x1="274.25" y1="335.94" x2="277.45" y2="335.15"/><path class="cls-3" d="M274.64,304a16.12,16.12,0,0,1,2.62-2.47"/><path class="cls-3" d="M279.88,225.87c-4.1,7.18-8.57,46.21-8.8,55.75"/><path class="cls-2" d="M292.67,267.27a67.61,67.61,0,0,1,.52-8.18c.59-3.56,2-5.9,5.16-5.44,4.14.58,16.84,3.7,23.38,6.43,4.9,2,4.08,2.81,3.53,8.7-.7,7.52.8,15.28-6,13.47-8-2.14-26.69-8-26.74-8.22C292.21,272.88,292.61,268.42,292.67,267.27Z"/><path class="cls-3" d="M292.67,267.27a67.61,67.61,0,0,1,.52-8.18c.59-3.56,2-5.9,5.16-5.44,4.14.58,16.84,3.7,23.38,6.43,4.9,2,4.08,2.81,3.53,8.7-.7,7.52.8,15.28-6,13.47-8-2.14-26.69-8-26.74-8.22C292.21,272.88,292.61,268.42,292.67,267.27Z"/><path class="cls-11" d="M299.58,258.48l4.84,1.44a2.37,2.37,0,0,1,1.58,2.31l-.47,7.7a1.36,1.36,0,0,1-1.8,1.31l-4.84-1.45a2.35,2.35,0,0,1-1.58-2.3l.47-7.71a1.36,1.36,0,0,1,1.8-1.3"/><line class="cls-3" x1="222.78" y1="283.45" x2="224.35" y2="244.54"/><path class="cls-3" d="M363.37,385.5c-1.44,7.74-.22,22-.33,26.47"/><path class="cls-3" d="M221.35,315.28c1.44,16.43-3.12,25.57-.07,42.2,1.23,6.75.16,17.79-.6,31.57-.61,10.89-.53,17.43.08,21.77"/><path class="cls-3" d="M272.49,346.47c-2.29,24.32,4.19,23,0,38.06-1.77,6.35-.1,22.24-.07,25.72"/><path class="cls-3" d="M175.76,310.07c-.2.94-1.66,2.86-1.6,3.74"/><path class="cls-3" d="M187.82,309.23c.14.86-6.63,7.54-8.29,8.4-2.24,1.16-8.9,1.86-8.9,1.86a28.93,28.93,0,0,0-3.06-1.3"/><path class="cls-3" d="M164,305.5c-.66.57-2.83,2.31-3.15,3.18"/><path class="cls-3" d="M176.87,324.22c6.37,7.91,26.39,18.76,36.8,15.15,2.14-.74,6.32-3.32,6.93-3.21"/><path class="cls-3" d="M223.23,238.41c-.07-4.56-7.11-20.9-7.86-22.81"/><path class="cls-7" d="M278.56,396.35c.87,0,1.57,1.25,1.57,2.78s-.7,2.77-1.57,2.77-1.58-1.24-1.58-2.77.71-2.78,1.58-2.78"/><path class="cls-7" d="M280.73,374.45c.87,0,1.58,1.25,1.58,2.78s-.71,2.77-1.58,2.77-1.57-1.24-1.57-2.77.7-2.78,1.57-2.78"/><path class="cls-7" d="M279.46,354.2c.87,0,1.57,1.25,1.57,2.78s-.7,2.77-1.57,2.77-1.58-1.24-1.58-2.77.71-2.78,1.58-2.78"/><path class="cls-7" d="M279.08,268.7c.87,0,1.58,1.25,1.58,2.78s-.71,2.77-1.58,2.77-1.57-1.24-1.57-2.77.7-2.78,1.57-2.78"/><path class="cls-7" d="M282.46,246.8c.87,0,1.57,1.24,1.57,2.78s-.7,2.77-1.57,2.77-1.58-1.24-1.58-2.77.71-2.78,1.58-2.78"/><path class="cls-3" d="M269.89,223.47a110.18,110.18,0,0,0,5.35-10.27c.24-.5.47-.91,1-.94,1.08-.67,4.39,2.59,4.35,3.53"/><path class="cls-3" d="M291.06,227.74c-.27-4.1-1.29-7.31-1.62-10.87a4.45,4.45,0,0,0-1.23-2.89c-1.94,0-1.92-1.17-4.74,1.32-.28.25-1,.81-.89,1.22"/><line class="cls-3" x1="277.71" y1="204.34" x2="280.61" y2="215.79"/><path class="cls-3" d="M155.28,101.57c.65,3.35-1.25,4.84-7.23,3.57-.94-.2-19.36-3.41-19.42-3.45-2.72-2.18-2.85-4.55-2.79-5,.2-1.57,2.55-2.82,2.67-2.42.45,1.45,2.24,4.24,2.7,4.3,3.84.49,13,2.48,18.42,3,2.93.29-6.56-12.66-5.81-14.15.24-.48,2.58-1.21,3.54-1C148,86.58,154.59,98,155.28,101.57Z"/><polygon class="cls-12" points="214.34 141.46 147.98 177.99 165.18 242.95 235.06 207.13 214.34 141.46"/><polygon class="cls-3" points="214.34 141.46 147.98 177.99 165.18 242.95 235.06 207.13 214.34 141.46"/><polygon class="cls-1" points="147.98 177.99 165.18 242.95 117.07 226.8 99.52 162.18 147.98 177.99"/><polygon class="cls-3" points="147.98 177.99 165.18 242.95 117.07 226.8 99.52 162.18 147.98 177.99"/><polygon class="cls-13" points="147.98 177.99 214.34 141.46 166.24 125.31 99.52 162.18 147.98 177.99"/><polygon class="cls-3" points="147.98 177.99 214.34 141.46 166.24 125.31 99.52 162.18 147.98 177.99"/><line class="cls-3" x1="149.69" y1="105.43" x2="147.98" y2="177.98"/><line class="cls-3" x1="179.13" y1="93.5" x2="212.71" y2="140.92"/><line class="cls-3" x1="100.78" y1="161.48" x2="130.77" y2="101.08"/><path class="cls-2" d="M124.86,76c5.93-11.78,15.75-20.14,37.22-19.08,1.4.07,6.67-4.64,11.15-8.22,2.93-2.34,5.86-4.41,7.87-4.68,8.44-1.11-.3,9.82,1.93,13,1.08,1.52,4.6,1,10.64.76s35.88-3,37.05,1.94c1,4.12-.71,5.49-6.92,7.3-13,3.81-39.42,5.14-54.1,8.08-7.47,1.5-15.36,5.91-21.5,17.52-5.82,11-7.7,14.42-14.06,26.83-1.83,3.56-14.36,7-12.52-2.42.76-3.86,2.69-9,4.36-18.22,1.47-8.09-4.9-5.84-12.81-3.83-2.61.66-16.24,4.3-26.17,6.22-9.7,1.87-11.51-5.22-2.72-8.62C94.48,88.59,117.69,79.21,124.86,76Z"/><path class="cls-3" d="M124.86,76c5.93-11.78,15.75-20.14,37.22-19.08,1.4.07,6.67-4.64,11.15-8.22,2.93-2.34,5.86-4.41,7.87-4.68,8.44-1.11-.3,9.82,1.93,13,1.08,1.52,4.6,1,10.64.76s35.88-3,37.05,1.94c1,4.12-.71,5.49-6.92,7.3-13,3.81-39.42,5.14-54.1,8.08-7.47,1.5-15.36,5.91-21.5,17.52-5.82,11-7.7,14.42-14.06,26.83-1.83,3.56-14.36,7-12.52-2.42.76-3.86,2.69-9,4.36-18.22,1.47-8.09-4.9-5.84-12.81-3.83-2.61.66-16.24,4.3-26.17,6.22-9.7,1.87-11.51-5.22-2.72-8.62C94.48,88.59,117.69,79.21,124.86,76Z"/><polyline class="cls-3" points="220.59 204.37 212.34 182.42 210.06 193.48"/><line class="cls-3" x1="212.34" y1="182.42" x2="220.41" y2="187.07"/><polyline class="cls-3" points="209.62 210.34 201.36 188.39 199.08 199.46"/><line class="cls-3" x1="201.36" y1="188.39" x2="209.44" y2="193.05"/><path class="cls-3" d="M161.63,56.71a82.15,82.15,0,0,0,9.82,1.46"/><path class="cls-3" d="M126.15,73.56a33.65,33.65,0,0,1-5.05,8.12"/><line class="cls-3" x1="83.17" y1="95.4" x2="78.82" y2="83.24"/><line class="cls-3" x1="126.69" y1="115.43" x2="122.35" y2="103.28"/><line class="cls-3" x1="223.4" y1="62.14" x2="219.06" y2="49.98"/><line class="cls-3" x1="178.04" y1="49.81" x2="173.69" y2="37.66"/><path class="cls-14" d="M132.2,114.69c2.79-8.92,8.91-26.23,13.87-34.25,7-11.36,16.17-12.58,31.92-13.55,9.43-.58,24.41-.77,35.74-1.47"/><path class="cls-3" d="M183.44,89.5c.65,3.36-1.25,4.85-7.23,3.57-.94-.2-19.36-3.4-19.42-3.45-2.72-2.18-2.85-4.55-2.8-5,.21-1.56,2.56-2.81,2.68-2.41.44,1.45,2.23,4.23,2.7,4.29,3.83.5,13,2.49,18.41,3,2.93.29-6.56-12.65-5.81-14.15.25-.48,2.58-1.2,3.55-1C176.19,74.51,182.75,86,183.44,89.5Z"/><line class="cls-3" x1="166.24" y1="125.31" x2="159.63" y2="90.75"/><path class="cls-15" d="M92.61,81.54C86.42,84,51.35,98.05,62.39,86.86,67.24,82,88.92,74.52,95.77,75.44"/><path class="cls-15" d="M136.14,101.58c-6.19,2.41-41.27,16.5-30.22,5.31,4.84-4.9,26.53-12.34,33.38-11.42"/><path class="cls-15" d="M232.85,48.29c-6.19,2.41-41.27,16.5-30.22,5.31,4.84-4.9,26.53-12.34,33.38-11.42"/><path class="cls-15" d="M187.48,36c-6.19,2.41-41.26,16.5-30.22,5.32,4.85-4.91,26.53-12.35,33.38-11.43"/></svg>
