<svg id="Layer_1" data-name="Layer 1" xmlns="http://www.w3.org/2000/svg" viewBox="0 0 450 450"><defs><style>.cls-1{fill:#fefefe;}.cls-1,.cls-2,.cls-4,.cls-5,.cls-6,.cls-7{fill-rule:evenodd;}.cls-2{fill:#e6e7e8;}.cls-3{fill:none;stroke:#000;stroke-linecap:round;stroke-linejoin:round;stroke-width:2.83px;}.cls-4{fill:#8ed2d1;}.cls-6{fill:#fac384;}.cls-7{fill:red;}</style></defs><title>Thech Peeps_Health</title><path class="cls-1" d="M165.31,242.64c-.69-3-23.86-52.95-16.59-52.71,12.57.43,22.27,1.4,32.6-5.24,3.94-2.53,18.36,32.6,19.05,27.29.32-2.46,8.55-27.43,10.35-36.7,3.93-20.18,15.29-17,36.74-21.71,42.21-9.29,66.42.39,100.41,23.86,11.63,8,12.37,5.51,16.35,25,2.89,14.19,8,95.61-1.7,103.68-7.65,6.4-11.47,9.56-13,11.26-2.23,2.51-1.22,8.56-1.22,18.46,0,15.22,1.62,43.34,2.72,54.92,0,.23-56.42-17.73-63.57-20.68-7.86-3.25-103.08-31.89-102.71-39.79.38-8.07-11.51-86-19.46-87.69"/><path class="cls-2" d="M198.75,353.92,302,388c3.11,1,5.17,5.31.94,7.33l-28.4,13.55c-4.23,2-10.48,2.79-15.15,1.24l-105-34.81c-3.1-1-2.18-3.54,2.05-5.58l29-14C189.64,353.72,195.64,352.89,198.75,353.92Z"/><path class="cls-3" d="M198.75,353.92,302,388c3.11,1,5.17,5.31.94,7.33l-28.4,13.55c-4.23,2-10.48,2.79-15.15,1.24l-105-34.81c-3.1-1-2.18-3.54,2.05-5.58l29-14C189.64,353.72,195.64,352.89,198.75,353.92Z"/><line class="cls-3" x1="97.17" y1="308.18" x2="365.97" y2="395.66"/><path class="cls-4" d="M247.37,341.89c.94-13.41.39-24.67,3.12-38.54,2-10.06,1.7-23.89,4.29-34.17,2.84-11.27,6-39,9.57-48.86,1.8-5,3.33-12.78,6.69-21.07,7.72-19,6.13-19.26,20.33-32.31,3.3-3-21.67,2-28.08-2.78-3.07-2.31-13.14,35.31-13.73,40.82-2.28,21.46-7.36,43-6.55,64.75.55,14.62-1.58,32.17-.45,47.56.66,9,1.22,17.63-.68,26.55-1,4.63,5.36-.06,5.49-1.95"/><path class="cls-5" d="M260.63,333.33c-2,.24-1.51,1.62-1.41,3.79.32,6.66,14.76,17.78,21.35,20.58,9.56,4.06,8.69-7,4.34-12.58-4.73-6-10.15-12.23-21.22-12.78C262.75,332.29,261.18,333.26,260.63,333.33Z"/><path class="cls-3" d="M260.63,333.33c-2,.24-1.51,1.62-1.41,3.79.32,6.66,14.76,17.78,21.35,20.58,9.56,4.06,8.69-7,4.34-12.58-4.73-6-10.15-12.23-21.22-12.78C262.75,332.29,261.18,333.26,260.63,333.33Z"/><path class="cls-6" d="M261.5,141.62c-.48-.45-24.2-8.62-17.79-38.08,2.23-10.22,9.5-16.88,9.8-21.37,2-29.32,29-39.1,47.58-26.67,11.72,7.86,13.54,20.69,13.13,33.49,3,1.33,6.26,4.62,4.66,10.29a6.55,6.55,0,0,1-5.71,4.26c-.2,2.51-.38,4.93-.46,7.22-.93,27-14.54,28.51-15.22,32.28-.52,2.85.64,9.59.84,13.22.75,14-34.28,12-35.16,3.67C262.18,151.35,261.64,141.74,261.5,141.62Z"/><path class="cls-3" d="M261.5,141.62c-.48-.45-24.2-8.62-17.79-38.08,2.23-10.22,9.5-16.88,9.8-21.37,2-29.32,29-39.1,47.58-26.67,11.72,7.86,13.54,20.69,13.13,33.49,3,1.33,6.26,4.62,4.66,10.29a6.55,6.55,0,0,1-5.71,4.26c-.2,2.51-.38,4.93-.46,7.22-.93,27-14.54,28.51-15.22,32.28-.52,2.85.64,9.59.84,13.22.75,14-34.28,12-35.16,3.67C262.18,151.35,261.64,141.74,261.5,141.62Z"/><path class="cls-3" d="M258.92,140.42a31,31,0,0,0,14.44,2.89"/><path class="cls-3" d="M265.28,97c-5.5-2.8-4.21-9.89,1.36-8,1,.34,3.69,1.73,5,2.35"/><path class="cls-5" d="M281,88.82c.22.65.59.62,1-2.25.2-1.34.82-6.08.21-5.56C281.4,81.65,280.63,87.88,281,88.82Z"/><path class="cls-3" d="M281,88.82c.22.65.59.62,1-2.25.2-1.34.82-6.08.21-5.56C281.4,81.65,280.63,87.88,281,88.82Z"/><path class="cls-5" d="M263.45,86.83c.22.64.59.61,1-2.2.19-1.31.81-5.94.2-5.44S263.13,85.91,263.45,86.83Z"/><path class="cls-3" d="M263.45,86.83c.22.64.59.61,1-2.2.19-1.31.81-5.94.2-5.44S263.13,85.91,263.45,86.83Z"/><path class="cls-3" d="M290.78,68.31c-1.62-2.06-6.69-5.24-9.22-5.78"/><path class="cls-3" d="M268.87,72a40.61,40.61,0,0,0-7-3.46,12.41,12.41,0,0,0-2.36-.65"/><path class="cls-5" d="M272,99c1.83.15,11.67,7.3,8.92,11.86-1.58,2.62-6.34-2-6.87-.76-1.8,4.1-6-1.78-7.42-.45-3.79,3.52-5.46-2.25-6.68-2-7.46,1.31-8.7-6.4-1.11-9.87C265.81,94.58,270.27,98.87,272,99Z"/><path class="cls-3" d="M272,99c1.83.15,11.67,7.3,8.92,11.86-1.58,2.62-6.34-2-6.87-.76-1.8,4.1-6-1.78-7.42-.45-3.79,3.52-5.46-2.25-6.68-2-7.46,1.31-8.7-6.4-1.11-9.87C265.81,94.58,270.27,98.87,272,99Z"/><path class="cls-3" d="M260,119.11c1.39,2.7,3.43,4.52,7.5,4.26"/><path class="cls-5" d="M94.18,31.71l117.61,8.42a15.86,15.86,0,0,1,14.15,14.26l7.72,105.29c.54,7.32-4.95,12.89-12.2,12.37l-117.6-8.42A15.88,15.88,0,0,1,89.7,149.37L82,44.09C81.44,36.76,86.93,31.2,94.18,31.71Z"/><path class="cls-3" d="M94.18,31.71l117.61,8.42a15.86,15.86,0,0,1,14.15,14.26l7.72,105.29c.54,7.32-4.95,12.89-12.2,12.37l-117.6-8.42A15.88,15.88,0,0,1,89.7,149.37L82,44.09C81.44,36.76,86.93,31.2,94.18,31.71Z"/><path class="cls-3" d="M280.14,49.42c3.52-3.17,8.3-6.32,13.38-3.65,2.39,1.25,3.49,4.68,2.2,6.84"/><path class="cls-3" d="M289.06,50.66c1.67-2,4.71-3.72,9.88-3.49,3.28.15,8.64,3.53,6.4,9,0,0-.13.7-.14.73"/><path class="cls-3" d="M310.64,94.11c-1.53.75-1,3.11-.29,3.18"/><path class="cls-3" d="M313.47,103.51c-2.19.37-5.09-.72-6-2.37"/><path class="cls-3" d="M314.22,89a6.69,6.69,0,0,0-5,.3"/><path class="cls-3" d="M298.11,153.71c7.86,2.82,58.59,23.44,61.39,31.74,8.22,24.42,7.26,25.25,9.24,52.27,1.36,18.48.46,36.68.42,46.26-.12,23.3-6.51,23.06-45.3,51-3,2.14-37,25.91-36.76,22.06,1.25-18.22-22.58-26.67-27-24.53-2.67,1.28,4.12-5.81,16.07-15.78,9.86-8.23,35-30.48,46.54-35.24,1.29-.54.45-1.93.81-3.13A9.86,9.86,0,0,1,325.4,275c-2.39-8.19-6-37.64-7.09-52.25"/><path class="cls-3" d="M304.08,158.32c3.22,7.66,3.7,16.3,4.29,19.37.55,2.88-6.18,2.49-14.55,4.1s2.58,7.05-2,9.28c-9.2,4.51-21.34,26.32-22.39,32.63a5.15,5.15,0,0,1-.94,2.5"/><path class="cls-3" d="M294.25,163.35C283.84,173,279.32,178.74,270,201.86c-7.23,17.88-16.72,68.35-22.1,114.51"/><path class="cls-3" d="M263.17,159.93c-6.54,17.15-13.41,48.18-16.81,68.18-2.71,15.94-5.29,69.11-5.91,85.49"/><path class="cls-3" d="M260,152.14c-5.28.39-31.16,3.64-35,5.27"/><path class="cls-3" d="M206,268.24c-7.62,2.9-17.57,2.95-23.9,2.06-11.46-1.62-34.61-78-34.87-83.82,1.73-4.85,8.29-3,15.67-3.55,4.16-.31,20.81-3.31,22.17.78,2.92,8.75,15.38,31,17.09,36"/><path class="cls-6" d="M144.06,167.92c-1.16-6.48-2.43-9-2.18-17.12.05-1.58.85-8,1.14-11.57a53.8,53.8,0,0,0,0-10.32c-.36-3,4.05-3.43,6.17-1.37,1,1,1.76,6.71,1.84,12.17,0,2.4-.87,5.07-1.34,7.9a27.6,27.6,0,0,0,.26,8.91c.14,1-.25-2.5-.45-6.91-.16-3.51,1.73-8,1.42-11.05-.17-1.71-1.09-12.6-.54-13.83.78-1.79,5.21-.87,6.54,3,.75,2.18.87,7.12.93,10.38,0,1.23-1.12,7.2-1.1,8.64,0,2.89.16,9.17.3,9.19s-.26-8.83-.19-9.56c.1-.94,1.49-6.09,1.71-9a112,112,0,0,0,0-11.21c0-2.51,4.94-1.5,5.74,1.84a50.59,50.59,0,0,1,1,12.51c.43,2.25-.56,5.85-.81,7.69-.18,1.32.23,7.69.38,7.27.64-1.84.7-7.25,1.4-11.81.42-2.74-.67-6.9.4-8.94.81-1.56,4-1.67,5.23,1.7a21.85,21.85,0,0,1,.95,6c.36,4.32-.39,7,.65,10.25.53,1.66,1.21,2.9,3.88,10.82,1.67,4.95,4.3,12.15,4.12,19.58-.2,8.75-28.81,12.23-31.72,5.92-2.17-4.72-6.46-6.15-9.33-11.56s-2.69-10.86-1.23-11.57c.37-.18,3.82.29,4.13.2S144.91,172.68,144.06,167.92Z"/><path class="cls-3" d="M144.06,167.92c-1.16-6.48-2.43-9-2.18-17.12.05-1.58.85-8,1.14-11.57a53.8,53.8,0,0,0,0-10.32c-.36-3,4.05-3.43,6.17-1.37,1,1,1.76,6.71,1.84,12.17,0,2.4-.87,5.07-1.34,7.9a27.6,27.6,0,0,0,.26,8.91c.14,1-.25-2.5-.45-6.91-.16-3.51,1.73-8,1.42-11.05-.17-1.71-1.09-12.6-.54-13.83.78-1.79,5.21-.87,6.54,3,.75,2.18.87,7.12.93,10.38,0,1.23-1.12,7.2-1.1,8.64,0,2.89.16,9.17.3,9.19s-.26-8.83-.19-9.56c.1-.94,1.49-6.09,1.71-9a112,112,0,0,0,0-11.21c0-2.51,4.94-1.5,5.74,1.84a50.59,50.59,0,0,1,1,12.51c.43,2.25-.56,5.85-.81,7.69-.18,1.32.23,7.69.38,7.27.64-1.84.7-7.25,1.4-11.81.42-2.74-.67-6.9.4-8.94.81-1.56,4-1.67,5.23,1.7a21.85,21.85,0,0,1,.95,6c.36,4.32-.39,7,.65,10.25.53,1.66,1.21,2.9,3.88,10.82,1.67,4.95,4.3,12.15,4.12,19.58-.2,8.75-28.81,12.23-31.72,5.92-2.17-4.72-6.46-6.15-9.33-11.56s-2.69-10.86-1.23-11.57c.37-.18,3.82.29,4.13.2S144.91,172.68,144.06,167.92Z"/><path class="cls-6" d="M259.91,334.22c-2.63.37-19.19,9.47-21.08,12.4-4.71,7.3-1.92,18.82,3.39,9.93,2-3.42,9.79-4.54,3.92,1.46-1.26,1.29-21.81,8.63-11.67,8.68,6,0,14.43-1.9.88,1.41-17.53,4.29,1.09,7.25,7.37,3.45,3.49-2.11-6.72,4.93.25,4.42,5.28-.39,4.2,5.09,16.66-3.25,7-4.66,11.54-5.62,18.53-12.9,3.52-3.67,2.42-1.57,5.46-5.89,6.47-9.21-11.73-21.39-20.12-20.77C262.75,333.21,260.65,334.12,259.91,334.22Z"/><path class="cls-3" d="M259.91,334.22c-2.63.37-19.19,9.47-21.08,12.4-4.71,7.3-1.92,18.82,3.39,9.93,2-3.42,9.79-4.54,3.92,1.46-1.26,1.29-21.81,8.63-11.67,8.68,6,0,14.43-1.9.88,1.41-17.53,4.29,1.09,7.25,7.37,3.45,3.49-2.11-6.72,4.93.25,4.42,5.28-.39,4.2,5.09,16.66-3.25,7-4.66,11.54-5.62,18.53-12.9,3.52-3.67,2.42-1.57,5.46-5.89,6.47-9.21-11.73-21.39-20.12-20.77C262.75,333.21,260.65,334.12,259.91,334.22Z"/><path class="cls-1" d="M121.37,64.4c-1.79-1.67-1.35-9.39-5-13.19-2.83-3-9.61-3.34-10.7,4.36-.72,5.11,1.75,7.47-2.22,11.52a8.78,8.78,0,0,0-2.21,7.72c1,5.32,5,8.38,9.87,7.47,3.65-.69,5.3-5.76,6.9-4.44,3,2.43,36.67,29,36.33,27.42-.78-3.62-.36-3.74.28-3.87,1.05-.22,2.73.87.84-4,2.87-1.52,3.24-1.63,2-4.92Z"/><path class="cls-3" d="M121.37,64.4c-1.79-1.67-1.35-9.39-5-13.19-2.83-3-9.61-3.34-10.7,4.36-.72,5.11,1.75,7.47-2.22,11.52a8.78,8.78,0,0,0-2.21,7.72c1,5.32,5,8.38,9.87,7.47,3.65-.69,5.3-5.76,6.9-4.44,3,2.43,36.67,29,36.33,27.42-.78-3.62-.36-3.74.28-3.87,1.05-.22,2.73.87.84-4,2.87-1.52,3.24-1.63,2-4.92Z"/><path class="cls-1" d="M192,138.37c1.6,1.88.59,9.41,3.77,13.63,2.49,3.3,9,4.56,10.6-2.87,1.08-4.92-1.11-7.57,3-11a8.36,8.36,0,0,0,2.7-7.3c-.51-5.36-4.17-8.9-8.91-8.65-3.56.19-5.52,5-7,3.44-2.65-2.78-33-33.4-32.82-31.78.48,3.66.06,3.72-.56,3.77-1,.08-2.56-1.22-1.11,3.84-2.87,1.13-3.23,1.18-2.26,4.58Z"/><path class="cls-3" d="M192,138.37c1.6,1.88.59,9.41,3.77,13.63,2.49,3.3,9,4.56,10.6-2.87,1.08-4.92-1.11-7.57,3-11a8.36,8.36,0,0,0,2.7-7.3c-.51-5.36-4.17-8.9-8.91-8.65-3.56.19-5.52,5-7,3.44-2.65-2.78-33-33.4-32.82-31.78.48,3.66.06,3.72-.56,3.77-1,.08-2.56-1.22-1.11,3.84-2.87,1.13-3.23,1.18-2.26,4.58Z"/><path class="cls-3" d="M311.63,234.69c-10.56.78-22.56-3.55-26.95-3.43l-1.11,4.84"/><path class="cls-3" d="M322.67,281.46s8.05,1.14,9.87,1.73a12.33,12.33,0,0,0,2.5.69"/><path class="cls-3" d="M324.92,276.48c3.27-2,9.27-1.11,13.08-1.39"/><path class="cls-3" d="M260.42,286c1.36-.1,2.39,1.82,2.3,4.27s-1.27,4.53-2.64,4.63-2.39-1.81-2.3-4.27S259.05,286.14,260.42,286Z"/><path class="cls-3" d="M266,258.86c1.36-.1,2.39,1.81,2.3,4.27s-1.27,4.53-2.63,4.63-2.4-1.81-2.31-4.27S264.63,259,266,258.86Z"/><path class="cls-3" d="M271.58,231.68c1.36-.1,2.39,1.81,2.3,4.27s-1.27,4.53-2.63,4.63-2.4-1.81-2.31-4.27S270.22,231.78,271.58,231.68Z"/><path class="cls-3" d="M258.45,312.4c1.37-.1,2.4,1.81,2.3,4.27s-1.27,4.53-2.63,4.63-2.39-1.81-2.3-4.27S257.09,312.5,258.45,312.4Z"/><path class="cls-3" d="M258,152.33c-1.59,7.31-23.39,9.14-8.8,15.29,3.27,1.38-8,5.75-9.86,6.79-1.08.61-1.25,1.87.39,6.1,2.57,6.63,4.41,18.63,6.93,25.12"/><path class="cls-7" d="M291.56,231.91l-4.45-1,1.77-11.15c-.35-1,.9-3.53,2.94-2.9,1.4.43,1.46,1.39,1.55,2.57Z"/><path class="cls-3" d="M291.56,231.91l-4.45-1,1.77-11.15c-.35-1,.9-3.53,2.94-2.9,1.4.43,1.46,1.39,1.55,2.57Z"/><path class="cls-3" d="M211.12,172.93c.35,4.8-11.08,37.74-10.54,41.1"/><path class="cls-3" d="M218,205.54c.1,5.92-5.87,42.92-7.77,49.39-3.71,12.57-.15,26.09-2.87,38.78l-.31.63c-2.57,6.53-6.32,30.65-6.32,38.14a46.57,46.57,0,0,0,.06,6"/><path class="cls-3" d="M148.94,159.75c0,.64,0,2.18.59,2.61"/><path class="cls-3" d="M156.08,159.5a3.87,3.87,0,0,0,.09,2"/><path class="cls-3" d="M163.65,158.91c0,.59,0,2.15.67,2.52"/><path class="cls-3" d="M219.7,197.56c.75-8.51.13-15.62.6-22.5"/><path class="cls-3" d="M319.6,213.46c2.27-10.76,13.71-22.57,24.6-24.9l.6-.3"/><path class="cls-5" d="M300.72,71.88c-1.91,5.55-5.77,24.46,5.85,16.69,3.73-2.5-.49-1.16,2.7.15,2.54,1,3-1.84,5,0,2.2,2,6.7,0,6.7-4.46,0-3.41-1.91-4.16-.79-8.62,1.29-5.15-3.45-7.34-7.85-7.57C308.11,67.86,302.35,67.14,300.72,71.88Z"/><path class="cls-3" d="M300.72,71.88c-1.91,5.55-5.77,24.46,5.85,16.69,3.73-2.5-.49-1.16,2.7.15,2.54,1,3-1.84,5,0,2.2,2,6.7,0,6.7-4.46,0-3.41-1.91-4.16-.79-8.62,1.29-5.15-3.45-7.34-7.85-7.57C308.11,67.86,302.35,67.14,300.72,71.88Z"/><path class="cls-5" d="M252.14,86c-7.92-1.61-3.81-15.46-1.06-18.4,1.51-1.62,3.14-4,5.85-3.61.66.09-1.65,13-1.8,14.86-.12,1.36-1.3,6-2.08,7.1C252.9,86.17,252.28,86,252.14,86Z"/><path class="cls-3" d="M252.14,86c-7.92-1.61-3.81-15.46-1.06-18.4,1.51-1.62,3.14-4,5.85-3.61.66.09-1.65,13-1.8,14.86-.12,1.36-1.3,6-2.08,7.1C252.9,86.17,252.28,86,252.14,86Z"/><path class="cls-4" d="M188.62,418.3c3,.49,19.39-7.94,23.34-9.7,8.35-3.74,5.93-5.66-1.34-8.5-3.56-1.39-12.19-3.92-13.52-4.34-6.41-2-9.92-1.58-14.73.79a48.88,48.88,0,0,0-10.09,6c-5.89,4.57-4.76,4.43,1.58,10.31C175.36,414.26,186.92,418,188.62,418.3Z"/><path class="cls-3" d="M188.62,418.3c3,.49,19.39-7.94,23.34-9.7,8.35-3.74,5.93-5.66-1.34-8.5-3.56-1.39-12.19-3.92-13.52-4.34-6.41-2-9.92-1.58-14.73.79a48.88,48.88,0,0,0-10.09,6c-5.89,4.57-4.76,4.43,1.58,10.31C175.36,414.26,186.92,418,188.62,418.3Z"/><path class="cls-4" d="M258.76,398.32c4.45.89,3.69,3.8,5.34,2.47.16-.13,3.84-3.68,4-3.82,3.08-3.2,1.29-10,.22-14.67L246.25,282.16c-4.35-16.7-20.94-20.8-21.42-21.19L103.52,223.61c-7.16-2.36-11.8-3-14.7-2.2-1.08.28-5.12,4-5.75,4.62-2.83,2.84,1.64,5.74,3.45,13.13,4.08,16.73,17,85,18.43,91.85,2.7,13.08,4.94,19.33,21.66,23.55Z"/><path class="cls-3" d="M258.76,398.32c4.45.89,3.69,3.8,5.34,2.47.16-.13,3.84-3.68,4-3.82,3.08-3.2,1.29-10,.22-14.67L246.25,282.16c-4.35-16.7-20.94-20.8-21.42-21.19L103.52,223.61c-7.16-2.36-11.8-3-14.7-2.2-1.08.28-5.12,4-5.75,4.62-2.83,2.84,1.64,5.74,3.45,13.13,4.08,16.73,17,85,18.43,91.85,2.7,13.08,4.94,19.33,21.66,23.55Z"/><path class="cls-4" d="M254.66,402.26c14.44,2.9,11.18-8.89,9.55-16L242.15,286.1c-3.24-16.73-20.93-20.79-21.42-21.19L99.42,227.55c-21.82-7.21-20.29,2.1-17,15.55,4.09,16.73,17,85,18.44,91.85,2.69,13.08,4.93,19.33,21.65,23.55Z"/><path class="cls-3" d="M254.66,402.26c14.44,2.9,11.18-8.89,9.55-16L242.15,286.1c-3.24-16.73-20.93-20.79-21.42-21.19L99.42,227.55c-21.82-7.21-20.29,2.1-17,15.55,4.09,16.73,17,85,18.44,91.85,2.69,13.08,4.93,19.33,21.65,23.55Z"/><path class="cls-4" d="M188.85,418.29c-9.76,0-11.76-33.75-8.57-54.47l-32.57-9.89c-1.68,18.74-4.64,49.81,6.42,53.48C156.29,408.12,185.4,418.07,188.85,418.29Z"/><path class="cls-3" d="M188.85,418.29c-9.76,0-11.76-33.75-8.57-54.47l-32.57-9.89c-1.68,18.74-4.64,49.81,6.42,53.48C156.29,408.12,185.4,418.07,188.85,418.29Z"/><polygon class="cls-5" points="179.02 377.21 180.28 363.82 184.87 379.15 179.02 377.21"/><polygon class="cls-3" points="179.02 377.21 180.28 363.82 184.87 379.15 179.02 377.21"/><path class="cls-1" d="M161.55,299c-1.17.42-5.68,8.32-5.18,11.33,1.41,8.57,7.66,15.8,11.74,12.41,3.56-2.95.75-13.49-2.71-18.4-.76-1.07-2.86-5.7-3.85-5.34"/><path class="cls-3" d="M274,387.82l4.26-1.55c1.85-.64,2.78-.26,5.25.6l13.23,4.2c1.53.79-.6,2-1.35,2.25l-22.1,10.36a9.35,9.35,0,0,1-6.38.3l-.1,0"/><path class="cls-3" d="M347.86,318.09c1.13,16.13-.49,49.81,2.58,63.73"/><path class="cls-3" d="M338.91,352.56c-12.14,6.52-22.78,12.07-40.88,13.09l-1,.18"/></svg>
