<svg id="Layer_1" data-name="Layer 1" xmlns="http://www.w3.org/2000/svg" viewBox="0 0 450 450"><defs><style>.cls-1{fill:#fc0;}.cls-1,.cls-3,.cls-4,.cls-5,.cls-6,.cls-7,.cls-8,.cls-9{fill-rule:evenodd;}.cls-10,.cls-11,.cls-12,.cls-13,.cls-2{fill:none;stroke-linecap:round;stroke-linejoin:round;}.cls-11,.cls-2{stroke:#000;}.cls-10,.cls-12,.cls-13,.cls-2{stroke-width:2.83px;}.cls-3{fill:#fefefe;}.cls-4{fill:#ffc;}.cls-5{fill:#f7b6c8;}.cls-6{fill:#cfc;}.cls-8{fill:#99f;}.cls-9{fill:#f60;}.cls-10{stroke:#f63;}.cls-11{stroke-width:3.4px;}.cls-12{stroke:#fefefe;}.cls-13{stroke:#fff;}</style></defs><title>Thech Peeps_Meditation</title><path class="cls-1" d="M109.26,100.61A28.35,28.35,0,1,1,80.91,129,28.35,28.35,0,0,1,109.26,100.61Z"/><path class="cls-2" d="M109.26,100.61A28.35,28.35,0,1,1,80.91,129,28.35,28.35,0,0,1,109.26,100.61Z"/><path class="cls-3" d="M76,202.85c-4.07.15-11.76-2.11-7.5-9.8,2.77-5,9-2.22,17.92-11.13,8.49-8.49,17.27-9.22,24.83.93,5.19,7,18.1-2.87,26.77,3.8s18.83,1.73,21.45,9.92c1.75,5.46-7.87,6.36-8,6.28Z"/><path class="cls-2" d="M76,202.85c-4.07.15-11.76-2.11-7.5-9.8,2.77-5,9-2.22,17.92-11.13,8.49-8.49,17.27-9.22,24.83.93,5.19,7,18.1-2.87,26.77,3.8s18.83,1.73,21.45,9.92c1.75,5.46-7.87,6.36-8,6.28Z"/><path class="cls-4" d="M145.77,190.73c2.8.27,26.1,6,26.1,7.15,0,16.51-2,9.92,2.43,28.45,1.37,5.65,1.62,17.5-.23,23.33-.46,1.43-5.36,24.93-4.12,25.6,3.7,2,30.46,9.22,35.29,9.82,7.78.95,15.16,4.75,26,4.75,18.74,0,21.32-2.11,39-6.67,4.6-1.19,14.92-4.92,12.46-10.87-2.39-5.77-11.06-35.7-8.21-42.14,3.68-8.34,4.88-21.37,2.2-30.3,2.5-1.18,26.5-8,26.81-4.53-4-22.65-10.61-47.07-21.52-52.4-20.82-10.16-30.16,12.61-76.12.53-7.11,1.62-15.79-1.6-24.5-2.77-9.62-1.29-19.29-.09-26.95,12.83-1.8,3-5.67,20.78-8.67,37.22"/><path class="cls-5" d="M220.87,365.45c-10.58,5.65-27.27-7.59-40.55,8-4.16,4.87-14.86,7.78-22.48,11.24-4.05,1.83-6.43,2.58-8.1,6.35-2.17,4.89-15.67,16.91-2.48,20.54,2,.54-1.62,3.46,7.46,5.28.19,0,3.53,3.09,4.9,3.25,14.93,1.7,17.95-8.5,35.71-15.38,7.84-3,22.07-9.07,28.75-13.46,3.79-2.49,10-2.57,12.56-6,1.64-2.21,1.79-5.8-1.13-12.28C232.65,366.62,222.28,364.7,220.87,365.45Z"/><path class="cls-2" d="M220.87,365.45c-10.58,5.65-27.27-7.59-40.55,8-4.16,4.87-14.86,7.78-22.48,11.24-4.05,1.83-6.43,2.58-8.1,6.35-2.17,4.89-15.67,16.91-2.48,20.54,2,.54-1.62,3.46,7.46,5.28.19,0,3.53,3.09,4.9,3.25,14.93,1.7,17.95-8.5,35.71-15.38,7.84-3,22.07-9.07,28.75-13.46,3.79-2.49,10-2.57,12.56-6,1.64-2.21,1.79-5.8-1.13-12.28C232.65,366.62,222.28,364.7,220.87,365.45Z"/><path class="cls-2" d="M147.26,411.56c3.68-.79,1.9-1.11,4.5-4.5.66-.86,1.71-3,2.52-4.09"/><path class="cls-2" d="M154.59,414.92c.66-1.43,1.92-2.74,2.35-3.57"/><path class="cls-2" d="M159.08,417.89a52.4,52.4,0,0,1,3.13-4.36"/><path class="cls-2" d="M164.91,419.66a41.58,41.58,0,0,1,2.48-3.46"/><path class="cls-2" d="M207.08,374c-2.55-.43-5.89-.61-8.22-1.72-3-1.46-5.89,1.4-8.6,1.79"/><path class="cls-6" d="M215.57,386.77c-7.33-6.3-78.38-18.09-93.47-25.66-21.62-10.86-29.17-16.48-43.19-37.1-8.67-12.75-10.28-39.67,3.66-49.76,17.49-12.66,42.25-12.18,62.34-6.9,12.12,3.19,23.82,8.48,36.69,12.62,1.29.42,46.44,10,46.67,10,17.38,0,47.63-8.85,64.52-15.11,23.5-8.71,63.14-13.21,78.64,9.53,11,16.12,11.66,28.06,2.8,47.72-8.46,18.81-65.49,32.82-85.72,35.72-9.24,1.32-31.54,5.37-40.32,8.86-8.05,3.2-11.57,5.94-20.15,9.86-2,.93-10.29.79-12.17-.71Z"/><path class="cls-5" d="M242.43,365.45c10.59,5.65,27.28-7.59,40.56,8,4.16,4.87,13.7,8.8,21.79,10.93,4.29,1.13,6.1,1.79,8.79,6.66,2.59,4.68,15.67,16.91,2.48,20.54-2,.54,1.62,3.46-7.47,5.28-.18,0-3.52,3.09-4.9,3.25-8.3,1-10,.49-16.31-5.9-3.76-3.81-11.52-6.43-19.4-9.48s-22.06-9.07-28.75-13.46c-3.78-2.49-10-2.57-12.55-6-1.64-2.21-1.8-5.8,1.13-12.28C230.66,366.62,241,364.7,242.43,365.45Z"/><path class="cls-2" d="M242.43,365.45c10.59,5.65,27.28-7.59,40.56,8,4.16,4.87,13.7,8.8,21.79,10.93,4.29,1.13,6.1,1.79,8.79,6.66,2.59,4.68,15.67,16.91,2.48,20.54-2,.54,1.62,3.46-7.47,5.28-.18,0-3.52,3.09-4.9,3.25-8.3,1-10,.49-16.31-5.9-3.76-3.81-11.52-6.43-19.4-9.48s-22.06-9.07-28.75-13.46c-3.78-2.49-10-2.57-12.55-6-1.64-2.21-1.8-5.8,1.13-12.28C230.66,366.62,241,364.7,242.43,365.45Z"/><path class="cls-2" d="M316.05,411.56c-3.68-.79-1.9-1.11-4.5-4.5-.66-.86-1.71-3-2.53-4.09"/><path class="cls-2" d="M308.71,414.92c-.66-1.43-1.92-2.74-2.34-3.57"/><path class="cls-2" d="M304.23,417.89a52.4,52.4,0,0,0-3.13-4.36"/><path class="cls-2" d="M298.4,419.66a41.58,41.58,0,0,0-2.48-3.46"/><path class="cls-2" d="M256.23,374c2.54-.43,5.88-.61,8.21-1.72,3.05-1.46,5.9,1.4,8.61,1.79"/><path class="cls-2" d="M279.26,369.84c12.37.29,69.8-16.51,86.94-28.87,7.83-5.64,25.92-38.82,3.94-59.69-8.07-7.67-38.18-18.27-64.32-9.66-6.72,2.22-45.95,13.62-55.8,17.27"/><path class="cls-2" d="M223.25,355.36c4.13-1.5,45.62-24.91,49.59-28,13.13-10.15,35.94-16.69,46.18-17"/><path class="cls-2" d="M307.06,311.51c2.29-3.45,3.61-3.47,5.4-5.75"/><path class="cls-2" d="M231.35,388.72c-32.79-5.77-101.9-21.55-129.2-38.84-26.53-16.8-45.63-70.47-9.48-80.5,50.64-10,79.86,11.27,108.82,15.51"/><path class="cls-2" d="M138.9,308c24.42,8.09,66.25,43.33,103.09,57.43"/><path class="cls-2" d="M149.19,311.12a18.85,18.85,0,0,0-3.81-6.59"/><path class="cls-2" d="M145.77,190.73c3-16.44,6.87-34.19,8.67-37.22,7.66-12.92,17.33-14.12,26.95-12.83,8.71,1.17,17.39,4.39,24.5,2.77,46,12.08,55.3-10.69,76.12-.53,10.91,5.33,18.69,28.86,22.71,51.5"/><path class="cls-7" d="M195.5,395.54h66.66c5.13,0,7.79,2.54,9.33,5.35l8.57,15.63c2.1,3.82-2.18,6.83-7.31,6.83H181.26c-5.13,0-10.2-3.25-6.74-7.65l11.65-14.8C188.26,398.23,190.37,395.54,195.5,395.54Z"/><path class="cls-2" d="M195.5,395.54h66.66c5.13,0,7.79,2.54,9.33,5.35l8.57,15.63c2.1,3.82-2.18,6.83-7.31,6.83H181.26c-5.13,0-10.2-3.25-6.74-7.65l11.65-14.8C188.26,398.23,190.37,395.54,195.5,395.54Z"/><path class="cls-8" d="M196.4,396.68h65.06c4.57,0,7.12,2.06,8.31,4.37l6.75,13.08c1.63,3.15-2,5.58-6.52,5.58H184.9c-4.56,0-8.73-2.58-6-6.25l9.2-12.4a9.33,9.33,0,0,1,8.31-4.37"/><path class="cls-2" d="M270,178.34c0,11.25,13,22.46,8,41.41-4.41,16.64-3.81,18.12-1.29,27.54.19.71,5.49,22.45,7.12,31"/><path class="cls-2" d="M179,178.34c0,11.25-11.69,22.3-7.17,41.25,4.07,17,4.26,12.94,2.24,29.44-.09.72-5.37,25-5.31,25.66"/><path class="cls-9" d="M188.31,124.57c-4,5.58-7,10.84-8,16.05,0,0,9.09,3.38,24.84,3.78,7.18.18,7.32-9.55,7.32-15.44,0-14.44-4.14-16.82-17.63-15.88C193,113.22,191.27,120.44,188.31,124.57Z"/><path class="cls-2" d="M188.31,124.57c-4,5.58-7,10.84-8,16.05,0,0,9.09,3.38,24.84,3.78,7.18.18,7.32-9.55,7.32-15.44,0-14.44-4.14-16.82-17.63-15.88C193,113.22,191.27,120.44,188.31,124.57Z"/><path class="cls-9" d="M257.09,47.91c13.64,35-14.74,47.08-31.5,47.08S188.45,102.24,190,61.53C191.37,23.72,243.45,12.88,257.09,47.91Z"/><path class="cls-2" d="M257.09,47.91c13.64,35-14.74,47.08-31.5,47.08S188.45,102.24,190,61.53C191.37,23.72,243.45,12.88,257.09,47.91Z"/><path class="cls-5" d="M206.43,150.46c1.74,8.25,28.48,9.8,35.74,1,0-8.54,0-19.95,1.25-20.73,20.12-13,14.22-34.2,9.64-48-2.09-5.08-.55-12-2.2-18.34-1.91-.9-5.29-2.44-6-2.84-3.3-1.83-13.63-8.93-17.4-15-.79,0-1.61,0-2.46,0C221.75,55.92,211,66,200.86,66h-.08c-1.26,6.42.26,12.77-2.06,17.44-8.1,16.29-8.12,37.05,7.88,47.34C206.6,136.6,206.3,148,206.43,150.46Z"/><path class="cls-2" d="M206.43,150.46c1.74,8.25,28.48,9.8,35.74,1,0-8.54,0-19.95,1.25-20.73,20.12-13,14.22-34.2,9.64-48-2.09-5.08-.55-12-2.2-18.34-1.91-.9-5.29-2.44-6-2.84-3.3-1.83-13.63-8.93-17.4-15-.79,0-1.61,0-2.46,0C221.75,55.92,211,66,200.86,66h-.08c-1.26,6.42.26,12.77-2.06,17.44-8.1,16.29-8.12,37.05,7.88,47.34C206.6,136.6,206.3,148,206.43,150.46Z"/><path class="cls-2" d="M229.39,94.23c-1-2.63-5.07-1.8-5.13.14"/><path class="cls-10" d="M232.27,70.48a45.24,45.24,0,0,1,8.19,1.5,14.36,14.36,0,0,1,2.43.92"/><path class="cls-10" d="M219.68,70.48A45.29,45.29,0,0,0,211.5,72a14.36,14.36,0,0,0-2.43.92"/><path class="cls-2" d="M222.5,133.52a28.9,28.9,0,0,0,11.57-.07c3.54-.61,9.05-2.08,11.8-4.73"/><path class="cls-2" d="M222.85,106.34c1.47.63,5.41.59,6.45,0"/><path class="cls-11" d="M213.53,81.88c2.76-2.74,4.5-1.3,4.89.08"/><path class="cls-11" d="M237.19,81.88c-2.75-2.74-4.5-1.3-4.88.08"/><path class="cls-2" d="M204,65.84c-2.3-.24-5.49.56-7.33.56"/><path class="cls-2" d="M224,49a19.51,19.51,0,0,0,2.37-9.22"/><path class="cls-12" d="M178.05,416.46a5.92,5.92,0,0,0,5,2.68h73.84"/><path class="cls-2" d="M303.41,195.26c-2.48-.35-20.42,3.32-24.27,3.79"/><path class="cls-2" d="M145.94,191c3.9-.34,21,4.2,24.91,5.91"/><path class="cls-2" d="M200.68,219.46c15.61,0,38.61.89,53.13-1.81a2.62,2.62,0,0,1,1-.08"/><path class="cls-2" d="M198.79,211.9c5-.15,17.72,3.06,24.92,3,2.6,0,5.22,0,7.83,0"/><path class="cls-5" d="M146.78,187.43s-8.72,31.62-13.4,43.35c-1.79,4.49-23.44,20.51-36.64,27.68-.65,0-3.78.22-4.69-.1-4.36-1.5-15.79-7-19.36-3.7-6.59,6-2.56,9-1.87,8.16-3.17-1.74-5.61,3.45-6.46,3.6-.26-1.62,1.24-2.74,1.24-6.1,0-4.34-4.44-3-5.35-1.1-1.39,2.92-.68,1.94-.74.57,0-1-.78-2.16-1.51-2.27-3.46-.51-4.33,7.38-4.66,9.35-1.24,7.33,6.62,5.73,7.15,7.58.73,2.55,5.26,3.39,5.21,4.54-.18,4.22,12.16,7.68,15.25,7.39,5.58-.52,10.29-.67,15.58-1.58,13-1.4,18.6-7,25.89-11.06,13.24-7.43,19.62-10.83,30.89-19.68,11-8.59,8.64-12,18.32-33.91,1.7-3.87-2.79-11.91,2.13-24.26C175.34,191.91,146.78,187.43,146.78,187.43Z"/><path class="cls-2" d="M146.78,187.43s-8.72,31.62-13.4,43.35c-1.79,4.49-23.44,20.51-36.64,27.68-.65,0-3.78.22-4.69-.1-4.36-1.5-15.79-7-19.36-3.7-6.59,6-2.56,9-1.87,8.16-3.17-1.74-5.61,3.45-6.46,3.6-.26-1.62,1.24-2.74,1.24-6.1,0-4.34-4.44-3-5.35-1.1-1.39,2.92-.68,1.94-.74.57,0-1-.78-2.16-1.51-2.27-3.46-.51-4.33,7.38-4.66,9.35-1.24,7.33,6.62,5.73,7.15,7.58.73,2.55,5.26,3.39,5.21,4.54-.18,4.22,12.16,7.68,15.25,7.39,5.58-.52,10.29-.67,15.58-1.58,13-1.4,18.6-7,25.89-11.06,13.24-7.43,19.62-10.83,30.89-19.68,11-8.59,8.64-12,18.32-33.91,1.7-3.87-2.79-11.91,2.13-24.26C175.34,191.91,146.78,187.43,146.78,187.43Z"/><path class="cls-2" d="M139.94,232.94c4.64,1.49,8,2.81,11.88,5.57l.37.29"/><path class="cls-2" d="M69.59,261.11c.59,1.79,2.16,2.62,5.16,1.76a19.65,19.65,0,0,0,2.63-1.57"/><path class="cls-2" d="M61.55,275.24a23.64,23.64,0,0,1,2.92-9.16c.09-.18.06-.15.39,0"/><path class="cls-2" d="M71.65,263.25c2.22,2.12-1.5,6.59-2,8.59-.12.46-.34.67-.34,1.09"/><path class="cls-2" d="M59.54,260.92c-.64,1.47-1.92,9-1.16,10.7.18.41.23.79.37,1.14"/><path class="cls-2" d="M74.83,276.9c.16,0,2-.34,2.5-.33,9.34.2,7.43-4.79,5-4.71-2.9.09-10.72-1.69-12.72.92-1.42,1.53-3.08,4.22-2.86,6.43a2.27,2.27,0,0,0,.31,1.32"/><path class="cls-2" d="M84.94,272.32c2.94.61,7.25-.52,11-1.69"/><path class="cls-5" d="M303.22,187.43s8.72,31.62,13.4,43.35c1.79,4.49,23.44,20.51,36.65,27.68a22.55,22.55,0,0,0,4.68-.1c4.36-1.5,15.79-7,19.36-3.7,6.59,6,2.56,9,1.87,8.16,3.17-1.74,5.61,3.45,6.46,3.6.26-1.62-1.24-2.74-1.24-6.1,0-4.34,4.44-3,5.35-1.1,1.39,2.92.68,1.94.74.57,0-1,.78-2.16,1.51-2.27,3.46-.51,4.33,7.38,4.66,9.35,1.24,7.33-6.62,5.73-7.15,7.58-.73,2.55-5.26,3.39-5.21,4.54.18,4.22-12.16,7.68-15.25,7.39-5.58-.52-10.29-.67-15.58-1.58-13-1.4-18.6-7-25.89-11.06-13.23-7.43-19.62-10.83-30.89-19.68-11-8.59-8.05-11.07-17.72-33-1.71-3.88,2.19-12.81-2.73-25.16C274.66,191.91,303.22,187.43,303.22,187.43Z"/><path class="cls-2" d="M303.22,187.43s8.72,31.62,13.4,43.35c1.79,4.49,23.44,20.51,36.65,27.68a22.55,22.55,0,0,0,4.68-.1c4.36-1.5,15.79-7,19.36-3.7,6.59,6,2.56,9,1.87,8.16,3.17-1.74,5.61,3.45,6.46,3.6.26-1.62-1.24-2.74-1.24-6.1,0-4.34,4.44-3,5.35-1.1,1.39,2.92.68,1.94.74.57,0-1,.78-2.16,1.51-2.27,3.46-.51,4.33,7.38,4.66,9.35,1.24,7.33-6.62,5.73-7.15,7.58-.73,2.55-5.26,3.39-5.21,4.54.18,4.22-12.16,7.68-15.25,7.39-5.58-.52-10.29-.67-15.58-1.58-13-1.4-18.6-7-25.89-11.06-13.23-7.43-19.62-10.83-30.89-19.68-11-8.59-8.05-11.07-17.72-33-1.71-3.88,2.19-12.81-2.73-25.16C274.66,191.91,303.22,187.43,303.22,187.43Z"/><path class="cls-2" d="M310.06,232.94c-4.64,1.49-8,2.81-11.88,5.57l-.37.29"/><path class="cls-2" d="M380.41,261.11c-.59,1.79-2.16,2.62-5.16,1.76a19.65,19.65,0,0,1-2.63-1.57"/><path class="cls-2" d="M388.45,275.24a23.64,23.64,0,0,0-2.92-9.16c-.09-.18-.06-.15-.39,0"/><path class="cls-2" d="M378.35,263.25c-2.22,2.12,1.5,6.59,2,8.59.12.46.34.67.34,1.09"/><path class="cls-2" d="M390.46,260.92c.64,1.47,1.92,9,1.16,10.7-.18.41-.23.79-.37,1.14"/><path class="cls-2" d="M375.17,276.9c-.16,0-2-.34-2.5-.33-9.34.2-7.43-4.79-5-4.71,2.9.09,10.72-1.69,12.72.92,1.42,1.53,3.08,4.22,2.86,6.43a2.27,2.27,0,0,1-.31,1.32"/><path class="cls-2" d="M365.06,272.32c-2.94.61-7.25-.52-11-1.69"/><line class="cls-13" x1="262.47" y1="419.27" x2="270" y2="419.27"/><path class="cls-7" d="M188.27,400.81c0,.85-2.17,1.89-.14,3,1.49.79,1,2.39-.77,3-1.54.54-3.79.26-4.6,1.49-1.11,1.71-2.52,1.64-1.54-.7.5-1.2,3.76-4.12,4.81-5.57.19-.26,1.83-2.05,2.26-1.39,0,.05,0,.14,0,.2"/><path class="cls-3" d="M115.57,151c-10.25,0-10.82-9.17-.53-11.48,9.4-2.11,12.74-20.08,29.63-6.22,6.75,5.54,20.9-15.61,33.67,2.52,2.12,3,13.72,2.87,15.86,7.71,1.2,2.7,1.38,7.39-13.73,7.39-5.55,0-12-.16-17.5.08Z"/><path class="cls-2" d="M115.57,151c-10.25,0-10.82-9.17-.53-11.48,9.4-2.11,12.74-20.08,29.63-6.22,6.75,5.54,20.9-15.61,33.67,2.52,2.12,3,13.72,2.87,15.86,7.71,1.2,2.7,1.38,7.39-13.73,7.39-5.55,0-12-.16-17.5.08Z"/><path class="cls-3" d="M382.27,180.12c7.47,0,13.63-1.48,12.09-8.55-1.93-8.93-16.94-2.52-27.17-15.45-17.62-22.27-22.11-.63-31.58-8-23.51-18.24-50.78-2.72-44,13.68,1.41,3.43-5.13,3.12-9.35,6.91-4,3.56-4.57,11.52,6.27,11.09C306.9,179.1,362.07,180.12,382.27,180.12Z"/><path class="cls-2" d="M382.27,180.12c7.47,0,13.63-1.48,12.09-8.55-1.93-8.93-16.94-2.52-27.17-15.45-17.62-22.27-22.11-.63-31.58-8-23.51-18.24-50.78-2.72-44,13.68,1.41,3.43-5.13,3.12-9.35,6.91-4,3.56-4.57,11.52,6.27,11.09C306.9,179.1,362.07,180.12,382.27,180.12Z"/></svg>
