<svg id="Layer_1" data-name="Layer 1" xmlns="http://www.w3.org/2000/svg" viewBox="0 0 450 450"><defs><style>.cls-1,.cls-9{fill:none;stroke-linecap:round;stroke-linejoin:round;stroke-width:2.83px;}.cls-1{stroke:#000;}.cls-2{fill:#ccf;}.cls-2,.cls-3,.cls-4,.cls-5,.cls-6,.cls-8{fill-rule:evenodd;}.cls-3{fill:#ffcc29;}.cls-5{fill:#d6a87e;}.cls-6{fill:#3c6;}.cls-7{fill:#fefefe;}.cls-8{fill:#99f;}.cls-9{stroke:#fefefe;}</style></defs><title>Thech Peeps_Settings</title><ellipse cx="286.73" cy="113.45" rx="14.9" ry="15.66"/><ellipse class="cls-1" cx="286.73" cy="113.45" rx="14.9" ry="15.66"/><path class="cls-2" d="M182.87,439.76c.48-2.21,8-34,8.56-35,3.83-7.57-1.63-6.2,16.09-3.4,8.55,1.36,24.08.39,31.86,2.34,9.67,2.43,36.54,1.12,46.39-1.19,10.79-2.53,12.38-.93,23.24-6.73,7.67-4.1,11.27-.37,13.12,7.41,2.28,9.56,4.71,17.06,5.85,26.89.93,8-2,6.26-11.82,8.31-23.51,4.88-38.37,4.88-62.6,4.46-7.5-.13-21.1-.27-30.55-.44-12.46-.22-28.69,1.34-40.14-2.63"/><path class="cls-3" d="M304.93,367.6c-1.93,7.77,12.1,27,15.85,35.31,3.24,7.21,2.53,6.42,5,15.3.6,2.14,3.13,13,4.37,13.44,2.7,1,25.63-.59,26.77-2.17a21.26,21.26,0,0,0,1.54-3.93c0-6.88-.36-10.74-2.06-16-.41-1.25,8.53-1.6,7.06-5.83-5.47-15.87-18.86-26.14-28.05-36.82s-29.32-3.66-30.51.73"/><path class="cls-4" d="M89.6,161.88l18.34-8.62a7.29,7.29,0,0,1,8.9,2.64L145,198.37a5.32,5.32,0,0,1-2.27,7.87l-18.33,8.62a7.32,7.32,0,0,1-8.91-2.64L87.34,169.75A5.3,5.3,0,0,1,89.6,161.88Z"/><path class="cls-1" d="M89.6,161.88l18.34-8.62a7.29,7.29,0,0,1,8.9,2.64L145,198.37a5.32,5.32,0,0,1-2.27,7.87l-18.33,8.62a7.32,7.32,0,0,1-8.91-2.64L87.34,169.75A5.3,5.3,0,0,1,89.6,161.88Z"/><path class="cls-5" d="M131.87,210.22c1.4.05,4.5-.76,4.67,1,.81,8.28,2.32,13.87,1.36,14.14-6.82,1.89-21.59,10.08-22.46,10.73-2-4.87-10.39-26.52-10.39-28.71,0-3.07-.51-11.27-.3-12s2.09,6.36,2.92,4c.39-1.64,2.33-11.29,3.42-16.84.42-2.15,5.54-2.33,6.46,2.17.59,2.89-.83,8.58.82,13.67.82,2.53,4.27,2.92,7.48,5.8C125.87,204.1,131.82,210.22,131.87,210.22Z"/><path class="cls-1" d="M131.87,210.22c1.4.05,4.5-.76,4.67,1,.81,8.28,2.32,13.87,1.36,14.14-6.82,1.89-21.59,10.08-22.46,10.73-2-4.87-10.39-26.52-10.39-28.71,0-3.07-.51-11.27-.3-12s2.09,6.36,2.92,4c.39-1.64,2.33-11.29,3.42-16.84.42-2.15,5.54-2.33,6.46,2.17.59,2.89-.83,8.58.82,13.67.82,2.53,4.27,2.92,7.48,5.8C125.87,204.1,131.82,210.22,131.87,210.22Z"/><path class="cls-5" d="M121.33,162.66c1.53-4,2.08-9.62,6.53-8.7,2.31,2.1-.23,11.9.16,13.78.06.28,1.61-5.51,2.71-6.27,1.74-1.2,3.38.12,3,7.37-.32,5.76-2.1,3.12,2.89,5.07,2.8,1.1,1.36,6,1.36,6,7.76,4.45,1.15,12.92-1.19,12.26-4.64-1.33.54-9.25-2-5.5-2.9,4.26-6.34,2.57-6.14-.88.13-2.17,2-8.85,2.19-9.68C131.21,174.51,121.16,163.12,121.33,162.66Z"/><path class="cls-1" d="M121.33,162.66c1.53-4,2.08-9.62,6.53-8.7,2.31,2.1-.23,11.9.16,13.78.06.28,1.61-5.51,2.71-6.27,1.74-1.2,3.38.12,3,7.37-.32,5.76-2.1,3.12,2.89,5.07,2.8,1.1,1.36,6,1.36,6,7.76,4.45,1.15,12.92-1.19,12.26-4.64-1.33.54-9.25-2-5.5-2.9,4.26-6.34,2.57-6.14-.88.13-2.17,2-8.85,2.19-9.68C131.21,174.51,121.16,163.12,121.33,162.66Z"/><line class="cls-1" x1="135.85" y1="185.43" x2="137.96" y2="179.88"/><line class="cls-1" x1="133.27" y1="171.89" x2="131.11" y2="175.77"/><path class="cls-6" d="M310.74,15h-48a22.83,22.83,0,0,0,0,45.66h48a22.83,22.83,0,0,0,0-45.66Z"/><path class="cls-1" d="M310.74,15h-48a22.83,22.83,0,0,0,0,45.66h48a22.83,22.83,0,0,0,0-45.66Z"/><circle class="cls-7" cx="309.86" cy="37.94" r="18.73"/><circle class="cls-1" cx="309.86" cy="37.94" r="18.73"/><path class="cls-5" d="M299.54,68.11c-.35-3.69,6.78-8.22,7.19-9.37a103,103,0,0,0,.85-17.39c-.45-7,3.52-10,5.38-6.17,1.12,2.31,2.07,16.58,3,16.29,4.78-1.44,5.89,0,6.32,2.58.19,1.13,1.07,1.57,3.29,2.69,4,2,1.27,4.64,4.27,6.14,1.1.55,4,1.42,4.19,6.37.44,10.24-1.07,27.93-3.44,26.81-2.57-1.22-14.48-7.41-25-3.83C305,89.84,300.33,76.32,299.54,68.11Z"/><path class="cls-1" d="M299.54,68.11c-.35-3.69,6.78-8.22,7.19-9.37a103,103,0,0,0,.85-17.39c-.45-7,3.52-10,5.38-6.17,1.12,2.31,2.07,16.58,3,16.29,4.78-1.44,5.89,0,6.32,2.58.19,1.13,1.07,1.57,3.29,2.69,4,2,1.27,4.64,4.27,6.14,1.1.55,4,1.42,4.19,6.37.44,10.24-1.07,27.93-3.44,26.81-2.57-1.22-14.48-7.41-25-3.83C305,89.84,300.33,76.32,299.54,68.11Z"/><line class="cls-1" x1="307.4" y1="54.96" x2="306.98" y2="69.13"/><line class="cls-1" x1="315.65" y1="50.03" x2="316.39" y2="57.53"/><path class="cls-1" d="M322.31,54.05c.27,1.05,1.37,6.18.78,7.58"/><path class="cls-1" d="M328.42,61.39c.16,1.35.51,4.76,0,6.36"/><path class="cls-5" d="M221.74,140.88a47.22,47.22,0,0,1-2.37,8.35c-1.66,5-3.8,3.15-5.43,5.13-2,2.42.41,7.46-.61,9.64-9.47,20.19,4.47,42.3,20.6,42.27,3.72,0-2.36,18.11.35,16.23l36-.51c1.87-5.21-2.11-12.07-1.15-20.91,2.23-20.58,11.45-38.9,10.73-50.81C278,121,246.29,106.61,230.38,120.72,226.14,124.47,223.29,132.48,221.74,140.88Z"/><path class="cls-1" d="M221.74,140.88a47.22,47.22,0,0,1-2.37,8.35c-1.66,5-3.8,3.15-5.43,5.13-2,2.42.41,7.46-.61,9.64-9.47,20.19,4.47,42.3,20.6,42.27,3.72,0-2.36,18.11.35,16.23l36-.51c1.87-5.21-2.11-12.07-1.15-20.91,2.23-20.58,11.45-38.9,10.73-50.81C278,121,246.29,106.61,230.38,120.72,226.14,124.47,223.29,132.48,221.74,140.88Z"/><path class="cls-4" d="M224.4,150.36c.13.57.46.58,1.12-1.8.3-1.11,1.34-5.05.75-4.67S224.22,149.53,224.4,150.36Z"/><path class="cls-1" d="M224.4,150.36c.13.57.46.58,1.12-1.8.3-1.11,1.34-5.05.75-4.67S224.22,149.53,224.4,150.36Z"/><path class="cls-1" d="M226.69,135c3.09-.54,5.62,1.44,7,2.21.21.12.15,0,.24.12"/><path class="cls-1" d="M196.28,273.78c.52-.06,5.77.35,6.07.77"/><path class="cls-1" d="M245.91,142.7c10.26-4.91,13.53,8.57,8.89,13.5-3.87,4.11-10.74,4.07-12.66-1.72"/><path class="cls-1" d="M249.11,152.54c1.78-1.41,1-2.44,1.2-3.35"/><line class="cls-1" x1="234.98" y1="208.47" x2="234.42" y2="198.65"/><path class="cls-8" d="M194.85,275c-1.35,3.65-21.68,26.21-27.91,32.52-13.39,13.57-21.06,11.9-30.94-3.24-10.7-16.38-13.81-43.56-20.37-66.76-2.35-8.33,17.78-13.2,22.43-12.08,2.43.58,16.81,45.6,16.85,45.55,14.59-13.89,22.76-35.88,31.15-46.44,6.91-8.7,17-15,26.53-13.44,21.45,3.48,23,10.83,46,9.36,10-.64,10-2.25,25.27-8.38,2.11-.85,14.17-31.6,17.42-54.93,1.58-11.32,4.15-59.09,3.83-62.15-.7-6.71,24.39-8.85,27.19,1-1.87,13.81-1,45.89-1.42,63-.43,16.5-3.44,28.33-6.07,40.73-13.95,65.8-17.72,73.55-25.55,152.53.42,17.29,18.76,40.33,17.11,41.47-27.35,18.77-79.93,11.84-111,7.61-2.54-.35-11.85-3.2-13.31-3.13-.11,0,9.46-67.3,7.48-69.87-6-7.75-12.06-17.16-11.46-28.74C188.57,290.23,189.82,283.7,194.85,275Z"/><path class="cls-1" d="M194.85,275c-1.35,3.65-21.68,26.21-27.91,32.52-13.39,13.57-21.06,11.9-30.94-3.24-10.7-16.38-13.81-43.56-20.37-66.76-2.35-8.33,17.78-13.2,22.43-12.08,2.43.58,16.81,45.6,16.85,45.55,14.59-13.89,22.76-35.88,31.15-46.44,6.91-8.7,17-15,26.53-13.44,21.45,3.48,23,10.83,46,9.36,10-.64,10-2.25,25.27-8.38,2.11-.85,14.17-31.6,17.42-54.93,1.58-11.32,4.15-59.09,3.83-62.15-.7-6.71,24.39-8.85,27.19,1-1.87,13.81-1,45.89-1.42,63-.43,16.5-3.44,28.33-6.07,40.73-13.95,65.8-17.72,73.55-25.55,152.53.42,17.29,18.76,40.33,17.11,41.47-27.35,18.77-79.93,11.84-111,7.61-2.54-.35-11.85-3.2-13.31-3.13-.11,0,9.46-67.3,7.48-69.87-6-7.75-12.06-17.16-11.46-28.74C188.57,290.23,189.82,283.7,194.85,275Z"/><path class="cls-1" d="M194.06,276.44c.4-.54,7.53-13,7.68-13.45"/><path class="cls-1" d="M205.75,264.43c-.5-.66-4.89-6.07-5.29-7.21"/><path class="cls-1" d="M199.8,331.24c.53-1,.07-15.48.11-16.34"/><path class="cls-1" d="M150.19,275.62c1.14-1.17,3.84-3.74,4.58-4.76"/><path class="cls-1" d="M316.32,393.85c5.37,5.5,12.12,27.74,12.12,35.23"/><line class="cls-1" x1="192.05" y1="398.33" x2="183.25" y2="436.77"/><path class="cls-4" d="M230.38,120.72c6.69-19.79,45.21-31.25,64.93,1.17,19.4,31.9-17.73,65.4-24.59,62.49l-14.29-4.15c-7.14-6.06,5.89-30.6-1.85-36.75-4.22-3.36-5.43-.61-11.89-2.58C230.28,137.12,230.18,121.33,230.38,120.72Z"/><path class="cls-1" d="M230.38,120.72c6.69-19.79,45.21-31.25,64.93,1.17,19.4,31.9-17.73,65.4-24.59,62.49l-14.29-4.15c-7.14-6.06,5.89-30.6-1.85-36.75-4.22-3.36-5.43-.61-11.89-2.58C230.28,137.12,230.18,121.33,230.38,120.72Z"/><line class="cls-1" x1="337.77" y1="18.25" x2="344.11" y2="11.84"/><line class="cls-1" x1="327.43" y1="13.94" x2="329.77" y2="8.38"/><line class="cls-1" x1="341.91" y1="30.19" x2="349.96" y2="28.72"/><path class="cls-1" d="M286.48,210.34c8.19-3.15,20.42,3.32,20.68,3.3"/><path class="cls-1" d="M308,160c2.57,0,7.66.74,9.8,0"/><path class="cls-8" d="M219.37,212.91c2.94-10.69,23.09-2.25,36-1.25,16.68,1.3,46.8-6.52,46.8,8.73,0,2.86-5.63,8.11-6.53,9.62-6.32,10.62-10.37,23.54-20.62,25.32-18.42,3.18-25.41-8.68-36.73-25.54-5-7.42-9.42-10.14-16.93-14.5C220.1,214.55,219.2,213.5,219.37,212.91Z"/><path class="cls-1" d="M219.37,212.91c2.94-10.69,23.09-2.25,36-1.25,16.68,1.3,46.8-6.52,46.8,8.73,0,2.86-5.63,8.11-6.53,9.62-6.32,10.62-10.37,23.54-20.62,25.32-18.42,3.18-25.41-8.68-36.73-25.54-5-7.42-9.42-10.14-16.93-14.5C220.1,214.55,219.2,213.5,219.37,212.91Z"/><path class="cls-1" d="M225.27,217.77c5.51,2.53,18.72,9.34,24.68,10l7.77.9"/><path class="cls-1" d="M289,223.61c-1.2.71-13.67,2.76-16.92,2.07"/><path class="cls-1" d="M248.74,210.72c6.72,2.74,28.57,6.38,35.87,5.42"/><path class="cls-1" d="M207.78,401.9c.65-2.9,2.87-29.54,3-33.85.56-15.66,4.41-31.89,4.41-49.46,0-14.11-1.53-31.13-4.71-44.62,0,0,0-.82,0-.9"/><path class="cls-4" d="M290.05,107.89c8.47-3.7,18.95,1.59,23.42,11.81s1.21,21.51-7.26,25.2-19-1.58-23.42-11.8S281.58,111.59,290.05,107.89Z"/><path class="cls-1" d="M290.05,107.89c8.47-3.7,18.95,1.59,23.42,11.81s1.21,21.51-7.26,25.2-19-1.58-23.42-11.8S281.58,111.59,290.05,107.89Z"/><path class="cls-9" d="M286.23,106.74c-10.76,9.48-9.19,27.47.32,33.41"/><path class="cls-1" d="M130.3,208.37c-.05.69,1.33,2.41,1.83,3.64a8.75,8.75,0,0,1,.78,2.31"/><path class="cls-9" d="M108,165.13c2.86-.08,6,2.37,7,5.47s-.46,5.67-3.32,5.74-6-2.38-7-5.47S105.18,165.2,108,165.13Z"/><line class="cls-9" x1="109.31" y1="162.46" x2="109.17" y2="164.8"/><line class="cls-9" x1="102.55" y1="164.66" x2="104.96" y2="166.08"/><line class="cls-9" x1="102.44" y1="172.92" x2="104.78" y2="172.23"/><line class="cls-9" x1="107.78" y1="178.23" x2="108.62" y2="175.92"/><line class="cls-9" x1="113.84" y1="175.72" x2="114.8" y2="178.37"/><line class="cls-9" x1="118.17" y1="172.7" x2="115.68" y2="172.37"/><line class="cls-9" x1="115.86" y1="166.3" x2="114.22" y2="167.69"/><path class="cls-4" d="M324.53,383.09c-3.87-5.22-28.94-54.7-29.79-56.08-10.74-17.23-53.23-82.29-57.21-98.33,6.14,9.44,12.68,27.53,24.8,26.53,3.44-.28,75.23,123.32,73.38,125.37C333.33,383.22,325.52,384.42,324.53,383.09Z"/><path class="cls-1" d="M324.53,383.09c-3.87-5.22-28.94-54.7-29.79-56.08-10.74-17.23-53.23-82.29-57.21-98.33,6.14,9.44,12.68,27.53,24.8,26.53,3.44-.28,75.23,123.32,73.38,125.37C333.33,383.22,325.52,384.42,324.53,383.09Z"/><path class="cls-1" d="M304,368.54c3.53-7.46,22.36-12.25,31.45-1.67s11.45,14.28,16.93,30.15c3.72,10.79,6.12,17.2,6.12,28.53"/><path class="cls-1" d="M312.41,385.92c8.19.38,25.77-3.19,30.74-9.36"/><path class="cls-1" d="M333.22,364.49c8.41,7.12,15,13.63,21.69,23.23,1.87,2.68,14.47,19.64,5.48,20.43-.78.07-2.18.57-3.07.57"/><path class="cls-9" d="M280.26,103.62c-1.88-1-8.94-3.91-10.75-4.22"/></svg>
