<svg id="Layer_1" data-name="Layer 1" xmlns="http://www.w3.org/2000/svg" viewBox="0 0 450 450"><defs><style>.cls-1,.cls-11,.cls-13,.cls-3{fill:none;stroke-linecap:round;stroke-linejoin:round;stroke-width:2.83px;}.cls-1{stroke:#7cd2f1;}.cls-2{fill:#7cd2f1;}.cls-3{stroke:#000;}.cls-4{fill:#f9c;}.cls-10,.cls-12,.cls-4,.cls-5,.cls-6,.cls-7,.cls-8,.cls-9{fill-rule:evenodd;}.cls-5{fill:#57a695;}.cls-6{fill:#fc0;}.cls-7{fill:#d6a87e;}.cls-8{fill:#66f;}.cls-9{fill:#fefefe;}.cls-11{stroke:#fefefe;}.cls-12{fill:#f60;}.cls-13{stroke:#fc0;}</style></defs><title>Thech Peeps_Growth</title><line class="cls-1" x1="188.48" y1="68.58" x2="186.62" y2="75.93"/><line class="cls-1" x1="191.45" y1="92.47" x2="190.52" y2="96.15"/><line class="cls-1" x1="153.08" y1="42.84" x2="152.15" y2="46.52"/><line class="cls-1" x1="93.34" y1="117.75" x2="92.41" y2="121.42"/><line class="cls-1" x1="246.83" y1="83.74" x2="245.89" y2="87.42"/><line class="cls-1" x1="92.42" y1="60.31" x2="91.49" y2="63.98"/><line class="cls-1" x1="175.95" y1="57.2" x2="174.08" y2="64.56"/><line class="cls-1" x1="99.5" y1="80.4" x2="95.08" y2="97.86"/><line class="cls-1" x1="215.33" y1="76.26" x2="210.79" y2="94.18"/><line class="cls-1" x1="228.34" y1="61.91" x2="226.47" y2="69.27"/><line class="cls-1" x1="113.78" y1="67.28" x2="111.92" y2="74.63"/><line class="cls-1" x1="130.39" y1="69.76" x2="124.81" y2="91.76"/><line class="cls-1" x1="203.94" y1="59.95" x2="201.11" y2="71.11"/><line class="cls-1" x1="221.47" y1="95.4" x2="215.37" y2="119.45"/><line class="cls-1" x1="235.63" y1="105.67" x2="234.69" y2="109.34"/><line class="cls-1" x1="226.24" y1="45.76" x2="225.31" y2="49.43"/><line class="cls-1" x1="247.6" y1="52.73" x2="245.73" y2="60.09"/><line class="cls-1" x1="267.35" y1="75.19" x2="262.89" y2="92.79"/><rect class="cls-2" x="252.49" y="28.04" width="111" height="149.43" rx="17.01" ry="17.01"/><rect class="cls-3" x="252.49" y="28.04" width="111" height="149.43" rx="17.01" ry="17.01"/><path class="cls-4" d="M228.25,167.51c3.68,21,19.48,12.35,24.24,31.47,9.76,39.18-49.55,64.16-74.36,36.28-6.7-7.52-7.07-44.4-7.78-59.15-.37-7.63-2.07-21.05,8.29-22.59,1.84-.27,11.66-1.67,12.89-1C192.46,151.1,223.79,142.15,228.25,167.51Z"/><path class="cls-3" d="M228.25,167.51c3.68,21,19.48,12.35,24.24,31.47,9.76,39.18-49.55,64.16-74.36,36.28-6.7-7.52-7.07-44.4-7.78-59.15-.37-7.63-2.07-21.05,8.29-22.59,1.84-.27,11.66-1.67,12.89-1C192.46,151.1,223.79,142.15,228.25,167.51Z"/><path class="cls-5" d="M296.51,395.84c-.59,13.29,7.7,5.39,6.81,2.23V328.22c.09-.09,2.51-8.14,3.2-9.6,3.87-8.2,19.35-25,18.38-32.6-.33-2.61-14.16,6.39-16.95,9.88-1.75,2.17-2.19,3.67-3.46,5.37V256c0-.05,4.09-10.87,8.69-16.05,3.77-4.24,7.57-21.19,3.42-18-5.41,4.12-9.89,11.32-12.5,17.41-1.88,4.38-6.8,21.4-6.64,26.07,0,.52,0,1.1,0,1.62v25.32c-2.67-3.71-3.2-9.62-10.16-13.91-9.41-5.81-6.52-4.62-5.76,6.25.66,9.43,7.52,16.38,13.89,22.34a6.24,6.24,0,0,1,.86,1.49v33.51l.22,32Z"/><path class="cls-3" d="M303.32,383.76V328.22c.09-.09,2.51-8.14,3.2-9.6,3.87-8.2,19.35-25,18.38-32.6-.33-2.61-14.16,6.39-16.95,9.88-1.75,2.17-2.19,3.67-3.46,5.37V256c0-.05,4.09-10.87,8.69-16.05,3.77-4.24,7.57-21.19,3.42-18-5.41,4.12-9.89,11.32-12.5,17.41-1.88,4.38-6.64,10.9-6.64,21.27v31.74c-2.67-3.71-3.2-9.62-10.16-13.91-9.41-5.81-6.52-4.62-5.76,6.25.66,9.43,7.52,16.38,13.89,22.34a6.24,6.24,0,0,1,.86,1.49v87.3"/><path class="cls-5" d="M290.07,396.93c-.54,2.43.44,10.86-1.38,11.68-2.3,1-6.05,1.2-5.27-2.64,0-.19,0-1.84-.16-1.85,0-17.56-.16,1.53.05-13.78.16-12.54-11.14-6.34-17.06-22.4-2.45-6.64,1-2.72,4.33-1.66,6.31,2,13.23,13.06,13.23,7.19s.22-13.31.61-15.87c.5-3.33.17-20,1-19.72.64.22,4.23-.17,4.42,4.07.43,9.14.79,14.25,2,12.62,4.7-6.58,14.34-9.27,14.34-9.27,0,10.09-8.81,17.84-15.32,22.85-2.63,2-.74,5.43-.74,28.78"/><path class="cls-6" d="M294.44,328.4c2.53-2.65,3.93-5.57,8.16-6,5-.47,13.12-3.11,10.69-10.73-3.24-10.2-18.51-2.58-21.55,5.79-.36,1-3.57,10.37-2,10.33A22.77,22.77,0,0,1,294.44,328.4Z"/><path class="cls-3" d="M294.44,328.4c2.53-2.65,3.93-5.57,8.16-6,5-.47,13.12-3.11,10.69-10.73-3.24-10.2-18.51-2.58-21.55,5.79-.36,1-3.57,10.37-2,10.33A22.77,22.77,0,0,1,294.44,328.4Z"/><path class="cls-6" d="M282.65,311c-3.63-5.67-9.29-7.12-14.26-4.76-4.81,2.29-5.93,8.64.66,12.46,3.15,1.83,7.7,6.36,10.05,9.26s7,2.9,7.18-2.42a22.57,22.57,0,0,0-1.61-8.44C284.51,316.79,282.74,311.17,282.65,311Z"/><path class="cls-3" d="M282.65,311c-3.63-5.67-9.29-7.12-14.26-4.76-4.81,2.29-5.93,8.64.66,12.46,3.15,1.83,7.7,6.36,10.05,9.26s7,2.9,7.18-2.42a22.57,22.57,0,0,0-1.61-8.44C284.51,316.79,282.74,311.17,282.65,311Z"/><path class="cls-3" d="M290.31,403.44c0-6.47-.6-34.44.5-35.29,6.51-5,15.32-12.76,15.32-22.85,0,0-10.8,5.43-15.5,12-1.37,1.92.6-11.69-.8-15.35-2.05-5.4-4.6-6.46-5.41-1.08-.39,2.56-.61,26.83-.61,32.6s-6.92-5.19-13.23-7.19c-3.34-1.06-6.78-5-4.33,1.66,5.92,16.06,17.22,9.86,17.06,22.4"/><path class="cls-6" d="M297.73,311.55c1.06-10.41-13.25-10-15.56-3-1.76,5.34.81,13.44,2.63,19.65-1.3.47,5.74,0,5.71-.34C290.17,322.69,297.51,313.78,297.73,311.55Z"/><path class="cls-3" d="M297.73,311.55c1.06-10.41-13.25-10-15.56-3-1.76,5.34.81,13.44,2.63,19.65-1.3.47,5.74,0,5.71-.34C290.17,322.69,297.51,313.78,297.73,311.55Z"/><path class="cls-5" d="M278.85,330.15c3.19,4.35,1.54,14.7,10.24,13.07,4.06-.76,3.45-6.29,5.61-9.71,1.21-1.93,2.66-4.47.41-5.93-2.65-1.71-2.43,2.09-6.19-.18-2.32-1.41-4.24,1.52-5.05,1-1.36-.93-3.22-1.57-4.26-.88A2,2,0,0,0,278.85,330.15Z"/><path class="cls-3" d="M278.85,330.15c3.19,4.35,1.54,14.7,10.24,13.07,4.06-.76,3.45-6.29,5.61-9.71,1.21-1.93,2.66-4.47.41-5.93-2.65-1.71-2.43,2.09-6.19-.18-2.32-1.41-4.24,1.52-5.05,1-1.36-.93-3.22-1.57-4.26-.88A2,2,0,0,0,278.85,330.15Z"/><path class="cls-5" d="M274.21,416.91c-2,2.35-1.26,1.47-4.33,1.6-1.91.08-3.25-3.36-2.7-4.12V346.2c-.09-.09-2.51-7.95-3.2-9.38-3.87-8-19.35-24.4-18.38-31.82.33-2.55,14.16,6.24,17,9.65,1.74,2.12,2.18,3.58,3.45,5.24V275.73c0-.05-4.09-10.62-8.69-15.68-3.77-4.14-7.57-20.69-3.42-17.6,5.41,4,9.89,11.05,12.5,17,1.88,4.28,6.8,20.89,6.64,25.46,0,.5,0,1.07,0,1.58v24.71c2.67-3.61,3.21-9.39,10.16-13.57,9.41-5.67,6.52-4.51,5.76,6.1-.66,9.2-7.52,16-13.89,21.81a6.38,6.38,0,0,0-.86,1.45v89.93Z"/><path class="cls-3" d="M267.18,414.39V346.2c-.09-.09-2.51-7.95-3.2-9.38-3.87-8-19.35-24.4-18.38-31.82.33-2.55,14.16,6.24,17,9.65,1.74,2.12,2.18,3.58,3.45,5.24V275.73c0-.05-4.09-10.62-8.69-15.68-3.77-4.14-7.57-20.69-3.42-17.6,5.41,4,9.89,11.05,12.5,17,1.88,4.28,6.64,10.64,6.64,20.77v31c2.67-3.61,3.21-9.39,10.16-13.57,9.41-5.67,6.52-4.51,5.76,6.1-.66,9.2-7.52,16-13.89,21.81a6.38,6.38,0,0,0-.86,1.45v68.65"/><path class="cls-5" d="M151.44,392c-2,2.41-1.26,1.51-4.33,1.64-1.91.08-3.25-3.44-2.7-4.21V319.61c-.09-.09-2.51-8.15-3.2-9.61-3.87-8.19-19.35-25-18.38-32.59.33-2.62,14.16,6.39,17,9.88,1.75,2.17,2.19,3.67,3.46,5.37V247.43c0-.05-4.09-10.87-8.69-16.05-3.77-4.25-7.57-21.2-3.42-18,5.41,4.12,9.89,11.32,12.5,17.41,1.88,4.38,6.8,21.4,6.64,26.07,0,.52,0,1.1,0,1.62v25.31c2.67-3.7,3.21-9.62,10.16-13.9,9.41-5.81,6.52-4.62,5.76,6.25-.66,9.42-7.52,16.38-13.89,22.34a6.24,6.24,0,0,0-.86,1.49V392Z"/><path class="cls-3" d="M144.41,389.46V319.61c-.09-.09-2.51-8.15-3.2-9.61-3.87-8.19-19.35-25-18.38-32.59.33-2.62,14.16,6.39,17,9.88,1.75,2.17,2.19,3.67,3.46,5.37V247.43c0-.05-4.09-10.87-8.69-16.05-3.77-4.25-7.57-21.2-3.42-18,5.41,4.12,9.89,11.32,12.5,17.41,1.88,4.38,6.64,10.89,6.64,21.27v31.73c2.67-3.7,3.21-9.62,10.16-13.9,9.41-5.81,6.52-4.62,5.76,6.25-.66,9.42-7.52,16.38-13.89,22.34a6.24,6.24,0,0,0-.86,1.49v70.31"/><path class="cls-7" d="M245.28,250.26c9.63,2.25,38.64,11.12,49.26,9.48,10.6-2.9,11.68-4.61,10.11-31.83-.45-7.75-7.15-58.15-5.57-62,1.36-3.33,23.28-6.35,33.09-8.95,3-.78.7-3.62,2.17-4.2,4.58-1.8,7-3.87,4.39-6.16-.17-.14-5,.19-4.59.06a65,65,0,0,0,7.36-5c1.33-1.17-.77-3.54-3.69-2.87-.22.05-8.16,3.12-7.7,2.71,1.81-1.64,4.73-5.21,6.54-7.19,1.05-1.15-.78-3.58-4.45-1.74-3.93,2-6.09,5.72-10.33,6.12s-20.8,1.09-17.59.52c12.63-2.22,9.22-9.14,5.83-8-6.93,2.37-21.88,1.79-28,10.1-3.16,4.31-4,11.12-1.6,21.66.52,2.31-5.71,54.84-5,65.33,0,0-19.91-8.52-28.35-9.28C233.85,217.78,241.68,246.94,245.28,250.26Z"/><path class="cls-3" d="M245.28,250.26c9.63,2.25,38.64,11.12,49.26,9.48,10.6-2.9,11.68-4.61,10.11-31.83-.45-7.75-7.15-58.15-5.57-62,1.36-3.33,23.28-6.35,33.09-8.95,3-.78.7-3.62,2.17-4.2,4.58-1.8,7-3.87,4.39-6.16-.17-.14-5,.19-4.59.06a65,65,0,0,0,7.36-5c1.33-1.17-.77-3.54-3.69-2.87-.22.05-8.16,3.12-7.7,2.71,1.81-1.64,4.73-5.21,6.54-7.19,1.05-1.15-.78-3.58-4.45-1.74-3.93,2-6.09,5.72-10.33,6.12s-20.8,1.09-17.59.52c12.63-2.22,9.22-9.14,5.83-8-6.93,2.37-21.88,1.79-28,10.1-3.16,4.31-4,11.12-1.6,21.66.52,2.31-5.71,54.84-5,65.33,0,0-19.91-8.52-28.35-9.28C233.85,217.78,241.68,246.94,245.28,250.26Z"/><path class="cls-3" d="M333.39,152.53c-5.36-.65-11.43.19-16.89.68-1.15.1-2.81.18-4,.18"/><path class="cls-3" d="M336.41,146.6c-5.68,0-9.38.7-14.93,1.15-2.17.18-5.73.17-8,.17"/><path class="cls-3" d="M330.9,141.54a58.18,58.18,0,0,0-5.72,1.07,73.54,73.54,0,0,1-9.12.82"/><path class="cls-3" d="M304.28,139.15a29.69,29.69,0,0,1-6,2"/><path class="cls-3" d="M302,145.93c-6.15,5.71-9.94,6.64-12.14,7.29"/><path class="cls-3" d="M275.47,226.65c.5,1.18-.35,4.87-.38,6.47,0,.34-.08.69-.08,1.17"/><path class="cls-8" d="M137.88,414.6c2-2.47,11.11-29.1,14.3-28,16.85,5.82,61.8,10.31,80.2,8.53a127.17,127.17,0,0,0,42.3-11.05c3.64-1.6,4.32,27.54,5.92,31.42,1.89,4.59-14.25,6.3-17.17,6.3-12.75,0-23.45.92-35.76,1.53-12,.59-25.41-5-41.28-2.8-13.11,1.82-27.19,1-40.19-.25-4.7-.45-6.76-.66-8.32-5.68"/><path class="cls-3" d="M151.33,383.49c-2.7,3.76-13.18,31.05-13.45,31.11"/><path class="cls-3" d="M275.09,380.4c.09.39,6.92,27.71,6.49,32.7"/><path class="cls-9" d="M255.75,253.94c-2.57-1.65,1.77-14.68,7.67-29,1.35-3.29-1.52-2.77-7.73-4.32-7.84-2.72-28-9.47-35-10.65-1.55.39-46,5.12-52.62,16.18-9.56,16.08-35.48,27.14-28.81,46,2.4,6.78,9.54,28.92,17.34,35.67,1,.9,7.73,2.42,8.49,3.48,19,26.51-10.56,58.71-14.43,74.32,66.26,21.3,128.73,7.7,124.4-5.2-7.48-22.26-17.73-49.91-16.72-70.57.07-1.41,4.66-3,7.31-6.45,3.33-4.33,5.56-12.48,4.83-18.47C269,272.78,264.5,270.64,255.75,253.94Z"/><path class="cls-3" d="M255.75,253.94c-2.57-1.65,1.77-14.68,7.67-29,1.35-3.29-1.52-2.77-7.73-4.32-7.84-2.72-28-9.47-35-10.65-1.55.39-46,5.12-52.62,16.18-9.56,16.08-35.48,27.14-28.81,46,2.4,6.78,9.54,28.92,17.34,35.67,1,.9,7.73,2.42,8.49,3.48,19,26.51-10.56,58.71-14.43,74.32,66.26,21.3,128.73,7.7,124.4-5.2-7.48-22.26-17.73-49.91-16.72-70.57.07-1.41,4.66-3,7.31-6.45,3.33-4.33,5.56-12.48,4.83-18.47C269,272.78,264.5,270.64,255.75,253.94Z"/><path class="cls-7" d="M188,106.22c13.05,13.33,10.23,18.08,28,29,13.92,8.53,14.35,23.32,11.68,33A25.62,25.62,0,0,1,222,178.58c2,6,.5,34.3-.49,37.16-14.2,8.61-29,4.71-31.22-4.16-1.75-7,2.36-25.87-2.85-29.39-7.49-5.06-20.58-21.09-20.58-21.09-6.15,3.71-11,.49-10.81-5,.12-3.71,3.75-6.65,3.73-7.46,0-2-1.36-5.75-4.57-12.53C142.57,109.36,179.27,97.25,188,106.22Z"/><path class="cls-3" d="M188,106.22c13.05,13.33,10.23,18.08,28,29,13.92,8.53,14.35,23.32,11.68,33A25.62,25.62,0,0,1,222,178.58c2,6,.5,34.3-.49,37.16-14.2,8.61-29,4.71-31.22-4.16-1.75-7,2.36-25.87-2.85-29.39-7.49-5.06-20.58-21.09-20.58-21.09-6.15,3.71-11,.49-10.81-5,.12-3.71,3.75-6.65,3.73-7.46,0-2-1.36-5.75-4.57-12.53C142.57,109.36,179.27,97.25,188,106.22Z"/><path class="cls-3" d="M163.07,152.7c1.86.68,1.67,1.28,1.67,3.1"/><path class="cls-3" d="M204.86,137.7c-.69-6.11-7.45-7.26-7.59-1.38,0,1.05-.38,3.73-2,4.83"/><path class="cls-10" d="M186,141.83c.09.66-.25.81-1.86-1.43-.75-1.05-3.36-4.78-2.6-4.63C182.48,136,185.86,140.88,186,141.83Z"/><path class="cls-3" d="M186,141.83c.09.66-.25.81-1.86-1.43-.75-1.05-3.36-4.78-2.6-4.63C182.48,136,185.86,140.88,186,141.83Z"/><path class="cls-10" d="M200.5,131.88c.09.64-.26.8-1.83-1.39-.74-1-3.3-4.66-2.54-4.52C197.07,126.14,200.38,131,200.5,131.88Z"/><path class="cls-3" d="M200.5,131.88c.09.64-.26.8-1.83-1.39-.74-1-3.3-4.66-2.54-4.52C197.07,126.14,200.38,131,200.5,131.88Z"/><path class="cls-3" d="M170.32,132c1.3-2.21,4.93-9.38,8.69-9.35"/><path class="cls-3" d="M189.78,117.31a28.32,28.32,0,0,1,6.1-1.47,8.06,8.06,0,0,1,1.9,0"/><path class="cls-3" d="M224.53,175.32c-1.6,3.39-4.95,5.48-9.81,6.58"/><path class="cls-4" d="M170.74,105.34c3-.51,9.33-1.64,14.8.64a38.76,38.76,0,0,1,5.21,3.13c6.81-11.74-17.52-40-50.43-14.15-10.2,8-29.83,26.73-18.74,58.06,5.16,14.58-11.1,24.38-12.13,37.37-1.43,17.92,13,17.22,6.18,34.86-16.34,42.36,69.21,64,64-10.91-1.13-16.08-21.39-51.51-22.4-53.58-3.75-7.65,6.06-15.31,8.6-19.35C174.87,126.93,171.34,116.81,170.74,105.34Z"/><path class="cls-3" d="M170.74,105.34c3-.51,9.33-1.64,14.8.64a38.76,38.76,0,0,1,5.21,3.13c6.81-11.74-17.52-40-50.43-14.15-10.2,8-29.83,26.73-18.74,58.06,5.16,14.58-11.1,24.38-12.13,37.37-1.43,17.92,13,17.22,6.18,34.86-16.34,42.36,69.21,64,64-10.91-1.13-16.08-21.39-51.51-22.4-53.58-3.75-7.65,6.06-15.31,8.6-19.35C174.87,126.93,171.34,116.81,170.74,105.34Z"/><path class="cls-3" d="M171,109.36c-.44-4.72-.7-10.11-4.81-14.68"/><path class="cls-9" d="M197.18,154.31c4.64-2.46,4.91-2.17,9.06-5.9C208.92,146,213,146,215,150.2c3.27,6.88-7.08,13.76-14.53,12.7-3.32-.47-5.84-2.67-5.56-6.43C195.05,154.77,196.48,154.69,197.18,154.31Z"/><path class="cls-11" d="M197.18,154.31c4.64-2.46,4.91-2.17,9.06-5.9C208.92,146,213,146,215,150.2c3.27,6.88-7.08,13.76-14.53,12.7-3.32-.47-5.84-2.67-5.56-6.43C195.05,154.77,196.48,154.69,197.18,154.31Z"/><path class="cls-9" d="M154.4,163.93l12.63-9.8a7.25,7.25,0,0,1,11.18,2.51l21.3,40.08A11,11,0,0,1,196.74,210l-12.64,9.79a7.25,7.25,0,0,1-11.18-2.5l-21.3-40.08A11,11,0,0,1,154.4,163.93Z"/><path class="cls-3" d="M154.4,163.93l12.63-9.8a7.25,7.25,0,0,1,11.18,2.51l21.3,40.08A11,11,0,0,1,196.74,210l-12.64,9.79a7.25,7.25,0,0,1-11.18-2.5l-21.3-40.08A11,11,0,0,1,154.4,163.93Z"/><path class="cls-10" d="M157,170.35h0a2,2,0,0,1,3.1.74l2.62,5a2.94,2.94,0,0,1-.82,3.62h0a2,2,0,0,1-3.1-.75l-2.63-5A2.94,2.94,0,0,1,157,170.35Z"/><path class="cls-3" d="M157,170.35h0a2,2,0,0,1,3.1.74l2.62,5a2.94,2.94,0,0,1-.82,3.62h0a2,2,0,0,1-3.1-.75l-2.63-5A2.94,2.94,0,0,1,157,170.35Z"/><path class="cls-7" d="M169.32,285.93c-8.76,3.56-17.56,14.91-8.3,21.82,8.49,6.34,20.72,23.14,31.71,28.58,6.18,3.06,10-.09,15.42-4.55,7.58-6.25,6.62-21.66,4.32-33.06-1.18-5.81-19.63-75-18.42-77.42,1.58-3.1,4.91-16.18,6.1-24.42.78-5.34.42-7-1.16-8.15-3-2.28,1.29-4.48-4.31-7.53-3.24-1.78.11-5-4.36-6.74-4.21-1.68-.68-1.7-3.75-5.11-3.9-4.34-8.85,12-8.88,12.1-3.39,8.22-6.36,15.15-10.15,15-3.37-.13-10.73-10.5-11.4-10.12-2.58,1.5-4.62,4.65.51,11.84a87.8,87.8,0,0,1,5.54,8.82c3,6,5.92,11.91,8.83,17.76,5.33,10.7,6.42,37.89,6.49,59.44C177.51,284.19,174.59,283.78,169.32,285.93Z"/><path class="cls-3" d="M169.32,285.93c-8.76,3.56-17.56,14.91-8.3,21.82,8.49,6.34,20.72,23.14,31.71,28.58,6.18,3.06,10-.09,15.42-4.55,7.58-6.25,6.62-21.66,4.32-33.06-1.18-5.81-19.63-75-18.42-77.42,1.58-3.1,4.91-16.18,6.1-24.42.78-5.34.42-7-1.16-8.15-3-2.28,1.29-4.48-4.31-7.53-3.24-1.78.11-5-4.36-6.74-4.21-1.68-.68-1.7-3.75-5.11-3.9-4.34-8.85,12-8.88,12.1-3.39,8.22-6.36,15.15-10.15,15-3.37-.13-10.73-10.5-11.4-10.12-2.58,1.5-4.62,4.65.51,11.84a87.8,87.8,0,0,1,5.54,8.82c3,6,5.92,11.91,8.83,17.76,5.33,10.7,6.42,37.89,6.49,59.44C177.51,284.19,174.59,283.78,169.32,285.93Z"/><line class="cls-11" x1="289.38" y1="99.69" x2="288.43" y2="103.46"/><line class="cls-11" x1="290.91" y1="111.95" x2="290.43" y2="113.84"/><line class="cls-11" x1="320.4" y1="103.23" x2="318.85" y2="109.36"/><line class="cls-11" x1="303.16" y1="103.63" x2="300.83" y2="112.83"/><line class="cls-11" x1="309.84" y1="96.27" x2="308.88" y2="100.04"/><line class="cls-11" x1="297.32" y1="95.26" x2="295.86" y2="100.99"/><line class="cls-11" x1="309.58" y1="108.28" x2="306.45" y2="120.63"/><line class="cls-11" x1="314.79" y1="115.6" x2="314.32" y2="117.49"/><line class="cls-11" x1="319.26" y1="93.9" x2="318.3" y2="97.67"/><line class="cls-11" x1="329.02" y1="101.52" x2="326.73" y2="110.55"/><path class="cls-3" d="M177.6,279.71c.36,6.89-.5,12,.19,18a43.38,43.38,0,0,0,.88,6.93"/><path class="cls-3" d="M187.83,171.27c.36,1.89-3.34,14.2-4.44,17.38"/><path class="cls-3" d="M193,178.23c-.11,1.7-2.2,11.06-3.53,13.19"/><path class="cls-3" d="M197.77,184.77c-1.64,3.88-2.1,8.17-3.42,12.14-.21.63-.7,1.54-.91,2.24"/><path class="cls-3" d="M227.06,310.51a19.56,19.56,0,0,1-10.5,3.3"/><path class="cls-3" d="M255.75,253.94c-1.25-1.55-7.8-11-9.57-12.21"/><path class="cls-3" d="M221.54,215.74c1.31.14,1.37,1.69,2.26,2.85.44.59,3.13,3.89,3.18,4"/><path class="cls-3" d="M176.85,275.7c-1.25-2.89-5.41-9.09-5.85-10.35"/><path class="cls-5" d="M116.68,406c-.6,2.7.49,12.07-1.54,13-2.55,1.14-6.72,1.33-5.85-2.93,0-.22,0-2.05-.17-2.06,0-19.51-.17-54.51.06-71.52.18-13.92-12.38-7-19-24.88-2.71-7.37,1.1-3,4.82-1.84,7,2.22,14.7,14.5,14.7,8s.24-14.79.67-17.63c.56-3.71.19-22.23,1.1-21.92.71.25,4.7-.18,4.92,4.53.47,10.15.87,15.83,2.17,14,5.22-7.3,15.93-10.29,15.93-10.29,0,11.21-9.79,19.82-17,25.39-1.23.94-.55,32-.55,39.2-.35-4.41,12.19-16.09,18.34-17.57,2.74-.67,1.33,0,.1,3.78-5.73,17.51-17,19.46-17.94,23.29-.73,3-.78,27.32-.78,39.47"/><path class="cls-12" d="M122,273.62c3-2.95,4.69-6.18,9.73-6.62,6-.52,15.52-3.7,12.75-11.93-3.81-11.34-22.07-2.86-25.7,6.45-.42,1.08-4.25,11.51-2.37,11.47A29.6,29.6,0,0,1,122,273.62Z"/><path class="cls-3" d="M122,273.62c3-2.95,4.69-6.18,9.73-6.62,6-.52,15.52-3.7,12.75-11.93-3.81-11.34-22.07-2.86-25.7,6.45-.42,1.08-4.25,11.51-2.37,11.47A29.6,29.6,0,0,1,122,273.62Z"/><path class="cls-12" d="M106.67,254.32c-4.56-6.29-11-7.9-16.29-5.28-5.14,2.54-5.78,9.59,1.91,13.84,3.67,2,9.15,7.07,12,10.28s8,3.22,7.75-2.68a26.4,26.4,0,0,0-2.58-9.38C109.28,260.73,106.78,254.48,106.67,254.32Z"/><path class="cls-3" d="M106.67,254.32c-4.56-6.29-11-7.9-16.29-5.28-5.14,2.54-5.78,9.59,1.91,13.84,3.67,2,9.15,7.07,12,10.28s8,3.22,7.75-2.68a26.4,26.4,0,0,0-2.58-9.38C109.28,260.73,106.78,254.48,106.67,254.32Z"/><path class="cls-3" d="M116.68,406c0-12.15,0-36.45.78-39.47.92-3.83,12.21-5.78,17.94-23.29,1.23-3.76,2.64-4.45-.1-3.78C129.15,340.9,116.61,352.58,117,357c0-7.19-.68-38.26.55-39.2,7.23-5.57,17-14.18,17-25.39,0,0-12,6-17.22,13.33-1.53,2.14.66-13-.88-17.05-2.28-6-5.12-7.18-6-1.2-.43,2.84-.67,29.8-.67,36.22s-7.69-5.77-14.7-8c-3.72-1.18-7.53-5.53-4.82,1.84,6.58,17.84,19.14,11,19,24.88-.23,17-.06,52-.06,71.52"/><path class="cls-12" d="M123.33,254.1c-.83-11.44-14.14-9.53-16.63-3-2.23,5.82.65,9,2.54,16.33.14.55,1.27,4.88,1.55,5.45-1.45.55,7.38.54,7.32.09C117.27,267,123.57,257.45,123.33,254.1Z"/><path class="cls-3" d="M123.33,254.1c-.83-11.44-14.14-9.53-16.63-3-2.23,5.82.65,9,2.54,16.33.14.55,1.27,4.88,1.55,5.45-1.45.55,7.38.54,7.32.09C117.27,267,123.57,257.45,123.33,254.1Z"/><path class="cls-5" d="M102.79,274.33c3.79,5.7,2,19.06,13.07,17,5.14-1,4.37-8,7.11-12.31,1.53-2.45,3.65-6,.73-7.67s-4.13,1.37-5.94,1.3a6.66,6.66,0,0,1-2.19-1.08c-3.32-2-5.2,2-6.06,1.11C105.86,268.93,101.12,271.82,102.79,274.33Z"/><path class="cls-3" d="M102.79,274.33c3.79,5.7,2,19.06,13.07,17,5.14-1,4.37-8,7.11-12.31,1.53-2.45,3.65-6,.73-7.67s-4.13,1.37-5.94,1.3a6.66,6.66,0,0,1-2.19-1.08c-3.32-2-5.2,2-6.06,1.11C105.86,268.93,101.12,271.82,102.79,274.33Z"/><path class="cls-3" d="M114.42,207.71c3.08,5.11,8.29,15,8.77,20.74l.32.6"/><path class="cls-3" d="M121,151.38c1.75,2.75,4.44,12.79,4.44,16.61v3.76"/><path class="cls-6" d="M288.35,50.1a10,10,0,1,1-10,10A10,10,0,0,1,288.35,50.1Z"/><path class="cls-13" d="M288.35,50.1a10,10,0,1,1-10,10A10,10,0,0,1,288.35,50.1Z"/><path class="cls-9" d="M304.2,58.16a13.88,13.88,0,0,1,26.61,5.52,14,14,0,0,1-.28,2.76A13.39,13.39,0,0,1,341.16,79.5h0a13.39,13.39,0,0,1-13.35,13.35H293.16A13.39,13.39,0,0,1,279.81,79.5h0a13.39,13.39,0,0,1,8.86-12.56c0-.14,0-.28,0-.42a10.05,10.05,0,0,1,15.54-8.36Z"/><path class="cls-1" d="M304.2,58.16a13.88,13.88,0,0,1,26.61,5.52,14,14,0,0,1-.28,2.76A13.39,13.39,0,0,1,341.16,79.5h0a13.39,13.39,0,0,1-13.35,13.35H293.16A13.39,13.39,0,0,1,279.81,79.5h0a13.39,13.39,0,0,1,8.86-12.56c0-.14,0-.28,0-.42a10.05,10.05,0,0,1,15.54-8.36Z"/></svg>
