<svg id="Layer_1" data-name="Layer 1" xmlns="http://www.w3.org/2000/svg" viewBox="0 0 450 450"><defs><style>.cls-1{fill:#fefefe;}.cls-1,.cls-10,.cls-11,.cls-12,.cls-2,.cls-3,.cls-5,.cls-6,.cls-7,.cls-8{fill-rule:evenodd;}.cls-2{fill:#6682ba;}.cls-3{fill:#fcdebd;}.cls-13,.cls-4,.cls-9{fill:none;stroke-linecap:round;stroke-width:2.83px;}.cls-13,.cls-4{stroke:#000;}.cls-4,.cls-9{stroke-linejoin:round;}.cls-5{fill:#c3a786;}.cls-6{fill:#f7b6c8;}.cls-8{fill:#fac384;}.cls-9{stroke:#fefefe;}.cls-10{fill:#d7e0ea;}.cls-11{fill:#9f9;}.cls-12{fill:#3c3;}.cls-13{stroke-miterlimit:22.93;}</style></defs><title>Thech Peeps_Business</title><path class="cls-1" d="M119.19,187.8c.76-5.05,5.83-11.35,11.73-11.35,9.75,0,32.54,8.35,44.86,10.86a46,46,0,0,1,4.48,1.33c0,5.1,2.55,12.8,1.63,18.1-1.25,7.19.1,31.91-1.77,37.58-.91,2.78-.18,17.79-2.81,18.24-9.54,1.64-4.19,3.5-11.16-11.58-1.29-2.79-7.9-23-9.26-23.17-9.32-1.46-8.72,3.41-18.28-8.78-2.68-3.42-19.9-35.2-19.42-31.23"/><path class="cls-2" d="M71.49,379.54c-8.49.2-11.78,10.53-18.06.51,5-42.27.68-158.76,13.3-171.37,10.68-10.67,53.78-21.21,53.78-21.21,1.58,3.34,19.12,33.2,20.94,33.64,1.19,2.2,4.73,6.06,6.58,6.82.66,3.32,7.65-4.51,9.5,2,1,3.39,9.68,21.42,9.79,24.22,0,.11,7.84,23.73,8.49,26.25.18.69,2.59,12.76,3.81,19.95.43,2.48-.56,32.24-.56,32.89-1.68,10.28,0-10.2,0,0Z"/><path class="cls-3" d="M237,311c29.33-4.37,112.6-39.43,142.91-36,20.94,2.38,37.9,29.47,8.57,45.24-6,3.25-52.65,25.06-63,28.6-29.5,10.13-4.29,17.74-23.34,27.67-4.6,2.39-23.17-4.59-45.44,5.77-6.58,3.07-29.38,10.89-30.13-.4-2-30.28-32.4,16.31-46.57-8.23-10.4-18-36.22,12.57-61.59,12.57-.23,0-62.47,4-45.94-6.23,2-1.21,12.34-4.3,12.29-6.6Z"/><line class="cls-4" x1="69.71" y1="379.87" x2="277.67" y2="294.25"/><line class="cls-4" x1="228.35" y1="334.51" x2="122.14" y2="380.93"/><line class="cls-4" x1="252.59" y1="345.38" x2="203.3" y2="368.35"/><line class="cls-4" x1="191.64" y1="373.47" x2="171.84" y2="382.45"/><line class="cls-4" x1="210.59" y1="388.91" x2="260.21" y2="363.82"/><line class="cls-4" x1="276.34" y1="355.79" x2="326.27" y2="332.61"/><path class="cls-2" d="M242.84,309c-3.39-9.8-11.88-51.31-11.62-58.21.53-14.16-4.51-28.39-11.18-40-2-3.54-32.16-16.6-38-17.8-1.26,14.86,2.09,28.93-1.55,43.27-1.34,5.28-5.43,93.7-4,98Z"/><path class="cls-5" d="M216.56,86.69c10,18.82-6.09,33.33-12.46,16.91-1.94-5-1.36-19.16,7.87-19.16C215.46,84.44,215.93,85.51,216.56,86.69Z"/><path class="cls-4" d="M216.56,86.69c10,18.82-6.09,33.33-12.46,16.91-1.94-5-1.36-19.16,7.87-19.16C215.46,84.44,215.93,85.51,216.56,86.69Z"/><path class="cls-4" d="M53.43,380.05c5-41,.68-158.76,13.3-171.37,10.68-10.67,53.78-21.21,53.78-21.21,1.21,2.56,11.77,20.65,17.48,29.2,2,2.94,7.31,10.14,10,11.26.66,3.32,7.65-4.51,9.5,2,1,3.39,9.68,21.42,9.79,24.22,0,.11,7.84,23.73,8.49,26.25.25.93,4.52,22.48,4.52,25,.5,1.71,2.85,17.43,2.85,20.2v1.69"/><path class="cls-2" d="M61.69,212.39c-9.29,12.53-19.79,95.89-16,110.74,4.65,18.05,118-12.77,118-12.77-4-3.26-5.69-32,2.34-42.14,5-6.3-71.61,13.38-71.61,13.38-2.12-8.44,8.59-36.73,5.43-56.25C92.65,211.39,80.84,193.58,61.69,212.39Z"/><path class="cls-4" d="M61.69,212.39c-9.29,12.53-19.79,95.89-16,110.74,4.65,18.05,118-12.77,118-12.77-4-3.26-5.69-32,2.34-42.14,5-6.3-71.61,13.38-71.61,13.38-2.12-8.44,8.59-36.73,5.43-56.25C92.65,211.39,80.84,193.58,61.69,212.39Z"/><path class="cls-4" d="M149.33,227.14c.5-3.32,1.21-15.11,6-10.31"/><path class="cls-4" d="M176.28,213.46c4.46-6,3.61.57,4.75,7"/><path class="cls-6" d="M170,216.68c-.61,1.21.69,15.66.38,14.65-3-9.55-6.66-15.24-8.57-17.82-5.3-7.12-22-19-27.94-30.39-.64-1.24-2.37-2-1.26-3.24,1.24-7,8.08-30.27,9.18-46.61,2.42-35.83,17.85-58.44,48.13-52.48,24.85,4.89,24.18,29.94,21.85,52.52-.47,4.56,5.51,45.3-17.49,50.81-9.73,2.33-13.77.92-17.75-.77C176,183.13,172.22,212.28,170,216.68Z"/><path class="cls-4" d="M170,216.68c-.61,1.21.69,15.66.38,14.65-3-9.55-6.66-15.24-8.57-17.82-5.3-7.12-22-19-27.94-30.39-.64-1.24-2.37-2-1.26-3.24,1.24-7,8.08-30.27,9.18-46.61,2.42-35.83,17.85-58.44,48.13-52.48,24.85,4.89,24.18,29.94,21.85,52.52-.47,4.56,5.51,45.3-17.49,50.81-9.73,2.33-13.77.92-17.75-.77C176,183.13,172.22,212.28,170,216.68Z"/><path class="cls-4" d="M176.16,183.26c-4.59-1.95-10.26-5.5-12-14.58"/><path class="cls-4" d="M200.66,139.53c6-1.6,6.17-8.8.32-8.11-1,.13-4,.93-5.39,1.27"/><path class="cls-7" d="M187,128.25c-.34.59-.71.48-.51-2.41.09-1.36.46-6.12.95-5.49C188.08,121.14,187.54,127.39,187,128.25Z"/><path class="cls-4" d="M187,128.25c-.34.59-.71.48-.51-2.41.09-1.36.46-6.12.95-5.49C188.08,121.14,187.54,127.39,187,128.25Z"/><path class="cls-7" d="M204.57,129.92c-.35.58-.71.47-.53-2.35.09-1.33.44-6,.93-5.37S205.07,129.09,204.57,129.92Z"/><path class="cls-4" d="M204.57,129.92c-.35.58-.71.47-.53-2.35.09-1.33.44-6,.93-5.37S205.07,129.09,204.57,129.92Z"/><path class="cls-4" d="M181.67,106.14c2-1.67,7.63-3.74,10.21-3.74"/><path class="cls-4" d="M200.9,106.64a40.85,40.85,0,0,1,7.61-1.93,12.75,12.75,0,0,1,2.45-.15"/><path class="cls-4" d="M182.08,193c5.8,1.2,35.92,14.26,38,17.8,6.67,11.57,11.71,25.8,11.18,40-.2,5.38,6.91,36.5,9.17,48.38"/><path class="cls-7" d="M175.31,291.3c.22-.54-2,1-2.7,1.28a24.53,24.53,0,0,1-10.26,2,5.09,5.09,0,0,0-.63,2.57c0,.51.11.86-.19,1.2.42,1.38-1.12,16.56,6.55,11.06C173,305.91,173.22,296.51,175.31,291.3Z"/><path class="cls-4" d="M175.31,291.3c.22-.54-2,1-2.7,1.28a24.53,24.53,0,0,1-10.26,2,5.09,5.09,0,0,0-.63,2.57c0,.51.11.86-.19,1.2.42,1.38-1.12,16.56,6.55,11.06C173,305.91,173.22,296.51,175.31,291.3Z"/><path class="cls-6" d="M212.37,250c2.78.74-3.35,2.54-4.09,8.82-.32,2.75,8.46,1,11.06,1,7.69,0,11.94,4,18.71,8.33,3.14,2,11.29,6.64,4.6,10.38-.58.32.38,2.34-1.78,4.27-2.51,2.24-5.67-.06-6.11,0,.78,3.15-.62,5.9-3.13,5.95-4.55.11-5.43-2-4.55.11,1.47,3.55-3.89,3.52-9.63,1-4.89-2.18-9.86-3.79-12.88-5.28-9.81-4.87-40.48,12.85-41.3,9.47-2.63-10.85,2.51-23.59,2.2-26.13,2.51-2.41,19.35-5.74,24.42-9.77C193.44,255.32,201.55,248.19,212.37,250Z"/><path class="cls-4" d="M212.37,250c2.78.74-3.35,2.54-4.09,8.82-.32,2.75,8.46,1,11.06,1,7.69,0,11.94,4,18.71,8.33,3.14,2,11.29,6.64,4.6,10.38-.58.32.38,2.34-1.78,4.27-2.51,2.24-5.67-.06-6.11,0,.78,3.15-.62,5.9-3.13,5.95-4.55.11-5.43-2-4.55.11,1.47,3.55-3.89,3.52-9.63,1-4.89-2.18-9.86-3.79-12.88-5.28-9.81-4.87-40.48,12.85-41.3,9.47-2.63-10.85,2.51-23.59,2.2-26.13,2.51-2.41,19.35-5.74,24.42-9.77C193.44,255.32,201.55,248.19,212.37,250Z"/><path class="cls-8" d="M250.69,272.42c-1.61-15.22,1.34-22.23.78-24.49a60.7,60.7,0,0,1-13.19,1.9c-4.11-.13-7.43-1.81-12.93-3.85-9.38-3.49-18.08,1.31-23.43,10.15a99.23,99.23,0,0,1-7.83,9.77c-1.54,1.66,3.12,7.32,8.24,3.64,3.37-2.42,4.66-4.92,7.56-7.67,3.11-3,2.37-1.79,8.17-2.9,3.26-.62,10.79,3.81,14,5.68,3.38,2,7.39,4.75,10.85,6.77,4.36,2.56.05,7.4.77,7.79,1.67.88,8.23.13,8-1.19C251.59,277.14,250.83,273.79,250.69,272.42Z"/><path class="cls-4" d="M250.69,272.42c-1.61-15.22,1.34-22.23.78-24.49a60.7,60.7,0,0,1-13.19,1.9c-4.11-.13-7.43-1.81-12.93-3.85-9.38-3.49-18.08,1.31-23.43,10.15a99.23,99.23,0,0,1-7.83,9.77c-1.54,1.66,3.12,7.32,8.24,3.64,3.37-2.42,4.66-4.92,7.56-7.67,3.11-3,2.37-1.79,8.17-2.9,3.26-.62,10.79,3.81,14,5.68,3.38,2,7.39,4.75,10.85,6.77,4.36,2.56.05,7.4.77,7.79,1.67.88,8.23.13,8-1.19C251.59,277.14,250.83,273.79,250.69,272.42Z"/><path class="cls-4" d="M242,278.35c-.17-.07-13.64-7.47-14.92-8.29-1.52-1-7.4-3.8-8.8-3.68"/><path class="cls-4" d="M235.7,283.39c-4.8-3-16.82-9.06-22.14-10.73-.33-.11-1.64-.74-1.82-.78"/><path class="cls-4" d="M228.72,288.27c-7.73-4.92-16.47-8.06-23.77-11.16"/><path class="cls-8" d="M191,283c.64-4.85.44-5.8,4.92-10.54.75-.79,3.27-.12,3.5,2.53.16,1.9.42-.05,1.43-1.27,1.84-2.21,5.47-2.19,4.79,3.18-.06.46,3.9-5.07,4.86-.21.88,4.43-1.58,2.48,1.94,1.27,2.47-.85,2.95,2.71,2.21,4.76-.44,1.2-2.37,5.92-.64,6.74,3.58,1.7,3.49.88.6,3.09-1.35,1-5.25,1-6.28-.94-.87-1.67-3,.54-5.11-2.71,0,0-2.75,0-3.17-.29-2.8-2.19-2.25-2.52-4.62-2.28C193.26,286.53,190.79,284.83,191,283Z"/><path class="cls-4" d="M191,283c.64-4.85.44-5.8,4.92-10.54.75-.79,3.27-.12,3.5,2.53.16,1.9.42-.05,1.43-1.27,1.84-2.21,5.47-2.19,4.79,3.18-.06.46,3.9-5.07,4.86-.21.88,4.43-1.58,2.48,1.94,1.27,2.47-.85,2.95,2.71,2.21,4.76-.44,1.2-2.37,5.92-.64,6.74,3.58,1.7,3.49.88.6,3.09-1.35,1-5.25,1-6.28-.94-.87-1.67-3,.54-5.11-2.71,0,0-2.75,0-3.17-.29-2.8-2.19-2.25-2.52-4.62-2.28C193.26,286.53,190.79,284.83,191,283Z"/><path class="cls-4" d="M94.46,281.6c-1.88-.16-8.87,3-9,3.4"/><path class="cls-4" d="M89.37,278.26c-1.62-.09-8.47-.71-10.74,0l-.18,0"/><path class="cls-5" d="M178.59,90.61c5.17-4.81,15.64-2.12,19.94-.75,25.28,8,24.4-24.74,7-20.49-14.1,3.45-19-17.32-37.51-3.45-.6.44-6.79-8.07-13.94-2-1.78,1.51-4,13.32-11.34,12.88C121.87,75.53,112.68,110,136.4,118c2.16.73-10.55,16,5.75,20,.55.14,5.92-1.48,5.92-1.48-6.93-21.93,10.11-26.84,13.77-20.52.68,1.17.09,9.35,1,11.29.77,1.69,4.08,2.26,8.62.8C172.6,127.7,169,99.54,178.59,90.61Z"/><path class="cls-4" d="M178.59,90.61c5.17-4.81,15.64-2.12,19.94-.75,25.28,8,24.4-24.74,7-20.49-14.1,3.45-19-17.32-37.51-3.45-.6.44-6.79-8.07-13.94-2-1.78,1.51-4,13.32-11.34,12.88C121.87,75.53,112.68,110,136.4,118c2.16.73-10.55,16,5.75,20,.55.14,5.92-1.48,5.92-1.48-6.93-21.93,10.11-26.84,13.77-20.52.68,1.17.09,9.35,1,11.29.77,1.69,4.08,2.26,8.62.8C172.6,127.7,169,99.54,178.59,90.61Z"/><path class="cls-4" d="M146.77,235.57c-.43,4.05-1.26,15.54-3.09,18.71-2.48,4.29,11.49-3.22,8.39,8a11.5,11.5,0,0,0-.24,3.57"/><path class="cls-4" d="M175.74,186.91c4.11.05,4.88,1.35,5.24,5.23.27,3,.34,25.53-.21,26.59"/><path class="cls-4" d="M146.6,124.05c-.93,7.26,7.32,9.54,9.65,6.68"/><path class="cls-4" d="M154.36,120.61c1,1.48,2.42,3,.5,4.23-.14.09,0,.06-.18.13"/><path class="cls-4" d="M182.25,222.88c-.08,5.51-4.14,33.59-4.38,38.3"/><path class="cls-4" d="M187.93,223.55c.27,4.38,7.26,9.61,3.89,14.76-4.55,6.93-5.37,2.64-.29,9.36,1.46,2,1.5,1.3,1,5.14-.05.36-.51,1.56-.49,1.83"/><path class="cls-7" d="M186.26,297.7c.75,0,1.35,1.3,1.35,2.91s-.6,2.91-1.35,2.91-1.34-1.3-1.34-2.91.6-2.91,1.34-2.91"/><path class="cls-7" d="M189.51,315.41c.74,0,1.34,1.3,1.34,2.9s-.6,2.91-1.34,2.91-1.35-1.3-1.35-2.91.6-2.9,1.35-2.9"/><path class="cls-4" d="M170.36,230c-.12,5.62,2.69,15.18,2.52,21.53,0,2,1,7.2,1,9.23"/><path class="cls-5" d="M191.79,140.94c-2.42-.27-16.56,4.52-13.81,9.6,1.59,2.92,8.63-.5,9.11.81,1.59,4.43,8.14-.39,9.76,1.23,4.29,4.31,7.53-1,9.08-.48,9.5,3,12.52-4.31,3.25-9.41C200.66,138,194.05,141.19,191.79,140.94Z"/><path class="cls-4" d="M191.79,140.94c-2.42-.27-16.56,4.52-13.81,9.6,1.59,2.92,8.63-.5,9.11.81,1.59,4.43,8.14-.39,9.76,1.23,4.29,4.31,7.53-1,9.08-.48,9.5,3,12.52-4.31,3.25-9.41C200.66,138,194.05,141.19,191.79,140.94Z"/><path class="cls-4" d="M182.82,160.42c-3,.58-5.66.11-8-3.25"/><path class="cls-7" d="M185.74,259.79c-2.48,2.5-2.88,6.83-3,10.25-.27,5.91.38,10.55,3.66,15.36.64.94,3.88,1.72-1.43,3.09-1.21.31-2.57.95-3.9,1.3-3.51-3.7-4.25-6.93-4.88-12.14a30.29,30.29,0,0,1,1.65-14.95c.73-2.18,4.6-2.62,6.48-3.48C184.66,259.05,186.06,259.46,185.74,259.79Z"/><path class="cls-4" d="M185.74,259.79c-2.48,2.5-2.88,6.83-3,10.25-.27,5.91.38,10.55,3.66,15.36.64.94,3.88,1.72-1.43,3.09-1.21.31-2.57.95-3.9,1.3-3.51-3.7-4.25-6.93-4.88-12.14a30.29,30.29,0,0,1,1.65-14.95c.73-2.18,4.6-2.62,6.48-3.48C184.66,259.05,186.06,259.46,185.74,259.79Z"/><path class="cls-7" d="M171.09,269c.34-1.85.25-3.84,2.3-4.4,1.13-.31,7.32-2.68,7.91-1.46,1,2.06.3,7,.66,9.73.39,3-1.87,3.08-4.43,4-.51.18-5.11,1-5.4.75-1.14-.85-.9-2-1-3.45A23.36,23.36,0,0,1,171.09,269Z"/><path class="cls-4" d="M171.09,269c.34-1.85.25-3.84,2.3-4.4,1.13-.31,7.32-2.68,7.91-1.46,1,2.06.3,7,.66,9.73.39,3-1.87,3.08-4.43,4-.51.18-5.11,1-5.4.75-1.14-.85-.9-2-1-3.45A23.36,23.36,0,0,1,171.09,269Z"/><path class="cls-9" d="M173.79,276.08c.05,0,4.62-.82,5.08-1.8s.11-1.74.11-3"/><path class="cls-4" d="M213.07,259.7a8.09,8.09,0,0,0,1.63-5.61"/><path class="cls-4" d="M216.87,259.19c.06-.06,4.47-4.37,4.47-4.85"/><path class="cls-4" d="M199.8,275.58c-1,.59-2.15,3.18-2.45,4.47-.26,1.13,0,3.28-.26,4.74a1.47,1.47,0,0,1-.05.26"/><path class="cls-4" d="M205.49,276.37c-1.9,5-2.24,5.65-2.8,10.92,0,.14,0,0-.05.17"/><path class="cls-4" d="M211.09,278.64a18.06,18.06,0,0,0-2.18,4.06,7,7,0,0,0-.82,2.62c0,1.13-.56,3.72-.21,4.92a.29.29,0,0,1,0,.13"/><path class="cls-10" d="M270.17,346.71l105.41-46.78c4.08-1.81,5.1-4.37,2.4-5.59l-56.54-25.57c-2.7-1.22-8.36-.81-12.43,1L203.6,316.55c-4.08,1.8-5.11,4.37-2.4,5.59l56.54,25.56C260.44,348.92,266.09,348.52,270.17,346.71Z"/><path class="cls-4" d="M270.17,346.71l105.41-46.78c4.08-1.81,5.1-4.37,2.4-5.59l-56.54-25.57c-2.7-1.22-8.36-.81-12.43,1L203.6,316.55c-4.08,1.8-5.11,4.37-2.4,5.59l56.54,25.56C260.44,348.92,266.09,348.52,270.17,346.71Z"/><path class="cls-7" d="M347.82,229.51c-4.68.81-95.85,14.7-96.28,16.48-2.12,8.64-2.91,37.58,9,36.62,12-1,55.46,2.47,62.25-10.54C330,258.23,363.55,237.28,347.82,229.51Z"/><path class="cls-4" d="M347.82,229.51c-4.68.81-95.85,14.7-96.28,16.48-2.12,8.64-2.91,37.58,9,36.62,12-1,55.46,2.47,62.25-10.54C330,258.23,363.55,237.28,347.82,229.51Z"/><path class="cls-7" d="M268.86,333.89l53.25-23.63c2.06-.92,2.61-2.21,1.21-2.83L298,296.26c-1.4-.61-4.22-.41-6.28.5L238.45,320.4c-2.06.91-2.62,2.21-1.21,2.82l25.34,11.17C264,335,266.79,334.81,268.86,333.89Z"/><path class="cls-4" d="M268.86,333.89l53.25-23.63c2.06-.92,2.61-2.21,1.21-2.83L298,296.26c-1.4-.61-4.22-.41-6.28.5L238.45,320.4c-2.06.91-2.62,2.21-1.21,2.82l25.34,11.17C264,335,266.79,334.81,268.86,333.89Z"/><path class="cls-10" d="M291.73,240.86l107.46-49c4.15-1.9,6.7,1.45,5.66,7.43l-14.71,84.11c-1.05,6-5.3,12.43-9.46,14.32l-107.46,49c-4.16,1.9-6.7-1.44-5.66-7.42l14.71-84.12C283.31,249.2,287.57,242.76,291.73,240.86Z"/><path class="cls-4" d="M291.73,240.86l107.46-49c4.15-1.9,6.7,1.45,5.66,7.43l-14.71,84.11c-1.05,6-5.3,12.43-9.46,14.32l-107.46,49c-4.16,1.9-6.7-1.44-5.66-7.42l14.71-84.12C283.31,249.2,287.57,242.76,291.73,240.86Z"/><path class="cls-1" d="M342.28,260.82c-1.37,1.33-1.3,4.4-3.77,7.88-13.9,19.6,12.43,13.61,9.87-.45-.37-2-1.74-2.52-2.13-7.26-.22-2.68-2-2-3.62-.44Z"/><path class="cls-11" d="M272.18,141.89l80.66-36.76c3.12-1.42,5,1.09,4.24,5.58l-11,63.13c-.79,4.49-4,9.32-7.1,10.75l-80.66,36.75c-3.12,1.42-5-1.08-4.25-5.57l11-63.14C265.87,148.15,269.06,143.31,272.18,141.89Z"/><path class="cls-4" d="M272.18,141.89l80.66-36.76c3.12-1.42,5,1.09,4.24,5.58l-11,63.13c-.79,4.49-4,9.32-7.1,10.75l-80.66,36.75c-3.12,1.42-5-1.08-4.25-5.57l11-63.14C265.87,148.15,269.06,143.31,272.18,141.89Z"/><path class="cls-4" d="M215.88,239.87c.67-3.2,3.19-19.25,1.9-22.12"/><path class="cls-4" d="M218.43,308.58c-.18-.9-1.29-10.34-1.29-11.52"/><line class="cls-9" x1="278.72" y1="200.12" x2="285.22" y2="164.45"/><line class="cls-9" x1="305.67" y1="188.52" x2="313.35" y2="134.05"/><line class="cls-9" x1="332.48" y1="177.79" x2="341.05" y2="122.88"/><path class="cls-4" d="M334,169.72c-1.32-.95-7.87-9-8.19-9-6.09,11.07-6.16,4.39-13.08-1.55-1.72-1.48-9.74-11.77-11.25-10.49-14,11.81-8.2,7.83-22.42,4.88"/><path class="cls-4" d="M277.35,149.87c1.26,0,1.93,1.84,1.5,4.11s-1.82,4.11-3.08,4.11-1.94-1.84-1.5-4.11S276.08,149.87,277.35,149.87Z"/><path class="cls-12" d="M323.94,159l56.7-25.84c2.19-1,3.53.76,3,3.92l-7.76,44.37c-.55,3.16-2.8,6.56-5,7.56L314.18,214.8c-2.2,1-3.54-.77-3-3.92L319,166.5C319.5,163.34,321.75,160,323.94,159Z"/><path class="cls-4" d="M323.94,159l56.7-25.84c2.19-1,3.53.76,3,3.92l-7.76,44.37c-.55,3.16-2.8,6.56-5,7.56L314.18,214.8c-2.2,1-3.54-.77-3-3.92L319,166.5C319.5,163.34,321.75,160,323.94,159Z"/><path class="cls-4" d="M198.46,89.31c-3.22-.21-7.61-3.24-9.11-6"/><path class="cls-4" d="M171.19,64.73c-2.5,1.26-5.51,6.66-8.09,7.09"/><path class="cls-4" d="M151.19,72c-.74,1.74-5.83,10.33-7.57,11l-1.45.53"/><path class="cls-4" d="M136.63,121.75a23.8,23.8,0,0,0,2.54-10.63"/><path class="cls-13" d="M118.92,187.87c.17-.25,1-2.41,1.48-3.29,2.08-3.56,2.36-4.26,5.6-6.62a11.31,11.31,0,0,1,7.36-1.73"/></svg>
