<svg id="Layer_1" data-name="Layer 1" xmlns="http://www.w3.org/2000/svg" viewBox="0 0 450 450"><defs><style>.cls-1{fill:#c3a786;}.cls-1,.cls-10,.cls-11,.cls-12,.cls-2,.cls-4,.cls-5,.cls-6,.cls-7{fill-rule:evenodd;}.cls-2,.cls-8{fill:#fefefe;}.cls-3,.cls-9{fill:none;stroke-linecap:round;stroke-linejoin:round;stroke-width:2.83px;}.cls-3{stroke:#000;}.cls-4{fill:#c8c5e2;}.cls-6{fill:#fcdebd;}.cls-7{fill:#ffc;}.cls-9{stroke:#00afef;}.cls-10{fill:#d6a87e;}.cls-11{fill:#f96;}.cls-12{fill:#7a75b5;}</style></defs><title>Thech Peeps_Download</title><path class="cls-1" d="M282,426.55c-.54,1.74-1.28,5.81-3.42,5.81-2.74,0-8.37,1.16-9.9-1.26-.29-.45-.76-2-.5-2.26L280.2,318.06h20.08Z"/><path class="cls-1" d="M371.46,426.55c.54,1.74,1.28,5.81,3.42,5.81,2.74,0,8.37,1.16,9.9-1.26.29-.45.76-2,.5-2.26L373.22,318.06H353.14Z"/><path class="cls-2" d="M138.25,129.94c0,3.38,1.24,4.38,2.68,7,.19.34,2.42,4.1,2.37,2.18,0-1.41,1.78-6.25,1.15-7-4.57-5.35-2.42-8.62-3.31-10.37C141,121.5,138.31,129.83,138.25,129.94Z"/><path class="cls-3" d="M138.25,129.94c0,3.38,1.24,4.38,2.68,7,.19.34,2.42,4.1,2.37,2.18,0-1.41,1.78-6.25,1.15-7-4.57-5.35-2.42-8.62-3.31-10.37C141,121.5,138.31,129.83,138.25,129.94Z"/><path class="cls-4" d="M75.8,425.16a272.33,272.33,0,0,1,1.45-28.55c1.76-20.34-3.85-12.25,22.3-12.73,5-.09,14.56,1.64,21.39,1.64,12.35,0,31,.87,42.88-1.23,9.64-1.69,19.08-.78,29.78-3.58,1.35-.36,13.62-3.48,13.55-1.72-.43,11.64,2,25.52,2,38.5,0,1-.29,6.79-.28,6.86-10.64,4.22-10.54.65-22.18.65-9.48,0-17.21,4.78-26.58,2.37-6.3-1.63-31.14,3.68-39.73.65s-15.57,3.11-28-1.31c-3.51-1.24-16.57,2.88-16.57-1.55"/><path class="cls-3" d="M207.47,381.72c.92,11.65,1.05,26.66,1.73,38.33"/><path class="cls-5" d="M195.12,140c2.83,0,5.53,4.39,6,9.8s-1.42,9.79-4.26,9.79-5.53-4.38-6-9.79S192.28,140,195.12,140Z"/><path class="cls-3" d="M195.12,140c2.83,0,5.53,4.39,6,9.8s-1.42,9.79-4.26,9.79-5.53-4.38-6-9.79S192.28,140,195.12,140Z"/><path class="cls-2" d="M198.37,139.77c2.84,0,5.53,4.38,6,9.79s-1.42,9.8-4.25,9.8-5.54-4.39-6-9.8S195.53,139.77,198.37,139.77Z"/><path class="cls-3" d="M198.37,139.77c2.84,0,5.53,4.38,6,9.79s-1.42,9.8-4.25,9.8-5.54-4.39-6-9.8S195.53,139.77,198.37,139.77Z"/><path class="cls-3" d="M77.15,383.74c-.11,4.35-1.45,28.73-1,36.31"/><path class="cls-3" d="M138.78,428.21c.15-2.11.31-9.93-1.42-11.11-1-.66-.81-.87-1.28-1.76"/><path class="cls-2" d="M70.6,387.32c22.48,1.84,69,3.38,91.92.56,9.34-1.15,18.39-2.6,27.74-3.67,1.34-.16,8.64-.81,9.37-.24-.29,1.58-4.53,3.57-5.36,4.55-10.46,12.36-10.65,13.46-26,16.45-11.08,2.16-72,1.77-81.7-1.14C77.73,401.18,75.5,394.65,70.6,387.32Z"/><path class="cls-3" d="M70.6,387.32c22.48,1.84,69,3.38,91.92.56,9.34-1.15,18.39-2.6,27.74-3.67,1.34-.16,8.64-.81,9.37-.24-.29,1.58-4.53,3.57-5.36,4.55-10.46,12.36-10.65,13.46-26,16.45-11.08,2.16-72,1.77-81.7-1.14C77.73,401.18,75.5,394.65,70.6,387.32Z"/><path class="cls-6" d="M94.54,305.21H395a2.91,2.91,0,0,1,2.9,2.89v7.07a2.91,2.91,0,0,1-2.9,2.89H94.54a2.9,2.9,0,0,1-2.89-2.89V308.1a2.9,2.9,0,0,1,2.89-2.89"/><path class="cls-5" d="M266,210.58H376.63c4.77,0,7.94,3.9,7,8.68L369.8,293.11a11,11,0,0,1-10.31,8.68H248.91c-4.78,0-7.95-3.9-7-8.68l13.88-73.85A11,11,0,0,1,266,210.58Z"/><path class="cls-3" d="M266,210.58H376.63c4.77,0,7.94,3.9,7,8.68L369.8,293.11a11,11,0,0,1-10.31,8.68H248.91c-4.78,0-7.95-3.9-7-8.68l13.88-73.85A11,11,0,0,1,266,210.58Z"/><path class="cls-7" d="M137.53,98.79c3.78-4.63,44.62-35,45.52-38.6,5.15.31-31.28-32.34-37.88-35.75C140.56,22.06,118,23.07,118,23.07s-9.49,8.05-24.93,26.33c-7.74,9.16-6.9,2.2,14.6,15.59C119.22,72.18,131.76,86.35,137.53,98.79Z"/><path class="cls-3" d="M137.53,98.79c3.78-4.63,44.62-35,45.52-38.6,5.15.31-31.28-32.34-37.88-35.75C140.56,22.06,118,23.07,118,23.07s-9.49,8.05-24.93,26.33c-7.74,9.16-6.9,2.2,14.6,15.59C119.22,72.18,131.76,86.35,137.53,98.79Z"/><path class="cls-3" d="M117.94,25.5c3.61,1.49,17.8,12,18,12,.57.2,7.11-7.46,8-7.79"/><path class="cls-7" d="M209,98.37C221.42,118,226,119.17,234,143.85c6.14,18.89.65,20.49,19.31,12.31,6-2.62,46.15-14.28,46.21-15.25.16-2.83-24.21-53.78-24.68-54-15.27-7.67-28.18-8-29.89-8-3.56,0-19.72,8.56-33.76,17.15C210.07,96.71,208.77,97.94,209,98.37Z"/><path class="cls-3" d="M209,98.37C221.42,118,226,119.17,234,143.85c6.14,18.89.65,20.49,19.31,12.31,6-2.62,46.15-14.28,46.21-15.25.16-2.83-24.21-53.78-24.68-54-15.27-7.67-28.18-8-29.89-8-3.56,0-19.72,8.56-33.76,17.15C210.07,96.71,208.77,97.94,209,98.37Z"/><path class="cls-3" d="M246.21,80.65c-.06,2.26,6.27,12.95,7.9,16,1.36,2.52,8.89-2.7,12.3-3.19"/><path class="cls-7" d="M282,242.2l58.82-.15c2-7.56,6.48-58,4.55-60.16,0,0-13.16-20.14-15.65-23.76-1.8-1.13-45,4-43,9.16C292.76,183.38,286.71,224.68,282,242.2Z"/><path class="cls-3" d="M282,242.2l58.82-.15c2-7.56,6.48-58,4.55-60.16,0,0-13.16-20.14-15.65-23.76-1.8-1.13-45,4-43,9.16C292.76,183.38,286.71,224.68,282,242.2Z"/><path class="cls-3" d="M326.55,158c-1.58,7.17-.41,12.18-1.88,24.7-1.72,2,12.57.84,13.89,1.2"/><rect class="cls-8" x="194.93" y="296.43" width="171.09" height="7.96" rx="2.89" ry="2.89"/><rect class="cls-3" x="194.93" y="296.43" width="171.09" height="7.96" rx="2.89" ry="2.89"/><path class="cls-3" d="M290.36,304.39c-1.6-2.51-2.23-3.22-1.22-6.12"/><polyline class="cls-9" points="349.59 249.7 342.34 283.27 335.29 269.99"/><line class="cls-9" x1="342.34" y1="283.27" x2="355.62" y2="271.2"/><line class="cls-3" x1="97.46" y1="304.6" x2="395.57" y2="304.6"/><line class="cls-3" x1="394.35" y1="317.45" x2="112.15" y2="317.45"/><path class="cls-10" d="M191.62,128.77c2.32-1.18,6.17-.24,10.29-1.65,23.06-7.93,16.41-33.61,18.85-36.43A6.71,6.71,0,0,0,222.92,85c-.11-2.55-3.51-4.88-3-7.34.76-3.82-.58-16-4.12-20.8-3.66-5-7.31-17.35-19.79-19.36-17.08-2.75-25.56-8.61-37.35,7.69-12.72,17.61-.13,40.45-6.9,61.34-1,3-10.2,38.44-9.7,39.14,2.17,3,36.33,14.49,40.14,9.41C182.19,155.06,188.91,130.16,191.62,128.77Z"/><path class="cls-3" d="M191.62,128.77c2.32-1.18,6.17-.24,10.29-1.65,23.06-7.93,16.41-33.61,18.85-36.43A6.71,6.71,0,0,0,222.92,85c-.11-2.55-3.51-4.88-3-7.34.76-3.82-.58-16-4.12-20.8-3.66-5-7.31-17.35-19.79-19.36-17.08-2.75-25.56-8.61-37.35,7.69-12.72,17.61-.13,40.45-6.9,61.34-1,3-10.2,38.44-9.7,39.14,2.17,3,36.33,14.49,40.14,9.41C182.19,155.06,188.91,130.16,191.62,128.77Z"/><path class="cls-11" d="M170.61,59.07c6.09,4.66,10.59-2.11,10.91-2,8.9,2.68,9.77-2.55,10.41-2.85.41-.2,1.27.17,2.81.83,5.79,2.49,6.75-3.24,7.27-3.5s1.26,0,2.28.61c3.89,2.27,6.38-3.24,8.75-2.33,2.54,1,8.5-.34,6.26-6.74a8.49,8.49,0,0,0,3.83-3.61,4.71,4.71,0,0,0-1.57-5.7,10.07,10.07,0,0,0-2.29-1.49c-.14-.15.19-.41.44-2.19,1.08-7.58-6.74-6.46-6.86-6.94-1.38-5.1-9.24-6.2-12.06-.77-.06.11-6.84-7.34-11.86-.65-.63.85-3.51-1.85-7.72-.06-3.79,1.62-2.89,6.35-3.66,5.34-3.77-5-12.36-3.38-11.5,3.44,0,.06-10-4.72-11,2.94-.42,3.26-1.67.13-6,3.87-1.45,1.25-2.67,5.83,1.34,7.21-6.42,2.38-6.55,12.09,1.27,9.86,1.91-.54,1.64-1,1,.92-1.19,3.53-3.33,12.06,6.2,7.55,1.08-.52,1,2.54,4.95,2.8C168.58,65.89,170.61,59.07,170.61,59.07Z"/><path class="cls-3" d="M170.61,59.07c6.09,4.66,10.59-2.11,10.91-2,8.9,2.68,9.77-2.55,10.41-2.85.41-.2,1.27.17,2.81.83,5.79,2.49,6.75-3.24,7.27-3.5s1.26,0,2.28.61c3.89,2.27,6.38-3.24,8.75-2.33,2.54,1,8.5-.34,6.26-6.74a8.49,8.49,0,0,0,3.83-3.61,4.71,4.71,0,0,0-1.57-5.7,10.07,10.07,0,0,0-2.29-1.49c-.14-.15.19-.41.44-2.19,1.08-7.58-6.74-6.46-6.86-6.94-1.38-5.1-9.24-6.2-12.06-.77-.06.11-6.84-7.34-11.86-.65-.63.85-3.51-1.85-7.72-.06-3.79,1.62-2.89,6.35-3.66,5.34-3.77-5-12.36-3.38-11.5,3.44,0,.06-10-4.72-11,2.94-.42,3.26-1.67.13-6,3.87-1.45,1.25-2.67,5.83,1.34,7.21-6.42,2.38-6.55,12.09,1.27,9.86,1.91-.54,1.64-1,1,.92-1.19,3.53-3.33,12.06,6.2,7.55,1.08-.52,1,2.54,4.95,2.8C168.58,65.89,170.61,59.07,170.61,59.07Z"/><path class="cls-3" d="M201.6,78.16c-3-3.11-8.59-.72-9.5,2.5-1.19,4.23-1.79,8.26,4,10.57,5,2,7.58-2.85,8.17-3"/><path class="cls-3" d="M198.11,81.94c-1.35.87-.47,4.14.17,4.29"/><line class="cls-3" x1="221.95" y1="67.07" x2="219.03" y2="65.34"/><path class="cls-10" d="M317,270.64c1.19-5.9,3.14-12.22-2.34-15.72-7.47-4.77-13.1-5.76-19.65-6.34a116.84,116.84,0,0,0-14.93.07c-3.11,8.18,5.35,14.29,5.35,23.92.5-.06,3.35,7.52,6.69,7.37,3-.14,2.86-5.63,2.9-4.14,0,.75.65,7.84,1.18,12.37.8,6.76,7.38,5,7.13,3.05-.5-3.81-1.24-10.41-.13-13.15,2.78-6.84,5.43-2.57,7.28-3.22C314.49,273.43,316.15,274.72,317,270.64Z"/><path class="cls-3" d="M317,270.64c1.19-5.9,3.14-12.22-2.34-15.72-7.47-4.77-13.1-5.76-19.65-6.34a116.84,116.84,0,0,0-14.93.07c-3.11,8.18,5.35,14.29,5.35,23.92.5-.06,3.35,7.52,6.69,7.37,3-.14,2.86-5.63,2.9-4.14,0,.75.65,7.84,1.18,12.37.8,6.76,7.38,5,7.13,3.05-.5-3.81-1.24-10.41-.13-13.15,2.78-6.84,5.43-2.57,7.28-3.22C314.49,273.43,316.15,274.72,317,270.64Z"/><path class="cls-3" d="M312.27,273.06c-1.56.09-6.37-1.12-6.81-2.73s-.93-10.73,3-8.73c1.62.84,1.6,5.67,2,5.69a14.27,14.27,0,0,0,1.49,0"/><path class="cls-3" d="M306,274.31c-2.14,1.5-6.31-.62-7-3.34-.59-2.19-2.06-8.61,1.76-8.79"/><path class="cls-3" d="M304.19,276c-1.22.64-10.14-1.23-10.8-2.58-1.56-3.19-5.47-12.93,1.16-8.54"/><path class="cls-3" d="M282.93,262.75c5.4-.14,4.4,1.61,12.65.21l.76,0"/><path class="cls-12" d="M212.87,289.94c-.58,1.92-2,12.16-1.35,22.51.06.93,1.75-.42,1.81.54,1.59,25.5,5,62.74,3.83,63.52-31.53,21.42-139.54,14-149.58,10-3.36-1.32,8.16-102.6,7-102.76-1.27-.19-7-.62-8.64,0-11.49,0-11.63-6.93-12.33-18.23-1-16.88,5.34-31.76,15.49-69.63,3.74-14,11.42-34.24,23-42.31,5.45-3.79,35.64-11,46.2-12.81,6.15-1,23,.15,34.47,2.49,13.5,2.77,21.72,7.11,28.83,10.46,26.24,12.34,25.4,11.78,29.35,40A417.29,417.29,0,0,1,235,251c3.95-1.09,44.87-5.23,46.19-2.87,7.91,14.11,3.13,30,1,30.55a391.25,391.25,0,0,1-43.69,9.39C226.1,290.09,219,290.85,212.87,289.94Z"/><path class="cls-3" d="M212.87,289.94c-.58,1.92-2,12.16-1.35,22.51.06.93,1.75-.42,1.81.54,1.59,25.5,5,62.74,3.83,63.52-31.53,21.42-139.54,14-149.58,10-3.36-1.32,8.16-102.6,7-102.76-1.27-.19-7-.62-8.64,0-11.49,0-11.63-6.93-12.33-18.23-1-16.88,5.34-31.76,15.49-69.63,3.74-14,11.42-34.24,23-42.31,5.45-3.79,35.64-11,46.2-12.81,6.15-1,23,.15,34.47,2.49,13.5,2.77,21.72,7.11,28.83,10.46,26.24,12.34,25.4,11.78,29.35,40A417.29,417.29,0,0,1,235,251c3.95-1.09,44.87-5.23,46.19-2.87,7.91,14.11,3.13,30,1,30.55a391.25,391.25,0,0,1-43.69,9.39C226.1,290.09,219,290.85,212.87,289.94Z"/><path class="cls-3" d="M89.08,196.85C87.46,204.66,79,233.33,74.87,284"/><path class="cls-3" d="M192.5,200.37c2.38,17-2.17,81.36,11.71,86.65,3.21,1.23,4.28,2.35,8.08,2.35"/><path class="cls-3" d="M235,250.1c-.48.69.25,7.53.25,9.34"/><path class="cls-2" d="M198,384.58c2.07,1.24,5.17-.94,10.33,4.58.91,1,4.88,2.25,4.88.36,0-1.25,0-9.94-1.52-9.35C210.92,380.47,198,384.61,198,384.58Z"/><path class="cls-3" d="M198,384.58c2.07,1.24,5.17-.94,10.33,4.58.91,1,4.88,2.25,4.88.36,0-1.25,0-9.94-1.52-9.35C210.92,380.47,198,384.61,198,384.58Z"/><path class="cls-3" d="M189.16,199.36c1.87,0,5.63-.06,7.19-1.22"/><line class="cls-3" x1="89.08" y1="196.85" x2="84.63" y2="194.46"/><path class="cls-3" d="M213.31,312.76c-8.6,2.93-27.92.66-28,1.88-.29,4,.8,7.15.8,13.73"/><path class="cls-3" d="M86.55,207.49c28.31-.17,36.06-.08,60.85,1.58,9.74.66,30.46,2.05,40,4a27.26,27.26,0,0,0,5.28.39"/><path class="cls-3" d="M193.29,191.4c1.61-9,13.38-22.16,22-22.76.67,0,1.79-.35,2.64-.35"/><path class="cls-3" d="M90.76,189c2.17-8.78,1.88-26.24,1.71-28"/><path class="cls-3" d="M200.6,54.07c2.76-3.59,2.18-6.18,1.21-8.27"/><path class="cls-3" d="M210.3,50.71c1.54-2.65,2.26-3.84,1.25-6.63l-.08-.3"/><path class="cls-3" d="M189.29,57.05c2.64-2.85,3.66-5.29,2.31-9.19"/><path class="cls-3" d="M169.48,61.66c.25-1.24,2-3.53,1-7"/><path class="cls-3" d="M186.77,49.16c3.09,0,6.57-3.83,6.13-7"/><path class="cls-3" d="M202.26,37.54c3.09,0,6.56-3.82,6.13-7"/><path class="cls-3" d="M208.12,44.65c3.16-1.25,5-2.86,5-6.5"/><path class="cls-3" d="M153.3,51.17c1.2,2.09,3.62,3.11,7.47,2.6"/><path class="cls-3" d="M156.69,42.5c1.2,2.09,3.63,3.11,7.48,2.61"/><path class="cls-3" d="M168.92,52.73c5.3,0,8.37-1.46,9.58-5.09"/><path class="cls-3" d="M187.67,126.27c.68-2.37,3.39-6.7,3.83-8.42"/><path class="cls-3" d="M157.51,101.4a44.81,44.81,0,0,1,9.08.84"/><path class="cls-2" d="M138.4,129.18c0-.53,1.26-5.5,1.8-7.4.46-1.64,1.78-4.49,13.15-3.39,10.22,1,27.28,6.11,35.72,16.18,5.45,6.51,7.94,16.18,7.94,16.18-.41.57-7.45-2.57-7.88-3.43-4.23-8.42-6.23-11.16-14.34-15.72a55,55,0,0,0-26.14-6.84C143.42,124.62,138.87,128,138.4,129.18Z"/><path class="cls-3" d="M138.4,129.18c0-.53,1.26-5.5,1.8-7.4.46-1.64,1.78-4.49,13.15-3.39,10.22,1,27.28,6.11,35.72,16.18,5.45,6.51,7.94,16.18,7.94,16.18-.41.57-7.45-2.57-7.88-3.43-4.23-8.42-6.23-11.16-14.34-15.72a55,55,0,0,0-26.14-6.84C143.42,124.62,138.87,128,138.4,129.18Z"/><path class="cls-3" d="M139.61,210.43c-4.23,15.8-3.76,31.47-5.53,47.94"/><path class="cls-3" d="M127.69,207.92c-.55,8.34-4.94,20.74-4.94,29.33"/><path class="cls-3" d="M272.72,316.67c-2.26-.22-.76-9-.91-10.86,0-.49.65-.65.91-.6"/><polyline class="cls-3" points="272.42 426.86 285.47 318.06 300.28 318.06 281.95 426.55"/><polyline class="cls-3" points="385.07 426.86 372.02 318.06 357.21 318.06 375.53 426.55"/><line class="cls-3" x1="280.2" y1="318.06" x2="268.9" y2="423.49"/><line class="cls-3" x1="352.32" y1="318.06" x2="370.49" y2="423.49"/><path class="cls-3" d="M321.15,143.57c-3-7.24-8.09-21.12-13.26-26.86-.05,0-.48-.92-.51-1"/><path class="cls-3" d="M315.34,150.45c-1.4-4.07-2.51-7.92-4.9-11.93"/><path class="cls-3" d="M240.56,88.73c-.66-3.57-6.14-9.49-8.42-12.55"/></svg>
