<svg id="Layer_1" data-name="Layer 1" xmlns="http://www.w3.org/2000/svg" viewBox="0 0 450 450"><defs><style>.cls-1,.cls-9{fill:#fefefe;}.cls-2{fill:none;stroke:#000;stroke-linecap:round;stroke-linejoin:round;stroke-width:2.83px;}.cls-3{fill:#bdd8e3;}.cls-10,.cls-3,.cls-4,.cls-5,.cls-6,.cls-7,.cls-8,.cls-9{fill-rule:evenodd;}.cls-4{fill:#f7b6c8;}.cls-6{fill:#fc0;}.cls-7{fill:#718fc8;}.cls-8{fill:#f9c;}.cls-10{fill:#373435;}</style></defs><title>Thech Peeps_Shopping</title><rect class="cls-1" x="96.29" y="42.79" width="131.25" height="172.5" rx="14.17" ry="14.17"/><rect class="cls-2" x="96.29" y="42.79" width="131.25" height="172.5" rx="14.17" ry="14.17"/><path class="cls-2" d="M373.55,201.11a14.21,14.21,0,0,1-14.17,14.18H256.48a14.22,14.22,0,0,1-14.18-14.18V57a14.21,14.21,0,0,1,14.18-14.17h51.45"/><path class="cls-3" d="M329,402.73c-.55-29.12-21.92-68.58-25.41-79,0,0,9.13-81.44,11.71-86-.59,3,8.75,18.27,10.51,20.4,3,3.69-17.1,33.59-15.76,39.28,5.13,21.82-12.34,47.55,11.86,21.77,11.31-12,19.16-25.56,25.17-33.61,22.6-30.25,10.56-36.11-12-80.21-14.27-27.83-44-59.28-63-22.21-1.2,2.34-46.08,3.68-48.27,3.85-12.14-16.12-28.34-19.95-45.32-3.72-9.14,8.72-33.86,62.37-45.36,78.94a53.16,53.16,0,0,0-5.78,10.33c-4.85,12-.74,20,7,27.64,7,6.94,50.31,27.16,50.34,22.95.09-9.9,7.17-18.19,5.33-20.82-2.65-3.82-10.36-8.86-19.09-15.44-2.29-1.73-6.89-4.28-6.83-5.87,0-.66,2.78-5.95,17.26-26.73.19-.27,13.79-20.91,13.79-20.95-5.49,18.57-8.31,31.64-7.32,37.76,2.7,16.65,11.07,21,11.78,22.79,2.05,5.36-.56,33.66-3,42.06-1.18,4.08-20.82,54.73-21.34,58.83-.74,6.61,10.9-.15,26.31,2.8,8.82,1.69,10.91,7.58,22,9.07,7.76,1,17.34-5.37,25.87-4.84,7.63.48,14.13,6.19,21.59,6.8,8.24.66,16.6-8.76,24-9,16.83-.49,22.67,6.61,33.94,3.1"/><path class="cls-2" d="M329,402.73c-.55-29.12-21.92-68.58-25.41-79,0,0,9.13-81.44,11.71-86-.59,3,8.75,18.27,10.51,20.4,3,3.69-17.1,33.59-15.76,39.28,5.13,21.82-12.34,47.55,11.86,21.77,11.31-12,19.16-25.56,25.17-33.61,22.6-30.25,10.56-36.11-12-80.21-14.27-27.83-44-59.28-63-22.21-1.2,2.34-46.08,3.68-48.27,3.85C211.65,170.88,197,167.42,180,183.65c-9.13,8.73-35.35,62-46.85,78.57a53.16,53.16,0,0,0-5.78,10.33c-4.85,12-.74,20,7,27.64,7,6.94,50.31,27.16,50.34,22.95.09-9.9,7.17-18.19,5.33-20.82-2.65-3.82-10.36-8.86-19.09-15.44-2.29-1.73-6.89-4.28-6.83-5.87,0-.66,2.78-5.95,17.26-26.73.19-.27,13.79-20.91,13.79-20.95-5.49,18.57-8.31,31.64-7.32,37.76,2.7,16.65,11.07,21,11.78,22.79,2.05,5.36-.56,33.66-3,42.06-1.18,4.08-20.82,54.73-21.34,58.83"/><path class="cls-4" d="M214.14,97.27a38.25,38.25,0,0,1-1.81,9.6c-.25.72-3.2-1.88-5.25,1.86-1.87,3.41,1.76,6.73.77,8.7-14.94,29.7,17.15,44.79,30.4,35.63,36.48-25.23,24.86-65.27,5.76-74.67C233.68,73.3,216.55,77,214.14,97.27Z"/><path class="cls-2" d="M214.14,97.27a38.25,38.25,0,0,1-1.81,9.6c-.25.72-3.2-1.88-5.25,1.86-1.87,3.41,1.76,6.73.77,8.7-14.94,29.7,17.15,44.79,30.4,35.63,36.48-25.23,24.86-65.27,5.76-74.67C233.68,73.3,216.55,77,214.14,97.27Z"/><path class="cls-5" d="M217.68,106.13c.12.52.42.53,1-1.65.28-1,1.24-4.63.69-4.29S217.52,105.37,217.68,106.13Z"/><path class="cls-2" d="M217.68,106.13c.12.52.42.53,1-1.65.28-1,1.24-4.63.69-4.29S217.52,105.37,217.68,106.13Z"/><path class="cls-6" d="M220.65,80.54c2.6-25.43,55.16-33,71.42,4,3.79,8.65,11.8,31.3,11.8,31.3,24.6,1.44,36.47,19.89,31.54,44.7,0,0,16.64,9,14.75,28.1-1.75,17.63-13.05,26.42-27.05,27.9-7.85.83-18-1-18-1-12.15,28.41-57.5,29.69-66-1.23-.23-.85-7.21.71-15.22-2.48-15-6-20.12-22.62-13.58-37.42L200.94,173c2-37.29,33.29-51.08,33.65-53.55,0-.11,8.42-8.05-1-17.91C226,93.52,220.54,81.55,220.65,80.54Z"/><path class="cls-2" d="M220.65,80.54c2.6-25.43,55.16-33,71.42,4,3.79,8.65,11.8,31.3,11.8,31.3,24.6,1.44,36.47,19.89,31.54,44.7,0,0,16.64,9,14.75,28.1-1.75,17.63-13.05,26.42-27.05,27.9-7.85.83-18-1-18-1-12.15,28.41-57.5,29.69-66-1.23-.23-.85-7.21.71-15.22-2.48-15-6-20.12-22.62-13.58-37.42L200.94,173c2-37.29,33.29-51.08,33.65-53.55,0-.11,8.42-8.05-1-17.91C226,93.52,220.54,81.55,220.65,80.54Z"/><path class="cls-2" d="M217.42,91.48c.91.13,3.12,2.28,3.77,3.1.11.12.1,0,.13.13"/><path class="cls-2" d="M229.94,123.24c5.7-5,17.31-8.1,23.49-6.45"/><path class="cls-4" d="M190,302.32c2.61.64,6-1.12,7.87-2,3.39-1.51,9.26-3.41,11.48-5.56,1.41-1.36,4.21-5.86,6.63-7.51,1-.67,2.46.13,3.37,1.59s-.32,5-1.88,7.81c-2.33,4.24-10.07,8.48-9.84,11.91.49,7.18-2.94,13.19-7.78,15.58-1.35.67-2.88,9.83-3.25,11.78-.44,2.34-5.56,4.51-9.66-4.48-1.38-3-2.53-6.39-4.84-7.93C178.53,321.14,188.61,302.62,190,302.32Z"/><path class="cls-2" d="M190,302.32c2.61.64,6-1.12,7.87-2,3.39-1.51,9.26-3.41,11.48-5.56,1.41-1.36,4.21-5.86,6.63-7.51,1-.67,2.46.13,3.37,1.59s-.32,5-1.88,7.81c-2.33,4.24-10.07,8.48-9.84,11.91.49,7.18-2.94,13.19-7.78,15.58-1.35.67-2.88,9.83-3.25,11.78-.44,2.34-5.56,4.51-9.66-4.48-1.38-3-2.53-6.39-4.84-7.93C178.53,321.14,188.61,302.62,190,302.32Z"/><path class="cls-2" d="M313,216.53c11.17,17.54,10.68,70.86,11.28,85"/><path class="cls-7" d="M335.58,303.91c10.55.45,14.79,16.3,15.54,33-1.35,1.55-7.79,1-8.39-.77C340.56,329.71,335.58,305.93,335.58,303.91Z"/><path class="cls-2" d="M335.58,303.91c10.55.45,14.79,16.3,15.54,33-1.35,1.55-7.79,1-8.39-.77C340.56,329.71,335.58,305.93,335.58,303.91Z"/><path class="cls-7" d="M320.19,363.61c-.67-1.84-10.9-26.48-16.61-39.92l2.58-22.31c3.39-.44,26.45,1.26,27.2,1.32,11.43.87,11,22.13,9.82,48.91-.46,10-5.64,12-11,12.13C328.65,363.84,322.6,363.36,320.19,363.61Z"/><path class="cls-2" d="M320.19,363.61c-.67-1.84-10.9-26.48-16.61-39.92l2.58-22.31c3.39-.44,26.45,1.26,27.2,1.32,11.43.87,11,22.13,9.82,48.91-.46,10-5.64,12-11,12.13C328.65,363.84,322.6,363.36,320.19,363.61Z"/><path class="cls-2" d="M334.68,309.78c-5.86-8-6.74,47.46-.92,47.46,1.95,0,2,.37,3.66-2a.84.84,0,0,0,.19-.57"/><path class="cls-2" d="M164.8,279.65c-.71,1.36-2.41,4.4-2.79,5.52"/><path class="cls-2" d="M201.25,323.35c-3.14.63-3.64.31-6.76-.49"/><path class="cls-2" d="M194.63,233c.48,0,5.4.33,5.68.72"/><path class="cls-2" d="M327.05,258.73c1.28-1.25,6.58-2.81,8.25-2.81"/><path class="cls-2" d="M325.86,261c3,.19,5.77.17,8.5,1.3a1.47,1.47,0,0,0,.47,0"/><path class="cls-2" d="M198.17,379.89c-1.67,3.4-5.86,20.07-6,20.37"/><path class="cls-2" d="M286.93,328.58c2.46,7.18,5.29,14.35,7.87,21.62.24.68,1.31,4.55,1.69,4.81"/><line class="cls-2" x1="276.24" y1="329.14" x2="278.3" y2="347.14"/><path class="cls-2" d="M303.58,323.69c-3.05,1.27-9.61,2.05-13,2.5-6.49.85-14.78,2.36-21.75,2.76-28,1.61-45.59-1.31-67.11-5.57l-.43,0"/><path class="cls-2" d="M308.65,365.21c1.58,5,13.77,44.54,2.68,41.31-.7-.2-1.26-.18-1.74-.63"/><path class="cls-2" d="M287.87,296.8c0,2.67-.63,22.87-2.34,22.87"/><path class="cls-2" d="M337.61,161.94c-1,0-3.08-2.29-5.45-2.9a14.81,14.81,0,0,0-1.93-.53"/><path class="cls-2" d="M307.28,116.17c-2.93.07-7.11-.29-9.86.24"/><path class="cls-2" d="M304.45,217c.56-1.15,2.89-6.79,2.82-7.68"/><path class="cls-2" d="M239.61,145.24a33.5,33.5,0,0,1,32.95-11.51c13.08,2.7,22.34,13.81,22.45,23.64"/><path class="cls-2" d="M290.35,143.25c10.19-3.88,20.78.52,25.34,8.1"/><path class="cls-2" d="M210.13,174.63c1.77-4.45,5.62-11.08,8.9-12.65"/><path class="cls-8" d="M96.59,139.81c-3.26,1.27-15,8.71-16.35,10.33-4.18,5.13-5.5,10.22-.89,10.43,6.31.29,35.78-.63,41-1.4,20.4-3.08,28.54-32.38,34.21-34.51,6.33-2.36,2.2,30,4.64,37,.32.93,5,0,5.7,0,0,0,1.76-8.94,3.67-16.72,3.58-14.64,11-22.33,14.44-33.12a39,39,0,0,0-2.08-28.47s-25.57-5.13-35.9,14c-2.19,4.05-11.9,30.48-21.54,36.83C115,139.71,107.81,139.81,96.59,139.81Z"/><path class="cls-2" d="M96.59,139.81c-3.26,1.27-15,8.71-16.35,10.33-4.18,5.13-5.5,10.22-.89,10.43,6.31.29,35.78-.63,41-1.4,20.4-3.08,28.54-32.38,34.21-34.51,6.33-2.36,2.2,30,4.64,37,.32.93,5,0,5.7,0,0,0,1.76-8.94,3.67-16.72,3.58-14.64,11-22.33,14.44-33.12a39,39,0,0,0-2.08-28.47s-25.57-5.13-35.9,14c-2.19,4.05-11.9,30.48-21.54,36.83C115,139.71,107.81,139.81,96.59,139.81Z"/><path class="cls-2" d="M153,125.75c.28-2,8.75-5.39,11-5.67,1-.13,7.92-.77,8.09-.81"/><path class="cls-9" d="M112.72,200.49a2.14,2.14,0,1,1-2.14,2.14,2.13,2.13,0,0,1,2.14-2.14"/><path class="cls-10" d="M121.86,200.49a2.14,2.14,0,1,1-2.13,2.14,2.13,2.13,0,0,1,2.13-2.14"/><path class="cls-10" d="M131,200.49a2.14,2.14,0,1,1-2.13,2.14,2.13,2.13,0,0,1,2.13-2.14"/><path class="cls-6" d="M157.26,82.86c.38-.74,1.16-4,1.89-6.07.85-2.44,1.82-2.56,2.52.15a55,55,0,0,0,2,5.82c1.17,1.18-1.56,2-2.87,2-1.13,0-4.06-.81-3.49-1.94"/><path class="cls-6" d="M158.57,88.12c-.74-.38-4-1.16-6.07-1.89-2.43-.84-2.56-1.82.15-2.52a51.25,51.25,0,0,0,5.82-1.95c1.18-1.17,2.05,1.57,2.05,2.88,0,1.13-.81,4-2,3.48"/><path class="cls-6" d="M157.26,86.81c.38.74,1.16,4,1.89,6.07.85,2.44,1.82,2.56,2.52-.15a55,55,0,0,1,2-5.82c1.17-1.18-1.56-2-2.87-2-1.13,0-4.06.81-3.49,1.94"/><path class="cls-6" d="M162.52,88.12c.74-.38,4-1.16,6.08-1.89,2.43-.84,2.55-1.82-.16-2.52a51.63,51.63,0,0,1-5.81-1.95c-1.19-1.17-2,1.57-2,2.88,0,1.13.81,4,1.94,3.48"/><path class="cls-2" d="M209.28,129.36c2.14-.14,4-.7,4.87-1.87"/><path class="cls-2" d="M238.12,79.47c-3.11,5.55.67,10,4.21,12.32,2.39,1.57,9.15,7.47,10,10"/><path class="cls-2" d="M258.21,90.25c6.42,7.37,16.46,6.89,20.82,23.81"/><line class="cls-2" x1="209.04" y1="52.57" x2="217.11" y2="60.64"/><line class="cls-2" x1="217.11" y1="52.57" x2="209.04" y2="60.64"/><path class="cls-2" d="M236.28,214.29c6.88-1,10.31-1.18,16.32-3.37"/><path class="cls-2" d="M267.6,202.19c8.77-5.06,15.09-12.48,17.81-22.87"/><path class="cls-2" d="M309.23,194.69c4.24-1.81,5.62-7.42,5.62-12"/><path class="cls-9" d="M230.37,98.1l-3.27-4.27H207.38c-2.12,0-2.92,4.37.54,4.27,2.39-.07,5.09,0,7.53,0Z"/><path class="cls-2" d="M230.37,98.1l-3.27-4.27H207.38c-2.12,0-2.92,4.37.54,4.27,2.39-.07,5.09,0,7.53,0Z"/><path class="cls-2" d="M205.64,98.1c.59,1.67-.76,3.3,2.29,4.73a.64.64,0,0,0,.28.07"/></svg>
