<svg id="Layer_1" data-name="Layer 1" xmlns="http://www.w3.org/2000/svg" viewBox="0 0 450 450"><defs><style>.cls-1{fill:#fefefe;}.cls-1,.cls-10,.cls-11,.cls-12,.cls-14,.cls-2,.cls-4,.cls-6{fill-rule:evenodd;}.cls-13,.cls-3,.cls-5,.cls-7,.cls-8,.cls-9{fill:none;stroke-linecap:round;stroke-linejoin:round;}.cls-3,.cls-8{stroke:#000;}.cls-13,.cls-3,.cls-5,.cls-7,.cls-9{stroke-width:2.83px;}.cls-4{fill:#fac384;}.cls-5{stroke:#fefefe;}.cls-6{fill:#fc0;}.cls-7{stroke:#fc0;}.cls-8{stroke-width:3.4px;}.cls-9{stroke:gray;}.cls-10{fill:#887054;}.cls-11{fill:#c3a786;}.cls-12{fill:#66f;}.cls-13{stroke:#fff;}.cls-14{fill:#fff;}</style></defs><title>Thech Peeps_Dilivery</title><path class="cls-1" d="M213.13,401.58l3-61.5c-20.36-.36-39.9-8.21-56.62-8.7-6.46-.2-27.55-3.21-30.3-9.62-3.62-8.47,3.27-15,5.75-22.43,4.21-12.7,21.09-10,30.4-11,1-.11,29.3,2.16,29.5,1.57,2-5.62,1.62-39.71,1.62-48.51,0-.07,5-16.21,5.36-16.85,2-3.86.43-11.31,5.72-15.29,11.14-8.38,11.13-6.69,23.59-12.34,10.34-4.69,22.16-7.78,33.69-9.66,1.83-.3,2.65-9.22,8.78-9.83,3.25-.32,36.27-6,44.26,3.07,2,2.19,4.89,11.25,5,11.31,8.79,3.76,57.56,20.29,58.59,23.44,7.86,23.92,3.67,54.8,5.91,62.3.79,2.65.4,10,1,11.68,1,22.65,14.71,45.59-9.69,59.4-10.17,5.75-5.42.9-11.91.9l-1.56,49.38c-4.93,8.85-2.52,7.77-18.19,12-12.34,3.31-32.69,1.1-54.2.28-25.32-1-51,2.31-68.55-2.22-5.79-1.49-11.52-.78-11.2-7.33"/><path class="cls-2" d="M108.79,243.55c-3.41-8.7-.12-12.33,7.83-11,3.73.61,16.2,2.9,19.73,3.78,8.84,2.2,11.34,1.67,14.19,8.6,7.1,17.26,15.67,56.69,19.29,65.68,1.21,3,2.09,9.7-6.23,9.62-4.53,0-28.72-1.61-30.61-5.3C123.9,297.18,117.34,265.4,108.79,243.55Z"/><path class="cls-3" d="M108.79,243.55c-3.41-8.7-.12-12.33,7.83-11,3.73.61,16.2,2.9,19.73,3.78,8.84,2.2,11.34,1.67,14.19,8.6,7.1,17.26,15.67,56.69,19.29,65.68,1.21,3,2.09,9.7-6.23,9.62-4.53,0-28.72-1.61-30.61-5.3C123.9,297.18,117.34,265.4,108.79,243.55Z"/><path class="cls-4" d="M259.64,103.79c1.69-14.32.91-24.72,19.08-39.73,21.24-17.55,74.81,20.49,51.57,41.57,11.53-1.25,5.45,21.6-4.4,16.16-2.32-1.29-1.8-3.15-2.78,1.62-4.74,23-7.55,46.85-7.86,61.61-.14,6.47-9.93,11.19-20.11,12.36-2.79.32-7.38,14.15-9.53,12.61-.75-.54-3.3-13.15-5.26-13.86a12.27,12.27,0,0,1-6.72-5.13c-1.51-2.66-.14-24.91-.58-26.19-.29-.86-6.77-.66-14.38-6.14-10.26-7.39-10.17-21.26-8.12-30.62C253,116.78,258.84,110.12,259.64,103.79Z"/><path class="cls-3" d="M259.64,103.79c1.69-14.32.91-24.72,19.08-39.73,21.24-17.55,74.81,20.49,51.57,41.57,11.53-1.25,5.45,21.6-4.4,16.16-2.32-1.29-1.8-3.15-2.78,1.62-4.74,23-7.55,46.85-7.86,61.61-.14,6.47-9.93,11.19-20.11,12.36-2.79.32-7.38,14.15-9.53,12.61-.75-.54-3.3-13.15-5.26-13.86a12.27,12.27,0,0,1-6.72-5.13c-1.51-2.66-.14-24.91-.58-26.19-.29-.86-6.77-.66-14.38-6.14-10.26-7.39-10.17-21.26-8.12-30.62C253,116.78,258.84,110.12,259.64,103.79Z"/><path class="cls-3" d="M261.33,160.39c6.61,5,16.29,5.45,25.07,3.51"/><path class="cls-1" d="M283.58,141.79c.7-1.46,2.39-9.68,1.41-8.88-6.87,5.58-14.09,7.06-22.16,6-2.18-.29,3.22,7.69,10.33,8C276.19,147,281.83,145.46,283.58,141.79Z"/><path class="cls-5" d="M283.58,141.79c.7-1.46,2.39-9.68,1.41-8.88-6.87,5.58-14.09,7.06-22.16,6-2.18-.29,3.22,7.69,10.33,8C276.19,147,281.83,145.46,283.58,141.79Z"/><path class="cls-3" d="M261.54,138.41c6,.57,18.36-2.32,23.1-6.13.71-.57,1.54,4.05.66,6.49"/><path class="cls-6" d="M285.86,73.82c13.91,2,12.8,10.64,28.57,11.42A7.37,7.37,0,0,1,316.67,93c-1.95,6.79-9.79,17.88-8.32,18,.53,0,9.47,2.53,10.34,2,14.15-9.52,21.33-16.07,19.72-27-2.75-18.75-51.77-68.54-75.73-34.14C261.93,52.9,257.11,69.77,285.86,73.82Z"/><path class="cls-7" d="M285.86,73.82c13.91,2,12.8,10.64,28.57,11.42A7.37,7.37,0,0,1,316.67,93c-1.95,6.79-9.79,17.88-8.32,18,.53,0,9.47,2.53,10.34,2,14.15-9.52,21.33-16.07,19.72-27-2.75-18.75-51.77-68.54-75.73-34.14C261.93,52.9,257.11,69.77,285.86,73.82Z"/><path class="cls-3" d="M330,111.15c-1.76-.06-4.13,1-4.36,3"/><path class="cls-8" d="M285.33,86.44c1.69,0,9.17,3,9.75,3.73"/><path class="cls-8" d="M273.76,85.37a39.6,39.6,0,0,0-7.14.34l-.22,0"/><path class="cls-3" d="M262.68,51.81c-6.32,22,16.83,25,37.71,23.07a1.59,1.59,0,0,0,.95-.25"/><path class="cls-3" d="M291.71,74.9c.44,3.17,4,5.9,6.67,7.35,4.29,2.32,15.58,2.9,19.93.3"/><path class="cls-3" d="M314.43,85.24c3.93,14.24-9.31,24.63-8.24,25.09.74.32,11,3.32,11.48,3.54"/><path class="cls-3" d="M262.68,51.81c17.4-31.66,62.92,1,77.09,28.62,3.07,6-.42,18.7-4.83,23.67a8.24,8.24,0,0,0-1.32,2"/><path class="cls-3" d="M315.69,175.69c3.38,2.39,9.72,14.78,6.22,20.62-4.15,6.92-21.77,26.44-30.27,23.35-5.2-1.89-5-9.89-10.19-5.54-7,5.86-7.13,1.63-12.67-5.7-6.17-8.17-5.36-23.25,2-30.39.83-.79.66-1.72,2.15-1.82"/><path class="cls-3" d="M322.93,191.78c9.65,1.07,57,21.8,57.21,21.8,8.46,7.22,6.69,51.77,7.06,60.78.15,3.67,8.25,36.85,6.71,56.14-.48,6-11.25,16.75-17.39,20.86-4.24,2.84-20.44-4.36-23.12-4.06"/><path class="cls-3" d="M262,188c-6.29.33-57.56,15.7-58.24,24.26-.19,2.47-2.83,5.59-3.8,9.1-6.26,22.71-3.25,47.29-5.21,65.69-.25,2.36.34,1.55.07,3.83-21.75,1.79-49.33-8.64-71.39-1.53"/><path class="cls-3" d="M267.16,152.64c2.56-.8,6.78.87,9.08,2"/><path class="cls-4" d="M123.19,279.71c11.66-7.52,20.08-12.61,23.41-15.4,4.84-4.05,8.83-11.11,11.74-8.85,2.72,2.13,2.35,2.79-.53,9.75-2,4.79-4.79,7.93-8.67,11.22-6.22,5.28-6.85,5.83-3.13,4.6,3.36-1.12,7.67-2.92,10.51-6.09.93-1,2.42-4.84,3.45-5.58,4.59-3.27,8.32,1.8.86,14.32-1.55,2.59-10.2,8.23-11.11,9.34,1.43.29,9.56-3.16,12.53-7.21,2.63-3.57,4.83-3.86,6.21-2.2.57.68,1.8,2.56.71,4.36-1.3,2.17-2.59,5.33-6.46,8.42-2.16,1.72-8.29,3.31-7.86,3.89s4-2,8.19-2.88c1.27-.27,3.42-4.44,4.25-4.13,7.09,2.68-3.66,12.41-6.56,13.82-5.26,2.53-11.46,10.64-18.42,13.74-8.12,3.61-17.2,3.4-22.64-2.7-16.29-18.29-1-18.19-7.31-37.12-1.69-5.05-2.11-9.53-5.06-14.33s3-9.79,7.75-4.71C115.5,262.46,122.67,279.35,123.19,279.71Z"/><path class="cls-3" d="M123.19,279.71c11.66-7.52,20.08-12.61,23.41-15.4,4.84-4.05,8.83-11.11,11.74-8.85,2.72,2.13,2.35,2.79-.53,9.75-2,4.79-4.79,7.93-8.67,11.22-6.22,5.28-6.85,5.83-3.13,4.6,3.36-1.12,7.67-2.92,10.51-6.09.93-1,2.42-4.84,3.45-5.58,4.59-3.27,8.32,1.8.86,14.32-1.55,2.59-10.2,8.23-11.11,9.34,1.43.29,9.56-3.16,12.53-7.21,2.63-3.57,4.83-3.86,6.21-2.2.57.68,1.8,2.56.71,4.36-1.3,2.17-2.59,5.33-6.46,8.42-2.16,1.72-8.29,3.31-7.86,3.89s4-2,8.19-2.88c1.27-.27,3.42-4.44,4.25-4.13,7.09,2.68-3.66,12.41-6.56,13.82-5.26,2.53-11.46,10.64-18.42,13.74-8.12,3.61-17.2,3.4-22.64-2.7-16.29-18.29-1-18.19-7.31-37.12-1.69-5.05-2.11-9.53-5.06-14.33s3-9.79,7.75-4.71C115.5,262.46,122.67,279.35,123.19,279.71Z"/><path class="cls-3" d="M195.63,288.06c2.89-1,9.67.5,12.59,1.27"/><path class="cls-3" d="M194.81,290.87c4.48,1.8,5.89,1.94,9.78,5.16"/><path class="cls-3" d="M275.62,214.72c1-2.38.41-11.27,2.54-13.86"/><path class="cls-3" d="M291.64,219.66s5.54-16.87,4.49-17.53"/><path class="cls-3" d="M213.13,401.58a10,10,0,0,0,.14-2c-1-23.2,7-111.15,10.19-141.53a100.29,100.29,0,0,1-4.52-12.47"/><path class="cls-3" d="M223.68,254.73c.7-6,1.13-6.66.81-13"/><path class="cls-3" d="M315.16,90.38c1.9,6.18,1.95,7.44,6.61,11.2.09.08.34.29.46.29"/><path class="cls-9" d="M131.2,237.85c4.5,1,7.64,1.57,9.9,2.14,6,1.52,6.43,3.71,7.86,8,.85,2.56,2.11,6.1,2.83,8.17"/><path class="cls-3" d="M130.73,284.59c-1,1.63-1.38,3.77,1.21,4"/><path class="cls-3" d="M138.39,292.67c-.22,2-.09,3.54,2.05,3.75"/><line class="cls-3" x1="145.18" y1="302.05" x2="145.94" y2="303.23"/><path class="cls-3" d="M114,311.09c3.91,9.76,17.9,15.86,27.31,17.1,19.29,2.53,33,5.38,51.64,8.93,5.38,1,13.11,1.7,18.79,2.45"/><path class="cls-3" d="M377,302.05c-3.73-7.08-7.93-28.73-15.3-43-2.51-4.87-9.83-19-15.35-27.75-5-8-8.26-10.89-10.53-11.47"/><path class="cls-4" d="M334.26,219.33c1.46,3.41,4,16.42-.39,18.54-15,7.17-26.92,3.36-28.74-8.9,0-.26-4.37,5.95-8.78-.51-.18-.28.14,2.34-2.67,3.76a4.86,4.86,0,0,1-6.68-2.89,30.12,30.12,0,0,1-1.6-13.22c.59-4.14,2.64-8,7.35-7.11,2.14.41,3.25-2.3,6.23-3,1.16-.26,2.8.74,3.87.51,1.4-.3,2.86-1.71,4.1-2,1.56-.31,2.84.84,4.17.65,2-.28,3.82-1.3,5.4-1.34C324.45,203.69,328.22,207.87,334.26,219.33Z"/><path class="cls-3" d="M334.26,219.33c1.46,3.41,4,16.42-.39,18.54-15,7.17-26.92,3.36-28.74-8.9,0-.26-4.37,5.95-8.78-.51-.18-.28.14,2.34-2.67,3.76a4.86,4.86,0,0,1-6.68-2.89,30.12,30.12,0,0,1-1.6-13.22c.59-4.14,2.64-8,7.35-7.11,2.14.41,3.25-2.3,6.23-3,1.16-.26,2.8.74,3.87.51,1.4-.3,2.86-1.71,4.1-2,1.56-.31,2.84.84,4.17.65,2-.28,3.82-1.3,5.4-1.34C324.45,203.69,328.22,207.87,334.26,219.33Z"/><path class="cls-3" d="M287.24,231.35c-3,7.36-4.88,16.82-6.81,21.91"/><path class="cls-3" d="M289.83,233.73c-1.09,7.54-.63,17.23-1.27,22.44"/><path class="cls-3" d="M323.22,221.71c11,6.55,2.79,29.68-1,40.52"/><path class="cls-3" d="M323.22,221.71c12.24,6.66,9.46,30.31,8.18,41.39"/><polygon class="cls-10" points="368.19 276.05 245.69 243.32 218.23 369.67 340.27 404.47 368.19 276.05"/><polygon class="cls-3" points="368.19 276.05 245.69 243.32 218.23 369.67 340.27 404.47 368.19 276.05"/><polygon class="cls-11" points="359.21 272.69 241.26 242.17 201.46 365.23 323.59 399.71 359.21 272.69"/><polygon class="cls-3" points="359.21 272.69 241.26 242.17 201.46 365.23 323.59 399.71 359.21 272.69"/><path class="cls-12" d="M68.4,104.35l89.7,18.7c8.64,1.8,17.33,11,19.32,20.42l12.78,60.77c2,9.43-3.46,15.67-12.09,13.87l-56.62-11.8a12.22,12.22,0,0,0-3.82.54c-9.63,3.45-7.88,12.39-13.06,9.64-1.29-.68-6.41-9.8-8.38-15.45l-7.83-1.63c-8.63-1.8-17.33-11-19.31-20.42L56.3,118.22C54.32,108.79,59.76,102.55,68.4,104.35Z"/><path class="cls-3" d="M68.4,104.35l89.7,18.7c8.64,1.8,17.33,11,19.32,20.42l12.78,60.77c2,9.43-3.46,15.67-12.09,13.87l-56.62-11.8a12.22,12.22,0,0,0-3.82.54c-9.63,3.45-7.88,12.39-13.06,9.64-1.29-.68-6.41-9.8-8.38-15.45l-7.83-1.63c-8.63-1.8-17.33-11-19.31-20.42L56.3,118.22C54.32,108.79,59.76,102.55,68.4,104.35Z"/><path class="cls-3" d="M296.35,228.46c-1.15-1.28-2-8.61-2.43-10.84-.12-.56-.2-1.1-.33-1.68"/><path class="cls-3" d="M305.12,228.33c-.26-2.71-1.43-6-1.65-9.27-.09-1.31-.14-2.68-.26-4"/><path class="cls-3" d="M314.39,226.49c-.12-.52-2.27-8.39-2.56-10.55a18.17,18.17,0,0,1-.13-2.43"/><path class="cls-3" d="M322.54,220.33c-.27-1.39-1.47-5.34-1.42-6.61,0-.9-.34-1.69,1.08-1.55"/><path class="cls-3" d="M296.64,228.86c-.22,1.85,4.06,4.15,7,1.46s-.87-1.41,4.75-.78c2,.22,4.82-2.5,5.52-4a14.83,14.83,0,0,0,1.62,1c1.85.53,3.17,1.14,4.85-.22,2.81-2.27,2.15-5.09,2.06-7.4"/><path class="cls-4" d="M307.76,230.31c2.35.17,4,4.64,1.25,6.1-2.27,1.18-14.92,1.65-17-.83-.28-.33-1.75-2.54-1-2.71a7.69,7.69,0,0,0,4.76-3.1c.17-.19,6.47,3,8.83.41C305.34,229.37,306.84,230.24,307.76,230.31Z"/><path class="cls-3" d="M307.76,230.31c2.35.17,4,4.64,1.25,6.1-2.27,1.18-14.92,1.65-17-.83-.28-.33-1.75-2.54-1-2.71a7.69,7.69,0,0,0,4.76-3.1c.17-.19,6.47,3,8.83.41C305.34,229.37,306.84,230.24,307.76,230.31Z"/><path class="cls-3" d="M306.79,238.5c2,3.94,6.59,18.95,7.77,22.06"/><path class="cls-3" d="M207.91,215.29c4.09,2.22,8.73,7.33,11.05,11.29"/><path class="cls-3" d="M366.78,233c.65-3,7.28-13.15,10.09-13.81"/><line class="cls-3" x1="340.27" y1="404.47" x2="331.78" y2="387.44"/><path class="cls-3" d="M373.46,292.27c1.67.71,6,2.85,7.22,4.07"/><path class="cls-3" d="M365.27,398.88c.64-10.62.61-38.82-.41-48.46"/><path class="cls-13" d="M285.16,332.38c3.1-3.86,14.78-16.78,15.88-21.16,4-16-14.09-22.87-22.42-13.87-6.58,7.11-2.58,24-2,36.78.09,1.93.26,5.22,2.56,4.29.09,0,3.48-3.52,3.58-3.62"/><path class="cls-13" d="M292.48,309.18a5,5,0,0,1-9.58-1c-.94-4.77,4.3-8.56,7.71-6.1S292.68,308.1,292.48,309.18Z"/><path class="cls-14" d="M114.5,242.61h0a4,4,0,0,1,3.53,2.67l1.3,4a1.88,1.88,0,0,1-1.81,2.67h0A4,4,0,0,1,114,249.3l-1.3-4a1.88,1.88,0,0,1,1.81-2.67"/><path class="cls-4" d="M255.49,224.54c4.12-.2,13.16-.81,20.26,0,2.72.31,4.71,3.87,1,6.68-2,1.55-8.74,2.11-10.47,2.37-13.53,2-.34,12.42,4.8,16.24,1,.75,8.63,6.49,11.14,9.46,3.74,4.4,1.53,8-3.8,6C275,264,260.74,254.15,259.86,254c-.07,0,11.14,12,16.65,18.9,2.24,2.79.34,6.11-3.23,5.62-2-.28-22.38-19-20.82-17.2.26.3,3.7,5.75,7,10.29,1.9,2.66,3.66,5.1,4.73,7,3,5.32,1.1,8.35-2.49,7-3.14-1.22-14.33-15.58-16.13-16.7.15.32,2.74,6.3,5,11.41,2.05,4.64,2.7,7.27-.9,7.67-2.21.25-5.05-5.84-9.06-11.59-3.5-5-9.17-9.75-10.73-11-2.59-2.08-7.26-8.58-11.38-11.32-1.63-1.08.17-13.06,1.28-15.64,2.36-5.51,7.47-18,16.42-15.62C243.93,224.81,246.16,225,255.49,224.54Z"/><path class="cls-3" d="M255.49,224.54c4.12-.2,13.16-.81,20.26,0,2.72.31,4.71,3.87,1,6.68-2,1.55-8.74,2.11-10.47,2.37-13.53,2-.34,12.42,4.8,16.24,1,.75,8.63,6.49,11.14,9.46,3.74,4.4,1.53,8-3.8,6C275,264,260.74,254.15,259.86,254c-.07,0,11.14,12,16.65,18.9,2.24,2.79.34,6.11-3.23,5.62-2-.28-22.38-19-20.82-17.2.26.3,3.7,5.75,7,10.29,1.9,2.66,3.66,5.1,4.73,7,3,5.32,1.1,8.35-2.49,7-3.14-1.22-14.33-15.58-16.13-16.7.15.32,2.74,6.3,5,11.41,2.05,4.64,2.7,7.27-.9,7.67-2.21.25-5.05-5.84-9.06-11.59-3.5-5-9.17-9.75-10.73-11-2.59-2.08-7.26-8.58-11.38-11.32-1.63-1.08.17-13.06,1.28-15.64,2.36-5.51,7.47-18,16.42-15.62C243.93,224.81,246.16,225,255.49,224.54Z"/><path class="cls-3" d="M257.28,249.36c-1.74-2.26-.94-.94-2.32-1.71"/><line class="cls-3" x1="251.33" y1="256.85" x2="248.84" y2="254.92"/><path class="cls-3" d="M244.14,263.48c-1,.08-1.63-1.44-2-2.2"/><path class="cls-12" d="M219.1,207.19c2.52,2.34,4,5.8,6.88,7.76,4.57,3.15,11,6,6.14,11.58-1.81,2.05-2.2,9.09-5.81,13.12-2.92,3.25-3.79,6.75-9.18,10.68-6.12,4.47-8.49-3.39-12.35-5.14-.93-.43-5.87-3-5.91-3.77-.38-7.67,12.79-24.44,17.35-30.44C217.18,209.72,217.21,208,219.1,207.19Z"/><path class="cls-3" d="M219.1,207.19c2.52,2.34,4,5.8,6.88,7.76,4.57,3.15,11,6,6.14,11.58-1.81,2.05-2.2,9.09-5.81,13.12-2.92,3.25-3.79,6.75-9.18,10.68-6.12,4.47-8.49-3.39-12.35-5.14-.93-.43-5.87-3-5.91-3.77-.38-7.67,12.79-24.44,17.35-30.44C217.18,209.72,217.21,208,219.1,207.19Z"/><path class="cls-12" d="M140.59,132.28c-24.65-17.1-16.12-1.73-25.45-1.44-13.11.39.89,16.29-7.66,17.14-22.08,2.17.57,13.87-15.68,16.48-5.26.85-4.13,10.58-1.87,13.41.23.53,25.19,21.08,26.82,22,6.23,3.54,50.06,28.47,51.89,30.79,7.58,9.59,25.81,17.06,34.56,6,21.63-27.33,21.08-39-6-60.72-4.42-3.54-25.86-24.78-26-24.86-14-7.05-17.83-9.71-30.54-18.8"/><path class="cls-3" d="M163.65,147.21c.16.08,29.08,25.19,33.5,28.73,3.16,2.53,10.61,10.2,13.29,12.23,14.55,11,11.87,24.35-7.24,48.49-8.75,11.06-27,3.59-34.56-6-1.83-2.32-53.76-32.35-60-35.89"/><path class="cls-3" d="M230.78,228.32c-.38-5.17-4.19-5.35-7-8.14-.21-.22-3.26-2.87-3.41-2.94"/><path class="cls-3" d="M229.73,232.47c-3.11-3.63-2.63-2.64-6.11-5.18a26.23,26.23,0,0,1-2.74-2.26"/><path class="cls-3" d="M227.18,236.25c-2.48-1.35-3-1.94-5.11-3.24-.21-.13-.12,0-.31-.22"/><path class="cls-3" d="M218.31,249.58c-2.57,0-2.84-1.12-4.95-2.86-.79-.66-4.89-6.07-5.89-5.92"/><path class="cls-3" d="M334.93,71.7a15.05,15.05,0,0,1,7.8-2"/><path class="cls-3" d="M333.13,69.22c.43-1.31,2.65-4.46,4.05-5"/><path class="cls-3" d="M263.3,115.49c2.95-9.72,3.54-6.79,11.41-2.21"/><path class="cls-2" d="M283.24,107.54c.15.61.5.62,1.12-1.92.29-1.19,1.26-5.4.65-5C284.24,101.13,283,106.65,283.24,107.54Z"/><path class="cls-3" d="M283.24,107.54c.15.61.5.62,1.12-1.92.29-1.19,1.26-5.4.65-5C284.24,101.13,283,106.65,283.24,107.54Z"/><path class="cls-2" d="M267,103.93c.15.6.51.61,1.12-1.87.28-1.16,1.24-5.27.63-4.88C267.93,97.67,266.72,103.07,267,103.93Z"/><path class="cls-3" d="M267,103.93c.15.6.51.61,1.12-1.87.28-1.16,1.24-5.27.63-4.88C267.93,97.67,266.72,103.07,267,103.93Z"/></svg>
