<svg id="Layer_1" data-name="Layer 1" xmlns="http://www.w3.org/2000/svg" viewBox="0 0 450 450"><defs><style>.cls-1{fill:#fc0;}.cls-1,.cls-2,.cls-4,.cls-6,.cls-7,.cls-8{fill-rule:evenodd;}.cls-2{fill:#f7b6c8;}.cls-3,.cls-5,.cls-9{fill:none;stroke-linecap:round;stroke-linejoin:round;}.cls-3,.cls-5{stroke:#000;}.cls-3,.cls-9{stroke-width:2.83px;}.cls-5{stroke-width:3.4px;}.cls-6{fill:#f5874f;}.cls-7{fill:#fff;}.cls-8{fill:#99f;}.cls-9{stroke:#fc0;}</style></defs><title>Thech Peeps_Calendar</title><path class="cls-1" d="M99.67,397.38c0-4.67,3.69-36,6.38-40.88.21-.37,21.32,7.47,23.68,8.13,13.66,3.8,17.33,3.89,31.75,4.67a135.1,135.1,0,0,0,24.92-.5c11.81-1.29,27-4.72,34.46-15.3.35-.48,5.67,14.76,7.27,17.22,1.33,2,4.83,11.45,4,13.85,1.89,11.42-8,12.43-25.88,12.58-22.53.2-40.64,3.76-64.4,5.17-20.81,1.24-28.1-2.1-42.19-4.94"/><path class="cls-2" d="M321.22,138.06c-1.67,2.81-12.13,15.71-14.87,14.64-5.24-2,2.79-5.19-5.85-1.1-1.33.63-2.79-2.42-2.23-4.36.78-2.68,3.73-4.48.93-2.6-.48.31-1.14-10.09,5.3-12.64C306.82,131.08,326.35,129.5,321.22,138.06Z"/><path class="cls-3" d="M321.22,138.06c-1.67,2.81-12.13,15.71-14.87,14.64-5.24-2,2.79-5.19-5.85-1.1-1.33.63-2.79-2.42-2.23-4.36.78-2.68,3.73-4.48.93-2.6-.48.31-1.14-10.09,5.3-12.64C306.82,131.08,326.35,129.5,321.22,138.06Z"/><path class="cls-4" d="M161.41,99.62c-13.7,11.51-8.13,33.74-10.88,34.26-2.59.5-10.77,5.46-16.42,12.78-13.34,17.29-11.79,32.42,7.4,45.57,29,19.84,62.2-6.16,55.49-26.52.28-.61,1,2.33,7.34-4.24C219.55,145.81,208.76,126,210,125c15-11.26,4.7-33.12-5.73-33-1.18,0,1.28-10.32-.93-16.72C191.26,40.28,147.54,66.3,161.41,99.62Z"/><path class="cls-3" d="M161.41,99.62c-13.7,11.51-8.13,33.74-10.88,34.26-2.59.5-10.77,5.46-16.42,12.78-13.34,17.29-11.79,32.42,7.4,45.57,29,19.84,62.2-6.16,55.49-26.52.28-.61,1,2.33,7.34-4.24C219.55,145.81,208.76,126,210,125c15-11.26,4.7-33.12-5.73-33-1.18,0,1.28-10.32-.93-16.72C191.26,40.28,147.54,66.3,161.41,99.62Z"/><path class="cls-2" d="M188.53,115.25c-1.59-13.82-.86-23.86-18-38.35C150.49,60,100,96.67,121.87,117c-10.88-1.21-5.14,20.86,4.16,15.6,2.18-1.24,1.69-3,2.62,1.57,4.47,22.23,7.12,45.22,7.42,59.47.1,4.76,5.48,8.54,12.28,10.57,14.59,4.35,21.68,4.25,26.91-.9,2.08-2-1.67-32.88-1.26-34.12.27-.82,6.55-.42,13.56-5.93,9.68-7.59,12.51-20.75,9.09-31.3C192.91,120.48,189.29,121.36,188.53,115.25Z"/><path class="cls-3" d="M188.53,115.25c-1.59-13.82-.86-23.86-18-38.35C150.49,60,100,96.67,121.87,117c-10.88-1.21-5.14,20.86,4.16,15.6,2.18-1.24,1.69-3,2.62,1.57,4.47,22.23,7.12,45.22,7.42,59.47.1,4.76,5.48,8.54,12.28,10.57,14.59,4.35,21.68,4.25,26.91-.9,2.08-2-1.67-32.88-1.26-34.12.27-.82,6.55-.42,13.56-5.93,9.68-7.59,12.51-20.75,9.09-31.3C192.91,120.48,189.29,121.36,188.53,115.25Z"/><path class="cls-3" d="M184.62,129.57c-1.13-7.54-4.76-1.64-9.49-5.66"/><path class="cls-4" d="M165.81,121.9c-.14.58-.48.59-1.06-1.86-.28-1.15-1.19-5.2-.61-4.82S166,121,165.81,121.9Z"/><path class="cls-3" d="M165.81,121.9c-.14.58-.48.59-1.06-1.86-.28-1.15-1.19-5.2-.61-4.82S166,121,165.81,121.9Z"/><path class="cls-4" d="M181.18,118.42c-.15.57-.48.58-1.06-1.81-.27-1.13-1.17-5.09-.59-4.71S181.39,117.58,181.18,118.42Z"/><path class="cls-3" d="M181.18,118.42c-.15.57-.48.58-1.06-1.81-.27-1.13-1.17-5.09-.59-4.71S181.39,117.58,181.18,118.42Z"/><path class="cls-3" d="M122.11,122.36c1.66-.06,3.89,1,4.11,2.9"/><path class="cls-5" d="M165,104.64c-1.37,3.5-8.66,2.89-9.2,3.6"/><path class="cls-5" d="M175.89,103.61c2.56,2.65,4.42.1,6.73.33l.21,0"/><path class="cls-3" d="M137.35,139.26c7.86,0,14.24,7.39,14.24,16.5s-6.38,16.5-14.24,16.5-14.24-7.39-14.24-16.5S129.48,139.26,137.35,139.26Z"/><path class="cls-4" d="M150.28,105.28c1.07,26.53-15,37.11-14.08,39,1.41,2.9,6.86,14.86,4.68,26.15-4,20.76-20.22,32.33-46.54,28-44.77-7.27-37.95-62.62-12.66-70.3.3-.74-5.63-6.05-6-17.13-.82-23.69,22.06-29.41,22.06-29.41-2.32-22.78,23.6-29.89,31.52-20,.9,1.12,2.33-9.57,14.45-12C184,41.64,188.33,92.66,150.28,105.28Z"/><path class="cls-3" d="M150.28,105.28c1.07,26.53-15,37.11-14.08,39,1.41,2.9,6.86,14.86,4.68,26.15-4,20.76-20.22,32.33-46.54,28-44.77-7.27-37.95-62.62-12.66-70.3.3-.74-5.63-6.05-6-17.13-.82-23.69,22.06-29.41,22.06-29.41-2.32-22.78,23.6-29.89,31.52-20,.9,1.12,2.33-9.57,14.45-12C184,41.64,188.33,92.66,150.28,105.28Z"/><path class="cls-3" d="M178.34,147.16c-6.45,1.52-10.76-3.56-11.17-5"/><path class="cls-3" d="M163.82,142.9c2.46-.82,5.07-1.76,5.23-4.52"/><path class="cls-3" d="M178.28,168c-3.75,1.71-13.94,2-17.43-.63"/><path class="cls-3" d="M157.69,102.08c-6.69,3.28-10.47,3.77-17.73,3.77"/><path class="cls-3" d="M136,143.67a19,19,0,0,1-4.48,3c-.59.31-3.07,1.45-3.25,1.57"/><path class="cls-3" d="M205.79,92.29a24.27,24.27,0,0,0-5.66-.62"/><path class="cls-6" d="M116.59,321.75c-28.09-2-51.06-6-34.55-66.33,4-14.68,6.3-39.75,12-50.92,11.14-21.85,29.91-24,43-14.47,8.21,7.25,21.26,14.78,28.37,15.37,13.28,1.09,10.8-11.21,10.64-12.53-.61-4.92,6.25-9.36,14.05-9.82,10.81-.64,19.9,1.62,30.36,15.61,1.89,2.52,23.5,31,23.68,31.52,6.9-20.23,22.06-61.53,24.33-65.24,4.24,0,19.75,1.19,26.24,4.53,2.82,1.45-17.72,71.41-20.94,87-2,9.47-10.77,17.08-15.31,20.58-7.22,5.56-12.14,2.52-25.7-6.19-5.08-3.27-8.95-6.36-8.17-5.74.58.46,3.23,20.5-10.34,28,0,0-5.74,29.3,4.91,55.05,10.76,26-87.55,27.8-112,8C103.76,353.4,116.59,321.75,116.59,321.75Z"/><path class="cls-3" d="M116.59,321.75c-28.09-2-51.06-6-34.55-66.33,4-14.68,6.3-39.75,12-50.92,11.14-21.85,29.91-24,43-14.47,8.21,7.25,21.26,14.78,28.37,15.37,13.28,1.09,10.8-11.21,10.64-12.53-.61-4.92,6.25-9.36,14.05-9.82,10.81-.64,19.9,1.62,30.36,15.61,1.89,2.52,23.5,31,23.68,31.52,6.9-20.23,22.06-61.53,24.33-65.24,4.24,0,19.75,1.19,26.24,4.53,2.82,1.45-17.72,71.41-20.94,87-2,9.47-10.77,17.08-15.31,20.58-7.22,5.56-12.14,2.52-25.7-6.19-5.08-3.27-8.95-6.36-8.17-5.74.58.46,3.23,20.5-10.34,28,0,0-5.74,29.3,4.91,55.05,10.76,26-87.55,27.8-112,8C103.76,353.4,116.59,321.75,116.59,321.75Z"/><path class="cls-3" d="M111.79,321.54c15.85.91,33.2.61,48.87,1.84,11.07.86,22.37.25,33.6.6"/><path class="cls-3" d="M110.91,282.68a155.35,155.35,0,0,1,25.43,3.65c15,3.18,44,8.82,58.87,9.58.08.37-2.14,7.39-2.09,9.64,0,2.1-.45,6.76-.45,9.75,0,1.84-.62,7.83,1.8,8.17"/><path class="cls-3" d="M116.58,282.81c1.39-9.62,5.41-26,5.71-34.82.14-4.18.92-9.49.92-13.81"/><path class="cls-3" d="M119.46,231.26A29.69,29.69,0,0,0,130.71,234"/><path class="cls-3" d="M224.87,268.94c-.11-11.49-13.77-19.85-18-42.9,2.34-.75,3.22.23,4.44-1.11"/><path class="cls-3" d="M106.14,355.87c-4.72,12.8-4.94,23.91-6.33,39.16"/><path class="cls-3" d="M219.9,350.41c2,4.43,12.47,25.24,11.92,30.77"/><path class="cls-2" d="M293.17,168.78l-23.6-3.55c4.41-9.47,9.25-21.11,15.06-32.08a15.41,15.41,0,0,1,6.09-6.1c5.2-3.28,23.11-.87,29.44-.2,3.78.39,7,2.43,10,3.39,3.4,1.1,6.28,1.72,6.21,2.33-.49,4.06-6.09,4.63-16.05,1.36-2.35-.78-5,.17-7.23.26a3.1,3.1,0,0,1,.71,4.67c-2.13,3.1-15.14,4-17.34,8C295.15,149.25,297.31,156.34,293.17,168.78Z"/><path class="cls-3" d="M293.17,168.78l-23.6-3.55c4.41-9.47,9.25-21.11,15.06-32.08a15.41,15.41,0,0,1,6.09-6.1c5.2-3.28,23.11-.87,29.44-.2,3.78.39,7,2.43,10,3.39,3.4,1.1,6.28,1.72,6.21,2.33-.49,4.06-6.09,4.63-16.05,1.36-2.35-.78-5,.17-7.23.26a3.1,3.1,0,0,1,.71,4.67c-2.13,3.1-15.14,4-17.34,8C295.15,149.25,297.31,156.34,293.17,168.78Z"/><path class="cls-7" d="M274.83,220.75l36.44-11.55c3.59-1.14,6.77-.75,11.12-.46l32.26,2.19c4.35.29-.91,3.74-4.48,4.95l-26.7,9c-3.57,1.21-10.31.91-14.67.85l-33-.44C271.46,225.27,271.23,221.89,274.83,220.75Z"/><path class="cls-3" d="M274.83,220.75l36.44-11.55c3.59-1.14,6.77-.75,11.12-.46l32.26,2.19c4.35.29-.91,3.74-4.48,4.95l-26.7,9c-3.57,1.21-10.31.91-14.67.85l-33-.44C271.46,225.27,271.23,221.89,274.83,220.75Z"/><path class="cls-7" d="M282.73,179.21,318.12,169c3.49-1,2.31,2,5.35,5l30.66,30.37c3,3-3.86,7.63-7.32,8.7l-25.88,8c-3.46,1.06-8.26-.59-11.3-3.59L280.89,189C277.85,186,279.24,180.21,282.73,179.21Z"/><path class="cls-3" d="M282.73,179.21,318.12,169c3.49-1,2.31,2,5.35,5l30.66,30.37c3,3-3.86,7.63-7.32,8.7l-25.88,8c-3.46,1.06-8.26-.59-11.3-3.59L280.89,189C277.85,186,279.24,180.21,282.73,179.21Z"/><path class="cls-8" d="M224.7,262.25l18.49,9.15a7.16,7.16,0,0,1,3.28,9.36L226.2,324.29a6.78,6.78,0,0,1-9.15,3.21l-18.49-9.15a7.15,7.15,0,0,1-3.29-9.36l20.28-43.53A6.77,6.77,0,0,1,224.7,262.25Z"/><path class="cls-3" d="M224.7,262.25l18.49,9.15a7.16,7.16,0,0,1,3.28,9.36L226.2,324.29a6.78,6.78,0,0,1-9.15,3.21l-18.49-9.15a7.15,7.15,0,0,1-3.29-9.36l20.28-43.53A6.77,6.77,0,0,1,224.7,262.25Z"/><path class="cls-2" d="M195.08,296.17c-2.13,4.56-2.41,19.13-1.89,22.86.63,4.58,9.86,2.33,13.36,1,5.82-2.21,13.68-5.44,16.15-5.38,1.72,0,3.53.68,6.18,1.64,1,.35-2.25,3.86,1.42,3.5,3.14-.31,6.27-2.12,6.79-6a5.21,5.21,0,0,0,0-2c4.42-2.64,1.77-4.28,3.21-6.32,3.12-4.41.34-4.86,2.52-7.46.58-.7,2-4.44-1.73-6-1.14-.49-7.8-3.93-10.66-5.66a22.51,22.51,0,0,0-2.79-1.65c-1.46-.66-3.91-1.33-7.82.33C207.91,290.08,207.8,292.08,195.08,296.17Z"/><path class="cls-3" d="M195.08,296.17c-2.13,4.56-2.41,19.13-1.89,22.86.63,4.58,9.86,2.33,13.36,1,5.82-2.21,13.68-5.44,16.15-5.38,1.72,0,3.53.68,6.18,1.64,1,.35-2.25,3.86,1.42,3.5,3.14-.31,6.27-2.12,6.79-6a5.21,5.21,0,0,0,0-2c4.42-2.64,1.77-4.28,3.21-6.32,3.12-4.41.34-4.86,2.52-7.46.58-.7,2-4.44-1.73-6-1.14-.49-7.8-3.93-10.66-5.66a22.51,22.51,0,0,0-2.79-1.65c-1.46-.66-3.91-1.33-7.82.33C207.91,290.08,207.8,292.08,195.08,296.17Z"/><path class="cls-3" d="M313.13,134.19c-2-.72-13.28-.42-16.8-1.23"/><path class="cls-3" d="M180.52,318.67c0-7,.42-17.43,3.28-23.87"/><path class="cls-3" d="M264.71,173.69c2.17-.46,15.18,2.08,18,2.64h.61"/><path class="cls-3" d="M114.42,349.57c29.42,16.61,64.63,14.46,88.8,8.55"/><path class="cls-3" d="M143.32,201.17c8.86,5.4,23.11,13.92,34,9.49,1.45-.6,2.81-3.59,3.1-5"/><path class="cls-3" d="M242,299c-.95-.44-13.59-6.3-13.62-6.33"/><path class="cls-3" d="M240.1,305.53c-2.93-1.4-11.57-5.52-14.59-6.64"/><path class="cls-3" d="M237.06,311.78c-2.91-2.29-12-5.61-13.29-5.95"/><path class="cls-4" d="M223.57,268.56h0a2.59,2.59,0,0,1,1.15,3.42l-1.55,3.42a2.52,2.52,0,0,1-3.42,1.15,2.59,2.59,0,0,1-1.15-3.42l1.55-3.42A2.54,2.54,0,0,1,223.57,268.56Z"/><path class="cls-3" d="M223.57,268.56h0a2.59,2.59,0,0,1,1.15,3.42l-1.55,3.42a2.52,2.52,0,0,1-3.42,1.15,2.59,2.59,0,0,1-1.15-3.42l1.55-3.42A2.54,2.54,0,0,1,223.57,268.56Z"/><path class="cls-7" d="M156.13,234.88c4,0,8,3.86,8.81,8.62s-1.73,8.63-5.75,8.63-8-3.86-8.82-8.63,1.74-8.62,5.76-8.62"/><path class="cls-3" d="M304.49,149.69c2.89-2.37,9-4.4,9.73-9.51"/><path class="cls-3" d="M244.1,230.18c.73.68-.13,3.3-.12,4.42,0,1.94-.22,5.39.19,7.25"/><path class="cls-3" d="M244,228.53c-1.1,1.25-4.22,6-4.22,7.5"/><path class="cls-2" d="M208.74,290.42c.12-2.45,11.48-8.44,17.59-12.24,3.5-2.18,6.35-.62,5.91,2.07a8.12,8.12,0,0,1-3.13,4.83c-.31.18-2-1-2.28-1-3.71-1-7.09,1.65-12.55,3.9C213.47,288.28,208.73,290.65,208.74,290.42Z"/><path class="cls-3" d="M208.74,290.42c.12-2.45,11.48-8.44,17.59-12.24,3.5-2.18,6.35-.62,5.91,2.07a8.12,8.12,0,0,1-3.13,4.83c-.31.18-2-1-2.28-1-3.71-1-7.09,1.65-12.55,3.9C213.47,288.28,208.73,290.65,208.74,290.42Z"/><path class="cls-3" d="M298.77,190.49c-3.23-5.18,3.32-7.73,7.48-4.49,5.94,4.62,6.46,13.94,8.26,20.7,1.92,7.22-.52,2.84,6.62,1.25"/><path class="cls-7" d="M320.81,149.53l30.46-10.14c3.49-1.16,6.24.8,6.75,5.16l6.42,54.9c.51,4.36-3.89,8.7-7.38,9.86l-30.17,10.05c-3.49,1.16-6.53-.71-7-5.07l-6.18-52.93C312.7,153,317.32,150.69,320.81,149.53Z"/><path class="cls-3" d="M320.81,149.53l30.46-10.14c3.49-1.16,6.24.8,6.75,5.16l6.42,54.9c.51,4.36-3.89,8.7-7.38,9.86l-30.17,10.05c-3.49,1.16-6.53-.71-7-5.07l-6.18-52.93C312.7,153,317.32,150.69,320.81,149.53Z"/><path class="cls-3" d="M327.29,164.92l7.6-2.4L331.43,176c6.54-2.57,8.3,12.34,4.05,17.73-1.6,2-3.74,3-6.27.89"/><path class="cls-7" d="M350.46,151.78l32.8-10.62c3.59-1.16,5.76,1.38,4.83,5.64l-12.4,56.87c-.92,4.26-4.62,8.7-8.21,9.86l-32.8,10.62c-3.59,1.16-5.76-1.38-4.83-5.64l12.39-56.87C343.17,157.38,346.87,152.94,350.46,151.78Z"/><path class="cls-3" d="M350.46,151.78l32.8-10.62c3.59-1.16,5.76,1.38,4.83,5.64l-12.4,56.87c-.92,4.26-4.62,8.7-8.21,9.86l-32.8,10.62c-3.59,1.16-5.76-1.38-4.83-5.64l12.39-56.87C343.17,157.38,346.87,152.94,350.46,151.78Z"/><path class="cls-4" d="M341.61,210.12c.82,0,1.22,1.46.9,3.26s-1.26,3.27-2.09,3.27-1.22-1.46-.89-3.27S340.79,210.12,341.61,210.12Z"/><path class="cls-3" d="M341.61,210.12c.82,0,1.22,1.46.9,3.26s-1.26,3.27-2.09,3.27-1.22-1.46-.89-3.27S340.79,210.12,341.61,210.12Z"/><path class="cls-4" d="M368.79,203.15c.82,0,1.22,1.46.9,3.26s-1.26,3.27-2.08,3.27-1.23-1.47-.9-3.27S368,203.15,368.79,203.15Z"/><path class="cls-3" d="M368.79,203.15c.82,0,1.22,1.46.9,3.26s-1.26,3.27-2.08,3.27-1.23-1.47-.9-3.27S368,203.15,368.79,203.15Z"/><path class="cls-9" d="M340.69,213.68c4.56,3.7,3.9,12.84.3,16.85-4.08,4.52-13,4.42-16.12-5.45"/><path class="cls-9" d="M368.12,206.26c4.56,3.7,3.91,12.84.3,16.85-3.48,3.86-10.51,4.35-14.42-1.74"/><path class="cls-3" d="M353.15,162.57l8.1-2.4-6.3,13.5c7.09-2.57,5.71,12.34.32,17.73-2,2-4.36,3-6.45.89"/><polyline class="cls-3" points="369.07 163.19 375.02 157.44 368.47 190.14"/></svg>
