<svg id="Layer_1" data-name="Layer 1" xmlns="http://www.w3.org/2000/svg" xmlns:xlink="http://www.w3.org/1999/xlink" viewBox="0 0 450 450"><defs><style>.cls-1,.cls-10,.cls-11,.cls-15,.cls-17,.cls-2,.cls-5{fill:none;}.cls-1{clip-rule:evenodd;}.cls-11,.cls-15,.cls-2{stroke:#000;}.cls-10,.cls-11,.cls-15,.cls-17,.cls-2,.cls-5{stroke-linecap:round;}.cls-10,.cls-11,.cls-2,.cls-5{stroke-linejoin:round;}.cls-10,.cls-15,.cls-17,.cls-2,.cls-5{stroke-width:2.83px;}.cls-3{fill:#ffc4a6;}.cls-12,.cls-13,.cls-16,.cls-3,.cls-4,.cls-6,.cls-7,.cls-8,.cls-9{fill-rule:evenodd;}.cls-4{fill:#f63;}.cls-5{stroke:#f63;}.cls-7{fill:#ccf;}.cls-8{fill:#fac384;}.cls-9{fill:#fefefe;}.cls-10,.cls-17{stroke:#fefefe;}.cls-11{stroke-width:3.4px;}.cls-12{fill:#fc0;}.cls-13{fill:#373435;}.cls-14{clip-path:url(#clip-path);}.cls-15,.cls-17{stroke-miterlimit:22.93;}.cls-16{fill:#f7b6c8;}</style><clipPath id="clip-path"><path class="cls-1" d="M41.82,189.87h93.55a9,9,0,0,1,9,9V321.27a9,9,0,0,1-9,9H41.82a9,9,0,0,1-9-9V198.83a9,9,0,0,1,9-9"/></clipPath></defs><title>Thech Peeps_Chat</title><path class="cls-2" d="M374.43,356.48c24.47-.58,33.61,22.78,42.7,42.86"/><path class="cls-3" d="M173,313.84c-6.68,3.67-25.36,57.27-25,65.81.14,3.25-1.71,30.94,0,31.9,11.25,6.39,10.8-3.77,28.45,2.9,4.43,1.67,17.38,2.38,21.49-.23,5.1-3.22,16-4,22.13-2.88,11.83,2.16,24.78,8.94,36.5,4.44,14.87-5.72,33.89,8.23,45.43-10a1.4,1.4,0,0,0-.56-2.21c.48-41.41-20.67-70-28.93-87-10.69,11.7-85.45,13.51-99.49-2.77"/><path class="cls-4" d="M156.74,354.84c3.12-2.76,12.23-2.66,13.26,2.49.79,4,2.12,4.11,1,9.21s-3.25,10.88-9.51,10.44c-2.85-.2-7.39-4.31-8-7.23-.46-2.27-1.13-.83-.06-4.95C153.84,363.41,156.18,355.33,156.74,354.84Z"/><path class="cls-5" d="M156.74,354.84c3.12-2.76,12.23-2.66,13.26,2.49.79,4,2.12,4.11,1,9.21s-3.25,10.88-9.51,10.44c-2.85-.2-7.39-4.31-8-7.23-.46-2.27-1.13-.83-.06-4.95C153.84,363.41,156.18,355.33,156.74,354.84Z"/><path class="cls-4" d="M187.26,331c-5.24,4.95-8.14,15.78-.07,19.82,11.82,5.92,19.78-24.95,4-23.21C189.77,327.75,188.09,330.2,187.26,331Z"/><path class="cls-5" d="M187.26,331c-5.24,4.95-8.14,15.78-.07,19.82,11.82,5.92,19.78-24.95,4-23.21C189.77,327.75,188.09,330.2,187.26,331Z"/><path class="cls-4" d="M207.89,387.09c-.39-7,1.52-10.78,6.86-15.27,4.1-3.44,10.24,2.28,12.31,5.77,6.46,10.85-3.27,25.59-13.11,20.47C210.76,396.4,208.1,390.8,207.89,387.09Z"/><path class="cls-5" d="M207.89,387.09c-.39-7,1.52-10.78,6.86-15.27,4.1-3.44,10.24,2.28,12.31,5.77,6.46,10.85-3.27,25.59-13.11,20.47C210.76,396.4,208.1,390.8,207.89,387.09Z"/><path class="cls-4" d="M235.58,356.54c3,1.61,14.56,4.3,13.95-2-.18-1.83,1.44-.95,2.43-3.53,3.23-8.38-2.09-24.28-7.3-16.32-1.09,1.67-.67,0-3.81-.28C223.86,333,225.84,351.23,235.58,356.54Z"/><path class="cls-5" d="M235.58,356.54c3,1.61,14.56,4.3,13.95-2-.18-1.83,1.44-.95,2.43-3.53,3.23-8.38-2.09-24.28-7.3-16.32-1.09,1.67-.67,0-3.81-.28C223.86,333,225.84,351.23,235.58,356.54Z"/><path class="cls-4" d="M169.86,409.51c-3.32-4.25,14.24-29,19.23-7.82.32,1.35-.41,12.62.18,13.55-6.13,1.77-17.53-3.14-18.13-3.1S170.08,409.79,169.86,409.51Z"/><path class="cls-5" d="M169.86,409.51c-3.32-4.25,14.24-29,19.23-7.82.32,1.35-.41,12.62.18,13.55-6.13,1.77-17.53-3.14-18.13-3.1S170.08,409.79,169.86,409.51Z"/><path class="cls-4" d="M246.14,415.29c-.21-7.34,0-8.72,3.69-14.74.93-1.51,6.14-6,6.3-2,.21,5.34,5.36-.13,6,14.39,0,.41-10.86,3.46-12.15,3.61C248.34,416.78,246.16,416,246.14,415.29Z"/><path class="cls-5" d="M246.14,415.29c-.21-7.34,0-8.72,3.69-14.74.93-1.51,6.14-6,6.3-2,.21,5.34,5.36-.13,6,14.39,0,.41-10.86,3.46-12.15,3.61C248.34,416.78,246.16,416,246.14,415.29Z"/><path class="cls-4" d="M276.14,376.66c-3.91,3.25-5.32,9.77-1.46,13.61,2.11,2.11,3.67,3.42,6.63,1.09,3.88-3,7.29,4.18,7.65-10.27.08-3.09-4-11.31-9.27-9.5-.07.34-1.84.88-2.56,4.35C277.11,376,276.21,376.6,276.14,376.66Z"/><path class="cls-5" d="M276.14,376.66c-3.91,3.25-5.32,9.77-1.46,13.61,2.11,2.11,3.67,3.42,6.63,1.09,3.88-3,7.29,4.18,7.65-10.27.08-3.09-4-11.31-9.27-9.5-.07.34-1.84.88-2.56,4.35C277.11,376,276.21,376.6,276.14,376.66Z"/><path class="cls-4" d="M281.49,335.81c-5.7,2.87-5.06,3.74-5.25,9.65-.17,5.58,8.51,12.17,14.55,12.17C294.47,357.63,282.44,335.33,281.49,335.81Z"/><path class="cls-5" d="M281.49,335.81c-5.7,2.87-5.06,3.74-5.25,9.65-.17,5.58,8.51,12.17,14.55,12.17C294.47,357.63,282.44,335.33,281.49,335.81Z"/><path class="cls-6" d="M212.52,50.67c-.81,1.22-5.78,16-11.65,26.52-13.72,24.48-33,59.34-20.52,86.1,11.32,24.21,56.37-.92,83.34,2.47,1.74.22,46,2.9,46,2.9,2.75-19.67-12-31.12-9.75-42.53,2.2-11.13,3.15-22.1-14.29-41.79-10.25-11.57-1.62-35.56-22.57-46.43C245.31,28.67,223.24,34.43,212.52,50.67Z"/><path class="cls-2" d="M212.52,50.67c-.81,1.22-5.78,16-11.65,26.52-13.72,24.48-33,59.34-20.52,86.1,11.32,24.21,56.37-.92,83.34,2.47,1.74.22,46,2.9,46,2.9,2.75-19.67-12-31.12-9.75-42.53,2.2-11.13,3.15-22.1-14.29-41.79-10.25-11.57-1.62-35.56-22.57-46.43C245.31,28.67,223.24,34.43,212.52,50.67Z"/><path class="cls-7" d="M283.88,240.48c0,1.82,8.71,15.78,12.73,25,10.74,24.57,31.92,68.05,49.64,83.09,1.89,1.6,21.23-8.27,13.38-18.56-10.24-13.8-22.74-58.09-33.9-71.72-.57-.69-26.32-80.7-29.93-92.29-8.91-28.55-36.94-20.81-55.62-7.31-7.4,3.58-18.43,4.53-29.83-1.2-5-14-22.81-15-38.25,11.63-11.58,19.95-27.53,54.19-37,68.42-2.07,3.12-18.32-78.14-23.47-78.14s-24.73,8.21-22,17.35c2.52,8.28,7.32,61,19.14,88,1.93,4.4,6.25,7.11,8.46,9.93,3.16,4,7.08,6.26,10.85,5.58,24.62-4.43,31.17-17,36.88-23.87,1.64-2,2.61-.37,3.54,3.56,6,25.46,5.51,25.52,5.51,54.11,15.11,11.44,26,11.45,60.09,11.45a91.15,91.15,0,0,0,38.27-8.91,93,93,0,0,1-.61-18.38c1.26-21.08,12-37.27,12-57.75"/><path class="cls-2" d="M180.51,185.52c-1.88,4.57-19.58,37.36-19.67,37.55-4.55,10.7-3.21,26.41,5.41,33.24.42-.24.9.22,1.39,1.22,2.64,5.34,6,26.13,6.4,40.06.07,2.23-.37,10.17-.83,17.39"/><path class="cls-2" d="M272.48,316.84c-4.39-34.07,11.89-51.37,11.43-77"/><path class="cls-2" d="M172.4,313.56c-7.49,10.78-27,62.67-27.52,91.44"/><path class="cls-2" d="M173,313.84c14,16.28,88.8,14.47,99.49,2.77,8.26,17,29.41,45.59,28.93,87"/><path class="cls-2" d="M244.65,336.71c3.7,13.38,11.65,52.58,11.4,67.45"/><path class="cls-2" d="M281.13,409.49c-4.21-43.17-6.47-44.8-11.13-51.29-2.48-3.46-4.28,15.59-3.91,17"/><path class="cls-2" d="M166.23,396.31c.19-11.15,6.6-30.28,13-38.83,1.46-2-1.85,15.16-1.91,18.66"/><path class="cls-2" d="M192.74,400.13c.14-8.14,2.84-33.54,5-41.9.84-3.27,1.42-7.76,2.48-11.3"/><path class="cls-2" d="M207.23,373.36c.16-9.28.61-18.75.77-27.82"/><path class="cls-2" d="M167.21,356c.92-2.24,10.78-23.1,10.84-23.29"/><path class="cls-8" d="M209.62,157.45c-.23-4.13,2.47-20.08-1.59-22.24-19.72-10.46-20.09-35.92-4.94-52,5-5.34,4.84-38.63,32.18-35.91,19.07,1.9,20.54,15.16,20.23,24.7a23,23,0,0,0,2.21,10c12.68-7.57,20.69,20.15,1.16,17.35,1.69,8.14,3.41,30.7-13,36.65-1.32,7.65.46,25.56-5.48,26.37C226.07,164.25,214.59,161.75,209.62,157.45Z"/><path class="cls-2" d="M209.62,157.45c-.23-4.13,2.47-20.08-1.59-22.24-19.72-10.46-20.09-35.92-4.94-52,5-5.34,4.84-38.63,32.18-35.91,19.07,1.9,20.54,15.16,20.23,24.7a23,23,0,0,0,2.21,10c12.68-7.57,20.69,20.15,1.16,17.35,1.69,8.14,3.41,30.7-13,36.65-1.32,7.65.46,25.56-5.48,26.37C226.07,164.25,214.59,161.75,209.62,157.45Z"/><path class="cls-2" d="M205.64,133.84c5.07,2.89,9.64,3.85,19.88,3.85"/><path class="cls-9" d="M223.88,110.8c-1.36-9.36-9.88-.91-14.71-3.26-1.33-.65-1.47,6.83,3,8.53C220.48,119.23,223.94,111.17,223.88,110.8Z"/><path class="cls-10" d="M223.88,110.8c-1.36-9.36-9.88-.91-14.71-3.26-1.33-.65-1.47,6.83,3,8.53C220.48,119.23,223.94,111.17,223.88,110.8Z"/><path class="cls-11" d="M229,67.54c3.77.26,11.25,1.63,11.57,5.81"/><path class="cls-11" d="M218.23,65.23c-1.69-.53-6.25-.63-8.47.43"/><path class="cls-2" d="M212.15,90.65c-.13-4.44,3-5.62,5.61-4.38a3.46,3.46,0,0,0,3,.29"/><path class="cls-6" d="M225.4,87.51c.08.63.43.7,1.35-1.7.42-1.12,1.88-5.09,1.22-4.8C227.15,81.37,225.28,86.6,225.4,87.51Z"/><path class="cls-2" d="M225.4,87.51c.08.63.43.7,1.35-1.7.42-1.12,1.88-5.09,1.22-4.8C227.15,81.37,225.28,86.6,225.4,87.51Z"/><path class="cls-6" d="M211.75,86c.25.57.6.54.78-2,.08-1.19.31-5.38-.23-4.92S211.37,85.2,211.75,86Z"/><path class="cls-2" d="M211.75,86c.25.57.6.54.78-2,.08-1.19.31-5.38-.23-4.92S211.37,85.2,211.75,86Z"/><path class="cls-6" d="M208.17,57.66c-6.9-.25,10-26.12,36.72-24.16,9.22.68,16.48,5.28,22.15,13.16,7.3,10.15-.92,27.87-3.05,26.7C246.66,63.83,232.44,57.66,208.17,57.66Z"/><path class="cls-2" d="M208.17,57.66c-6.9-.25,10-26.12,36.72-24.16,9.22.68,16.48,5.28,22.15,13.16,7.3,10.15-.92,27.87-3.05,26.7C246.66,63.83,232.44,57.66,208.17,57.66Z"/><path class="cls-2" d="M259.91,87.36c-.76,2.16-1,3.93,1.15,5.78"/><path class="cls-2" d="M165.68,256.31c-3.54,4.24-9.68,19-37.52,24-3.77.68-7.69-1.57-10.85-5.58-2.21-2.82-6.53-5.53-8.46-9.93C97,237.7,92.23,185,89.71,176.71c-2.78-9.14,16.92-17.35,22-17.35s21.4,81.26,23.47,78.14c9.44-14.23,25.39-48.47,37-68.42,15.44-26.62,33-25.38,38-11.34,11.4,5.72,22.12,6.61,29.52,3,23-16.94,47.31-23.35,56.22,5.2,3.61,11.59,28.83,88.88,29.4,89.57,11.15,13.62,23.62,60.08,33.87,73.87,7.2,9.3-16.74,17.79-18.11,15.73-10.22-15.26-34.21-48.52-44.35-79.69-3.1-9.53-30.48-59.76-30.48-61.57"/><path class="cls-2" d="M133.57,236.35c1,2.91,2.24,5.71,3.14,9a11,11,0,0,0,.78,2.29"/><path class="cls-2" d="M136.27,236.39c1.28.87,5.6,4.9,6,5.1"/><path class="cls-6" d="M83.62,86.42l15-6.13c3.48-1.42,6.58.63,6.9,4.56l4,49.61c.32,3.93-2.27,8.3-5.75,9.72l-15,6.13c-3.48,1.42-6.59-.64-6.9-4.56l-4-49.62C77.56,92.21,80.14,87.83,83.62,86.42Z"/><path class="cls-2" d="M83.62,86.42l15-6.13c3.48-1.42,6.58.63,6.9,4.56l4,49.61c.32,3.93-2.27,8.3-5.75,9.72l-15,6.13c-3.48,1.42-6.59-.64-6.9-4.56l-4-49.62C77.56,92.21,80.14,87.83,83.62,86.42Z"/><path class="cls-12" d="M85.82,87.59l12.88-5.2c3.11-1.26,5.63.57,5.89,4.07l3.57,47.6a9.29,9.29,0,0,1-5.13,8.68l-12.62,5.47c-3.06,1.33-5.9-.57-6.16-4.08L80.68,96.27a9.14,9.14,0,0,1,5.14-8.68"/><path class="cls-8" d="M113,159c-.87-21.25,7.1-13.8-.43-38.12-.51-1.66-1.83-10.2-3.11-10.29-2.1-.14-3.92,1.71-3.73,6.55a37,37,0,0,0,.92,6.46,26.94,26.94,0,0,1-.31,12c-.81,4.88-5.9,11.55-5.9,11.55-11.35,3.72-15.9,9.56-20.51-2.92-.34-.9,1.83-4.36,2.78-5.05.72-.51,2.88,0,4.94-2.23.31-.34,2.08-3.6.73-4-1.68-.51-6.92.43-7.72,0-.13-.35,5.61-2.82,6.22-3.05,3.7-1.42,2-7.31.34-7.11-1.22.15-7.58,3.9-9,4.35,0,0,8.8-7.74,9-8.22,2.16-4-.51-5.75-1.5-6.61-.32-.28-8.87,7.68-8.7,7.38.58-1,1.35-4.95,1.48-7.46.22-4.15-.76-6.82-3.32-5.87-.47.17-1,2.62-1.66,5.74-1.27,5.71-3.19,7.81-3.87,10.58-.85,3.45.62,3.42.32,4.85-.89,4.22.78,5.2.88,5.83.36,2.48-2.34,2.6.79,7,.81,1.14-.89,3.07,1,8.86s6.84,9.34,11.16,13.75c5.17,5.29,6,11.4,6.83,11.55C94,175.12,113.44,170.32,113,159Z"/><path class="cls-2" d="M113,159c-.87-21.25,7.1-13.8-.43-38.12-.51-1.66-1.83-10.2-3.11-10.29-2.1-.14-3.92,1.71-3.73,6.55a37,37,0,0,0,.92,6.46,26.94,26.94,0,0,1-.31,12c-.81,4.88-5.9,11.55-5.9,11.55-11.35,3.72-15.9,9.56-20.51-2.92-.34-.9,1.83-4.36,2.78-5.05.72-.51,2.88,0,4.94-2.23.31-.34,2.08-3.6.73-4-1.68-.51-6.92.43-7.72,0-.13-.35,5.61-2.82,6.22-3.05,3.7-1.42,2-7.31.34-7.11-1.22.15-7.58,3.9-9,4.35,0,0,8.8-7.74,9-8.22,2.16-4-.51-5.75-1.5-6.61-.32-.28-8.87,7.68-8.7,7.38.58-1,1.35-4.95,1.48-7.46.22-4.15-.76-6.82-3.32-5.87-.47.17-1,2.62-1.66,5.74-1.27,5.71-3.19,7.81-3.87,10.58-.85,3.45.62,3.42.32,4.85-.89,4.22.78,5.2.88,5.83.36,2.48-2.34,2.6.79,7,.81,1.14-.89,3.07,1,8.86s6.84,9.34,11.16,13.75c5.17,5.29,6,11.4,6.83,11.55C94,175.12,113.44,170.32,113,159Z"/><path class="cls-13" d="M93.8,86.35c.48,0,.87.82.87,1.84S94.28,90,93.8,90s-.88-.82-.88-1.84.39-1.84.88-1.84"/><path class="cls-2" d="M101,146.36c0,.78-3.54,5.57-3.87,6.88"/><path class="cls-2" d="M80,143a54,54,0,0,0-2.89,4.89"/><path class="cls-2" d="M80.77,132.66c-.5.43-5,4.16-5,4.8"/><path class="cls-2" d="M83.12,122.86c-2.16,3-7,4.93-8,7.14"/><path class="cls-2" d="M82.8,111.65c-1.33,4.45-7,8.81-8.33,11.62"/><path class="cls-2" d="M206,255c10.79,7,22.41,8.45,34.23,3l.27-.55"/><path class="cls-8" d="M339.13,341.63c.72,2.85,4.81,9.46,5.67,14.44,1.67,9.71,1.24,17.2,9.89,20.38.36.14,3.19-3.31,2.48-5.24-.16-.44-7.93-8.66-2-5.13,3.74,2.23,1.94,5.21,1.39,8.93-.19,1.33-3.14,1.15-3.11,1.89.18,4.66,5.06,3.93,7.08,3.06a4,4,0,0,0,2.77-3c.75-2.13,4.3,4,5.86-4.46.16-.89,2.47,2.51,4.27-3,1.05-3.23,2.66-1.77,3.59-3.9,3.92-8.91,2.45-10.56-6.9-20.36-7.89-8.27-9.93-15-11-14.62-1.62.61-8.46,5.49-18,10.46Z"/><path class="cls-2" d="M339.13,341.63c.72,2.85,4.81,9.46,5.67,14.44,1.67,9.71,1.24,17.2,9.89,20.38.36.14,3.19-3.31,2.48-5.24-.16-.44-7.93-8.66-2-5.13,3.74,2.23,1.94,5.21,1.39,8.93-.19,1.33-3.14,1.15-3.11,1.89.18,4.66,5.06,3.93,7.08,3.06a4,4,0,0,0,2.77-3c.75-2.13,4.3,4,5.86-4.46.16-.89,2.47,2.51,4.27-3,1.05-3.23,2.66-1.77,3.59-3.9,3.92-8.91,2.45-10.56-6.9-20.36-7.89-8.27-9.93-15-11-14.62-1.62.61-8.46,5.49-18,10.46Z"/><path class="cls-2" d="M351.17,414c-3.83-15.4-4.84-31.55,5.73-43.9"/><path class="cls-6" d="M258.58,99c-9.83,30.44-32.33,37.56-31.1,62.56.07,3,29.62-.38,29.62-.38.27-11,11.84-16.53,18.83-15.29,15.39,2.72-10.63-18.41-10.85-39C265.05,104.19,258.84,98.18,258.58,99Z"/><path class="cls-2" d="M258.58,99c-9.83,30.44-32.33,37.56-31.1,62.56.07,3,29.62-.38,29.62-.38.27-11,11.84-16.53,18.83-15.29,15.39,2.72-10.63-18.41-10.85-39C265.05,104.19,258.84,98.18,258.58,99Z"/><path class="cls-2" d="M263.68,321.58c1.7,4,6.41,10.13,8.54,15.28.17.39.09.29.43.58"/><path class="cls-2" d="M302.77,266c2.06-.92,5.21-.3,7.5-.3"/><path class="cls-12" d="M41.82,189.87h93.55a9,9,0,0,1,9,9V321.27a9,9,0,0,1-9,9H41.82a9,9,0,0,1-9-9V198.83a9,9,0,0,1,9-9"/><g class="cls-14"><path class="cls-4" d="M108.18,218.05c.66,1.33,11.11,7.91,19.18,17,38.83,43.69,9.59,86.6-22.5,84.19A29,29,0,0,0,93.3,320.6a45.53,45.53,0,0,1,.84,9.62s-83.57.17-83.58.11c-2.84-19.89,12.5-24.12,10.22-35.67-2.23-11.26-3.19-22.36,14.46-42.29,7.12-8,4-16.45,8.5-28.18C53.23,199.24,85.5,192,101.3,204.72,108.54,211.68,107.74,217.19,108.18,218.05Z"/><path class="cls-15" d="M108.18,218.05c.66,1.33,11.11,7.91,19.18,17,38.83,43.69,9.59,86.6-22.5,84.19A29,29,0,0,0,93.3,320.6a45.53,45.53,0,0,1,.84,9.62s-83.57.17-83.58.11c-2.84-19.89,12.5-24.12,10.22-35.67-2.23-11.26-3.19-22.36,14.46-42.29,7.12-8,4-16.45,8.5-28.18C53.23,199.24,85.5,192,101.3,204.72,108.54,211.68,107.74,217.19,108.18,218.05Z"/><path class="cls-16" d="M112.67,330.23c.23-4.19-2.89-24.08,1.15-26.37,20-11.34,16-38.9,5-52.67-.77-1-4.17-16.28-10.33-25.87.06,2.2-.67,3.64-2.18,3.7-21.48,0-20,34.74-39.59,48.27,11,22.68,28.51,30.65,27.42,52.93Z"/><path class="cls-15" d="M112.67,330.23c.23-4.19-2.89-24.08,1.15-26.37,20-11.34,16-38.9,5-52.67-.77-1-4.17-16.28-10.33-25.87.06,2.2-.67,3.64-2.18,3.7-21.48,0-20,34.74-39.59,48.27,11,22.68,28.51,30.65,27.42,52.93Z"/><path class="cls-15" d="M116.24,302.18a26.25,26.25,0,0,1-15.17,4.41"/><path class="cls-15" d="M104.19,235.65c1.7-.09,7.31,1.08,9.56,2.75"/><path class="cls-15" d="M109.66,258.76c1.35-5.11-3.53-8.88-7.65-2.85"/><path class="cls-6" d="M110.83,251c-.1.63-.46.69-1.26-1.76-.37-1.14-1.65-5.2-1-4.88C109.37,244.71,111,250.05,110.83,251Z"/><path class="cls-15" d="M110.83,251c-.1.63-.46.69-1.26-1.76-.37-1.14-1.65-5.2-1-4.88C109.37,244.71,111,250.05,110.83,251Z"/><path class="cls-15" d="M69.16,275.4c-8.24,6.18-22.77,4.9-25.83,12.16-.11.25-.61,1.1-.74,1.32"/><path class="cls-15" d="M108.49,225.32c-.19-1.31-.19-5-.43-8.39"/><path class="cls-6" d="M97.71,251.84c-.1.63-.46.69-1.26-1.76-.37-1.14-1.65-5.2-1-4.88S97.87,250.93,97.71,251.84Z"/><path class="cls-15" d="M97.71,251.84c-.1.63-.46.69-1.26-1.76-.37-1.14-1.65-5.2-1-4.88S97.87,250.93,97.71,251.84Z"/><path class="cls-9" d="M102.45,274.23c2-1.43,5.09.5,7.32-.17,2-.58,3.15-.11,3.09,2.49-.08,3.6-4.49,5.2-8.47,3.38C100.86,278.33,101.45,275,102.45,274.23Z"/><path class="cls-17" d="M102.45,274.23c2-1.43,5.09.5,7.32-.17,2-.58,3.15-.11,3.09,2.49-.08,3.6-4.49,5.2-8.47,3.38C100.86,278.33,101.45,275,102.45,274.23Z"/><path class="cls-15" d="M95.94,235.65a24.34,24.34,0,0,0-3.37.48"/></g><rect class="cls-2" x="32.87" y="189.87" width="111.46" height="140.36" rx="8.96" ry="8.96"/><path class="cls-9" d="M122.11,214.84l6-13.35c-4.94-14.29,6.6-28.8,21.42-33.08-11-4.06-18.48-12.93-13-27.28,5.33-13.85,31.4-15.77,43.23-9.27,2.29,1.25,13.06-2.48,15.45-3.47l-5.4,12c4.21,12.17-2.65,25.08-14.42,29.19,11.91,4.76,18.68,15.71,11.85,31.08-7.28,16.37-34.87,17.52-48,10.3C136.73,209.6,124.77,213.75,122.11,214.84Z"/><path class="cls-2" d="M122.11,214.84l6-13.35c-4.94-14.29,6.6-28.8,21.42-33.08-11-4.06-18.48-12.93-13-27.28,5.33-13.85,31.4-15.77,43.23-9.27,2.29,1.25,13.06-2.48,15.45-3.47l-5.4,12c4.21,12.17-2.65,25.08-14.42,29.19,11.91,4.76,18.68,15.71,11.85,31.08-7.28,16.37-34.87,17.52-48,10.3C136.73,209.6,124.77,213.75,122.11,214.84Z"/><path class="cls-6" d="M166.29,188.43a2.15,2.15,0,1,0,2.15,2.15,2.15,2.15,0,0,0-2.15-2.15"/><path class="cls-6" d="M158.24,188.59a2.15,2.15,0,1,0,2.15,2.15,2.15,2.15,0,0,0-2.15-2.15"/><path class="cls-6" d="M150.19,188.75a2.15,2.15,0,1,0,2.15,2.14,2.15,2.15,0,0,0-2.15-2.14"/><path class="cls-2" d="M362.7,378.4c.73-2.64,2.27-8.82,1.34-10.59a33.49,33.49,0,0,1-1-4"/><path class="cls-2" d="M368.77,373.75c2.4-10,.8-9.78.26-12.55"/><path class="cls-2" d="M374.34,367.16c1.05-5.33,1.11-5.75-.47-9.08"/><path class="cls-6" d="M154.72,152.37a2.1,2.1,0,1,0-2.09-2.09,2.1,2.1,0,0,0,2.09,2.09"/><path class="cls-6" d="M162.56,152.22a2.1,2.1,0,1,0-2.09-2.1,2.09,2.09,0,0,0,2.09,2.1"/><path class="cls-6" d="M170.4,152.06a2.09,2.09,0,1,0-2.09-2.09,2.09,2.09,0,0,0,2.09,2.09"/></svg>
