<svg id="Layer_1" data-name="Layer 1" xmlns="http://www.w3.org/2000/svg" viewBox="0 0 450 450"><defs><style>.cls-1{fill:#fefefe;}.cls-1,.cls-10,.cls-11,.cls-12,.cls-13,.cls-14,.cls-15,.cls-16,.cls-17,.cls-18,.cls-19,.cls-2,.cls-4,.cls-6,.cls-7,.cls-8{fill-rule:evenodd;}.cls-2{fill:#396;}.cls-20,.cls-3{fill:none;stroke-linecap:round;stroke-linejoin:round;stroke-width:2.83px;}.cls-3{stroke:#000;}.cls-4{fill:#9cc;}.cls-5{fill:#69f;}.cls-6{fill:#f96;}.cls-7{fill:#f63;}.cls-8{fill:#c30;}.cls-9{fill:#630;}.cls-10{fill:#f9c;}.cls-11{fill:#a98f71;}.cls-12{fill:#fff;}.cls-13{fill:#fc0;}.cls-14{fill:#d6a87e;}.cls-15{fill:#e6e7e8;}.cls-16{fill:#96989a;}.cls-17{fill:#bdbfc1;}.cls-18{fill:#373435;}.cls-20{stroke:#fefefe;}</style></defs><title>Thech Peeps_Creative</title><path class="cls-1" d="M160,287.66c1.07,2,40.8.17,47.78.89,9.74,1,46.49,5.33,53.06,10.13,20.52,15,17.06,30.22,9.35,52.87-4.36,12.78-16.66,42-32,45.08-4.34.86-20.36,2.16-23.54,4.42-.41.29-3.07-.11-3.29-.14l-.88-1.72c-25.94-4.83-80.93-27.57-102.53-42.06-21-14.08-29.94-55.76-1.34-64.17,15.45-4.53,37.62-5.79,53.41-5.3"/><path class="cls-2" d="M297.38,62.28a20.84,20.84,0,1,1-20.84,20.83A20.84,20.84,0,0,1,297.38,62.28Z"/><path class="cls-3" d="M297.38,62.28a20.84,20.84,0,1,1-20.84,20.83A20.84,20.84,0,0,1,297.38,62.28Z"/><path class="cls-4" d="M331.9,118a20.84,20.84,0,1,1-20.84,20.84A20.84,20.84,0,0,1,331.9,118Z"/><path class="cls-3" d="M331.9,118a20.84,20.84,0,1,1-20.84,20.84A20.84,20.84,0,0,1,331.9,118Z"/><circle class="cls-5" cx="335.82" cy="199.42" r="20.84"/><circle class="cls-3" cx="335.82" cy="199.42" r="20.84"/><path class="cls-6" d="M152.79,218A20.84,20.84,0,1,1,132,238.85,20.83,20.83,0,0,1,152.79,218Z"/><path class="cls-3" d="M152.79,218A20.84,20.84,0,1,1,132,238.85,20.83,20.83,0,0,1,152.79,218Z"/><path class="cls-7" d="M123.53,164.85a20.84,20.84,0,1,1-20.84,20.84A20.84,20.84,0,0,1,123.53,164.85Z"/><path class="cls-3" d="M123.53,164.85a20.84,20.84,0,1,1-20.84,20.84A20.84,20.84,0,0,1,123.53,164.85Z"/><path class="cls-8" d="M135.46,107.5a20.84,20.84,0,1,1-20.83,20.84A20.84,20.84,0,0,1,135.46,107.5Z"/><path class="cls-3" d="M135.46,107.5a20.84,20.84,0,1,1-20.83,20.84A20.84,20.84,0,0,1,135.46,107.5Z"/><circle class="cls-9" cx="176.7" cy="81.13" r="20.84"/><circle class="cls-3" cx="176.7" cy="81.13" r="20.84"/><path class="cls-10" d="M301.46,226.62a20.84,20.84,0,1,1-20.84,20.84A20.84,20.84,0,0,1,301.46,226.62Z"/><path class="cls-3" d="M301.46,226.62a20.84,20.84,0,1,1-20.84,20.84A20.84,20.84,0,0,1,301.46,226.62Z"/><path class="cls-3" d="M176.16,306.53c3.13-.1,37.34,4.78,44.82,5.43S237.92,313,245.61,313"/><path class="cls-3" d="M244.77,320.89c-14.28-1-37.14-1.5-52-1.5"/><path class="cls-11" d="M279.34,165.61c4.45-1.46,13.26-6.9,9.55-17.26-8.07-22.54,12.64-12.4,7.54-32.24-1.8-7-19.3-15.22-14.43-26.62,4.76-11.15,2.39-20.6-8-27-8.07-5-5.67-12.05-10.44-16.52-10.48-9.81-20.42-1.43-26.07-1.24C227.47,34.31,204,39.82,202.57,57c-1.75,21-29.08,21.56-17.27,41.53,4,6.75,6.13,17.75.53,23.46-16.68,17-8.34,38.06,4.21,39Z"/><path class="cls-3" d="M279.34,165.61c4.45-1.46,13.26-6.9,9.55-17.26-8.07-22.54,12.64-12.4,7.54-32.24-1.8-7-19.3-15.22-14.43-26.62,4.76-11.15,2.39-20.6-8-27-8.07-5-5.67-12.05-10.44-16.52-10.48-9.81-20.42-1.43-26.07-1.24C227.47,34.31,204,39.82,202.57,57c-1.75,21-29.08,21.56-17.27,41.53,4,6.75,6.13,17.75.53,23.46-16.68,17-8.34,38.06,4.21,39Z"/><path class="cls-12" d="M268.57,272.9c-3.33,11.37-5.24,66-.75,78.84,2.2,6.3,18.62,23.73,25,27.5.51.31,4.85,3.95,2.55,2.65,4.73.16,49-62,51.84-67.14,15.66-28,22.5-51.1-.56-75.38-7.69-8.1-25.61-4.08-42.92,5C289.65,251.79,276,262.56,268.57,272.9Z"/><path class="cls-3" d="M268.57,272.9c-3.33,11.37-5.24,66-.75,78.84,2.2,6.3,18.62,23.73,25,27.5.51.31,4.85,3.95,2.55,2.65,4.73.16,49-62,51.84-67.14,15.66-28,22.5-51.1-.56-75.38-7.69-8.1-25.61-4.08-42.92,5C289.65,251.79,276,262.56,268.57,272.9Z"/><path class="cls-3" d="M285.09,345.24c3.07-6.59,24.92-61.15,31.72-68.44a15.45,15.45,0,0,1,2.72-2.84"/><path class="cls-3" d="M312.29,284c-1.16-1.94-.22-7.21.68-9.37"/><path class="cls-13" d="M219.88,155.05c-8.77-4.71-53.7,11.5-62,31.14-4.81,11.29-4.61,24.91-6.46,39.65-3,23.44-4.37,48.76,11.61,64.74,3.47,3.47,10.42,6.81,16.25,2.77,7-4.83,1.65-5.2,10.54,1.19,11.93,8.58,55.38,5.64,69.45,3.21-1.9,1.27-10.85,26-9.07,26.36,5.46,1.21,23,13.7,23.33,12.95,12.36-26.58,22.82-49.33,28.43-80.07.62-3.4,6.08-57.53,6-59.5-.56-16.47,3.55-15.79-14.26-29-5.92-4.38-15.39-9-22.29-9.91-5.26-.67-15.76-7.7-19.33-1.67-5.29,8.94-18.74,1.88-27.49,2.23-2.13.08-3.73-3.59-4.67-4.09"/><path class="cls-14" d="M219.08,157.29c2.26,3.36,28.34.93,34,.93,0-8.14-.72-15,.45-15.7,20.66-12.85,15.49-32.74,11.13-45.89-.32-.21-.64-.38-.92-.56-1.92-1.24-11.38-.13-12.34-12-1.07-13.12-9.2-5.88-14.37-16.73a13.43,13.43,0,0,1-1.62-5c-28,1-20.24,24.47-26.43,35.25-9.51,16.56-5.77,35.15,9.47,45C218.5,148.13,219,154.94,219.08,157.29Z"/><path class="cls-3" d="M219.08,157.29c2.26,3.36,28.34.93,34,.93,0-8.14-.72-15,.45-15.7,20.66-12.85,15.49-32.74,11.13-45.89-.32-.21-.64-.38-.92-.56-1.92-1.24-11.38-.13-12.34-12-1.07-13.12-9.2-5.88-14.37-16.73a13.43,13.43,0,0,1-1.62-5c-28,1-20.24,24.47-26.43,35.25-9.51,16.56-5.77,35.15,9.47,45C218.5,148.13,219,154.94,219.08,157.29Z"/><path class="cls-15" d="M215.85,156.77c2.21.19,42.16.18,45.66.08,8.76-.23-4.39,35.42-14.86,35.6-2.52,0-13.38.08-17-.07C221.57,192.05,205.31,155.87,215.85,156.77Z"/><path class="cls-3" d="M215.85,156.77c2.21.19,42.16.18,45.66.08,8.76-.23-4.39,35.42-14.86,35.6-2.52,0-13.38.08-17-.07C221.57,192.05,205.31,155.87,215.85,156.77Z"/><path class="cls-3" d="M184.36,204c0,2-2.78,20.83-.93,26.16l15.29-19.71c10.24,12,19.81,17.8,18.64,21.41-4.32,13.38-17.8,33.67-25.22,46.08-4.28,7.16-10.87,17.56-19.58,17.25-6.67-.24-15.88-9.12-19.37-18.44-8.76-23.33,1.64-72.9,2.94-83.23.44-11.16,10.84-21.25,20.35-25.9,11.82-5.78,26.84-10.18,40.06-13.39"/><path class="cls-14" d="M198.32,211.1c3-11.45,5.79-10.1,7.47-23.74,1-8.4,3.37-13.73,11-16.12,2-.62,7.9-5.79,6.06,3.27-.84,4.1-13.22,11.18,3.09,3.09,3.22-1.6,6.28-2.73,6.15-3.13-.33-1-9.73.47-8.47-4.44,5.51-1.91,25.69-1.83,18.18,7.67-.63.79,6,1.09,1.95,8.08,3.52,5.32.22,6.31.52,6.69.47.62.53,1.18,1.39,3.39.95,2.47-1.49,5.38-6.1,10.18-5.93,6.17-13.2,13-18.42,17.4a17.53,17.53,0,0,0-4.25,6.11C215.32,227.54,197.94,215.9,198.32,211.1Z"/><path class="cls-3" d="M198.32,211.1c3-11.45,5.79-10.1,7.47-23.74,1-8.4,3.37-13.73,11-16.12,2-.62,7.9-5.79,6.06,3.27-.84,4.1-13.22,11.18,3.09,3.09,3.22-1.6,6.28-2.73,6.15-3.13-.33-1-9.73.47-8.47-4.44,5.51-1.91,25.69-1.83,18.18,7.67-.63.79,6,1.09,1.95,8.08,3.52,5.32.22,6.31.52,6.69.47.62.53,1.18,1.39,3.39.95,2.47-1.49,5.38-6.1,10.18-5.93,6.17-13.2,13-18.42,17.4a17.53,17.53,0,0,0-4.25,6.11C215.32,227.54,197.94,215.9,198.32,211.1Z"/><path class="cls-3" d="M221.64,169.21c.54-2.19-.32-3.33,2.08-5.88,1.65-1.74,4.43-1.12,6.65-1.12-.21,2.51,1,3.57-1.09,5.63-2.44,2.38-1.37,2-5.59,2C223,169.87,221.48,169.88,221.64,169.21Z"/><path class="cls-3" d="M184.42,228.93c-2.82,3.56-13,14.1-16,20.67"/><path class="cls-3" d="M254.6,154.06c24.06,6,35.51,12.32,40.89,15.8,12.42,8,11.88,12,11.55,37.89-.12,9.62-2.09,23.47-3.13,33.43-1.3,12.48-2.91,20.27-6.54,35.16-4.18,17.11-22.95,61.65-31.57,76.87-1.63,2.88-2.3-.59-4.84-4.71-2.84-4.59-3.23-19.95-12-22.12-.22-.06,17-58.29,17.94-63.3,3.65-19.15,10.76-44,9.42-61.14.26-.91,4.26-2.71,5.25-3.55.58-.49,1-1,1.56-1.5"/><path class="cls-3" d="M257.72,283.94c-15.18,1.42-37.91,1.84-51.94-.87-3.7,0-9.35-3.48-11.62-4.32"/><path class="cls-14" d="M254.81,311.08c-5,9.63-4.46,9-15.46,14.38-4.59,2.23-10.44,1.18-13.43,9.24-1.51,4.06-5.64,4.35-1,13.05,0,0,2.9,1.15,3.44-1,1.63-6.31-1.64-9.88,7.67-9.88,0,2.74.35,9.21-1.76,10.82-1.09.83-4.3,3.11-4.6,3.31s-5-2.52-5.92-1.48-.72,7.75-.47,8.44c2.2,5.92,5.47,2.27,9,1.67h0c.1.76-1.89,3.29,1.47,5.67,1.16.81,4,.82,7.05.58,1.23-.09,3.29.65,4.53.52,3.36-.36,7-1.2,8.28-.91,10.77,2.44,15.55-21.58,20.16-28.1,1.18-1.67,3.36-6.48,2.73-8.43C272.92,317.88,254.81,311.08,254.81,311.08Z"/><path class="cls-3" d="M254.81,311.08c-5,9.63-4.46,9-15.46,14.38-4.59,2.23-10.44,1.18-13.43,9.24-1.51,4.06-5.64,4.35-1,13.05,0,0,2.9,1.15,3.44-1,1.63-6.31-1.64-9.88,7.67-9.88,0,2.74.35,9.21-1.76,10.82-1.09.83-4.3,3.11-4.6,3.31s-5-2.52-5.92-1.48-.72,7.75-.47,8.44c2.2,5.92,5.47,2.27,9,1.67h0c.1.76-1.89,3.29,1.47,5.67,1.16.81,4,.82,7.05.58,1.23-.09,3.29.65,4.53.52,3.36-.36,7-1.2,8.28-.91,10.77,2.44,15.55-21.58,20.16-28.1,1.18-1.67,3.36-6.48,2.73-8.43C272.92,317.88,254.81,311.08,254.81,311.08Z"/><path class="cls-1" d="M234.25,343.94a46.36,46.36,0,0,1-6.08,1.8c-.52,0,2-7.37,1.59-7.69,5.59-21.12,11-40,12.57-42.7.61-1,5.37-1.16,4.58,3.2Z"/><path class="cls-3" d="M234.25,343.94a46.36,46.36,0,0,1-6.08,1.8c-.52,0,2-7.37,1.59-7.69,5.59-21.12,11-40,12.57-42.7.61-1,5.37-1.16,4.58,3.2Z"/><path class="cls-3" d="M231.18,357.58c.95-3.07,4.5-6.91,6-10.4"/><line class="cls-3" x1="268.44" y1="199.83" x2="278.95" y2="193.6"/><path class="cls-3" d="M160,287.66c-15.79-.49-38,.77-53.41,5.3-28.6,8.41-19.65,50.09,1.34,64.17,21.6,14.49,76.59,37.23,102.53,42.06l.88,1.72"/><path class="cls-3" d="M140.48,322.37c18,6.48,48.71,35.51,75.79,46.87,1.13.48.69,0,1.42,1"/><path class="cls-3" d="M148.24,325.23a16,16,0,0,0-3-5.52"/><path class="cls-3" d="M209.94,366.31c11.22-.29,12.45,1.75,24.67-1.84,2.6-.76,5.32-1.37,7.75-2.09"/><path class="cls-3" d="M214.7,247.71c4.7,1.47,20.63-.46,27.15-.46,6.25,0,10.74,1.75,17,1.75"/><path class="cls-16" d="M164,398.87c3.48,7.73,5.27,7.09,16.61,6.23,29.51-2.25,57.92.43,87.85-2.74,7-.74,13.45,1.07,21.92.25,2.52-.24,7.3.4,7.39-4.88l9-49c4.72-16.15-5.52-21-13.83-20.41H168.51c-11.19,0-17,7.62-14.62,19.37,3.25,16.12,9.61,45.82,10.1,51.14"/><path class="cls-17" d="M164.72,405.25c3.42,7.72,5.18,7.09,16.3,6.23,28.95-2.25,56.83.43,86.18-2.74,6.9-.74,13.2,1.07,21.52.25,2.46-.24,7.16.4,7.25-4.88l8.81-49c4.62-16.15-5.42-21-13.58-20.41h-122c-11,0-16.68,7.62-14.35,19.37,3.19,16.12,9.43,45.82,9.91,51.14"/><path class="cls-3" d="M162.33,401.24c-.49-5.42-7-35.71-10.27-52.15-2.41-12,3.49-19.75,14.87-19.75h126.5c8.46-.61,18.86,4.34,14.07,20.81l-9.13,49.93"/><path class="cls-18" d="M168.76,363.49c-.24-1.49-1.91-7.42-2.41-11.47-.39-3.19.1-4.66,1.79-4.76,3.16-.19,15.76-.45,17.51.11s2.4,2,2.3,4.52c-.15,3.6-.44,7.7-.66,10.18s-1.63,3.69-4.8,3.82c-4.88.2-11.13.07-11.19,0S169,365,168.76,363.49Z"/><path class="cls-3" d="M168.76,363.49c-.24-1.49-1.91-7.42-2.41-11.47-.39-3.19.1-4.66,1.79-4.76,3.16-.19,15.76-.45,17.51.11s2.4,2,2.3,4.52c-.15,3.6-.44,7.7-.66,10.18s-1.63,3.69-4.8,3.82c-4.88.2-11.13.07-11.19,0S169,365,168.76,363.49Z"/><path class="cls-3" d="M160.45,339.15c1.76-2.31,7-4.46,9.84-4.46h85.37"/><path class="cls-3" d="M262.28,334.69h26.3c4.82,0,8.33-.57,12.05,3.21"/><path class="cls-3" d="M242.68,108.49c-4.68-6.08-7.61-3.44-9.83.27"/><path class="cls-19" d="M228.78,102.41c.36.57.72.46.53-2.33-.09-1.3-.47-5.9-1-5.29S228.27,101.58,228.78,102.41Z"/><path class="cls-3" d="M228.78,102.41c.36.57.72.46.53-2.33-.09-1.3-.47-5.9-1-5.29S228.27,101.58,228.78,102.41Z"/><path class="cls-19" d="M248,102.51c-.35.56-.71.45-.53-2.27.08-1.28.44-5.77.94-5.17S248.47,101.71,248,102.51Z"/><path class="cls-3" d="M248,102.51c-.35.56-.71.45-.53-2.27.08-1.28.44-5.77.94-5.17S248.47,101.71,248,102.51Z"/><path class="cls-3" d="M220.76,90.26c1-2.31,4.67-3.16,7.24-2.31s3.69-.44,4.56-.35"/><path class="cls-3" d="M243,84.66a44.51,44.51,0,0,1,7.79,1.43,13.6,13.6,0,0,1,2.32.88"/><path class="cls-3" d="M233.65,145.2a27.45,27.45,0,0,0,11-.07c3.37-.58,8.62-2,11.24-4.5"/><path class="cls-1" d="M218.42,118.85c.82,2.85,3.23,7.19,5.11,8.21S230,131,231.9,128.9c1.7-1.81,1.74-4-1.22-5.39-.81-.38-7-3.78-10.38-5.62C218.24,116.76,217.57,115.87,218.42,118.85Z"/><path class="cls-20" d="M218.42,118.85c.82,2.85,3.23,7.19,5.11,8.21S230,131,231.9,128.9c1.7-1.81,1.74-4-1.22-5.39-.81-.38-7-3.78-10.38-5.62C218.24,116.76,217.57,115.87,218.42,118.85Z"/><path class="cls-3" d="M216.06,116.62c3.4-2.07,4.12-2.26,6.3-5.8"/><path class="cls-3" d="M264.23,96.24c4.72.51,9.56,5.37,9.56,10.32v5"/><path class="cls-3" d="M235.55,52.73c-2-8.16-13.5-8.26-16.82-3.5"/><path class="cls-3" d="M247.69,53.5c3.94,6.46,6.35,5.83,11.38,9.81a10.08,10.08,0,0,1,2.9,5.1"/><path class="cls-3" d="M270.62,78.59c4.19,3.28,8.22,6,9.7,10.79.24.76.26,3.61.82,4"/><path class="cls-3" d="M290.27,132.27c-6.79,6.57-8.9,6.67-8.9,15.12"/><path class="cls-3" d="M189.34,111.42c0,4.65,1.42,7.23-.54,12.28-.92,2.37-1.86,5.17-.86,7.64l.12.21"/><path class="cls-3" d="M201.28,62.83s-.73,7.69-.73,9.14c0,10.08-.89,10-3.21,14.32"/><path class="cls-3" d="M241.83,177.7c-.41.66-5.48,5.12-7.37,5.41"/><path class="cls-3" d="M244.29,184.82s-7.61,5.48-7.75,5.51"/><path class="cls-3" d="M244.3,192.47c-1.93,2.67-3.24,3.51-5.88,5.28a2.66,2.66,0,0,1-.59.28"/><path class="cls-3" d="M271.77,264.87c4.16,0,6.42.18,10.27,1.93"/><path class="cls-3" d="M174.44,239c-.81-.06-6,1.83-6.82,2.64"/><path class="cls-3" d="M178.37,201c4,.93,7.27,2.53,9.77,3.18"/><path class="cls-3" d="M196,293.57c.66-.68,2.48-6.18,2.48-7.05"/><path class="cls-3" d="M202.81,296.14c.07-.46,2.2-7.08,2.57-8"/><path class="cls-3" d="M210.51,297.1c.71-3,1.47-6,1.92-9"/><path class="cls-3" d="M220.93,298.3c.77-2.74,1.85-6.69,2.41-9.62"/><path class="cls-3" d="M229.11,298.62a82.57,82.57,0,0,0,.88-10.18"/><path class="cls-3" d="M236.89,298.06c.09-.84.76-10,.8-10.1"/><path class="cls-3" d="M245.52,296.2c.64-4.61.87-5.3.87-8.8"/><path class="cls-3" d="M253.73,297.5c.11-3.12,0-6.52.1-9.7"/><path class="cls-3" d="M188.62,290.21c2.14-2.59,2.64-4.79,4.1-6.59l.07-.15"/></svg>
