<svg id="Layer_1" data-name="Layer 1" xmlns="http://www.w3.org/2000/svg" viewBox="0 0 450 450"><defs><style>.cls-1{fill:#ccf;}.cls-1,.cls-10,.cls-11,.cls-2,.cls-4,.cls-6,.cls-7,.cls-8,.cls-9{fill-rule:evenodd;}.cls-2{fill:#fad3e4;}.cls-3,.cls-5{fill:none;stroke-linecap:round;stroke-linejoin:round;stroke-width:2.83px;}.cls-3{stroke:#000;}.cls-4{fill:#f9c;}.cls-5{stroke:#ed3237;}.cls-6{fill:#ed3237;}.cls-7{fill:#ff944c;}.cls-8{fill:#f7b6c8;}.cls-10{fill:#fc0;}.cls-11{fill:#fefefe;}</style></defs><title>Thech Peeps_Data</title><path class="cls-1" d="M113.71,408.85c-4.47-25.53,1.88-46.07,11.8-68.88,2-4.55,7.08-17.25,13.1-16.4,10.73,1.53,30.52,10.67,41.3,10.43,20.76-.47,30.69,1.37,51.67-5.53,12.66-4.16,8.36-2.06,15.73,11.23,4.39,7.91,14.85,54.23,14.85,63.37,0,19.79-.61,13.12-22.87,13.12-14.39,0-26.47,8-42.37,4.28-9.2-2.18-20.51-.1-34.92-2.88-13.23-2.55-31.36,2.91-38.42-1.17-5.27-3.05-7.52.71-9.62-6.9Z"/><polygon class="cls-2" points="192.11 29.95 321.19 29.95 370.15 78.91 370.15 259.62 192.11 259.62 192.11 29.95"/><polygon class="cls-3" points="192.11 29.95 321.19 29.95 370.15 78.91 370.15 259.62 192.11 259.62 192.11 29.95"/><path class="cls-4" d="M368.77,79.34,319.47,30V75.57c0,8.79,2.59,8,11.57,8h37.72Z"/><path class="cls-3" d="M319.47,30V75.57c0,8.79,2.59,8,11.57,8h28"/><path class="cls-5" d="M222.55,188.17c0-23.06.38-45.32,27.72-35.28,28.71,10.54,22.5-47.6,38.89-48.59,15.7-1,23.45,99.65,47.49,12.91"/><path class="cls-6" d="M337.77,109.74a5.89,5.89,0,1,1-5.89,5.89A5.89,5.89,0,0,1,337.77,109.74Z"/><path class="cls-5" d="M337.77,109.74a5.89,5.89,0,1,1-5.89,5.89A5.89,5.89,0,0,1,337.77,109.74Z"/><path class="cls-5" d="M238.15,49.45a30.31,30.31,0,1,1-31.39,29.2"/><line class="cls-5" x1="339.58" y1="238.36" x2="339.58" y2="173.41"/><line class="cls-5" x1="274.84" y1="173.96" x2="274.84" y2="238.71"/><path class="cls-6" d="M339.58,196.48a4.91,4.91,0,1,1-4.91,4.91A4.9,4.9,0,0,1,339.58,196.48Z"/><path class="cls-5" d="M339.58,196.48a4.91,4.91,0,1,1-4.91,4.91A4.9,4.9,0,0,1,339.58,196.48Z"/><path class="cls-6" d="M274.87,187.13A4.91,4.91,0,1,1,270,192,4.91,4.91,0,0,1,274.87,187.13Z"/><path class="cls-5" d="M274.87,187.13A4.91,4.91,0,1,1,270,192,4.91,4.91,0,0,1,274.87,187.13Z"/><path class="cls-7" d="M121.12,267.94c-4.87-6.74-9.4-13.12-7.91-14.92,1.75-2.13,11.09-17.39,10.5-20.4,1.26,2.21,6.9,26.36,9.64,47C127.79,275,122.35,269.65,121.12,267.94Zm16.63,51.84c25.82,13.29,31.92,16.07,63.42,14.52,6.65-.32,38.08-4,40-9-2-11.51-2.61-46.15-.9-50.63.71-1.84,9.08-6.14,11.78-22.79,1-6.12-.78-9.59-8.22-23.66,0,0,13.6,20.68,13.79,20.95,14.48,20.78,16.83,26.22,17.26,26.73,14.92,18,19.4,14.43,24.09,7.75,5.35-7.62,8.11-17.63,8.17-18,2.11-13,4.76-51.6,2.89-74.7-.17-2.11-20.73-3.43-20.73-3.43-2.1-3-2.18,39.35-5.06,34.39-12.92-22.28-19-35.14-25.23-43.36-12.49-16.37-31.45-21.81-43.59-5.69-2.19-.17-46.22.82-47.61-1.41-19.25-31.07-49.6,1-63.87,28.81-22.6,44.1-34.64,50-12,80.21,6,8.05,16,14.67,27.28,26.71,9.09,9.69,12.29,12.1,13,10.18C134.12,318.84,136,320.1,137.75,319.78Z"/><path class="cls-3" d="M121.12,267.94c-4.87-6.74-9.4-13.12-7.91-14.92,1.75-2.13,11.09-17.39,10.5-20.4,1.26,2.21,6.9,26.36,9.64,47C127.79,275,122.35,269.65,121.12,267.94Zm16.63,51.84c25.82,13.29,31.92,16.07,63.42,14.52,6.65-.32,38.08-4,40-9-2-11.51-2.61-46.15-.9-50.63.71-1.84,9.08-6.14,11.78-22.79,1-6.12-.78-9.59-8.22-23.66,0,0,13.6,20.68,13.79,20.95,14.48,20.78,16.83,26.22,17.26,26.73,14.92,18,19.4,14.43,24.09,7.75,5.35-7.62,8.11-17.63,8.17-18,2.11-13,4.76-51.6,2.89-74.7-.17-2.11-20.73-3.43-20.73-3.43-2.1-3-2.18,39.35-5.06,34.39-12.92-22.28-19-35.14-25.23-43.36-12.49-16.37-31.45-21.81-43.59-5.69-2.19-.17-46.22.82-47.61-1.41-19.25-31.07-49.6,1-63.87,28.81-22.6,44.1-34.64,50-12,80.21,6,8.05,16,14.67,27.28,26.71,9.09,9.69,12.29,12.1,13,10.18C134.12,318.84,136,320.1,137.75,319.78Z"/><path class="cls-8" d="M220.6,90.14a42.68,42.68,0,0,0,2,10.66c.27.8,3.55-2.09,5.83,2.06,2.08,3.8-2,7.48-.85,9.68,12,23.84-6.41,32.49-18.25,42.06-1.54,1.25.17,18,.17,18s-36.19,1.15-35.81-2c.52-4.49,1.8-15.18,0-24.59-3.38-17.89-12.37-29.72-13.77-39-4.32-28.68,12.73-33.2,27.44-37.84C199.62,65.3,217.92,67.65,220.6,90.14Z"/><path class="cls-3" d="M220.6,90.14a42.68,42.68,0,0,0,2,10.66c.27.8,3.55-2.09,5.83,2.06,2.08,3.8-2,7.48-.85,9.68,12,23.84-6.41,32.49-18.25,42.06-1.54,1.25.17,18,.17,18s-36.19,1.15-35.81-2c.52-4.49,1.8-15.18,0-24.59-3.38-17.89-12.37-29.72-13.77-39-4.32-28.68,12.73-33.2,27.44-37.84C199.62,65.3,217.92,67.65,220.6,90.14Z"/><path class="cls-9" d="M221,101.32c-.13.58-.47.59-1.14-1.84-.31-1.13-1.37-5.14-.77-4.76C219.79,95.2,221.13,100.47,221,101.32Z"/><path class="cls-3" d="M221,101.32c-.13.58-.47.59-1.14-1.84-.31-1.13-1.37-5.14-.77-4.76C219.79,95.2,221.13,100.47,221,101.32Z"/><path class="cls-3" d="M220.09,85.45c-1,.15-3.47,2.54-4.2,3.44-.11.14-.11,0-.13.15"/><path class="cls-3" d="M244.37,227.9c-.48-.05-5.4.33-5.68.72"/><path class="cls-3" d="M112,253.62c-1.28-1.25-6.58-2.81-8.25-2.81"/><path class="cls-3" d="M113.14,255.86c-3,.19-5.77.17-8.5,1.3a1.47,1.47,0,0,1-.47,0"/><path class="cls-3" d="M247.3,337c1.67,3.4.36,21.17-3.54,30.08"/><path class="cls-3" d="M197.85,114.66c-4.19,0-7.59-3.77-7.59-8.42s3.4-8.41,7.59-8.41,7.58,3.77,7.58,8.41"/><path class="cls-3" d="M197.18,103.49c-1.7,1.19-.52,5,.67,4.92"/><path class="cls-3" d="M284.84,222.46c1.23,2.19,12.46,21.6,12.52,22"/><path class="cls-8" d="M150.58,294.77c.91.75,4.86,2.22,7,3.61,6.67,4.22,13,8.75,13.54,12.87a5.27,5.27,0,0,1-1.48,4.33c-.09.07,1.45,4.1.85,5.79-1,2.91-2.27.8-2.41,5.51-.12,4.08-3.63,1.85-6,8.42-1.54,4.21-17.12,2.65-14-3.3.88-1.67-12.88-8.93-14.59-11.47-3.29-4.91-2.12-9.8-.36-15.51C138.58,287.29,150.49,294.69,150.58,294.77Z"/><path class="cls-3" d="M150.58,294.77c.91.75,4.86,2.22,7,3.61,6.67,4.22,13,8.75,13.54,12.87a5.27,5.27,0,0,1-1.48,4.33c-.09.07,1.45,4.1.85,5.79-1,2.91-2.27.8-2.41,5.51-.12,4.08-3.63,1.85-6,8.42-1.54,4.21-17.12,2.65-14-3.3.88-1.67-12.88-8.93-14.59-11.47-3.29-4.91-2.12-9.8-.36-15.51C138.58,287.29,150.49,294.69,150.58,294.77Z"/><path class="cls-3" d="M163,310.64c.43.22,1.21.31,1.21.71-.34.08-3,.84-3.39.67a4.72,4.72,0,0,0-1.13-.34"/><path class="cls-3" d="M169.92,315.36c-1.51.65-5.51,3.18-7.92,3.18a30.77,30.77,0,0,1-7.56-1.25"/><path class="cls-3" d="M168.73,323.76a10.56,10.56,0,0,0-2.84.72c-2.65,1-6.38.89-9.53,0-.35-.11-4.7-1.29-5-1.36"/><path class="cls-3" d="M167,329.36c-3.68,2.32-4.46,1.86-8.33,2.41-1.41.2-3.87-.69-6.13-1.42-.6-.2-3.79-1.81-3.77-3.69"/><path class="cls-3" d="M124.81,236.86c-1.06-10.44-2.59-11-2.59-22.64"/><path class="cls-3" d="M241.2,325.3c14.51,24,20.67,58.58,21.7,81.08l.22.67"/><path class="cls-3" d="M134.6,323.24c-16.35,23.49-23.87,55.12-21.92,77.16.15,1.7-.63,3.61-.26,5.15"/><path class="cls-10" d="M208.39,69.69c6.32-10.71-5.44-13-5.5-13.93-.5-7.38-6.27-10.11-13.53-7.16-1,.4-2.25-4.57-8.67-4.65-7.47-.09-9.12,7.48-10.15,6.7-7.92-6-16.51-1.75-15.91,6.65-5.34-4.95-15.55,1.71-12.4,9.28-5.15-2.18-14,4.44-8.58,12.64.16.25-6.87-1.45-10.34,4.35-3.61,6,2.7,11.82.61,11.3-10.24-2.51-16.58,9.09-9.28,16.07-10.79-2.35-16.47,14-6.16,18.33-4.38.53-9.65,2.89-10.16,10-.58,8.09,6.56,8.07,4.54,10.69-5.78,7.51,1.42,17.64,11.75,15,.13,0-1.53,6.79.73,9.58,7.45,9.2,16.47-2.13,17.5.15,3.14,6.93,15,5,16.52-.77.53-.08,2.17,2.4,5.25,3.41s7.56.54,10.84-4.29c.06-.09,2.9,3.46,4.46,4.35,6.31,3.58,11.9,0,15-5,.82-.2,3.37,2.83,6.06,4.16,6.77,3.33,13.09-1.85,12.76-6,0,6.93,16,7.47,18.39-4,2-9.69-6.8-12.8-6.57-13.25,2.93-5.56,2.79-11.87-6.87-14-.38-.08,2-3.46,1.26-6.62-.63-2.76-4.06-5.39-7.64-5.63,2.81-3.24.29-10.8-5.62-13.25a8.39,8.39,0,0,1-4.55-3.66c-2.66-4.85-2-12.55,9.25-12,2.29.1,6-2.32,6.41-5,1-6.41-3.72-8.42-1.23-9.75C214.85,78.81,207.9,69.42,208.39,69.69Z"/><path class="cls-3" d="M208.39,69.69c6.32-10.71-5.44-13-5.5-13.93-.5-7.38-6.27-10.11-13.53-7.16-1,.4-2.25-4.57-8.67-4.65-7.47-.09-9.12,7.48-10.15,6.7-7.92-6-16.51-1.75-15.91,6.65-5.34-4.95-15.55,1.71-12.4,9.28-5.15-2.18-14,4.44-8.58,12.64.16.25-6.87-1.45-10.34,4.35-3.61,6,2.7,11.82.61,11.3-10.24-2.51-16.58,9.09-9.28,16.07-10.79-2.35-16.47,14-6.16,18.33-4.38.53-9.65,2.89-10.16,10-.58,8.09,6.56,8.07,4.54,10.69-5.78,7.51,1.42,17.64,11.75,15,.13,0-1.53,6.79.73,9.58,7.45,9.2,16.47-2.13,17.5.15,3.14,6.93,15,5,16.52-.77.53-.08,2.17,2.4,5.25,3.41s7.56.54,10.84-4.29c.06-.09,2.9,3.46,4.46,4.35,6.31,3.58,11.9,0,15-5,.82-.2,3.37,2.83,6.06,4.16,6.77,3.33,13.09-1.85,12.76-6,0,6.93,16,7.47,18.39-4,2-9.69-6.8-12.8-6.57-13.25,2.93-5.56,2.79-11.87-6.87-14-.38-.08,2-3.46,1.26-6.62-.63-2.76-4.06-5.39-7.64-5.63,2.81-3.24.29-10.8-5.62-13.25a8.39,8.39,0,0,1-4.55-3.66c-2.66-4.85-2-12.55,9.25-12,2.29.1,6-2.32,6.41-5,1-6.41-3.72-8.42-1.23-9.75C214.85,78.81,207.9,69.42,208.39,69.69Z"/><path class="cls-3" d="M199.12,82.05c-.91,5.19-7.39,7.27-11.25,6.3"/><path class="cls-3" d="M180.68,129.11c5.79.35,9.4-10.7,5.32-13.28"/><path class="cls-3" d="M208.93,138.32c-2.58,4.09-7,4.42-11.19,3.5"/><path class="cls-3" d="M105.85,127.78A12.42,12.42,0,0,0,117.21,130"/><path class="cls-3" d="M215.53,153.24c-1.39,1.66-2.37,4.4-9.09,4.4"/><path class="cls-3" d="M101,146.53c1.52,1,3.61,3.81,10.33,3.81"/><path class="cls-3" d="M185,144.6c4.33-.43,8.81-1.79,9.81-7.34a8.21,8.21,0,0,0-1.07-5"/><path class="cls-3" d="M199.52,163.06c2.93-.28,5-8.65,2.4-11.85"/><path class="cls-3" d="M176.58,151.75c2.93-.28,5-8.64,2.4-11.85"/><path class="cls-3" d="M170.88,135.41c2.93-.29,5-8.65,2.4-11.85"/><path class="cls-3" d="M118.44,154.8c-2.94-.29-5-8.65-2.4-11.85"/><path class="cls-3" d="M123.51,132.5c-2.93-.28-5-8.64-2.4-11.85"/><path class="cls-3" d="M202.84,55.18c.43,2.77-3.27,9.25-8.32,7.68"/><path class="cls-3" d="M196.6,70.89c3.85,4.21,11.44.69,12.67-2.59"/><path class="cls-3" d="M181.42,93.9c6.21-1.92,8.87-9.93,2.1-13.05"/><path class="cls-3" d="M239.51,275.22a55.78,55.78,0,0,0,.33-6.6"/><path class="cls-3" d="M130.75,276.68c.32,1.6,12.16,10.86,15,15.23a4.17,4.17,0,0,0,.41.53"/><path class="cls-8" d="M296,130c-3.45-1.65-5.16-12.83-8.34-7.85-.82,1.29-.39,5.64-.11,5.84,0,0-4.16-4.74-4.25,1.76-.06,4.13,1.06,2.6-1.17,3.81-1.91,1,1.1,9.25.25,9.4-6.8,1.14,2.52,18.66,3.29,20.8,7.91-6.64,7.86-14,8.08-23.32.13-5.51.52-5.28,2.38-9.93Z"/><path class="cls-3" d="M296,130c-3.45-1.65-5.16-12.83-8.34-7.85-.82,1.29-.39,5.64-.11,5.84,0,0-4.16-4.74-4.25,1.76-.06,4.13,1.06,2.6-1.17,3.81-1.91,1,1.1,9.25.25,9.4-6.8,1.14,2.52,18.66,3.29,20.8,7.91-6.64,7.86-14,8.08-23.32.13-5.51.52-5.28,2.38-9.93Z"/><path class="cls-9" d="M303.7,174c5.06.28,6.21-2.29,8-6.56l15-40.72c1-2.49,1.06-6.47-3.38-6.55l-20.61,0h-1.17c-3.82,0-5.23,2.13-6.61,5.4l-15.59,41.9c-.72,2.13-1.61,6,1.79,6Z"/><path class="cls-3" d="M303.7,174c5.06.28,6.21-2.29,8-6.56l15-40.72c1-2.49,1.06-6.47-3.38-6.55l-20.61,0h-1.17c-3.82,0-5.23,2.13-6.61,5.4l-15.59,41.9c-.72,2.13-1.61,6,1.79,6Z"/><path class="cls-8" d="M309.89,189.68c1.47-5.2-.65-6.49,6.08-14.69,8.7-10.62,7-14.63,7-27.83,0-2.93,1.17-6.4-3.45-3.63-1.92,1.15-6.16,17.05-6.16,20,0,3.72-3.77,11-8,11.63-1.7.26-18.73-1.26-19.4-1.3,1,2.64,1.55,13.73,3.5,13.81,1.71.07,5.4,1.75,7.67,1.9C298.72,189.66,309.65,190.32,309.89,189.68Z"/><path class="cls-3" d="M309.89,189.68c1.47-5.2-.65-6.49,6.08-14.69,8.7-10.62,7-14.63,7-27.83,0-2.93,1.17-6.4-3.45-3.63-1.92,1.15-6.16,17.05-6.16,20,0,3.72-3.77,11-8,11.63-1.7.26-18.73-1.26-19.4-1.3,1,2.64,1.55,13.73,3.5,13.81,1.71.07,5.4,1.75,7.67,1.9C298.72,189.66,309.65,190.32,309.89,189.68Z"/><path class="cls-3" d="M287.66,128.33c1.06,1.74,2.14,5.88,2.69,7"/><path class="cls-3" d="M284.7,133.87c1.34,1.13,2.17,6,2.72,6.84"/><path class="cls-3" d="M283.15,143.43c2,.88,1.63,3,2.3,4.6"/><path class="cls-3" d="M296.82,180.27a19.46,19.46,0,0,1,3.6-4.94"/><path class="cls-3" d="M162,417.59c-4.38-14.5-3.38-15.22-3.38-30.54"/><path class="cls-3" d="M232.45,336.81c.45,2.53,3.74,10.11,4.78,14,3.52,13.15,6.82,23.79,9,37.5,1.25,7.74,3.13,17.43,2.7,25.31"/><path class="cls-5" d="M306.08,137.42c3.29.32,4.44,3.78,2.58,7.74s-6,6.9-9.32,6.58S294.9,148,296.76,144a12.81,12.81,0,0,1,2.9-3.9"/><polygon class="cls-11" points="137.55 352.04 155.25 338.54 149.1 360.74 137.55 352.04"/><polygon class="cls-3" points="137.55 352.04 155.25 338.54 149.1 360.74 137.55 352.04"/><path class="cls-8" d="M169.08,300a37.1,37.1,0,0,0,5.62,7.32c1.21,1.19-.78,3.7-3.53,4a4.79,4.79,0,0,1-5.48-4.57C165.69,305.19,168.93,299.69,169.08,300Z"/><path class="cls-3" d="M169.08,300a37.1,37.1,0,0,0,5.62,7.32c1.21,1.19-.78,3.7-3.53,4a4.79,4.79,0,0,1-5.48-4.57C165.69,305.19,168.93,299.69,169.08,300Z"/><path class="cls-11" d="M164.71,311.26c-1,.34-3.18.16-5.21.37-1.67.18-3.63,0-5,.57-1.88.76-2.72,2.51-1.63,5,.25.57-4.1.23-2.13,5,.39.93-2.83,1.89-1.77,5.18.2.63-3.34,6.45,1.59,8.73l3,1.41-10.25,23.38-49.2-31.5,34.55-76.69,51.77,28.36Z"/><path class="cls-3" d="M164.71,311.26c-1,.34-3.18.16-5.21.37-1.67.18-3.63,0-5,.57-1.88.76-2.72,2.51-1.63,5,.25.57-4.1.23-2.13,5,.39.93-2.83,1.89-1.77,5.18.2.63-3.34,6.45,1.59,8.73l3,1.41-10.25,23.38-49.2-31.5,34.55-76.69,51.77,28.36Z"/><path class="cls-11" d="M163,310.64a8.68,8.68,0,0,1-3.67,1c-4.29-.29-8.48.94-6.46,5.53.25.57-4.1.23-2.13,5,.39.93-2.83,1.89-1.77,5.18.2.63-3.34,6.45,1.59,8.73,0,0-11.39,22-12.57,24.51l-46.42-33,37.1-74.89,50,27.34Z"/><path class="cls-3" d="M163,310.64a8.68,8.68,0,0,1-3.67,1c-4.29-.29-8.48.94-6.46,5.53.25.57-4.1.23-2.13,5,.39.93-2.83,1.89-1.77,5.18.2.63-3.34,6.45,1.59,8.73,0,0-11.39,22-12.57,24.51l-46.42-33,37.1-74.89,50,27.34Z"/><path class="cls-3" d="M133.43,262.69c-4.72-7.13,1.52-10.9,5.69-10.14a5.7,5.7,0,0,1,4.15,7.08c-.1.32-.26.7-.32.94"/><path class="cls-3" d="M144.88,268.52c-4.72-7.12,1.52-10.9,5.69-10.14a5.71,5.71,0,0,1,4.16,7.08c-.11.32-.26.71-.32.94"/><path class="cls-3" d="M156.34,274.35c-4.72-7.12,1.52-10.89,5.69-10.13a5.69,5.69,0,0,1,4.15,7.07c-.1.33-.26.71-.32.94"/><path class="cls-3" d="M167.79,280.18c-4.72-7.12,1.52-10.89,5.69-10.13a5.7,5.7,0,0,1,4.16,7.07c-.11.33-.26.71-.32.95"/><polyline class="cls-3" points="129.91 266.24 117.62 290.54 148.01 310.64"/><path class="cls-3" d="M126.91,280.64c2.76-1.13,9.15-9.88,9.15-1.65,0,2-6.59,15.84-1.05,12.86,2.45-1.32,5.55-10.35,5.55-.13,0,2.32,1.77.1,3.85-1,1.92-1,15.92-13.52,13.35-5.51-.77,2.41-11.31,15.82-2.2,10.95a10.26,10.26,0,0,1,1.65-.65"/><line class="cls-3" x1="105.46" y1="316.19" x2="105.31" y2="328.34"/><line class="cls-3" x1="99.61" y1="325.79" x2="111.91" y2="318.44"/><path class="cls-3" d="M112.81,310c3.35-4.2,15-2,18.34,3.34,3.76,6,.5.61,2.66-2"/><path class="cls-3" d="M127.09,315.12c1.8-.07,5.29,1.22,5.76.85"/><path class="cls-3" d="M140.41,319.79c-9.41,0-11.15,10-4.76,9.9,5.27-.12,10.1-7.2,5.33-7.2-.51,0-2.33-.17-2.67.15"/><path class="cls-3" d="M116.71,326.54c.44-.48,3.57-3.12,3-.29-.62,3.28,2.76-.12,2.94,2.25.21,2.69,8.87,5.41,11.42,7.64"/><path class="cls-3" d="M112.21,330.29c4.24,1.73,1.84,2.62,6.41,5.25,3.06,1.76,4.71,2,7.45,4.81.38.39,4.14,1.34,6.22,3.89.35.42,2.29,2.36,2.57,2.55"/></svg>
