<svg id="Layer_1" data-name="Layer 1" xmlns="http://www.w3.org/2000/svg" viewBox="0 0 450 450"><defs><style>.cls-1{fill:#c93;}.cls-1,.cls-10,.cls-11,.cls-12,.cls-3,.cls-4,.cls-5,.cls-6,.cls-7,.cls-9{fill-rule:evenodd;}.cls-13,.cls-2,.cls-8{fill:none;stroke-linecap:round;stroke-linejoin:round;}.cls-2,.cls-8{stroke:#000;}.cls-13,.cls-2{stroke-width:2.83px;}.cls-3{fill:#7283e8;}.cls-4{fill:#fefefe;}.cls-5{fill:#fac384;}.cls-6{fill:#f9c;}.cls-8{stroke-width:3.4px;}.cls-9{fill:#f58634;}.cls-10{fill:#ffc4e2;}.cls-11{fill:#373435;}.cls-12{fill:#ed3237;}.cls-13{stroke:#fefefe;}</style></defs><title>Thech Peeps_Downtime</title><path class="cls-1" d="M325.24,343.06c7.09-2.7,44.93,13,41.78-26.24-1.84-22.93-45.84-21.17-46.23-20.06-1.87,5.37-9.67,43.8-2.25,45.46C321,342.77,323.06,343.89,325.24,343.06Z"/><path class="cls-2" d="M325.24,343.06c7.09-2.7,44.93,13,41.78-26.24-1.84-22.93-45.84-21.17-46.23-20.06-1.87,5.37-9.67,43.8-2.25,45.46C321,342.77,323.06,343.89,325.24,343.06Z"/><path class="cls-3" d="M252.67,192.39c3.18,4.68,4.56,9.72,7.41,11.67,9.75,6.67,21.21,1.9,28.17-4,4-3.41,4.54-9.27,7.48-8.21,11.52,4.13,57.61,14.93,63.27,26.37,7.23,14.59,10.3,74.7-1,103-5.44,13.61-16.8,15-31.56,7-3.72-2-2.22,5.82-2.22,11.5,0,16.36-7.71,21.2-9.46,35.43-.47,3.81-5.23.07-13.2.31-8.19.25-27.21-1.18-37.9-1.18-8.23,0-73.78-.28-74.51-2.37-.31,0-24.71-64.73-28.28-72.58-1.44-3.18,0-8.72,1.58-11.49,15-11.09,18.09-59.13,36.29-78.8,6.21-6.71,43.12-12.12,53.95-16.68"/><path class="cls-4" d="M213.59,326.63c1.52,18.9-10.9,27.26-15.82,29.42-.46.2.12,7.09-10.86,7.57-6.72.29-26.93-10.14-28-17.69-1.38-9.62,3.38-10.94,10.77-16.05,6.62-4.59,31.31-6.9,39.66-4.92C210.23,325.18,213.53,325.92,213.59,326.63Z"/><path class="cls-2" d="M213.59,326.63c1.52,18.9-10.9,27.26-15.82,29.42-.46.2.12,7.09-10.86,7.57-6.72.29-26.93-10.14-28-17.69-1.38-9.62,3.38-10.94,10.77-16.05,6.62-4.59,31.31-6.9,39.66-4.92C210.23,325.18,213.53,325.92,213.59,326.63Z"/><path class="cls-2" d="M360.39,400.67C348,374.81,257.76,368.39,194.7,373.85c-16.27,1.85-102.29,16-111.91,22.55"/><path class="cls-5" d="M216.92,137.43c-2.94,15.91,1.33,27.21,7.77,33.37,9.87,9.44,24.65,8.85,25,9.93,1.84,5.89,5.31,15.84,6.74,19.82,5.16,14.4,41.69,4.68,36.26-13.15-5.34-17.54-13.75-53.78-11.92-53.65,7,.52,10.56-6,8.21-12.25-2.88-7.61-9.74-6.86-9.53-8.32,7.11-50.41-41.24-51.38-53-35.68-4.12,5.36-7.69,17.58-5.53,38C221.76,123.69,217.75,133,216.92,137.43Z"/><path class="cls-2" d="M216.92,137.43c-2.94,15.91,1.33,27.21,7.77,33.37,9.87,9.44,24.65,8.85,25,9.93,1.84,5.89,5.31,15.84,6.74,19.82,5.16,14.4,41.69,4.68,36.26-13.15-5.34-17.54-13.75-53.78-11.92-53.65,7,.52,10.56-6,8.21-12.25-2.88-7.61-9.74-6.86-9.53-8.32,7.11-50.41-41.24-51.38-53-35.68-4.12,5.36-7.69,17.58-5.53,38C221.76,123.69,217.75,133,216.92,137.43Z"/><path class="cls-2" d="M246.64,179.87c1.81.41,9.77,2.29,20-5.06a2.94,2.94,0,0,1,.67-.32"/><path class="cls-6" d="M267.81,147.24c-2.59-3.93-6.78-9.08-11.48-4.3-2,2.05,1,12.45,3.41,11.38,3-1.35,6.1-3.29,7.59-6.16.1-.19.62-.72.48-.92"/><path class="cls-2" d="M268.72,147.9c-2.29-2.19-9.57-11.7-12.8-4.68-1.48,3.21,1.19,6.56,1.3,7.42"/><path class="cls-2" d="M250.56,159.53c6-.49,17-9.33,20.3-14.28.18-.27.39-.41.43-.68"/><path class="cls-5" d="M194.62,255c-.72,3.75,2.07,3.94,2.07,9.67,0,4.18-2.06,3.73-1.65,11.39.33,6.07,4.61,7.92,3.78,18.8-.32,4.19,4.09,4.71,4.09.36,0-10.46.79-8.61-2.92-18.27-2.09-5.45,2.42-8.2-.13-17.5-.63-2.28-2.41-2.92-4.45-5.31C195,253.61,194.56,255.35,194.62,255Z"/><path class="cls-2" d="M194.62,255c-.72,3.75,2.07,3.94,2.07,9.67,0,4.18-2.06,3.73-1.65,11.39.33,6.07,4.61,7.92,3.78,18.8-.32,4.19,4.09,4.71,4.09.36,0-10.46.79-8.61-2.92-18.27-2.09-5.45,2.42-8.2-.13-17.5-.63-2.28-2.41-2.92-4.45-5.31C195,253.61,194.56,255.35,194.62,255Z"/><path class="cls-5" d="M198.19,251.26c-1.59,5.24,1.07,6.53-.3,14.92-1,6.14-2.9,4.73-4.33,16.12-1.13,9,2.59,13.28-.83,28.94-1.31,6,2.85,8.38,3.89,2,2.5-15.33,2.82-12.33,1.53-27.85-.73-8.74,4.31-11.14,4.06-25.7-.06-3.57-1.64-5.15-3.05-9.4C198.84,249.33,198,251.74,198.19,251.26Z"/><path class="cls-2" d="M198.19,251.26c-1.59,5.24,1.07,6.53-.3,14.92-1,6.14-2.9,4.73-4.33,16.12-1.13,9,2.59,13.28-.83,28.94-1.31,6,2.85,8.38,3.89,2,2.5-15.33,2.82-12.33,1.53-27.85-.73-8.74,4.31-11.14,4.06-25.7-.06-3.57-1.64-5.15-3.05-9.4C198.84,249.33,198,251.74,198.19,251.26Z"/><path class="cls-2" d="M246.05,127.89c-4.1-2.16-8.49-5.49-12-.26-.74,1.09-.87,2.47-1.34,3.66"/><path class="cls-7" d="M249.06,117c.24.6.59.61.82-1.89.11-1.18.45-5.33-.1-4.93S248.71,116.16,249.06,117Z"/><path class="cls-2" d="M249.06,117c.24.6.59.61.82-1.89.11-1.18.45-5.33-.1-4.93S248.71,116.16,249.06,117Z"/><path class="cls-7" d="M230.53,119.1c-.23.6-.58.61-.87-1.9-.13-1.18-.55-5.33,0-4.93S230.86,118.22,230.53,119.1Z"/><path class="cls-2" d="M230.53,119.1c-.23.6-.58.61-.87-1.9-.13-1.18-.55-5.33,0-4.93S230.86,118.22,230.53,119.1Z"/><path class="cls-8" d="M250.69,93.11c1.67,0,9.06,3,9.63,3.68"/><path class="cls-8" d="M228.9,95.17c-1.67,0-9.06,3-9.62,3.68"/><path class="cls-2" d="M279,121.76c-.69,1.91-1.2,6.16,1.78,5.93"/><path class="cls-7" d="M251,64.72c1.17,1.6-1,8.16-1.31,13.14-.19,3.25-.06,5.63,1.94,6.44,3.41,1.37,17.92,4.82,30.18,14.44,1,.78-.82,8.81.23,9.09,5.78,1.49,8.16-3.17,8.77-3.93,9.57-37.25-28.06-71.26-64.4-45.66C209.59,70.06,211,89.71,211.75,91.43c1.24,2.74,5.15,3,6.12,2,5.43-6.07,19.9-7.07,21.79-10,1.75-2.75,2.93-5.82,4.4-8.6C246.12,70.85,248.17,65.63,251,64.72Z"/><path class="cls-2" d="M251,64.72c1.17,1.6-1,8.16-1.31,13.14-.19,3.25-.06,5.63,1.94,6.44,3.41,1.37,17.92,4.82,30.18,14.44,1,.78-.82,8.81.23,9.09,5.78,1.49,8.16-3.17,8.77-3.93,9.57-37.25-28.06-71.26-64.4-45.66C209.59,70.06,211,89.71,211.75,91.43c1.24,2.74,5.15,3,6.12,2,5.43-6.07,19.9-7.07,21.79-10,1.75-2.75,2.93-5.82,4.4-8.6C246.12,70.85,248.17,65.63,251,64.72Z"/><path class="cls-2" d="M250.74,193.43c-10.83,4.56-45.81,8.93-52,15.64-18.2,19.67-21.32,67.71-36.29,78.8"/><path class="cls-2" d="M294.1,189.48c15.24,8.08,63.25,14.1,68.21,32.81,4.33,16.36,4.93,97.09-9.12,105.75-18.59,11.45-28.25.26-48.86-19.12-5.19-4.89-21.06-19.54-32.9-31.35-3-3-14.93-10.55-14.36-16.08"/><path class="cls-2" d="M270.84,232.76c4.29-.62,11.64,5,17.75,9.11,16.81,11.43,37.7,28.92,44,32.7"/><path class="cls-5" d="M248.12,226.15c-1.84-.72-2.49-3.93-4.05-5.84-3.91-4.75-6.85-8.6-17.83-12.68-3.79-1.4-5.61,1.45-9,3.39-2.54,1.46-7.7,4-3.19,6.56,3.61,2,9.61-3,10.95-1.31s14.45,10.83,16.81,11.7c1.49.54,5.14,1,5.93-.73A4.63,4.63,0,0,0,248.12,226.15Z"/><path class="cls-2" d="M248.12,226.15c-1.84-.72-2.49-3.93-4.05-5.84-3.91-4.75-6.85-8.6-17.83-12.68-3.79-1.4-5.61,1.45-9,3.39-2.54,1.46-7.7,4-3.19,6.56,3.61,2,9.61-3,10.95-1.31s14.45,10.83,16.81,11.7c1.49.54,5.14,1,5.93-.73A4.63,4.63,0,0,0,248.12,226.15Z"/><path class="cls-9" d="M196.2,268.4c-1.35,2.44-5.94,2.38-3.14-2.91l37.11-74.12c1.91-4.28,6.23-2.23,5.46,1.41Z"/><path class="cls-2" d="M196.2,268.4c-1.35,2.44-5.94,2.38-3.14-2.91l37.11-74.12c1.91-4.28,6.23-2.23,5.46,1.41Z"/><path class="cls-4" d="M206.18,317c-9.17-4.44-38.74-7-49.39-2.33-8.63,3.75-25.34,11.57-8.44,18.4C173.34,343.15,234.44,330.67,206.18,317Z"/><path class="cls-2" d="M206.18,317c-9.17-4.44-38.74-7-49.39-2.33-8.63,3.75-25.34,11.57-8.44,18.4C173.34,343.15,234.44,330.67,206.18,317Z"/><path class="cls-9" d="M185.66,258.54c-1.83,2.11-.18,6.4,3.81,1.94l56.8-60.37c3.36-3.27-.05-6.62-3.2-4.64Z"/><path class="cls-2" d="M185.66,258.54c-1.83,2.11-.18,6.4,3.81,1.94l56.8-60.37c3.36-3.27-.05-6.62-3.2-4.64Z"/><path class="cls-10" d="M98.44,275.29l66.34,13.62c5.37,1.1,10.66,6.79,11.9,12.6l17.88,83.78c1.24,5.81-2.24,9.7-7.6,8.6l-66.34-13.63c-5.35-1.1-10.65-6.78-11.9-12.6L90.85,283.88C89.61,278.07,93.08,274.18,98.44,275.29Z"/><path class="cls-2" d="M98.44,275.29l66.34,13.62c5.37,1.1,10.66,6.79,11.9,12.6l17.88,83.78c1.24,5.81-2.24,9.7-7.6,8.6l-66.34-13.63c-5.35-1.1-10.65-6.78-11.9-12.6L90.85,283.88C89.61,278.07,93.08,274.18,98.44,275.29Z"/><path class="cls-5" d="M266.76,232.84c-7.81-4.38-21-10.54-29.66-14.79-1.22-.59-7.14-2.25-10.46-1.79-1.43.21-13.83,2.89-15,4a28.35,28.35,0,0,0-5.12,8c-.44,1,.28,2,2.92,2.35,1.56.2,3.11-2.55,3.55-2.86,1.84-1.32,8.24-2.91,8.24-2.61,0,.13,1.25-.1,1.13,0-2.25,1.09-4.52,2.49-6.23,7.61-.72,2.13-2.77,3-3.79,5.51-.59,1.46-.62,3.68-.92,5.3a14.63,14.63,0,0,0-.25,6.08c.9,3.83,3.38,1.91,10.36,6.88a5,5,0,0,0,5.81.24c2.77-1.87,1.9-3.06,2.81-2.93,2.11.29,23.39,7.47,24.18,7.06C261.59,263,273.11,236.41,266.76,232.84Z"/><path class="cls-2" d="M266.76,232.84c-7.81-4.38-21-10.54-29.66-14.79-1.22-.59-7.14-2.25-10.46-1.79-1.43.21-13.83,2.89-15,4a28.35,28.35,0,0,0-5.12,8c-.44,1,.28,2,2.92,2.35,1.56.2,3.11-2.55,3.55-2.86,1.84-1.32,8.24-2.91,8.24-2.61,0,.13,1.25-.1,1.13,0-2.25,1.09-4.52,2.49-6.23,7.61-.72,2.13-2.77,3-3.79,5.51-.59,1.46-.62,3.68-.92,5.3a14.63,14.63,0,0,0-.25,6.08c.9,3.83,3.38,1.91,10.36,6.88a5,5,0,0,0,5.81.24c2.77-1.87,1.9-3.06,2.81-2.93,2.11.29,23.39,7.47,24.18,7.06C261.59,263,273.11,236.41,266.76,232.84Z"/><path class="cls-2" d="M230.19,253.71c-.08-.06-9.06-3.37-9.27-3.35"/><path class="cls-2" d="M223.89,232c-1.67.25-6.21.15-8.12,2.31"/><path class="cls-2" d="M220.09,240.24c-2.66,1.06-7.55,1.67-8.87,4.76a7.27,7.27,0,0,0-.24,2.47"/><path class="cls-2" d="M220.43,226.11c2.15-2,6.32-1.6,8.93-.9.17,0,.1,0,.27,0"/><path class="cls-2" d="M325.44,268.37c.49-5.87-.17-12.08.23-19.25"/><path class="cls-2" d="M253.75,206a14.21,14.21,0,0,0,9.49,8c9.13,2,20,1.71,31.9-11.09"/><path class="cls-2" d="M324.76,327.6c-3.5,10.15.4,10.83-3.18,26-1.49,6.34-3.69,3.17-2.53,15,.41,4.15-1.79,8.07-2.94,9.78"/><path class="cls-5" d="M99.16,324.4l-4.11-20.24c-2.5-.32-3.47.66-3.67,3.61s.82,7.12.33,10.66c-.59,4.19-1,2.41-1,11.33,0,6.13,4,2.63,2.6,8.66-1,4.65,3.53,2.45,2.55,7.24-.48,2.35,2.32,3.41,2.84,5.31s1.17,2.77,4.62,4.13c5,2,13.49,3.7,16,3.62,6.41-.22,5.12-2.09,4.45-3.21,1.46-.41,9.38.4,5.87-5.65-.13-.22.8-.51,1.22-1.56s.4-2.64-1.36-4.52c-.79-.84,5.81-5.15-11.8-9.68C109.16,331.91,104.65,328.23,99.16,324.4Z"/><path class="cls-2" d="M99.16,324.4l-4.11-20.24c-2.5-.32-3.47.66-3.67,3.61s.82,7.12.33,10.66c-.59,4.19-1,2.41-1,11.33,0,6.13,4,2.63,2.6,8.66-1,4.65,3.53,2.45,2.55,7.24-.48,2.35,2.32,3.41,2.84,5.31s1.17,2.77,4.62,4.13c5,2,13.49,3.7,16,3.62,6.41-.22,5.12-2.09,4.45-3.21,1.46-.41,9.38.4,5.87-5.65-.13-.22.8-.51,1.22-1.56s.4-2.64-1.36-4.52c-.79-.84,5.81-5.15-11.8-9.68C109.16,331.91,104.65,328.23,99.16,324.4Z"/><path class="cls-2" d="M125.51,355.26c-7.86-.29-4.12.52-11.82-2.17-1-.37-6.47-2.62-7.22-2.56"/><path class="cls-2" d="M129.62,349.58c-8.31-.1-10.78-.25-19.09-3.45-.14-.05-4.62-1.51-4.66-1.5"/><path class="cls-2" d="M129.11,343.83c-5.33.16-10-1.57-15.07-2.52A87,87,0,0,1,103.28,338"/><path class="cls-2" d="M99.86,325c-.84-.38-2.9-2.07-3.59-2.19"/><line class="cls-2" x1="339.14" y1="344.79" x2="334.95" y2="383.15"/><path class="cls-2" d="M325.44,268.37c2.07-.57,3.68.19,5.78.75a5.16,5.16,0,0,0,1,.27"/><path class="cls-2" d="M176.41,280.64c8.68.32,16.15,7.63,16.59,7.71"/><path class="cls-5" d="M184.07,336.12c2.62-.3,28.47-4.77,26-8.26l-.3-.49c-2.67-8.57-8.37-6.08-10-5.93-.51.05,1.16-.61,1.24-3.38.23-7.47-14.48-7.78-6.68-24.3,4.42-9.35,15.22-8.51,17-20.12,1.18-7.78-2.35-15.35-6.57-18.16a7.5,7.5,0,0,1-1.05-.64c-1.26,1.92-2,3.23-1.58,3.76,2.78,3.33,5.31,6.13,5.31,13.15,0,10-15.64,9.35-19.65,25.81-1.53,6.23.44,12.17,4.62,16.78.61.68-2.81-1-3.25,2.51-.18,1.47-5.18.23-7.56,1.15l-1,.33Z"/><path class="cls-2" d="M184.07,336.12c2.62-.3,28.47-4.77,26-8.26l-.3-.49c-2.67-8.57-8.37-6.08-10-5.93-.51.05,1.16-.61,1.24-3.38.23-7.47-14.48-7.78-6.68-24.3,4.42-9.35,15.22-8.51,17-20.12,1.18-7.78-2.35-15.35-6.57-18.16a7.5,7.5,0,0,1-1.05-.64c-1.26,1.92-2,3.23-1.58,3.76,2.78,3.33,5.31,6.13,5.31,13.15,0,10-15.64,9.35-19.65,25.81-1.53,6.23.44,12.17,4.62,16.78.61.68-2.81-1-3.25,2.51-.18,1.47-5.18.23-7.56,1.15l-1,.33Z"/><path class="cls-5" d="M198.69,251.87c-2.85-1.43-5.86-4.77-2.62-5.18.08,0,2.48-2,1.49-3.27-1.23-1.55-7.53-.87-7.88,3.66s6.78,11.25,8.76,7.68C199.79,252.31,199.59,252.32,198.69,251.87Z"/><path class="cls-2" d="M198.69,251.87c-2.85-1.43-5.86-4.77-2.62-5.18.08,0,2.48-2,1.49-3.27-1.23-1.55-7.53-.87-7.88,3.66s6.78,11.25,8.76,7.68C199.79,252.31,199.59,252.32,198.69,251.87Z"/><path class="cls-2" d="M191.56,313.37c3.74,3.24,5.47,4.38,1.74,7.66-2.11,1.86-.9,2.68-.85,3.58"/><path class="cls-2" d="M204.32,321.37c-2.82-.81-5.48.39-5.48,3.7,0,5.52-5.18,2.8-4.27,7.26.1.49.56.63.64.88"/><path class="cls-2" d="M201.8,332c2.2-3.19-.62-5.91,3.32-6.29,1.08-.1,2.36,0,2.82-1.05"/><path class="cls-2" d="M182.63,324.92c2.1-.15,4.17-1.13,5.27.82.78,1.38,2.06,1.92,3.32.66,2.84-2.84,6.19-.38,7-.44"/><path class="cls-2" d="M183.66,330.47c3.94-.88,2.07,2.16,6.3,1.64,1.31-.16,1.25-1.26,4-.9"/><path class="cls-2" d="M190,316.18c-2.32,3.22-1.7,1.55-1.55,5.19,0,.14-1.44,1.39-.89,2.81"/><path class="cls-2" d="M209.39,305.92c4.08-1.32,33.25.38,37.55,1.77,2.23.73,12.4,2.48,13.7,3.56"/><path class="cls-2" d="M226.57,300.59c11,.33,22.76.17,34.51,3"/><path class="cls-11" d="M100.72,287.15l7.32,1.62a5.25,5.25,0,0,1,3.57,3.86l1.84,9.12c.36,1.77-.67,2.93-2.28,2.57l-7.32-1.62a5.23,5.23,0,0,1-3.57-3.86l-1.84-9.12C98.08,288,99.11,286.8,100.72,287.15Z"/><path class="cls-2" d="M100.72,287.15l7.32,1.62a5.25,5.25,0,0,1,3.57,3.86l1.84,9.12c.36,1.77-.67,2.93-2.28,2.57l-7.32-1.62a5.23,5.23,0,0,1-3.57-3.86l-1.84-9.12C98.08,288,99.11,286.8,100.72,287.15Z"/><path class="cls-4" d="M145.86,241.35c1.5,3.07,2.69,12.22,4,16.35,2.88,0,5.27-15.13,16.78-18,23.21-5.9,47.85-18.6,36.86-46.89-9.19-23.64-58.56-25.81-78-3.8-18.74,21.16-11.93,40.57,12.38,51.11C140,241,145.41,240.43,145.86,241.35Z"/><path class="cls-2" d="M145.86,241.35c1.5,3.07,2.69,12.22,4,16.35,2.88,0,5.27-15.13,16.78-18,23.21-5.9,47.85-18.6,36.86-46.89-9.19-23.64-58.56-25.81-78-3.8-18.74,21.16-11.93,40.57,12.38,51.11C140,241,145.41,240.43,145.86,241.35Z"/><path class="cls-2" d="M259.53,386.16c0-18.16,3.31-22.74,6.37-37.75,1.3-6.35-7.14-11.22,8-13.44,7.28-1.07,12.64,1.13,9.87,10.22-.25.81,2.58,11.89,4.46,20.08s1.62,20.05,1.46,26.82c-.13,5.76-1.59,4.08-6.44,5.63-4.66,1.48-23.76,1.6-23.76-4.84Z"/><path class="cls-7" d="M263,360.56c-1.12,6.15-2.35,11.2-3.13,17.46-.42,3.34-2.53,14.37.84,16.66,5.72,3.89,5.29,2.93,12.41,2.93,3.25,0,15.92-.22,16.07-5.24.11-3.67,0-31.18-2.52-32a1.91,1.91,0,0,1-.59.08C279.79,357.92,266.74,358.26,263,360.56Z"/><path class="cls-2" d="M263,360.56c-1.12,6.15-2.35,11.2-3.13,17.46-.42,3.34-2.53,14.37.84,16.66,5.72,3.89,5.29,2.93,12.41,2.93,3.25,0,15.92-.22,16.07-5.24.11-3.67,0-31.18-2.52-32a1.91,1.91,0,0,1-.59.08C279.79,357.92,266.74,358.26,263,360.56Z"/><path class="cls-12" d="M266.25,345.63c3.53,1.53,17.47,2.25,18.22-.41.5-1.76,3.49-8.33,1.77-9.46-4-2.64-10.38-3-15.27-2.54-2.09.21-6.86,1.64-6.86,3.91C264.11,338.35,265.5,345.31,266.25,345.63Z"/><path class="cls-2" d="M266.25,345.63c3.53,1.53,17.47,2.25,18.22-.41.5-1.76,3.49-8.33,1.77-9.46-4-2.64-10.38-3-15.27-2.54-2.09.21-6.86,1.64-6.86,3.91C264.11,338.35,265.5,345.31,266.25,345.63Z"/><path class="cls-2" d="M264.55,336c2.3,2,10.51,2,13.69,1.94"/><path class="cls-13" d="M281.53,363.93c-4.33.42-11.95.59-15.78-1.7"/><path class="cls-13" d="M263.86,372.65c-.37,3.09-1.32,9.09-1.32,12.37"/><path class="cls-13" d="M265.09,362c0,.42-.38,3.35-.37,3.41"/><path class="cls-2" d="M199.76,355.06a28.53,28.53,0,0,1-5,1.72l-1.67.31"/><path class="cls-2" d="M142.16,289.05l18.47,4c9.32,2.52,10.23,6.77,11.21,10.42l5,22.95"/><path class="cls-2" d="M90.6,282c-.28-3.61,4.28-2.88,6.26-2.19l15,3.29"/><path class="cls-2" d="M146.33,206.81a2.36,2.36,0,1,1-2.54,2.17A2.36,2.36,0,0,1,146.33,206.81Z"/><path class="cls-2" d="M159.84,205.4a2.36,2.36,0,1,1-2.55,2.17A2.38,2.38,0,0,1,159.84,205.4Z"/><path class="cls-2" d="M173.34,204a2.36,2.36,0,1,1-2.54,2.16A2.36,2.36,0,0,1,173.34,204Z"/></svg>
