<svg id="Layer_1" data-name="Layer 1" xmlns="http://www.w3.org/2000/svg" viewBox="0 0 450 450"><defs><style>.cls-1{fill:#f9aa75;}.cls-1,.cls-10,.cls-14,.cls-3,.cls-5,.cls-6,.cls-7,.cls-8{fill-rule:evenodd;}.cls-11,.cls-12,.cls-15,.cls-2,.cls-4,.cls-9{fill:none;stroke-linecap:round;stroke-linejoin:round;stroke-width:2.83px;}.cls-2{stroke:#f9aa75;}.cls-3{fill:#fac384;}.cls-12,.cls-4{stroke:#000;}.cls-6{fill:#bc8eed;}.cls-7{fill:#fffbd6;}.cls-8{fill:#ccf;}.cls-9{stroke:#ccf;}.cls-10,.cls-13{fill:#fff;}.cls-11{stroke:#fff;}.cls-12{stroke-dasharray:5.67 8.5;}.cls-14{fill:#f60;}.cls-15{stroke:#f60;}</style></defs><title>Thech Peeps_Inbox</title><path class="cls-1" d="M224.29,392.49c-.49-3.88,10.24-48.16,13.29-46.34,25.14,15,50.34,15.73,78.65,13.44,10.22-.83,22-4.54,31.53-8.5,7.18-3,4.7,2.64,8.5,10.45,1.37,2.81,4.94,35.16,1.1,35.88-.85,2.69-14-.33-18.08-.33-9.65,0-23.93,6.07-32.6,2.39-4.41-1.87-21.05,3.9-32.32-.53-6.52-2.56-22.14,2.31-34.13-1.64C237,396.23,224.8,396.58,224.29,392.49Z"/><path class="cls-2" d="M224.29,392.49c-.49-3.88,10.24-48.16,13.29-46.34,25.14,15,50.34,15.73,78.65,13.44,10.22-.83,22-4.54,31.53-8.5,7.18-3,4.7,2.64,8.5,10.45,1.37,2.81,4.94,35.16,1.1,35.88-.85,2.69-14-.33-18.08-.33-9.65,0-23.93,6.07-32.6,2.39-4.41-1.87-21.05,3.9-32.32-.53-6.52-2.56-22.14,2.31-34.13-1.64C237,396.23,224.8,396.58,224.29,392.49Z"/><path class="cls-3" d="M268.61,102.64c1.63-14.15.89-24.43,18.44-39.27,20.53-17.35,72.28,20.25,49.83,41.09,11.14-1.23,5.26,21.36-4.25,16-2.24-1.27-1.74-3.11-2.69,1.61-4.58,22.77-7.29,46.31-7.6,60.9-.1,4.88-5.61,8.75-12.58,10.83-14.94,4.45-22.2,4.35-27.56-.92-2.12-2.09,1.72-33.68,1.3-34.94-.28-.85-5.55-.15-12.74-5.79-9.9-7.77-12.8-21.25-9.3-32C265.29,108.29,267.84,108.9,268.61,102.64Z"/><path class="cls-4" d="M268.61,102.64c1.63-14.15.89-24.43,18.44-39.27,20.53-17.35,72.28,20.25,49.83,41.09,11.14-1.23,5.26,21.36-4.25,16-2.24-1.27-1.74-3.11-2.69,1.61-4.58,22.77-7.29,46.31-7.6,60.9-.1,4.88-5.61,8.75-12.58,10.83-14.94,4.45-22.2,4.35-27.56-.92-2.12-2.09,1.72-33.68,1.3-34.94-.28-.85-5.55-.15-12.74-5.79-9.9-7.77-12.8-21.25-9.3-32C265.29,108.29,267.84,108.9,268.61,102.64Z"/><path class="cls-4" d="M275.05,116.46c-.07-5.74,6.34-5.18,6.94-.43"/><path class="cls-5" d="M292.13,112.44c.22.58.57.54.81-2,.12-1.2.47-5.45-.06-5S291.79,111.61,292.13,112.44Z"/><path class="cls-4" d="M292.13,112.44c.22.58.57.54.81-2,.12-1.2.47-5.45-.06-5S291.79,111.61,292.13,112.44Z"/><path class="cls-5" d="M276.05,111.09c.22.56.57.52.81-2,.12-1.18.48-5.33-.06-4.86S275.71,110.27,276.05,111.09Z"/><path class="cls-4" d="M276.05,111.09c.22.56.57.52.81-2,.12-1.18.48-5.33-.06-4.86S275.71,110.27,276.05,111.09Z"/><path class="cls-4" d="M336.64,109.92c-1.7-.06-4,1-4.22,3"/><path class="cls-4" d="M290.11,93.71c3.09-3.82,9.44-1.42,10.3,3"/><path class="cls-4" d="M282.18,92.41c-1.35-4.61-5-4.86-7.72-2.19"/><path class="cls-4" d="M279.12,156.67c3.83,1.74,14.27,2.05,17.85-.65"/><path class="cls-6" d="M342.29,314.12c11.09,2.08,33.76,2.9,34.36-17.33,1.06-35.74-3.81-71.5-13.2-106.26-5.88-21.75-27.58-21.8-40.95-12.08-8.41,7.42-22.89,15.91-30.17,16.51-13.59,1.12-11.06-11.48-10.89-12.83,1.6-13-23.56-21.62-39.34,5.93-1.61,2.8-30.28,39.88-30.46,40.41-3.78,3.64-31.25,17.74-30.27,18.82,6.66,7.33,11,17.5,15.67,21.08,7.4,5.7,12.43,2.59,26.32-6.34,5.2-3.34,9.17-6.51,8.37-5.87-.59.47-3.31,21,10.59,28.65,0,0,7.73,30.85-5,56.38-9.18,18.36,94,26.93,114.68,8.15,3.3-3-9.68-35.22-9.68-35.22"/><path class="cls-7" d="M272.91,80.65C279,84.5,288.5,88,309.58,87c1.57,2-1.28,38.18-1.14,38.24,11.67,5.47,45.83,1.93,46,.85,4.71-30-2-71.7-37.2-78.14C257,36.88,254,110.05,254,110.05c.9.07,10.41,1.49,11,1.27,1-.33,3.26-4.5,3.95-7.5C270.81,96,269,89,272.91,80.65Z"/><path class="cls-4" d="M272.91,80.65C279,84.5,288.5,88,309.58,87c1.57,2-1.28,38.18-1.14,38.24,11.67,5.47,45.83,1.93,46,.85,4.71-30-2-71.7-37.2-78.14C257,36.88,254,110.05,254,110.05c.9.07,10.41,1.49,11,1.27,1-.33,3.26-4.5,3.95-7.5C270.81,96,269,89,272.91,80.65Z"/><path class="cls-4" d="M274.72,81.71c-.38-.57-2.8-1.59-3.87-2.4-.2-.15-2.11-1.59-2.15-1.6,3.45-7.89,5.69-10.1,12.88-14.81l.33-.09"/><path class="cls-4" d="M310,90.31c.41-2-.91-12.32-1.53-14.75"/><path class="cls-4" d="M320.32,119c0-7.72-.16-15.54-.16-23.19"/><path class="cls-4" d="M337.66,128c.22-5.93.17-10.76.17-16.66"/><path class="cls-4" d="M347.06,127.33A90,90,0,0,0,348.12,115"/><path class="cls-4" d="M337.83,101.83c0-4-1.43-9.19-1.38-11.68"/><path class="cls-4" d="M347.51,109.51c0-2.79-.31-5.83-.31-8.15"/><path class="cls-4" d="M260.49,110.94c0-2.25.42-7.56,1.39-9.42"/><path class="cls-8" d="M366.76,203.63c-12.18-4.63-16.95,10.88-10.68,19.24,3.95,5.26,16.48,5.89,14.29,1.48-.86-1.72-1.87-18.95-4.24-20.34C365.77,203.8,366.52,203.54,366.76,203.63Z"/><path class="cls-9" d="M366.76,203.63c-12.18-4.63-16.95,10.88-10.68,19.24,3.95,5.26,16.48,5.89,14.29,1.48-.86-1.72-1.87-18.95-4.24-20.34C365.77,203.8,366.52,203.54,366.76,203.63Z"/><path class="cls-8" d="M341.24,263.59l-3.63-19c1.79-5.07,10.28-4.19,13.34.15,3.38,4.8,4.61,13.45-.3,17.88C348.22,264.84,344.1,263.59,341.24,263.59Z"/><path class="cls-9" d="M341.24,263.59l-3.63-19c1.79-5.07,10.28-4.19,13.34.15,3.38,4.8,4.61,13.45-.3,17.88C348.22,264.84,344.1,263.59,341.24,263.59Z"/><path class="cls-8" d="M360.14,314.57c-10.32-5.5.84-25.27,14.26-15.88,3.06,2.14-1.91,13.62-12.52,14.92A4,4,0,0,0,360.14,314.57Z"/><path class="cls-9" d="M360.14,314.57c-10.32-5.5.84-25.27,14.26-15.88,3.06,2.14-1.91,13.62-12.52,14.92A4,4,0,0,0,360.14,314.57Z"/><path class="cls-8" d="M342.22,274l-11-6.12c-6.43,3.45-5.86-1.37-10.6,10.11-2.41,5.86,9,17.26,19.29,11.78C345.48,286.82,345.86,277.36,342.22,274Z"/><path class="cls-9" d="M342.22,274l-11-6.12c-6.43,3.45-5.86-1.37-10.6,10.11-2.41,5.86,9,17.26,19.29,11.78C345.48,286.82,345.86,277.36,342.22,274Z"/><path class="cls-8" d="M308.58,209.18c-.63-4.08,24.2-15,19.12,8.38C325.35,228.4,300.14,227.64,308.58,209.18Z"/><path class="cls-9" d="M308.58,209.18c-.63-4.08,24.2-15,19.12,8.38C325.35,228.4,300.14,227.64,308.58,209.18Z"/><path class="cls-8" d="M277.83,237.73c-.94-15,20.86-13.75,15,6.4-.75,2.61-2.7.8-5.53-.84s-5.1-4.62-8.68-4.89C278.12,238.36,277.86,238.12,277.83,237.73Z"/><path class="cls-9" d="M277.83,237.73c-.94-15,20.86-13.75,15,6.4-.75,2.61-2.7.8-5.53-.84s-5.1-4.62-8.68-4.89C278.12,238.36,277.86,238.12,277.83,237.73Z"/><path class="cls-8" d="M315.75,258.86c4.38-9.19,13.68-6.23,18,.63.93,1.49,4.87,12.27-.44,9.07C330.34,266.78,319.12,260.24,315.75,258.86Z"/><path class="cls-9" d="M315.75,258.86c4.38-9.19,13.68-6.23,18,.63.93,1.49,4.87,12.27-.44,9.07C330.34,266.78,319.12,260.24,315.75,258.86Z"/><path class="cls-8" d="M327.16,177.85c14.62,13.18,25.09-4.31,17.52-4.31C333.1,173.54,337.26,172.45,327.16,177.85Z"/><path class="cls-9" d="M327.16,177.85c14.62,13.18,25.09-4.31,17.52-4.31C333.1,173.54,337.26,172.45,327.16,177.85Z"/><path class="cls-8" d="M276.32,174.62c-7.9-.4-12.22,21.52,5.68,16.13.1,0,.29-12.69-1.23-13.21C280.49,177.44,276.6,174.63,276.32,174.62Z"/><path class="cls-9" d="M276.32,174.62c-7.9-.4-12.22,21.52,5.68,16.13.1,0,.29-12.69-1.23-13.21C280.49,177.44,276.6,174.63,276.32,174.62Z"/><path class="cls-8" d="M259,210.72c13.4-14.7,13.15,14.63.28,12C252.24,221.3,256.69,213,259,210.72Z"/><path class="cls-9" d="M259,210.72c13.4-14.7,13.15,14.63.28,12C252.24,221.3,256.69,213,259,210.72Z"/><path class="cls-8" d="M244.8,200.25c-3.32,3.32-16.21,4.76-10.73-.28,1.59-1.47,6.48-9.47,8.91-12.12C243.65,186.77,251.71,193.34,244.8,200.25Z"/><path class="cls-9" d="M244.8,200.25c-3.32,3.32-16.21,4.76-10.73-.28,1.59-1.47,6.48-9.47,8.91-12.12C243.65,186.77,251.71,193.34,244.8,200.25Z"/><path class="cls-8" d="M231.77,238.28c-7.3-11.21,17.29-14.43,14.57-9.81-4.1,7-.1,8-8,8.95C236.47,237.66,231.89,238.46,231.77,238.28Z"/><path class="cls-9" d="M231.77,238.28c-7.3-11.21,17.29-14.43,14.57-9.81-4.1,7-.1,8-8,8.95C236.47,237.66,231.89,238.46,231.77,238.28Z"/><path class="cls-8" d="M193.71,248.59c6.62-.65,9.28-1.77,12.48-6.76,1.54-2.39,2.17-11.07-6.83-4.38-1.35,1-10.87,5.44-9.53,6.22S194.71,248.49,193.71,248.59Z"/><path class="cls-9" d="M193.71,248.59c6.62-.65,9.28-1.77,12.48-6.76,1.54-2.39,2.17-11.07-6.83-4.38-1.35,1-10.87,5.44-9.53,6.22S194.71,248.49,193.71,248.59Z"/><path class="cls-8" d="M278,260.22c4.31.87,11.31,1.15,12.36,8.23.85,5.71-4.44,10.63-6.46,9.11a68.26,68.26,0,0,1-5.44-4.91c-6-6.29-11.5-3.85-5-7.63C274.59,264.33,279.16,260.46,278,260.22Z"/><path class="cls-9" d="M278,260.22c4.31.87,11.31,1.15,12.36,8.23.85,5.71-4.44,10.63-6.46,9.11a68.26,68.26,0,0,1-5.44-4.91c-6-6.29-11.5-3.85-5-7.63C274.59,264.33,279.16,260.46,278,260.22Z"/><path class="cls-8" d="M330.71,308.13c-2.78.39-6.23,8.91-.59,13.85,7.75,6.77,20.27,9.27,13.56-1.86-5.74-9.51,3.85-3.31-11.68-11C331.66,308.94,330.85,308.11,330.71,308.13Z"/><path class="cls-9" d="M330.71,308.13c-2.78.39-6.23,8.91-.59,13.85,7.75,6.77,20.27,9.27,13.56-1.86-5.74-9.51,3.85-3.31-11.68-11C331.66,308.94,330.85,308.11,330.71,308.13Z"/><path class="cls-8" d="M306.73,342.83c-.82-8.2,4.47-14.58,12.29-11.67,9.18,3.4,4.54,24.86-6.52,19C307.67,347.61,306.85,344.06,306.73,342.83Z"/><path class="cls-9" d="M306.73,342.83c-.82-8.2,4.47-14.58,12.29-11.67,9.18,3.4,4.54,24.86-6.52,19C307.67,347.61,306.85,344.06,306.73,342.83Z"/><path class="cls-8" d="M291.19,307.26c3.48-5.21,8-10.22,15.21-5.87,1.58-.55,3.52,7.3,2,11.48C305.45,321.31,286,321.3,291.19,307.26Z"/><path class="cls-9" d="M291.19,307.26c3.48-5.21,8-10.22,15.21-5.87,1.58-.55,3.52,7.3,2,11.48C305.45,321.31,286,321.3,291.19,307.26Z"/><path class="cls-8" d="M273.78,358.24c-5-3.48-.43-9.7,4.87-10.78,9.83-2,12.78,11.34,9.22,11.34C286.41,358.8,274.4,358.68,273.78,358.24Z"/><path class="cls-9" d="M273.78,358.24c-5-3.48-.43-9.7,4.87-10.78,9.83-2,12.78,11.34,9.22,11.34C286.41,358.8,274.4,358.68,273.78,358.24Z"/><path class="cls-8" d="M259.42,329.92c2.54-13.47,18.08-12.45,17.08,1.21C275.67,342.35,257.38,340.77,259.42,329.92Z"/><path class="cls-9" d="M259.42,329.92c2.54-13.47,18.08-12.45,17.08,1.21C275.67,342.35,257.38,340.77,259.42,329.92Z"/><path class="cls-8" d="M241.69,349.8c5.27-3.51,7-9,5.29-15.24-.3-1.1-6.27-5.61-5.84-.33.31,3.8-8.11,8,.69,14C242.42,348.68,242.77,349.08,241.69,349.8Z"/><path class="cls-9" d="M241.69,349.8c5.27-3.51,7-9,5.29-15.24-.3-1.1-6.27-5.61-5.84-.33.31,3.8-8.11,8,.69,14C242.42,348.68,242.77,349.08,241.69,349.8Z"/><path class="cls-8" d="M255.27,279.85c2-8.32,17.49-5.24,17.21,3.68-.09,2.81.66,3.62-1.16,3.4C267.14,286.44,258,280.47,255.27,279.85Z"/><path class="cls-9" d="M255.27,279.85c2-8.32,17.49-5.24,17.21,3.68-.09,2.81.66,3.62-1.16,3.4C267.14,286.44,258,280.47,255.27,279.85Z"/><path class="cls-4" d="M343.68,314.36c-15.8-5.88-31.31-18.88-45.3-26.84-9.88-5.62-19.1-14.09-28.83-20.25"/><path class="cls-4" d="M349.91,279.69a134.37,134.37,0,0,0-18.68-11.8c-11.56-6.27-35.72-18.35-45.86-26.14-.51,8.78-14.54,25.86-16.28,24.75"/><path class="cls-4" d="M342.3,274.24c-2.41-16.61-7.25-34.7-9.86-49.65"/><path class="cls-4" d="M339.35,221.45a30.27,30.27,0,0,1-11.52,2.83"/><path class="cls-4" d="M231.4,260c.11-11.76,14.11-20.32,18.48-43.93-2.4-.76-3.3.24-4.55-1.14"/><path class="cls-4" d="M353,349.06c4.83,13.11,5.06,24.49,6.48,40.1"/><path class="cls-4" d="M236.49,343.47c-2.09,6.69-12.77,38.1-12.21,46.45"/><path class="cls-4" d="M314.91,190.63c-9.07,5.53-23.66,14.25-34.77,9.72-1.48-.61-2.88-3.67-3.17-5.11"/><path class="cls-4" d="M215.52,233.67c.06,1,2.69,2.06,3.55,2.8,1.52,1.29,4.4,3.36,5.59,4.9"/><path class="cls-8" d="M287.29,293.3l-100.3-40c-3.73-1.49-10.21-.53-14.41,2.12L116,291.29c-4.19,2.66-4.57,6-.83,7.54l100.29,40c3.74,1.49,10.22.53,14.41-2.13l56.56-35.83C290.65,298.18,291,294.79,287.29,293.3Z"/><path class="cls-4" d="M287.29,293.3l-100.3-40c-3.73-1.49-10.21-.53-14.41,2.12L116,291.29c-4.19,2.66-4.57,6-.83,7.54l100.29,40c3.74,1.49,10.22.53,14.41-2.13l56.56-35.83C290.65,298.18,291,294.79,287.29,293.3Z"/><path class="cls-8" d="M87.6,203.15l99.94,39.79c3.74,1.49,7.52,6.74,9,11.49l23.34,72.81c1.52,4.74-.83,7.56-4.57,6.06l-99.94-39.79c-3.75-1.49-7.52-6.74-9-11.49L83,209.22C81.51,204.47,83.86,201.66,87.6,203.15Z"/><path class="cls-4" d="M87.6,203.15l99.94,39.79c3.74,1.49,7.52,6.74,9,11.49l23.34,72.81c1.52,4.74-.83,7.56-4.57,6.06l-99.94-39.79c-3.75-1.49-7.52-6.74-9-11.49L83,209.22C81.51,204.47,83.86,201.66,87.6,203.15Z"/><path class="cls-3" d="M251.27,237.61c-1-.43-9.6.78-11.92.78-1.89,0-14.32-1-14.32,2.17,0,3.5,9.64,3.83,12.16,3.83,4.65,0,5.33-1.7,9.19-3.39A54.12,54.12,0,0,0,251.27,237.61Z"/><path class="cls-4" d="M251.27,237.61c-1-.43-9.6.78-11.92.78-1.89,0-14.32-1-14.32,2.17,0,3.5,9.64,3.83,12.16,3.83,4.65,0,5.33-1.7,9.19-3.39A54.12,54.12,0,0,0,251.27,237.61Z"/><path class="cls-3" d="M285.66,241.8c-7.68-4.85-17.23-8.72-31.85-5.45-5.3,1.19-16.28,5.24-23.44,8.57-4,1.84-4.39,3.23-6.54,7-3.18,5.47-6.26,9.78-9.69,15-3,4.51-4.53,8.65,2.89,6.41,2.58-.78,4.89-4.52,6.07-6.54,1.44-2.46,1.35-2.5,0,6.66-1.07,7,5.91,6.27,6.58,1,.29-2.28,1.77-8.31,1.7-5.67-.08,3.25,4,6.33,8.43,4.31,1.34-.61,3-.52,4.6-.81,7.13-1.32,13.05-3.46,11.29-8.37-1-2.9-10.2,2.07-1.61-1.57,5.86-2.49,8.22,2.11,17.92,2.11C280.61,259.06,285.41,245.56,285.66,241.8Z"/><path class="cls-4" d="M285.66,241.8c-7.68-4.85-17.23-8.72-31.85-5.45-5.3,1.19-16.28,5.24-23.44,8.57-4,1.84-4.39,3.23-6.54,7-3.18,5.47-6.26,9.78-9.69,15-3,4.51-4.53,8.65,2.89,6.41,2.58-.78,4.89-4.52,6.07-6.54,1.44-2.46,1.35-2.5,0,6.66-1.07,7,5.91,6.27,6.58,1,.29-2.28,1.77-8.31,1.7-5.67-.08,3.25,4,6.33,8.43,4.31,1.34-.61,3-.52,4.6-.81,7.13-1.32,13.05-3.46,11.29-8.37-1-2.9-10.2,2.07-1.61-1.57,5.86-2.49,8.22,2.11,17.92,2.11C280.61,259.06,285.41,245.56,285.66,241.8Z"/><path class="cls-4" d="M223.37,266.64c2.33-2.29,2.8-9.07,7.33-11.88"/><path class="cls-4" d="M231,268.92c.38-3.93,1-7.23,4.5-9.66"/><path class="cls-4" d="M254,263c-3.9.48-6.08,1.48-7.38,1.48"/><path class="cls-4" d="M245.61,271.87c-3.57.3-5.31.62-6.65-2.72a6.81,6.81,0,0,1,.23-4.68"/><path class="cls-5" d="M206.54,284.22l11.69,36.48c1.65-.2,23.29-13.54,28.2-16.26,5.27-2.92,3.63-5.16.46-6.26Z"/><path class="cls-4" d="M206.54,284.22l11.69,36.48c1.65-.2,23.29-13.54,28.2-16.26,5.27-2.92,3.63-5.16.46-6.26Z"/><path class="cls-4" d="M218,333.63c3.93.2,6.38-.25,9.75-2.34l55.42-34.4"/><path class="cls-4" d="M238.24,280.09c-.06,0-6.67,4.1-6.73,4.12-3.38,1.32-5,.65-7.09.08l-11.79-4.21"/><path class="cls-3" d="M95.15,248.52C87.06,251,93,258.67,93,265c0,3.66.22,3.69,2.21,6.79,1.06,1.65-1.84,4.06,3.41,7.9,2,1.44-3.44,3.05,3.41,7.62,2.42,1.61,0,5.08,9.32,7.49,1.31.34,17.73,1.73,18.44.05,1.54-3.66-3.88-4.51-6.69-4.73-3.55-.27-6.37-1-5.77-1.11s8.19-.17,10.28-.4c5-.57,4.55-5.55-.34-5.7l-12.44-.7c1.59.09,8.84-2.08,13.35-3.05a2.44,2.44,0,0,0,.21-4.81c-4.55-.51-17.22.77-18,.77.65-.11,5.25-1.16,9.06-2,3.3-.75,7.94-1.87,8-2.85.4-6.69-12.12-3-13-3-6,.31-11.75-.47-12.8-1.45C101.09,265.24,95.68,248.35,95.15,248.52Z"/><path class="cls-4" d="M95.15,248.52C87.06,251,93,258.67,93,265c0,3.66.22,3.69,2.21,6.79,1.06,1.65-1.84,4.06,3.41,7.9,2,1.44-3.44,3.05,3.41,7.62,2.42,1.61,0,5.08,9.32,7.49,1.31.34,17.73,1.73,18.44.05,1.54-3.66-3.88-4.51-6.69-4.73-3.55-.27-6.37-1-5.77-1.11s8.19-.17,10.28-.4c5-.57,4.55-5.55-.34-5.7l-12.44-.7c1.59.09,8.84-2.08,13.35-3.05a2.44,2.44,0,0,0,.21-4.81c-4.55-.51-17.22.77-18,.77.65-.11,5.25-1.16,9.06-2,3.3-.75,7.94-1.87,8-2.85.4-6.69-12.12-3-13-3-6,.31-11.75-.47-12.8-1.45C101.09,265.24,95.68,248.35,95.15,248.52Z"/><path class="cls-4" d="M111.47,274.86a26,26,0,0,1-7.48-.09l-.35,0"/><path class="cls-4" d="M117.41,282.14c-2,.09-8.76-.19-11.13-.82"/><path class="cls-4" d="M121.36,289.33A98.94,98.94,0,0,1,111.05,288"/><path class="cls-4" d="M103.56,266.44c-1.3.58-5.09-1.86-6.13-3"/><path class="cls-4" d="M241.42,330.59a64.17,64.17,0,0,1-4.13,10.6c-9.18,18.36,94,26.93,114.68,8.15,3.3-3-9.68-35.22-9.68-35.22,11.09,2.08,33.76,2.9,34.36-17.33,1.06-35.74-3.81-71.5-13.2-106.26-5.88-21.75-27.58-21.8-40.95-12.08-8.41,7.42-22.89,15.91-30.17,16.51-13.59,1.12-11.06-11.48-10.89-12.83,1.6-13-23.56-21.62-39.34,5.93-1.61,2.8-30.28,39.88-30.46,40.41-2.6,2.5-16.16,9.69-24.2,14.45"/><path class="cls-4" d="M283.64,403.22c0-6.93-.23-8,1.35-15"/><path class="cls-10" d="M142.41,274.11c.18-.76-4.4-14.54-3.45-14.32.23,0,12.14,4.81,12.51,5.1.08,1.17,4.24,14.74,3.85,14.71C154.22,279.52,142.39,274.23,142.41,274.11Z"/><path class="cls-11" d="M142.41,274.11c.18-.76-4.4-14.54-3.45-14.32.23,0,12.14,4.81,12.51,5.1.08,1.17,4.24,14.74,3.85,14.71C154.22,279.52,142.39,274.23,142.41,274.11Z"/><path class="cls-12" d="M169.28,229.33c25.9-22.79,3.77-82.8-18.06-70.2-18,10.4-9.06,36.72,34.34,34.51,52.89-2.7,73-100.86-16.27-98"/><rect class="cls-13" x="77.06" y="76" width="90.38" height="63.96" rx="8.09" ry="8.09" transform="translate(-18.24 25.11) rotate(-10.92)"/><rect class="cls-4" x="77.06" y="76" width="90.38" height="63.96" rx="8.09" ry="8.09" transform="translate(-18.24 25.11) rotate(-10.92)"/><path class="cls-4" d="M74.61,99.57l42.5,22c4,2.61,10.33,2.35,14.57-3.14L163.4,82.73"/><line class="cls-4" x1="96.94" y1="111.15" x2="81.4" y2="130.98"/><line class="cls-4" x1="147.62" y1="101.37" x2="169.43" y2="114"/><path class="cls-14" d="M160.11,52.18a17.17,17.17,0,1,1-13.4,20.26A17.17,17.17,0,0,1,160.11,52.18Z"/><path class="cls-15" d="M160.11,52.18a17.17,17.17,0,1,1-13.4,20.26A17.17,17.17,0,0,1,160.11,52.18Z"/><polyline class="cls-11" points="157.41 66.26 162.18 59.04 165.97 77.61"/><path class="cls-4" d="M287.33,134.34c-2.53-7.36-6.5,5.1-.9,5.1"/></svg>
