<svg id="Layer_1" data-name="Layer 1" xmlns="http://www.w3.org/2000/svg" viewBox="0 0 450 450"><defs><style>.cls-1{fill:#dbb569;}.cls-1,.cls-10,.cls-12,.cls-15,.cls-16,.cls-17,.cls-3,.cls-4,.cls-5,.cls-6,.cls-7,.cls-8,.cls-9{fill-rule:evenodd;}.cls-11,.cls-13,.cls-14,.cls-2{fill:none;stroke-linecap:round;stroke-linejoin:round;}.cls-11,.cls-13,.cls-2{stroke:#000;}.cls-14,.cls-2{stroke-width:2.83px;}.cls-3{fill:#606062;}.cls-5{fill:#96989a;}.cls-6{fill:#fefefe;}.cls-7{fill:#f66;}.cls-8{fill:#366;}.cls-9{fill:#69f;}.cls-10{fill:#f7b6c8;}.cls-11{stroke-width:3.4px;}.cls-12{fill:#faead0;}.cls-13{stroke-width:3.68px;}.cls-14{stroke:#fefefe;}.cls-15{fill:#e5e5ff;}.cls-16{fill:#fc0;}.cls-17{fill:#ccf;}</style></defs><title>Thech Peeps_Learning</title><path class="cls-1" d="M163.77,243.4c10.44-3.62,41-19.32,56.43-20.18,4.21-.23,10.77.08,11.68,1.82,1.93,3.7-5.38,17.13-3.29,39.79.27,2.91,1.41,16.51,1.33,18.28L149,319c-6.35,2.85-9.4,2.21-18.16,1.18-17.78-2.09-65.41-7.22-83.19-9.32-4.49-.67-3.34-7.19-2.77-11.48a22.57,22.57,0,0,0,.23-2.25c.3-9.45,17.12-11.43,27.09-14.61,6.7-2.15,7.94-7.49,15.17-9.78,24.3-7.69,50.68-20.39,76.39-29.3"/><path class="cls-2" d="M90.66,307c17.78,2.1,21.9,2.52,39.68,4.61,8.75,1,11.81,1.67,18.16-1.18L227.41,275"/><path class="cls-2" d="M82.73,314.5l48.12,5.64c8.76,1,11.81,1.67,18.16-1.18l80.89-35.84"/><path class="cls-3" d="M165.26,182.81c-4.09,4.31-35.76,55.9-47.15,71.95C106,271.86,111.28,271,127.57,273c2,.24,62.46,8,63.23,7.62,3-1.35,22.3-8.23,24.39-9.54,1.57-1,3.51-.8-15.61-3.18-12.7-1.59-52.66-6.77-53-6.83-2.76-.65-5.68-1.74.29-10,6.55-9.06,22.79-35.9,22.76-36.41C169.36,210.24,166.18,184,165.26,182.81Z"/><path class="cls-2" d="M165.26,182.81c-4.09,4.31-35.76,55.9-47.15,71.95C106,271.86,111.28,271,127.57,273c2,.24,62.46,8,63.23,7.62,3-1.35,22.3-8.23,24.39-9.54,1.57-1,3.51-.8-15.61-3.18-12.7-1.59-52.66-6.77-53-6.83-2.76-.65-5.68-1.74.29-10,6.55-9.06,22.79-35.9,22.76-36.41C169.36,210.24,166.18,184,165.26,182.81Z"/><path class="cls-4" d="M167.08,176.93c4.66,3.32,2,14.25-4.89,14.24-1.53,0-4.33-2.64-4.94-4.55s-.65-5.57,1-7Z"/><path class="cls-2" d="M167.08,176.93c4.66,3.32,2,14.25-4.89,14.24-1.53,0-4.33-2.64-4.94-4.55s-.65-5.57,1-7Z"/><path class="cls-5" d="M159.48,179.2c2.63.32,4.74,3.24,4.72,6.52s-2.17,5.69-4.8,5.37-4.74-3.25-4.72-6.53S156.85,178.87,159.48,179.2Z"/><path class="cls-2" d="M159.48,179.2c2.63.32,4.74,3.24,4.72,6.52s-2.17,5.69-4.8,5.37-4.74-3.25-4.72-6.53S156.85,178.87,159.48,179.2Z"/><path class="cls-3" d="M163.81,108.47l24.24-7.22c2.59-.77,7-1.85,9.28-1.36,2.43.53,5.22.28,5.46,3.12l10.59,128.37a13.6,13.6,0,0,1-8.72,13.47l-21.72,8c-1.91.7,1.35,3.88-.38,3.53-2.76-.58-9.46-.67-9.9-4.39L157,120C156.32,114.22,158.33,110.1,163.81,108.47Z"/><path class="cls-2" d="M163.81,108.47l24.24-7.22c2.59-.77,7-1.85,9.28-1.36,2.43.53,5.22.28,5.46,3.12l10.59,128.37a13.6,13.6,0,0,1-8.72,13.47l-21.72,8c-1.91.7,1.35,3.88-.38,3.53-2.76-.58-9.46-.67-9.9-4.39L157,120C156.32,114.22,158.33,110.1,163.81,108.47Z"/><path class="cls-6" d="M168.79,109.56,197.92,101a5.74,5.74,0,0,1,7.53,5.06l15.76,132.73a8.64,8.64,0,0,1-5.86,9l-29.13,8.58a5.76,5.76,0,0,1-7.53-5.06L162.93,118.56A8.64,8.64,0,0,1,168.79,109.56Z"/><path class="cls-2" d="M168.79,109.56,197.92,101a5.74,5.74,0,0,1,7.53,5.06l15.76,132.73a8.64,8.64,0,0,1-5.86,9l-29.13,8.58a5.76,5.76,0,0,1-7.53-5.06L162.93,118.56A8.64,8.64,0,0,1,168.79,109.56Z"/><line class="cls-2" x1="142.87" y1="259.82" x2="117.94" y2="267.95"/><path class="cls-7" d="M181.55,160.74l18.59-6.27a2.94,2.94,0,0,1,4,2.58l2.53,20.67a4.84,4.84,0,0,1-3.07,5L185,189a3,3,0,0,1-4-2.58l-2.53-20.67A4.83,4.83,0,0,1,181.55,160.74Z"/><path class="cls-2" d="M181.55,160.74l18.59-6.27a2.94,2.94,0,0,1,4,2.58l2.53,20.67a4.84,4.84,0,0,1-3.07,5L185,189a3,3,0,0,1-4-2.58l-2.53-20.67A4.83,4.83,0,0,1,181.55,160.74Z"/><polygon class="cls-6" points="196.41 169.94 193.55 173.87 190.68 177.79 190.01 172 189.35 166.21 192.88 168.07 196.41 169.94"/><path class="cls-4" d="M246.43,400.6l70.95-36.12L363,385.82c6.37,4.37,14.43,9.43,10,17.21-.38.67-7.83,4.37-8.55,4.32l-50.82,24.1c-10,4.18-21.93-1-30.15-6.7C278.1,421,247.06,403,246.43,400.6Z"/><path class="cls-2" d="M246.43,400.6l70.95-36.12L363,385.82c6.37,4.37,14.43,9.43,10,17.21-.38.67-7.83,4.37-8.55,4.32l-50.82,24.1c-10,4.18-21.93-1-30.15-6.7C278.1,421,247.06,403,246.43,400.6Z"/><path class="cls-4" d="M383.3,246.89c.66,0,8.19,3.47,12.18,5.14,6,2.5,11.24,6.32,7.56,16.34-5,13.71-9.68,38.29-13.77,52.78-3,10.65-8.38,9.59-13.2,7.77-3.35-1.27-6.87-2.71-6.78-3.05C378.53,291,381.9,246.92,383.3,246.89Z"/><path class="cls-2" d="M383.3,246.89c.66,0,8.19,3.47,12.18,5.14,6,2.5,11.24,6.32,7.56,16.34-5,13.71-9.68,38.29-13.77,52.78-3,10.65-8.38,9.59-13.2,7.77-3.35-1.27-6.87-2.71-6.78-3.05C378.53,291,381.9,246.92,383.3,246.89Z"/><line class="cls-2" x1="381.97" y1="304.56" x2="358.81" y2="391.34"/><path class="cls-4" d="M181.37,315.45c-13,6.77-13,4.66.17,13,10.23,6.49,15.5,6.5,26.25,2.53,6.81-2.51,37.49-16.37,44.62-19.21,8.65-3.43,26.5-7.76,13.43-15.91-4.11-2.57-11.69-9.3-18-6.62Z"/><path class="cls-2" d="M181.37,315.45c-13,6.77-13,4.66.17,13,10.23,6.49,15.5,6.5,26.25,2.53,6.81-2.51,37.49-16.37,44.62-19.21,8.65-3.43,26.5-7.76,13.43-15.91-4.11-2.57-11.69-9.3-18-6.62Z"/><path class="cls-2" d="M185.63,327.78c3.14-2.61-2.38,2.24-4.12,6.92-.71,1.89-4.33,11.22-3.42,12.62"/><path class="cls-8" d="M385.16,221.2c-.16-12.79-15.61-24.1-26-28.61-6-2.63-1.95-3.89-18.29-6.9-19.1-3.53-45.14-5.66-63.8.12-12.83,4-6.2-9.35-12.91-8.16-1,.18-17.24,1.87-17.3,2-4.71,7.55-5,25.09-7.08,37.74-2,12.13-6.78,53.92,1.28,63.48,8.57,10.15,21.9-.48,17.19,7.28-1.52,2.5-1.8,13.8-3.79,12.91-1-.45-2.89,3.71-1.92,6.72.1.3-2.5.77-3.41,2.78-.82,1.8,0,5.15.3,5.64,4.38,7.28,52,42.23,60.3,46.12,9.07,4.27,17.57,8.28,21.69,18.08,2.52,6,25-8.83,23-10.89,9.61-26.53,21-67.25,23-82.65,1.26-9.83,8.15-48.13,7.77-65.62"/><path class="cls-9" d="M125.11,402c-11.09,9.93-9.31,11.29,2.39,18.71,4.89,3.09,46.21,6.64,52.2-.37,1.51-1.77,9.72-8.56,8.66-5.8-3.92,10.17,3.87,11.19,11.39,11.19,18.81,0,31.89,3,54.75,3.81,3.45.13,22.72-2,22.52-6.77-.08-1.83-3.81-8.26-2.62-9.33,1.57-1.41,8.42,2.91,10.88,4,14.54,6.58,52.4-1.17,50.44-25.15-.41-5.12-5.84-13.87-10.1-17.5-1.23-1.06-2-5.12-4.37-6-16.11-16-48.69-41.83-71.84-52.66-24-11.23-36.41-2.32-48.74,7.32-1.54,1.2-8.29,5.84-10.38,7.94-17.87,17.88-55.78,57.33-65.18,70.59"/><path class="cls-10" d="M203.89,160.6c-2.42,1.47-4,4.7.83,4.7,4.36,0,9.93-5.49,9.7-5.55-3-.85-8.15.94-10.37.86Z"/><path class="cls-2" d="M203.89,160.6c-2.42,1.47-4,4.7.83,4.7,4.36,0,9.93-5.49,9.7-5.55-3-.85-8.15.94-10.37.86Z"/><path class="cls-10" d="M213.37,162.28c-.91,2.68,0,6.15,3.66,3.05,3.33-2.79,4.09-10.58,3.86-10.48-2.82,1.26-5.64,6-7.39,7.33Z"/><path class="cls-2" d="M213.37,162.28c-.91,2.68,0,6.15,3.66,3.05,3.33-2.79,4.09-10.58,3.86-10.48-2.82,1.26-5.64,6-7.39,7.33Z"/><path class="cls-10" d="M222.42,160.47c3,.07,2.57.73,3.91,3.76,1,2.34,5.31,2.14,8.21,3.11,4.3,1.43,10.83,3.39,11.06,3.82,1,2,.39,3.84.7,5.28.37,1.71.81,3,6.53,3.09,6.07.11,11.14-3.64,11.16-3.64.26-4.77,1.24-18.35-3.28-23.28s-11.44-6.89-21.25-6.8c-4.68,0-11-.08-16.36.45a46.79,46.79,0,0,0-4.87,1.22c-4.52,1-7.12,3.38-11.54,5.17-1.55.63-13.5,2.62-13.55,2.69-1.89,3.27,1.22,6,5.57,5.65,3.22-.23,8.07-.5,10.3-1.17C209.58,159.65,221,160.23,222.42,160.47Z"/><path class="cls-2" d="M222.42,160.47c3,.07,2.57.73,3.91,3.76,1,2.34,5.31,2.14,8.21,3.11,4.3,1.43,10.83,3.39,11.06,3.82,1,2,.39,3.84.7,5.28.37,1.71.81,3,6.53,3.09,6.07.11,11.14-3.64,11.16-3.64.26-4.77,1.24-18.35-3.28-23.28s-11.44-6.89-21.25-6.8c-4.68,0-11-.08-16.36.45a46.79,46.79,0,0,0-4.87,1.22c-4.52,1-7.12,3.38-11.54,5.17-1.55.63-13.5,2.62-13.55,2.69-1.89,3.27,1.22,6,5.57,5.65,3.22-.23,8.07-.5,10.3-1.17C209.58,159.65,221,160.23,222.42,160.47Z"/><path class="cls-2" d="M225.76,162.31c.51-7.26,14.14-2.08,21-4.95"/><path class="cls-2" d="M206.69,152.65c3.61.61,9.89-.8,10.82-.57"/><path class="cls-10" d="M315.44,187.6c.73-5.43,1.3-18.56,1.21-20.21,0,0-22.43,4.43-28.54-14.13-1.05-3.19-1.93-4.26-2-7.13-.57-1.24-.24-.78-1.88-1.15-1.89-.44-1.71-2.82-.76-3.71,3.8-3.52-.76-7.66,1.93-9,1.86-.89,2.42,1.46,3.09.14,1.51-4.87,3.19-7.37,2.71-7.88-3.83-4.06-2.95-8-.58-9.4,1.78-1.08,5.09.37,5-1.74C294.14,84.93,312.57,67,338,72.94,355.22,77,362,94.1,362,107.11c0,26.72-9.86,52.67-11,80.82C350.79,194.4,314.86,191.93,315.44,187.6Z"/><path class="cls-2" d="M315.44,187.6c.73-5.43,1.3-18.56,1.21-20.21,0,0-22.43,4.43-28.54-14.13-1.05-3.19-1.93-4.26-2-7.13-.57-1.24-.24-.78-1.88-1.15-1.89-.44-1.71-2.82-.76-3.71,3.8-3.52-.76-7.66,1.93-9,1.86-.89,2.42,1.46,3.09.14,1.51-4.87,3.19-7.37,2.71-7.88-3.83-4.06-2.95-8-.58-9.4,1.78-1.08,5.09.37,5-1.74C294.14,84.93,312.57,67,338,72.94,355.22,77,362,94.1,362,107.11c0,26.72-9.86,52.67-11,80.82C350.79,194.4,314.86,191.93,315.44,187.6Z"/><path class="cls-2" d="M315.84,167.49c2.73-.43,8.83-3,11.88-4.88"/><path class="cls-11" d="M297.22,92.9c2.29,0,12.42,3.07,13.2,3.82"/><path class="cls-4" d="M301.91,112.22c.23.59.6.56.88-2.11.13-1.24.55-5.64,0-5.15S301.56,111.35,301.91,112.22Z"/><path class="cls-2" d="M301.91,112.22c.23.59.6.56.88-2.11.13-1.24.55-5.64,0-5.15S301.56,111.35,301.91,112.22Z"/><path class="cls-10" d="M334.44,121.07c-2.31-2.27-2.6-7.32-.31-9.72,4.17-4.25,12-3,12.87,3.58,1,7.75-9.23,10.09-12.56,6.14"/><path class="cls-2" d="M334.13,111.35c4.17-4.25,12-3,12.87,3.58,1,7.75-9.23,10.09-12.56,6.14"/><path class="cls-2" d="M339.36,113.5c-.5.79-1.37,3.78-.54,4.07"/><path class="cls-12" d="M323.92,86.05c-6.59-2.13-18.2-6.14-21.59-13.69-2.69-6,4.7-15.14,14.23-9.06.23.15,1.31-4.4,6.3-6,4.29-1.4,10.71.9,11.55,4.82.47,0,7.78-5.74,12.9-.88,1.53,1.45,2.92,4.48,3.3,4.8.17.14,6.11-1.61,9,.31,4.76,3.11,3.81,7.17,4.17,7.19,11,.58,7,10.83,7.67,11.55,7.56,8.33-3.31,13.18-2.64,14,6.66,7.87-3.13,11.85-3,12.9,1.32,10.31-12,14.71-18.69.65-2.48-5.27-12.22-7.49-16.15,3.71-.07.2-8.08-.59-7.78-1.51C324.75,110,325.38,86.52,323.92,86.05Z"/><path class="cls-2" d="M323.92,86.05c-6.59-2.13-18.2-6.14-21.59-13.69-2.69-6,4.7-15.14,14.23-9.06.23.15,1.31-4.4,6.3-6,4.29-1.4,10.71.9,11.55,4.82.47,0,7.78-5.74,12.9-.88,1.53,1.45,2.92,4.48,3.3,4.8.17.14,6.11-1.61,9,.31,4.76,3.11,3.81,7.17,4.17,7.19,11,.58,7,10.83,7.67,11.55,7.56,8.33-3.31,13.18-2.64,14,6.66,7.87-3.13,11.85-3,12.9,1.32,10.31-12,14.71-18.69.65-2.48-5.27-12.22-7.49-16.15,3.71-.07.2-8.08-.59-7.78-1.51C324.75,110,325.38,86.52,323.92,86.05Z"/><path class="cls-2" d="M352.62,281.58c-14,16.88-30.23,32-43.31,41.26-2.87,2-19.08,10.73-26,6.46-14.61-9-16.5-44.3-20.42-84.92-1.31-13.6-1.65-25.12-1.19-30.06.41-4.42-1.43,1.85,23-4.44m66.5-23.28c25.71,14.44,35.3,23,34,39.44"/><path class="cls-2" d="M291.22,206.63c3.75-.84,3.47,3.92,5.41,12.26,3.27,14.13,8.12,32.66,9.94,46.29"/><path class="cls-2" d="M385.16,221.2c.38,17.49-6.51,55.79-7.77,65.62-2,15.4-13.35,56.12-23,82.65"/><path class="cls-2" d="M249.14,315.39c-2.82-5.41,2.68-7.73,2.68-7.73-2-4.36,2.08-6.3,2.62-6.64,2-1.27,5.13-18.32,9.52-32.89"/><path class="cls-2" d="M316.05,181c-19.18.93-29.54,1.92-31.83,8.53"/><path class="cls-2" d="M305.71,262.05a455.49,455.49,0,0,1,31.83-34.82"/><path class="cls-2" d="M246.14,177.85c-5.53,24-16,91.44-3.51,105.78,2.36,2.73,8.2,3.86,15.2-.14"/><path class="cls-10" d="M291.13,206.31c-.55-3.79-2.7-19.93,0-22.42.35-.33,4.26-7.43,8.24-13.77,2.53-4,5.84-11.44,4.74-13.15-.93-1.46-3.21-1.18-4.63-.49-3,1.48-5.92,8.06-7.65,8.75s-2.37-1-.92-8.56c.82-.19-.11,7.56.4,7.24,7.14-4.39,3.52-10.48,2-12.09-2.27-2.44-7.12-3.72-9.56-.4-1.09,1.48-6.44-2.41-8.26,2.14-1.06,2.66-6.83-1.79-9.24,6.41-.79,2.67-6.62-3.86-6.62,14.13,0,5.42,2.88,23.09,3.33,38.07C263,214.64,288.48,212.23,291.13,206.31Z"/><path class="cls-2" d="M291.13,206.31c-.55-3.79-2.7-19.93,0-22.42.35-.33,4.26-7.43,8.24-13.77,2.53-4,5.84-11.44,4.74-13.15-.93-1.46-3.21-1.18-4.63-.49-3,1.48-5.92,8.06-7.65,8.75s-2.37-1-.92-8.56c.82-.19-.11,7.56.4,7.24,7.14-4.39,3.52-10.48,2-12.09-2.27-2.44-7.12-3.72-9.56-.4-1.09,1.48-6.44-2.41-8.26,2.14-1.06,2.66-6.83-1.79-9.24,6.41-.79,2.67-6.62-3.86-6.62,14.13,0,5.42,2.88,23.09,3.33,38.07C263,214.64,288.48,212.23,291.13,206.31Z"/><path class="cls-2" d="M283.76,151.42c-1,1.06-1.78,4.81-1.92,6.11"/><path class="cls-2" d="M275.5,153.56a17.61,17.61,0,0,0-2,7.43"/><path class="cls-2" d="M266.61,159.1c-.16,2-.51,3.9-.51,5.26"/><path class="cls-2" d="M365.94,113c-.27-.37-1.23-4.18-2.85-5.67"/><path class="cls-2" d="M370.11,100.55A10.57,10.57,0,0,0,365.16,96"/><path class="cls-2" d="M316.94,62.65c-.35,1.14-.8,3-.39,4.18"/><path class="cls-2" d="M335.23,61.76c-.21.29-3.39,1.66-4.32,4.76"/><path class="cls-2" d="M352.3,65.93a9.82,9.82,0,0,0-4.84,3"/><path class="cls-2" d="M323,85.76c3.61.82,7.44,1.48,13-1"/><path class="cls-2" d="M335.11,99.63c.41,4.7,1.41,7.61,6.54,8.76l.16,0"/><path class="cls-2" d="M328.92,234.72a24.37,24.37,0,0,1,4.3-9.67"/><path class="cls-2" d="M321.25,368.82c-16.11-16-48.69-41.83-71.84-52.66-24-11.23-36.41-2.32-48.74,7.32-1.54,1.2-8.29,5.84-10.38,7.94-17.87,17.88-55.78,57.33-65.18,70.59"/><path class="cls-2" d="M195.61,414.53c15.88-37.22,28.24-54.33,52.72-46.62,15.71,5,25.9,49.08,30,61"/><path class="cls-2" d="M314.7,183.8c-1,1.62-6.13,7.72-5.34,9.18,3.61,6.65,27.13,6.6,33.91,5.26"/><path class="cls-2" d="M262.07,219.44c6.17,2.11,20.52.31,28.73-3.45.11-.05.68-.13.86-.18"/><path class="cls-2" d="M244.59,185.71c4.39.86,9.09,2.22,13.73,1.32"/><line class="cls-13" x1="341.65" y1="108.39" x2="289.74" y2="100.52"/><line class="cls-13" x1="341.65" y1="108.39" x2="289.74" y2="102.95"/><line class="cls-13" x1="289.92" y1="96.47" x2="289" y2="111.52"/><path class="cls-4" d="M303.58,369.36c-13,6.77-13,4.66.16,13,10.23,6.48,15.51,6.49,26.26,2.52,6.8-2.51,37.48-16.37,44.61-19.2,8.65-3.44,26.5-7.77,13.44-15.92-4.12-2.57-11.7-9.3-18-6.62Z"/><path class="cls-2" d="M303.58,369.36c-13,6.77-13,4.66.16,13,10.23,6.48,15.51,6.49,26.26,2.52,6.8-2.51,37.48-16.37,44.61-19.2,8.65-3.44,26.5-7.77,13.44-15.92-4.12-2.57-11.7-9.3-18-6.62Z"/><path class="cls-2" d="M306.84,432.64c2.25-20.14,4.4-49.5,14.55-52.11"/><path class="cls-2" d="M359.63,353.56c12.1-.55,14.23,11.5,14.4,24.43l3.78,52.07"/><path class="cls-2" d="M344.87,222.43c10.72-7.61,19.38-8.91,32.41-8.91"/><path class="cls-4" d="M261.63,197.13a25.48,25.48,0,0,0,4.6,1,48.08,48.08,0,0,0,7.2-.19c3.29-.27,7.12-.25,10.23-1.39,1.15-.42,6.39-2.63,6.43-2.63.56,0,.65,3.27.6,4.2-.08,1.58-2.29,1.91-3.15,2.43-4.52,2.72-21.05,4.65-25.32,2.18C261.09,202.08,260.86,197.05,261.63,197.13Z"/><path class="cls-2" d="M261.63,197.13a25.48,25.48,0,0,0,4.6,1,48.08,48.08,0,0,0,7.2-.19c3.29-.27,7.12-.25,10.23-1.39,1.15-.42,6.39-2.63,6.43-2.63.56,0,.65,3.27.6,4.2-.08,1.58-2.29,1.91-3.15,2.43-4.52,2.72-21.05,4.65-25.32,2.18C261.09,202.08,260.86,197.05,261.63,197.13Z"/><rect x="265.17" y="194.08" width="18.21" height="12.96" rx="3.9" ry="3.9" transform="translate(-15.41 22.99) rotate(-4.67)"/><rect class="cls-2" x="265.17" y="194.08" width="18.21" height="12.96" rx="3.9" ry="3.9" transform="translate(-15.41 22.99) rotate(-4.67)"/><path class="cls-14" d="M280.61,198.56l.43,3.77c.06.67-.31,1.93-1.37,2"/><path class="cls-2" d="M254.07,406.32c.43,7.37,1.48,12.72,1.48,20.41"/><path class="cls-2" d="M203.18,397.91c-1.64,4.09-20.73,23.16-23.48,21.82"/><path class="cls-2" d="M162.72,410.43c.91-.26,12.17-11.16,15.44-13.38,9.5-6.44,5.62-11.79,17.48-18.27,6.53-3.58,7.33-12.1,18.21-16.82,9.85-4.27,17.42-22.08,24.55-12.21,7.89,10.92,8.65-8.91,23,8.13,6.43,7.62-3.81,9,16.52,8.11,9.18-.39,2.25,16.46,10.53,16.46,15.54,0-1.41,5.68,15.5,14.57,5.26,2.77,12.27,11.22,20.71,9.79"/><path class="cls-2" d="M272.16,408.68c1,5.34,14.9,11,19.87,11.46,18,1.68,34.23-1.35,44.94-17.36,1-1.57,1.61-5.33,2-7.33"/><path class="cls-2" d="M250.75,306.37c1.27,1.93,6.66,2.86,9,4.47,1.56,1.08,5.92,4,7.09,5.24"/><path class="cls-2" d="M254.44,301c.14.07,11.58,5.18,12.34,5.21"/><path class="cls-6" d="M88.5,287.39l8.4-2.09,61.8,1.58c2.83,1.32,2.81,4.5-.75,4.69l-61.8-1.73Z"/><path class="cls-2" d="M88.5,287.39l8.4-2.09,61.8,1.58c2.83,1.32,2.81,4.5-.75,4.69l-61.8-1.73Z"/><line class="cls-2" x1="185.42" y1="248.68" x2="215.12" y2="240.28"/><path class="cls-15" d="M280,67.1c1.61,3.94,9.14,12.09,11.92,16.72-2.39,2.68-17.77-4.06-28.05,6.61-23.58,24.51-65.5,36.28-82.68,2.52-14.36-28.22,19.33-78.76,61.37-75.8C290.16,20.51,279.33,65.45,280,67.1Z"/><path class="cls-2" d="M280,67.1c1.61,3.94,9.14,12.09,11.92,16.72-2.39,2.68-17.77-4.06-28.05,6.61-23.58,24.51-65.5,36.28-82.68,2.52-14.36-28.22,19.33-78.76,61.37-75.8C290.16,20.51,279.33,65.45,280,67.1Z"/><path class="cls-16" d="M229.83,34.51C240.41,33.86,250.32,40,250,53.64s-15.75,16.85-19.13,28.49c-.4,1.37-4.07.41-7.44-.24s-6.59-1.06-6.23-3.37c1.23-8-4.9-16.94-5.53-22.5C210.3,44.12,219.24,35.17,229.83,34.51Z"/><path class="cls-2" d="M229.83,34.51C240.41,33.86,250.32,40,250,53.64s-15.75,16.85-19.13,28.49c-.4,1.37-4.07.41-7.44-.24s-6.59-1.06-6.23-3.37c1.23-8-4.9-16.94-5.53-22.5C210.3,44.12,219.24,35.17,229.83,34.51Z"/><path class="cls-17" d="M230.57,82.94,216.8,80l-2.2,8.11a1.6,1.6,0,0,0,1.1,2.06l10.58,2.14a2.19,2.19,0,0,0,2.5-1.38Z"/><path class="cls-2" d="M230.57,82.94,216.8,80l-2.2,8.11a1.6,1.6,0,0,0,1.1,2.06l10.58,2.14a2.19,2.19,0,0,0,2.5-1.38Z"/><path class="cls-2" d="M224.11,92.59l-6.17-1.31a3.79,3.79,0,0,0,2.91,2.52A3.51,3.51,0,0,0,224.11,92.59Z"/><path class="cls-2" d="M218,55.63c16-1,13.85-14.3,8.41-8.14-3.2,3.63-2,12.89,7.16,8.92,2.51-1.09,5.83-3.91,6-6.91.38-7.75-9.93,3.32-4.8,7.92,1.27,1.13,2.85,2.55,4.7,2.43"/></svg>
