<svg id="Layer_1" data-name="Layer 1" xmlns="http://www.w3.org/2000/svg" viewBox="0 0 450 450"><defs><style>.cls-1{fill:#c3a786;}.cls-1,.cls-2,.cls-4,.cls-5,.cls-6,.cls-7,.cls-8{fill-rule:evenodd;}.cls-2{fill:#f4e7cc;}.cls-3,.cls-9{fill:none;stroke-linecap:round;stroke-linejoin:round;stroke-width:2.83px;}.cls-3{stroke:#000;}.cls-4{fill:#ccf;}.cls-5{fill:#fac384;}.cls-7{fill:#fc0;}.cls-8{fill:#fff;}.cls-9{stroke:#fff;}</style></defs><title>Thech Peeps_Link</title><path class="cls-1" d="M217.44,401.08c.49-3.71-3.73-50.63-6.78-48.89-25.14,14.31-51.54,14.2-79.85,12-10.22-.78-22-4.34-31.53-8.12-7.18-2.87-4.7,2.52-8.5,10-1.37,2.69-4.94,33.6-1.1,34.29.85,2.57,14-.31,18.08-.31,9.65,0,23.93,5.79,32.6,2.28,4.41-1.79,21.06,3.73,32.32-.51,6.52-2.45,22.14,2.21,34.13-1.57,3.26-1,10.11,4.74,10.63.84"/><path class="cls-2" d="M212.77,262c1.19,3.5,9,6.66,12,5.69,2.77-.91,27.55-10.35,27.62-11.75.45-8.94,3.81-9,3.88-11.85,0-.51.07-.38-.17-.86-3.27-1.59-5.77-2.82-7.17-4.17-.18-.53-31.33-43.43-33.71-45.62-6.48-5.95-50.46-19.16-50-16.89.25,1.34,1.64,16.32-11.95,15.2-7.28-.6-20.4-7-28.81-14.41-2.82-1.23-53.07,14.74-53.25,23-9.39,34.76-6.32,64.41-5.26,100.15C66.49,320.69,87,316.65,90.34,316c0,0-2.77,34.28-.07,36.68,20.94,18.54,123.44,16.86,124-3.65.07-2.57-.05-11.18-.56-13.57Z"/><path class="cls-3" d="M212.77,262c1.19,3.5,9,6.66,12,5.69,2.77-.91,27.55-10.35,27.62-11.75.45-8.94,3.81-9,3.88-11.85,0-.51.07-.38-.17-.86-3.27-1.59-5.77-2.82-7.17-4.17-.18-.53-31.33-43.43-33.71-45.62-6.48-5.95-50.46-19.16-50-16.89.25,1.34,1.64,16.32-11.95,15.2-7.28-.6-20.4-7-28.81-14.41-2.82-1.23-53.07,14.74-53.25,23-9.39,34.76-6.32,64.41-5.26,100.15C66.49,320.69,87,316.65,90.34,316c0,0-2.77,34.28-.07,36.68,20.94,18.54,123.44,16.86,124-3.65.07-2.57-.05-11.18-.56-13.57Z"/><path class="cls-4" d="M257.33,107.51l33.48,7.61a11.82,11.82,0,0,1-5.25,23l-33.47-7.62a11.81,11.81,0,1,1,5.24-23Zm1.61-11.88,35.55,8.09A23.75,23.75,0,0,1,284,150L248.4,142a23.75,23.75,0,0,1,10.54-46.32Z"/><path class="cls-3" d="M257.33,107.51l33.48,7.61a11.82,11.82,0,0,1-5.25,23l-33.47-7.62a11.81,11.81,0,1,1,5.24-23Zm1.61-11.88,35.55,8.09A23.75,23.75,0,0,1,284,150L248.4,142a23.75,23.75,0,0,1,10.54-46.32Z"/><path class="cls-4" d="M314.55,108.29l35.56,8.09a23.75,23.75,0,1,1-10.54,46.31L304,154.61a23.82,23.82,0,0,1-17.89-28.43,22.51,22.51,0,0,1,5.64-10.54c3.59,1.22,8,4.71,8.14,10.09a10.06,10.06,0,0,0-1.11,3.33,11.87,11.87,0,0,0,8.9,14.15l33.48,7.61a11.81,11.81,0,0,0,5.24-23L313,120.16l-1-.18a30.11,30.11,0,0,0-8.2-11.75A22.11,22.11,0,0,1,314.55,108.29Z"/><path class="cls-3" d="M314.55,108.29l35.56,8.09a23.75,23.75,0,1,1-10.54,46.31L304,154.61a23.82,23.82,0,0,1-17.89-28.43,22.51,22.51,0,0,1,5.64-10.54c3.59,1.22,8,4.71,8.14,10.09a10.06,10.06,0,0,0-1.11,3.33,11.87,11.87,0,0,0,8.9,14.15l33.48,7.61a11.81,11.81,0,0,0,5.24-23L313,120.16l-1-.18a30.11,30.11,0,0,0-8.2-11.75A22.11,22.11,0,0,1,314.55,108.29Z"/><line class="cls-3" x1="261.36" y1="84.72" x2="256.1" y2="72.64"/><line class="cls-3" x1="291.3" y1="88.24" x2="290.56" y2="73.92"/><line class="cls-3" x1="344.29" y1="102.14" x2="351.59" y2="93.04"/><line class="cls-3" x1="234.84" y1="147.09" x2="225.73" y2="153.32"/><line class="cls-3" x1="367.51" y1="167.11" x2="374.61" y2="172.42"/><line class="cls-3" x1="376.11" y1="119.84" x2="385.44" y2="113.97"/><line class="cls-3" x1="225.36" y1="98.16" x2="214.82" y2="91.76"/><line class="cls-3" x1="328.28" y1="170.5" x2="329.68" y2="181.89"/><line class="cls-3" x1="270.18" y1="159.43" x2="267.31" y2="164.62"/><line class="cls-3" x1="215.27" y1="118.17" x2="209.23" y2="118.34"/><path class="cls-5" d="M178.43,102.71C176.8,88.55,175.72,72.84,160,63.43c-22.38-13.37-64.78,5.55-49.83,41.1-13.17-1.16-8,22.19,4.26,16,2.29-1.16,1.73-3.11,2.68,1.61,4.58,22.77,7.29,41.22,7.6,55.81.1,4.87,5.65,8.61,12.58,10.82,12.09,3.85,22.2,4.35,27.56-.92,2.12-2.09-1.72-28.58-1.3-29.84.28-.84,5.55-.15,12.74-5.79,9.9-7.77,12.81-21.24,9.3-32C181.75,108.36,179.2,109,178.43,102.71Z"/><path class="cls-3" d="M178.43,102.71C176.8,88.55,175.72,72.84,160,63.43c-22.38-13.37-64.78,5.55-49.83,41.1-13.17-1.16-8,22.19,4.26,16,2.29-1.16,1.73-3.11,2.68,1.61,4.58,22.77,7.29,41.22,7.6,55.81.1,4.87,5.65,8.61,12.58,10.82,12.09,3.85,22.2,4.35,27.56-.92,2.12-2.09-1.72-28.58-1.3-29.84.28-.84,5.55-.15,12.74-5.79,9.9-7.77,12.81-21.24,9.3-32C181.75,108.36,179.2,109,178.43,102.71Z"/><path class="cls-3" d="M172,117.79c1-5.56-5.53-6.19-6.89-1.69"/><path class="cls-6" d="M157.77,110.07c-.29.55-.62.48-.6-2.1,0-1.21.08-5.47.57-4.94S158.19,109.27,157.77,110.07Z"/><path class="cls-3" d="M157.77,110.07c-.29.55-.62.48-.6-2.1,0-1.21.08-5.47.57-4.94S158.19,109.27,157.77,110.07Z"/><path class="cls-6" d="M173.91,110.36c-.29.54-.63.47-.62-2.06,0-1.18.08-5.35.56-4.83S174.32,109.58,173.91,110.36Z"/><path class="cls-3" d="M173.91,110.36c-.29.54-.63.47-.62-2.06,0-1.18.08-5.35.56-4.83S174.32,109.58,173.91,110.36Z"/><path class="cls-3" d="M160,95.88c-3-3.85-10.25-1.57-11.65,2.85"/><path class="cls-3" d="M168.52,95.81c2.28-4.4,7.13-4.16,10.56-1.12"/><path class="cls-3" d="M167.92,156.73c-3.83,1.75-14.27,2.06-17.84-.64"/><path class="cls-3" d="M90.34,316c19.4-5,44.33-20.2,58.32-28.16,9.88-5.62,19.67-13.81,29.4-20"/><path class="cls-3" d="M96.53,275.26a133.52,133.52,0,0,1,18.68-11.81c11.56-6.26,34.78-10.82,44.91-18.6.51,8.77,16.65,24.25,18.4,23.13"/><path class="cls-3" d="M110,266.37c2.41-16.61.88-26.77,3.49-41.72"/><path class="cls-3" d="M107.69,221.51a30.32,30.32,0,0,0,11.52,2.83"/><path class="cls-3" d="M212.82,269.92c-.25-7.45.87-40.71-4.12-53.07"/><path class="cls-3" d="M93.18,357.3c-4.84,13.12-5.06,24.49-6.48,40.11"/><path class="cls-3" d="M211.85,353.59c1.14,6.69,7.34,36.68,5.59,45"/><path class="cls-3" d="M243.52,245.44c-.06,1-2.68,2.06-3.55,2.8-1.51,1.29-4.39,3.36-5.59,4.89"/><path class="cls-7" d="M159.75,293.36l100.3-40c3.73-1.49,10.22-.53,14.41,2.13L331,291.36c4.19,2.65,4.57,6.05.83,7.53l-100.29,40c-3.73,1.49-10.22.54-14.41-2.12L160.59,300.9C156.39,298.24,156,294.85,159.75,293.36Z"/><path class="cls-3" d="M159.75,293.36l100.3-40c3.73-1.49,10.22-.53,14.41,2.13L331,291.36c4.19,2.65,4.57,6.05.83,7.53l-100.29,40c-3.73,1.49-10.22.54-14.41-2.12L160.59,300.9C156.39,298.24,156,294.85,159.75,293.36Z"/><path class="cls-7" d="M359.44,203.21,259.5,243c-3.74,1.49-7.52,6.74-9,11.48L227.12,327.3c-1.52,4.75.83,7.56,4.57,6.07l99.94-39.79c3.75-1.49,7.53-6.75,9.05-11.49L364,209.28C365.54,204.54,363.19,201.72,359.44,203.21Z"/><path class="cls-3" d="M359.44,203.21,259.5,243c-3.74,1.49-7.52,6.74-9,11.48L227.12,327.3c-1.52,4.75.83,7.56,4.57,6.07l99.94-39.79c3.75-1.49,7.53-6.75,9.05-11.49L364,209.28C365.54,204.54,363.19,201.72,359.44,203.21Z"/><path class="cls-6" d="M240.5,284.29l-11.69,36.48c-1.64-.2-23.29-13.55-28.2-16.26-5.27-2.92-3.63-5.17-.46-6.26Z"/><path class="cls-3" d="M240.5,284.29l-11.69,36.48c-1.64-.2-23.29-13.55-28.2-16.26-5.27-2.92-3.63-5.17-.46-6.26Z"/><path class="cls-3" d="M229.08,333.7a14.62,14.62,0,0,1-9.74-2.35L163.91,297"/><path class="cls-3" d="M208.8,280.15l6.73,4.13c3.38,1.32,5.06.65,7.1.08l11.78-4.21"/><path class="cls-5" d="M351.9,248.58C360,251,354,258.74,354,265c0,3.66-.22,3.7-2.2,6.79-1.07,1.66,1.83,4.07-3.42,7.9-2,1.44,3.44,3.06-3.41,7.63-2.42,1.6,0,5.07-9.32,7.49-1.31.34-17.73,1.73-18.44,0-1.54-3.67,3.88-4.51,6.7-4.73,3.54-.28,6.37-1,5.77-1.11s-8.19-.17-10.29-.41c-5-.57-4.54-5.54.34-5.69l12.44-.7c-1.59.08-8.84-2.09-13.35-3.05a2.44,2.44,0,0,1-.21-4.81c4.55-.52,17.22.76,18,.76-.65-.1-5.25-1.16-9.06-2-3.3-.75-7.94-1.87-8-2.85-.39-6.7,12.12-3.05,13-3,6,.3,11.75-.47,12.8-1.46C346,265.31,351.36,248.42,351.9,248.58Z"/><path class="cls-3" d="M351.9,248.58C360,251,354,258.74,354,265c0,3.66-.22,3.7-2.2,6.79-1.07,1.66,1.83,4.07-3.42,7.9-2,1.44,3.44,3.06-3.41,7.63-2.42,1.6,0,5.07-9.32,7.49-1.31.34-17.73,1.73-18.44,0-1.54-3.67,3.88-4.51,6.7-4.73,3.54-.28,6.37-1,5.77-1.11s-8.19-.17-10.29-.41c-5-.57-4.54-5.54.34-5.69l12.44-.7c-1.59.08-8.84-2.09-13.35-3.05a2.44,2.44,0,0,1-.21-4.81c4.55-.52,17.22.76,18,.76-.65-.1-5.25-1.16-9.06-2-3.3-.75-7.94-1.87-8-2.85-.39-6.7,12.12-3.05,13-3,6,.3,11.75-.47,12.8-1.46C346,265.31,351.36,248.42,351.9,248.58Z"/><path class="cls-3" d="M335.57,274.93a26.39,26.39,0,0,0,7.48-.09,1.5,1.5,0,0,1,.35,0"/><path class="cls-3" d="M329.64,282.2c2,.1,8.75-.18,11.12-.82"/><path class="cls-3" d="M325.68,289.39A99,99,0,0,0,336,288"/><path class="cls-3" d="M343.48,266.51c1.3.58,5.09-1.87,6.13-3"/><path class="cls-8" d="M304.63,274.18c-.18-.76,4.4-14.54,3.45-14.33-.23.06-12.14,4.82-12.51,5.1-.08,1.17-4.24,14.75-3.85,14.72C292.82,279.58,304.65,274.29,304.63,274.18Z"/><path class="cls-9" d="M304.63,274.18c-.18-.76,4.4-14.54,3.45-14.33-.23.06-12.14,4.82-12.51,5.1-.08,1.17-4.24,14.75-3.85,14.72C292.82,279.58,304.65,274.29,304.63,274.18Z"/><path class="cls-3" d="M165.13,136.86c-4.24,0-9.66-.93-12.25-4.63,0-.08,0,0-.12-.09"/><path class="cls-3" d="M150.51,132.74c1.15-.06,3.24-1.34,3.45-2.63"/><path class="cls-3" d="M109.93,110.57c1.8,1.14,1.42,2.45,1.42,4.35"/><path class="cls-6" d="M107.12,88.11c-3.57-6.59,8.6-7.54,15.25-9.34,8.86-2.39,34.83-5.79,47.88-10.3,15.52-5.36.44-30.07-13.71-18-1.41,1.21-.56-4-6.54-3.87-7.72.21-7.69,7.19-10.39,6.45-5.92-1.62-8.62,5.38-12.77,6.22-12.6,2.56-26.17,9.38-21.87,25.1C105.41,86,106.43,86.84,107.12,88.11Z"/><path class="cls-3" d="M107.12,88.11c-3.57-6.59,8.6-7.54,15.25-9.34,8.86-2.39,34.83-5.79,47.88-10.3,15.52-5.36.44-30.07-13.71-18-1.41,1.21-.56-4-6.54-3.87-7.72.21-7.69,7.19-10.39,6.45-5.92-1.62-8.62,5.38-12.77,6.22-12.6,2.56-26.17,9.38-21.87,25.1C105.41,86,106.43,86.84,107.12,88.11Z"/><path class="cls-3" d="M81.94,198c10.66-1.15,19.29,10.87,22.8,15.3"/><path class="cls-3" d="M207.79,212.06c0-3.5,1.3-10.54,3.15-13.35"/><path class="cls-5" d="M159.27,245.57c1.93-1.34,4.53-5.5,5.47-7.23,5.12-9.4,8.44-15.37,18-11.57,1.87.74,5-.82,8.13-2.63,2-1.13,19.31-12.37,20.39-9.25,1.74,2.14-.62,4-2.06,5.36C207.44,222,198,230,196.57,230.94c.29,0,6.65-.34,4.78,6.05-.48,1.66-.25,1.48,1,3,2.51,2.91-.58,6.63-.34,6.76,3.09,1.68,1.71,7.3-2.47,9.08-5.44,2.31-20.45,10.93-25.16,14.47C172.6,271.66,154.44,254.74,159.27,245.57Z"/><path class="cls-3" d="M159.27,245.57c1.93-1.34,4.53-5.5,5.47-7.23,5.12-9.4,8.44-15.37,18-11.57,1.87.74,5-.82,8.13-2.63,2-1.13,19.31-12.37,20.39-9.25,1.74,2.14-.62,4-2.06,5.36C207.44,222,198,230,196.57,230.94c.29,0,6.65-.34,4.78,6.05-.48,1.66-.25,1.48,1,3,2.51,2.91-.58,6.63-.34,6.76,3.09,1.68,1.71,7.3-2.47,9.08-5.44,2.31-20.45,10.93-25.16,14.47C172.6,271.66,154.44,254.74,159.27,245.57Z"/><line class="cls-3" x1="186.29" y1="226.48" x2="175.1" y2="233"/><line class="cls-3" x1="197.37" y1="230.62" x2="191.25" y2="234.44"/><line class="cls-3" x1="201.03" y1="238.11" x2="195.19" y2="242.09"/><line class="cls-3" x1="202.05" y1="246.74" x2="197.37" y2="249.22"/><path class="cls-3" d="M165.48,183.33c.57.54,2.86,7.42,2.86,8.54"/><path class="cls-3" d="M120,367.9c-1.68,6.72-11.8,16-17.7,19-1,.49-3.61,2-4.65,2"/><path class="cls-3" d="M164,403.41c0-1.61.91-9.47.9-9.5"/></svg>
