<svg id="Layer_1" data-name="Layer 1" xmlns="http://www.w3.org/2000/svg" xmlns:xlink="http://www.w3.org/1999/xlink" viewBox="0 0 450 450"><defs><style>.cls-1,.cls-10,.cls-19,.cls-3,.cls-5,.cls-8,.cls-9{fill:none;}.cls-1{clip-rule:evenodd;}.cls-11,.cls-12,.cls-15,.cls-16,.cls-17,.cls-18,.cls-2,.cls-4,.cls-6{fill-rule:evenodd;}.cls-3{stroke:#000;}.cls-10,.cls-19,.cls-3,.cls-5,.cls-8,.cls-9{stroke-linecap:round;}.cls-19,.cls-3,.cls-5{stroke-linejoin:round;}.cls-19,.cls-3,.cls-5,.cls-9{stroke-width:2.83px;}.cls-4{fill:#9eeb9e;}.cls-5{stroke:#96989a;}.cls-6{fill:#fefefe;}.cls-7{clip-path:url(#clip-path);}.cls-8{stroke:#ffcc29;stroke-width:8.5px;}.cls-10,.cls-8,.cls-9{stroke-miterlimit:22.93;}.cls-19,.cls-9{stroke:#fff;}.cls-10{stroke:#0098da;stroke-width:28.35px;}.cls-11{fill:#fac384;}.cls-12{fill:#f9c;}.cls-13,.cls-16{fill:#f9aa75;}.cls-14,.cls-17{fill:#ffcc29;}.cls-15{fill:#fff;}.cls-18{fill:red;}</style><clipPath id="clip-path"><path class="cls-1" d="M350.7,38.06H180.78a16.11,16.11,0,0,0-16.07,16.06V278.53a16.11,16.11,0,0,0,16.07,16.06H350.7a16.11,16.11,0,0,0,16.07-16.06V54.12A16.11,16.11,0,0,0,350.7,38.06"/></clipPath></defs><title>Thech Peeps_Location</title><path class="cls-2" d="M88.81,235.69c-6.3-18.54-8.49-21.94,0-26.94,6.05-3.56,31.49-14.8,39.3-18.56C139,185,140,190,145.73,205.51c5.91,15.93,12.5,33.46,13.64,41.33,1.8,12.32-32.45,55.88-54.51,37.84C103.2,283.32,92.68,247.08,88.81,235.69Z"/><path class="cls-3" d="M88.81,235.69c-6.3-18.54-8.49-21.94,0-26.94,6.05-3.56,31.49-14.8,39.3-18.56C139,185,140,190,145.73,205.51c5.91,15.93,12.5,33.46,13.64,41.33,1.8,12.32-32.45,55.88-54.51,37.84C103.2,283.32,92.68,247.08,88.81,235.69Z"/><path class="cls-4" d="M94.45,230.88c-5.09-15-6.86-17.74,0-21.78,4.89-2.88,28.76-13.47,35.07-16.5,8.77-4.23,9.58-.19,14.24,12.38,4.78,12.88,10.1,27.05,11,33.41,1.72,11.76-30.46,45.93-47.37,32.1C106.08,269.39,97.58,240.08,94.45,230.88Z"/><path class="cls-3" d="M94.45,230.88c-5.09-15-6.86-17.74,0-21.78,4.89-2.88,28.76-13.47,35.07-16.5,8.77-4.23,9.58-.19,14.24,12.38,4.78,12.88,10.1,27.05,11,33.41,1.72,11.76-30.46,45.93-47.37,32.1C106.08,269.39,97.58,240.08,94.45,230.88Z"/><path class="cls-5" d="M98.48,257.2,86.6,219.76c-1.69-4.28.35-6.66,1.48-7.48"/><path class="cls-6" d="M133.47,409.15c-1.68,4,2.83-15,5.28-20.9,1.12-2.68,6.28-15,9.12-14,4.07,1.38,18,7.79,21.71,8.11,7.44.65,12.4,2.46,22,2.7,16.62.42,23.45.91,40-.55,3.45-.3,40-7.45,40.41-6.35,4.2,12.1,8.76,25.58,11,40.92,1.36,9.3-70.85,11.22-84.43,5.79-11.07-4.44-42-.51-53.92-6.12-4.76-2.24-13.51-3.9-11.13-9.6"/><path class="cls-4" d="M350.7,38.06H180.78a16.11,16.11,0,0,0-16.07,16.06V278.53a16.11,16.11,0,0,0,16.07,16.06H350.7a16.11,16.11,0,0,0,16.07-16.06V54.12A16.11,16.11,0,0,0,350.7,38.06"/><g class="cls-7"><line class="cls-8" x1="222.64" y1="38.06" x2="275.69" y2="105.7"/><path class="cls-8" d="M283.75,104.52a12,12,0,1,1-12.42,12A12.21,12.21,0,0,1,283.75,104.52Z"/><path class="cls-8" d="M291.29,126c9.35,11.28,31.27,41.19,44.41,45.1,11.28,3.36,19.25,2.24,31.07,2.24"/><line class="cls-9" x1="366.77" y1="64.63" x2="250.02" y2="64.63"/><line class="cls-9" x1="297.63" y1="65.95" x2="268.21" y2="86.81"/><line class="cls-9" x1="307.83" y1="137.89" x2="365.3" y2="95.84"/><line class="cls-9" x1="332.14" y1="163.02" x2="365.3" y2="137.89"/><line class="cls-9" x1="330.1" y1="119.66" x2="290.33" y2="71.12"/><line class="cls-9" x1="322.11" y1="129.19" x2="342.94" y2="154.84"/><line class="cls-9" x1="343.31" y1="111.93" x2="363.6" y2="137.89"/><path class="cls-8" d="M311.47,150.66c9,11.78,10.06,23.68,6.81,37.33-2.53,10.63-6.58,14.64-12.06,23.08-2.3,3.53-13.63,11.87-13.69,12.15l-89.44,71.37"/><path class="cls-10" d="M172.49,43.2c4.94,9.35,15.31,15.58,20.4,30.92,2.16,6.51,11.36,30.86,14.79,36.2,18.88,29.4,15.07,25.64,42.25,45.39,5.42,3.93,18.53,10.88,23.21,15.61,6.18,6.21,11.56,8.73,17.46,17.76,3.44,5.25,9.21,11.78,13.33,18.34,10.69,17.05,21.51,19.75,42.49,22.94,3.32.51,14.27.42,18.54.42"/><line class="cls-9" x1="343.54" y1="181.83" x2="343.54" y2="291.88"/><line class="cls-9" x1="277.91" y1="244.9" x2="308.85" y2="288.92"/><line class="cls-9" x1="290.52" y1="262.84" x2="343.54" y2="262.84"/><line class="cls-9" x1="294.91" y1="144.38" x2="224.18" y2="197.86"/><line class="cls-9" x1="257.16" y1="93.46" x2="197.31" y2="133.21"/><path class="cls-9" d="M200,143.06c8,9.54,19.2,20,30.36,25.87,1,.54,16.22,10.45,17.1,11.3,4.54,3.2,19.29,11.89,20.9,16.38l17,24"/><line class="cls-9" x1="258.65" y1="187.67" x2="231.82" y2="209.2"/><line class="cls-9" x1="276.89" y1="208.6" x2="246.96" y2="232.09"/><path class="cls-9" d="M199,38.06c2.29,5.21,9.25,14.89,13,22.88,6.14,13.12,9.29,22.32,13.89,35.15,1.66,4.65,11.06-1.19,16.06,7.48,2.34,5.64,2.26,8.82-.23,14.09-.93,2,.07,5.37,3,6.92l25.42,17.83c1.55,1.09,13.85,10.26,24.82,2"/></g><rect class="cls-3" x="164.71" y="38.06" width="202.05" height="256.54" rx="16.07" ry="16.07"/><path class="cls-11" d="M243.69,113.75a44.39,44.39,0,0,0,2,10.74c1.7,5.08,6,2.19,7.29,4.51,2.94,5.4-3.64,5.24-2.28,7.3,15.71,23.7-3.85,44.5-20.38,44.48-3.82,0,2.42,18.56-.36,16.64l-36.86-.53c-1.91-5.34,2.17-12.38,1.19-21.43-2.29-21.1-11.75-39.87-11-52.08,1.83-30,34.36-44.76,50.67-30.3C238.32,96.93,242.77,106.11,243.69,113.75Z"/><path class="cls-3" d="M243.69,113.75a44.39,44.39,0,0,0,2,10.74c1.7,5.08,6,2.19,7.29,4.51,2.94,5.4-3.64,5.24-2.28,7.3,15.71,23.7-3.85,44.5-20.38,44.48-3.82,0,2.42,18.56-.36,16.64l-36.86-.53c-1.91-5.34,2.17-12.38,1.19-21.43-2.29-21.1-11.75-39.87-11-52.08,1.83-30,34.36-44.76,50.67-30.3C238.32,96.93,242.77,106.11,243.69,113.75Z"/><path class="cls-2" d="M240.11,123.47c-.13.58-.47.59-1.15-1.85-.31-1.14-1.37-5.18-.77-4.79C238.94,117.31,240.29,122.62,240.11,123.47Z"/><path class="cls-3" d="M240.11,123.47c-.13.58-.47.59-1.15-1.85-.31-1.14-1.37-5.18-.77-4.79C238.94,117.31,240.29,122.62,240.11,123.47Z"/><path class="cls-3" d="M237.76,107.72c-1.37-.33-5.75,1.48-7.15,2.27-.22.13-.15,0-.24.12"/><path class="cls-3" d="M268.93,250c-.53-.05-5.91.36-6.22.79"/><path class="cls-3" d="M218.06,115.62c-10.52-5-13.87,8.78-9.11,13.83,4,4.22,11,4.18,13-1.76"/><path class="cls-3" d="M214.78,125.7c-1.82-1.44-1.08-2.5-1.23-3.43"/><line class="cls-3" x1="229.26" y1="183.03" x2="229.84" y2="172.96"/><path class="cls-12" d="M270.39,251.25c1.39,3.75,22.23,26.87,28.61,33.34,13.73,13.91,21.59,12.19,31.72-3.32,11-16.79,13.45-44.69,20.31-68.43,1.27-4.42-17.94-13.82-22.7-12.67-2.5.6-16.95,47-17,47-14.95-14.23-23.32-36.77-31.92-47.6-7.09-8.92-17.4-15.36-27.2-13.77-22,3.57-23.57,11.1-47.1,9.59-10.26-.66-10.24-2.31-25.89-8.59-14.34-5.76-31.94.88-44.18,24.76-24.75,48.29-50.85,70.4-31,95,6.9,8.57,52.28-2.36,56-3.53,0,0-2.68-26.88-3.2-30.82-.51-3.78-14.84,2.94-12.07-.68,1.84-2.4,9.47-13.71,8.82-17,2.82,5,9.87,76.06,9.87,76.06-.44,17.73-19.23,41.34-17.54,42.5,28,19.25,81.93,12.14,113.74,7.8,2.6-.35,12.14-3.27,13.64-3.2.11,0-9.7-69-7.67-71.62,6.15-7.95,12.37-17.59,11.74-29.45C276.83,266.83,275.56,260.15,270.39,251.25Z"/><path class="cls-3" d="M270.39,251.25c1.39,3.75,22.23,26.87,28.61,33.34,13.73,13.91,21.59,12.19,31.72-3.32,11-16.79,13.45-44.69,20.31-68.43,1.27-4.42-17.94-13.82-22.7-12.67-2.5.6-16.95,47-17,47-14.95-14.23-23.32-36.77-31.92-47.6-7.09-8.92-17.4-15.36-27.2-13.77-22,3.57-23.57,11.1-47.1,9.59-10.26-.66-10.24-2.31-25.89-8.59-14.34-5.76-31.94.88-44.18,24.76-24.75,48.29-50.85,70.4-31,95,6.9,8.57,52.28-2.36,56-3.53,0,0-2.68-26.88-3.2-30.82-.51-3.78-14.84,2.94-12.07-.68,1.84-2.4,9.47-13.71,8.82-17,2.82,5,9.87,76.06,9.87,76.06-.44,17.73-19.23,41.34-17.54,42.5,28,19.25,81.93,12.14,113.74,7.8,2.6-.35,12.14-3.27,13.64-3.2.11,0-9.7-69-7.67-71.62,6.15-7.95,12.37-17.59,11.74-29.45C276.83,266.83,275.56,260.15,270.39,251.25Z"/><path class="cls-3" d="M245.44,151.9c1.14.89,5.28,1.45,6.12.75"/><path class="cls-3" d="M144.74,271.48c-.2-.57-1.58,2.19-1.85,2.61a80.56,80.56,0,0,0-4.31,7.69"/><path class="cls-3" d="M271.21,252.7c-.41-.55-7.72-13.33-7.88-13.79"/><path class="cls-3" d="M259.22,240.39c.52-.67,5-6.22,5.43-7.39"/><path class="cls-3" d="M265.33,308.87c-.55-1-.08-15.86-.12-16.75"/><path class="cls-3" d="M316.17,251.86c-1.17-1.2-3.93-3.84-4.69-4.88"/><path class="cls-3" d="M154.64,258.4c.13-.36-3.71-13.84-2.28-20.73"/><path class="cls-3" d="M145.89,373c-5.5,5.64-12.42,28.44-12.42,36.11"/><line class="cls-3" x1="273.27" y1="377.64" x2="282.28" y2="417.04"/><path class="cls-3" d="M247.8,186.59c-10.84,11.28-30.56,42.25-30.56,56.66"/><path class="cls-3" d="M179.22,186.77c-9.64,15.63-9,31.85-9,49.59"/><path class="cls-3" d="M222.82,297.54c12.35,10.09,21.52,17.91,38,12.81,2.25-.7,1.37-1.07,4.51-1.48"/><rect class="cls-13" x="149.95" y="229.62" width="81.24" height="90.02" rx="11.57" ry="11.57"/><rect class="cls-3" x="149.95" y="229.62" width="81.24" height="90.02" rx="11.57" ry="11.57"/><rect class="cls-13" x="145.46" y="229.62" width="71.44" height="90.02" rx="14.6" ry="14.6"/><rect class="cls-3" x="145.46" y="229.62" width="71.44" height="90.02" rx="14.6" ry="14.6"/><rect class="cls-14" x="145.46" y="229.62" width="71.44" height="37.86" rx="7.74" ry="7.74"/><rect class="cls-3" x="145.46" y="229.62" width="71.44" height="37.86" rx="7.74" ry="7.74"/><path class="cls-15" d="M180.37,259.11c2.25,0,4.08,3.7,4.08,8.27s-1.83,8.27-4.08,8.27-4.09-3.71-4.09-8.27S178.11,259.11,180.37,259.11Z"/><path class="cls-3" d="M180.37,259.11c2.25,0,4.08,3.7,4.08,8.27s-1.83,8.27-4.08,8.27-4.09-3.71-4.09-8.27S178.11,259.11,180.37,259.11Z"/><path class="cls-16" d="M234,93.08c-6.86-20.27-46.34-32-66.55,1.2-19.89,32.71,18.17,67.05,25.2,64.05.05,0,14.05-10.55,14.05-10.55,7.31-6.21-6-24.78,3.06-31.09,6.19-4.28,13.46,2.33,11.62-4.33C216.54,94.93,234.19,93.71,234,93.08Z"/><path class="cls-3" d="M234,93.08c-6.86-20.27-46.34-32-66.55,1.2-19.89,32.71,18.17,67.05,25.2,64.05.05,0,14.05-10.55,14.05-10.55,7.31-6.21-6-24.78,3.06-31.09,6.19-4.28,13.46,2.33,11.62-4.33C216.54,94.93,234.19,93.71,234,93.08Z"/><path class="cls-17" d="M172.25,96c.55-1.61,7.87,2.11,11.77-8.13.93-2.44.82-10-3.49-9.45-3.65.44-1.31,1-3.7-2.78-1.91-3-8.85-3.68-10.79,4-1.38,5.49-3.46,8.16-7.08,9.88-5,2.39-5,9.28.6,10.29,2.34.42,2.58-1.16,2.46-.24S168.4,107.29,172.25,96Z"/><path class="cls-3" d="M172.25,96c.55-1.61,7.87,2.11,11.77-8.13.93-2.44.82-10-3.49-9.45-3.65.44-1.31,1-3.7-2.78-1.91-3-8.85-3.68-10.79,4-1.38,5.49-3.46,8.16-7.08,9.88-5,2.39-5,9.28.6,10.29,2.34.42,2.58-1.16,2.46-.24S168.4,107.29,172.25,96Z"/><path class="cls-16" d="M170.1,78.3c-5.82-12.09-15.9-22.06-32-23.68-31.92-3.22-53.9,34.91-23.59,68.79,6.66,7.43,13.88,31.72,1.21,43.9,15.16,1.18,34.4-11.29,33.22-35-1.05-21.21-9.73-33.24-2.46-43.36,2.6-3.61,8.2-4.61,14.23,2.37C163.09,94,174.87,88.21,170.1,78.3Z"/><path class="cls-3" d="M170.1,78.3c-5.82-12.09-15.9-22.06-32-23.68-31.92-3.22-53.9,34.91-23.59,68.79,6.66,7.43,13.88,31.72,1.21,43.9,15.16,1.18,34.4-11.29,33.22-35-1.05-21.21-9.73-33.24-2.46-43.36,2.6-3.61,8.2-4.61,14.23,2.37C163.09,94,174.87,88.21,170.1,78.3Z"/><path class="cls-3" d="M161.46,99.58c2.53-2.61,8-2.45,11.89-5.63,2.53-2.06,7.48-9.48,4.42-16.57"/><path class="cls-3" d="M118.87,108.39c4.36,13.84,10.84,16.3,10.35,31.7"/><path class="cls-3" d="M133.67,152.08c4.74-4.58,6.08-13,6.08-19.28V127"/><path class="cls-3" d="M137,117.26c-.75-5.3-4.6-11.6-4.6-16.92"/><path class="cls-3" d="M160.36,90.08c-5.28-5.73-8.82-7.09-16.65-6-3,.43-7.23,2.63-8.81,5.24"/><path class="cls-3" d="M170.37,101c-1.62,5.11,1.62,12.19,2.79,17.25"/><path class="cls-3" d="M180.65,95.42c.68,1.7,5.77,11.36,7.53,11.82"/><path class="cls-3" d="M184.63,85.47c6.64-1.79,6.32-2,13.12-2.94"/><path class="cls-6" d="M349.68,139.1c3.36,0,4.62,1.13,6,2.89a1.55,1.55,0,0,1,.62-1.34l2.58-2-19.28-24.14L328.36,123,286.69,70.63l9.7-7.26a1.55,1.55,0,0,1,1.85,2.48L291.1,71.2,329,118.76l11.26-8.59,23,29-5.14,4a1.55,1.55,0,0,1-1.64.13c.56,1.07.87.78.87,3.56s-3.46,7.74-7.74,7.74a7.74,7.74,0,0,1-7.73-7.74c0-4.27,4.38-7.73,7.73-7.73"/><path class="cls-2" d="M349.68,139.1c3.36,0,4.62,1.13,6,2.89a1.55,1.55,0,0,1,.62-1.34l2.58-2-19.28-24.14L328.36,123,286.69,70.63l9.7-7.26a1.55,1.55,0,0,1,1.85,2.48L291.1,71.2,329,118.76l11.26-8.59,23,29-5.14,4a1.55,1.55,0,0,1-1.64.13c.56,1.07.87.78.87,3.56s-3.46,7.74-7.74,7.74a7.74,7.74,0,0,1-7.73-7.74c0-4.27,4.38-7.73,7.73-7.73m0-2.84A10.84,10.84,0,0,1,354,137l-14.89-18.66-9.09,6.84a2.82,2.82,0,0,1-4-.55h0L284.48,72.39a2.83,2.83,0,0,1,.45-4,1.37,1.37,0,0,1,.21-.15l9.55-7.16a4.38,4.38,0,0,1,3.24-.83,4.3,4.3,0,0,1,2.62,1.4h0a2.78,2.78,0,0,1,.49.65,4.34,4.34,0,0,1-.79,5.52h0a2.72,2.72,0,0,1-.51.4l-4.62,3.46,34.4,43.12,9.06-6.9a2.83,2.83,0,0,1,3.93.48h0l23,29a2.83,2.83,0,0,1-.46,4,.71.71,0,0,1-.14.1l-4.75,3.66c0,.45.05,1,.05,1.67a11.63,11.63,0,0,1-3.54,7.39,10.06,10.06,0,0,1-7,3.18,10.57,10.57,0,0,1-10.57-10.57,10.28,10.28,0,0,1,3.18-7.22A11,11,0,0,1,349.68,136.26Z"/><path class="cls-18" d="M297.71,23.54a14.68,14.68,0,0,1,14.68,14.68c0,8.11-12.36,28.38-14.68,28.38S283,46.33,283,38.22A14.68,14.68,0,0,1,297.71,23.54Z"/><path class="cls-3" d="M297.71,23.54a14.68,14.68,0,0,1,14.68,14.68c0,8.11-12.36,28.38-14.68,28.38S283,46.33,283,38.22A14.68,14.68,0,0,1,297.71,23.54Z"/><path class="cls-15" d="M297.61,34.33a3.89,3.89,0,1,1-3.89,3.89A3.89,3.89,0,0,1,297.61,34.33Z"/><path class="cls-19" d="M297.61,34.33a3.89,3.89,0,1,1-3.89,3.89A3.89,3.89,0,0,1,297.61,34.33Z"/><path class="cls-11" d="M328.37,176.53c.75-3.73,9.09-6.07,9.84-7.07a107.56,107.56,0,0,0,6-16.82c1.62-7,6.41-8.77,7.1-4.47.42,2.6-2.87,16.89-1.84,16.89,5.12,0,5.79,1.7,5.44,4.4-.15,1.17.58,1.86,2.43,3.61,3.3,3.13-.12,4.93,2.38,7.29.92.87,3.48,2.57,2.23,7.49-2.61,10.18-9.31,27.1-11.31,25.29-2.16-1.95-12-11.55-23.43-11.15C327.31,199.46,326.72,184.82,328.37,176.53Z"/><path class="cls-3" d="M328.37,176.53c.75-3.73,9.09-6.07,9.84-7.07a107.56,107.56,0,0,0,6-16.82c1.62-7,6.41-8.77,7.1-4.47.42,2.6-2.87,16.89-1.84,16.89,5.12,0,5.79,1.7,5.44,4.4-.15,1.17.58,1.86,2.43,3.61,3.3,3.13-.12,4.93,2.38,7.29.92.87,3.48,2.57,2.23,7.49-2.61,10.18-9.31,27.1-11.31,25.29-2.16-1.95-12-11.55-23.43-11.15C327.31,199.46,326.72,184.82,328.37,176.53Z"/><line class="cls-3" x1="339.98" y1="165.94" x2="335.37" y2="179.72"/><line class="cls-3" x1="349.53" y1="163.55" x2="348.04" y2="171.12"/><path class="cls-3" d="M354.88,169.46c-.05,1.11-.49,6.48-1.48,7.67"/><path class="cls-3" d="M358.7,178.47c-.23,1.37-.91,4.82-1.88,6.24"/></svg>
