<svg id="Layer_1" data-name="Layer 1" xmlns="http://www.w3.org/2000/svg" viewBox="0 0 450 450"><defs><style>.cls-1{fill:#fefefe;}.cls-1,.cls-10,.cls-11,.cls-12,.cls-14,.cls-17,.cls-18,.cls-19,.cls-2,.cls-8,.cls-9{fill-rule:evenodd;}.cls-15,.cls-16,.cls-3,.cls-7{fill:none;stroke-linecap:round;stroke-linejoin:round;}.cls-15,.cls-3{stroke:#000;}.cls-16,.cls-3,.cls-7{stroke-width:2.83px;}.cls-4{fill:#f9c;}.cls-5{fill:#d2ae6d;}.cls-6{fill:#3c6;}.cls-7{stroke:#fefefe;}.cls-8{fill:#093;}.cls-9{fill:#063;}.cls-10{fill:#fac384;}.cls-11{fill:#ccf;}.cls-12{fill:#fcd5a9;}.cls-13,.cls-14{fill:#c29061;}.cls-15{stroke-width:3.4px;}.cls-16{stroke:gray;}.cls-17{fill:#fff;}.cls-18{fill:#efc697;}.cls-19{fill:#99f;}</style></defs><title>Thech Peeps_Payment </title><path class="cls-1" d="M133.44,426.92c-.85-3.06.65-74.19,1.81-83.21,3.86-30,4-49.07,2.75-78.54-.18-4.25,24.91-45.15,33.94-51.07,6.59-4.33-.55-18.48,15-18.26,5.7.08,38.65-.86,40.74,6.41,1.3,4.51,19.73,6.72,29,11.75,12.59,6.81,24.8,5.89,32.48,18.62,5.15,8.54,7.68,7.82,7.82,25.56.07,8.57,3.69,52.13,7.14,54.56,6.49,4.57,26.7,13.28,16.6,25.89-17.82,22.23-42.93,1.06-43,2-1.54,17.7.89,40.67.05,61.71-.27,6.91,4.09,26.95-2.62,29.87-21.73,9.44-22.82-3.29-50.68,3.49-18.07,4.39-22.86-8.82-51.86-.58-1.89.53-37.35,3.87-38.9-1-1.16-3.68-.79-5.39-.33-7.21"/><path class="cls-2" d="M78.19,217.54c.63-.57,2.44.17,4.24.28,3.12.18,4.14.86,8.7.86,1.8,0,9.46-.63,10.92-1.43.11-.06,4.1,12.82-11.21,14.94C76.39,234.18,77.52,218.14,78.19,217.54Z"/><path class="cls-3" d="M78.19,217.54c.63-.57,2.44.17,4.24.28,3.12.18,4.14.86,8.7.86,1.8,0,9.46-.63,10.92-1.43.11-.06,4.1,12.82-11.21,14.94C76.39,234.18,77.52,218.14,78.19,217.54Z"/><rect class="cls-4" x="106.32" y="14.62" width="183.44" height="114.19" rx="18.44" ry="18.44"/><rect class="cls-3" x="106.32" y="14.62" width="183.44" height="114.19" rx="18.44" ry="18.44"/><path class="cls-3" d="M243.91,68.09a1.38,1.38,0,1,1-1.38,1.38A1.37,1.37,0,0,1,243.91,68.09Z"/><path class="cls-3" d="M252.15,64.89a9.46,9.46,0,0,1,1.13,5,9.62,9.62,0,0,1-.89,3.54"/><path class="cls-3" d="M259.05,61.49a17.2,17.2,0,0,1,.43,15.44"/><path class="cls-3" d="M264.68,56.43A28.49,28.49,0,0,1,265.39,82"/><rect class="cls-5" x="122.46" y="55.16" width="41.62" height="28.24" rx="7.89" ry="7.89"/><rect class="cls-3" x="122.46" y="55.16" width="41.62" height="28.24" rx="7.89" ry="7.89"/><path class="cls-3" d="M129.55,65.42h8.32c3.07-5.36,10-2.71,10.43,0h7.19"/><path class="cls-3" d="M129.55,73.45h8.32c3.07,5.35,10,2.7,10.43,0h7.19"/><circle class="cls-6" cx="295.91" cy="130.84" r="26.55"/><circle class="cls-3" cx="295.91" cy="130.84" r="26.55"/><path class="cls-7" d="M286,129.69l6.92,10c1.55-2.45,11.23-16.37,12.32-18.28"/><path class="cls-8" d="M139.05,186.84c3.95,8.08.33,4.63,9.36,9.69,7.77,4.36,7.68,6.18,11,13.47,3.06,6.7,15.2,5.13,14.66-1.9-.33-4.26-8.79-2.68-7.95-7.72,1.61-9.73-4.56-5.59-7.51-14.3-3.35-9.92-9.44-5.72-17.73-7.81-1.67-.42-4.5,4.95-2,8.22Z"/><path class="cls-3" d="M139.05,186.84c3.95,8.08.33,4.63,9.36,9.69,7.77,4.36,7.68,6.18,11,13.47,3.06,6.7,15.2,5.13,14.66-1.9-.33-4.26-8.79-2.68-7.95-7.72,1.61-9.73-4.56-5.59-7.51-14.3-3.35-9.92-9.44-5.72-17.73-7.81-1.67-.42-4.5,4.95-2,8.22Z"/><path class="cls-8" d="M141.39,240.65c-.32-1.37.61-6.19-.74-12.2-3.32-14.81,4.07-21.1-3.19-31.34-6.64-9.37-3.19-19.59,4.7-26.42,6.82-5.91,17.34,1.84,10.25,11.69-6.36,8.83,11,8.71,6.06,21.55-3.88,10.2,1.19,5.9-3.18,17.39-1.35,3.55-12.39-.17-8.56,8.35,3.5,7.8-2.3,28.2-5.39,14.11C141.13,242.83,141.56,241.43,141.39,240.65Z"/><path class="cls-3" d="M141.39,240.65c-.32-1.37.61-6.19-.74-12.2-3.32-14.81,4.07-21.1-3.19-31.34-6.64-9.37-3.19-19.59,4.7-26.42,6.82-5.91,17.34,1.84,10.25,11.69-6.36,8.83,11,8.71,6.06,21.55-3.88,10.2,1.19,5.9-3.18,17.39-1.35,3.55-12.39-.17-8.56,8.35,3.5,7.8-2.3,28.2-5.39,14.11C141.13,242.83,141.56,241.43,141.39,240.65Z"/><path class="cls-9" d="M130.35,185.22c2-5.22,10.24-3.67,10.31.86.11,6.67,10.45,3.41,8.21,13.56-.87,3.92,4,7.42-2.72,10.33-4.3,1.85-3.33,10.06-14,4.79-5.41-2.68-10-9.63-2-14,3.31-1.81,7-6.68,1.34-8.69C128.91,191.13,129.61,187.18,130.35,185.22Z"/><path class="cls-3" d="M130.35,185.22c2-5.22,10.24-3.67,10.31.86.11,6.67,10.45,3.41,8.21,13.56-.87,3.92,4,7.42-2.72,10.33-4.3,1.85-3.33,10.06-14,4.79-5.41-2.68-10-9.63-2-14,3.31-1.81,7-6.68,1.34-8.69C128.91,191.13,129.61,187.18,130.35,185.22Z"/><path class="cls-10" d="M117.1,153.64c-.9-1.45-1.55-5,.24-6.06s3.67-.9,5.65-.92c3.59,0,2.11,5.9,2.34,8.19.12,1.19-1.25.8-2.85.93-3.26.25-4-1.06-5.89-2.43C116.22,153.09,117,153.47,117.1,153.64Z"/><path class="cls-3" d="M117.1,153.64c-.9-1.45-1.55-5,.24-6.06s3.67-.9,5.65-.92c3.59,0,2.11,5.9,2.34,8.19.12,1.19-1.25.8-2.85.93-3.26.25-4-1.06-5.89-2.43C116.22,153.09,117,153.47,117.1,153.64Z"/><path class="cls-2" d="M115.2,177.23c2-1.58,1.44-11.93,1-16.84-.47-5.09-.66-6.31,1.9-6.83,8.26-1.67,8.47,1.2,8.46,5.1,0,3.56.85,9.4,1,12.94.4,9.37,12.53,4,14.21,23.67.91,10.62,2.61,28.63,3.08,32.55.31,2.53-31.08,12.15-34.07,7.07-4-6.72-5-27.42-5.73-38.59S109.82,181.4,115.2,177.23Z"/><path class="cls-3" d="M115.2,177.23c2-1.58,1.44-11.93,1-16.84-.47-5.09-.66-6.31,1.9-6.83,8.26-1.67,8.47,1.2,8.46,5.1,0,3.56.85,9.4,1,12.94.4,9.37,12.53,4,14.21,23.67.91,10.62,2.61,28.63,3.08,32.55.31,2.53-31.08,12.15-34.07,7.07-4-6.72-5-27.42-5.73-38.59S109.82,181.4,115.2,177.23Z"/><path class="cls-11" d="M143.34,223.52,141.13,194c-1.56-.26-2.88-1.21-4.94-1.16-1.78,0-3.17-.28-5.5-.1-4.07.32-3.28-.54-2.9,4.42.44,5.6,1.38,12.74,1.19,18.2,0,.8.25,8.2,1,8.67C131.38,225,141.4,224.37,143.34,223.52Z"/><path class="cls-3" d="M143.34,223.52,141.13,194c-1.56-.26-2.88-1.21-4.94-1.16-1.78,0-3.17-.28-5.5-.1-4.07.32-3.28-.54-2.9,4.42.44,5.6,1.38,12.74,1.19,18.2,0,.8.25,8.2,1,8.67C131.38,225,141.4,224.37,143.34,223.52Z"/><path class="cls-7" d="M108.5,187.79c4-7.29,8.56-7.43,10-9.34a1.12,1.12,0,0,0,.25-.54"/><path class="cls-7" d="M131.08,181c2.1.57,4.8,4,5.29,4.11"/><path class="cls-12" d="M84.06,217.94C79.54,209.07,69.8,145.1,88,164.05c10.38,10.82,14,20.69,21.11,33.43,5,9,7.21,16,11,25C126.55,237.68,99.5,245.37,93,240.4,81.15,231.35,85.86,227.69,84.06,217.94Z"/><path class="cls-3" d="M84.06,217.94C79.54,209.07,69.8,145.1,88,164.05c10.38,10.82,14,20.69,21.11,33.43,5,9,7.21,16,11,25C126.55,237.68,99.5,245.37,93,240.4,81.15,231.35,85.86,227.69,84.06,217.94Z"/><ellipse class="cls-13" cx="226.7" cy="106.69" rx="11.02" ry="16.98" transform="translate(-19.31 59.19) rotate(-14.27)"/><ellipse class="cls-3" cx="226.7" cy="106.69" rx="11.02" ry="16.98" transform="translate(-19.31 59.19) rotate(-14.27)"/><path class="cls-10" d="M235.93,130.39c-1.64-13.9,1.1-21.91-14.5-35-20.49-17.22-76.67,16.35-54.11,36.82-11.2-1.22-5.29,21,4.27,15.69,2.25-1.25,1.75-3.06,2.7,1.58,4.61,22.36,7,41.41,7.34,55.74.14,6.28,9.64,10.86,19.53,12,2.71.32,7.16,13.74,9.25,12.25.73-.53,3.21-12.77,5.11-13.46a16.54,16.54,0,0,0,7.63-6.09c1.46-2.57-1-23.08-.54-24.32.28-.83,6.58-.65,14-6,10-7.17,9.52-19.74,7.43-28.81C241.61,140.43,236.7,136.54,235.93,130.39Z"/><path class="cls-3" d="M235.93,130.39c-1.64-13.9,1.1-21.91-14.5-35-20.49-17.22-76.67,16.35-54.11,36.82-11.2-1.22-5.29,21,4.27,15.69,2.25-1.25,1.75-3.06,2.7,1.58,4.61,22.36,7,41.41,7.34,55.74.14,6.28,9.64,10.86,19.53,12,2.71.32,7.16,13.74,9.25,12.25.73-.53,3.21-12.77,5.11-13.46a16.54,16.54,0,0,0,7.63-6.09c1.46-2.57-1-23.08-.54-24.32.28-.83,6.58-.65,14-6,10-7.17,9.52-19.74,7.43-28.81C241.61,140.43,236.7,136.54,235.93,130.39Z"/><path class="cls-3" d="M224.5,184.81a38.74,38.74,0,0,1-14.52-.6"/><path class="cls-14" d="M210.46,101.29C197.08,104,198,111.62,182.72,112.38a7.15,7.15,0,0,0-2.18,7.52c1.89,6.59,10.24,20,8.81,20.14-.51.06-11.21,3.74-11.49,2.77-2.83-9.88-9.21-12.39-12.46-10.6-1.7.94-6.72-13.16-6-19.14,2.22-17.56,48.17-50.74,64.8-38.28C238.86,85.76,224.9,98.42,210.46,101.29Z"/><path class="cls-3" d="M210.46,101.29C197.08,104,198,111.62,182.72,112.38a7.15,7.15,0,0,0-2.18,7.52c1.89,6.59,10.24,20,8.81,20.14-.51.06-11.21,3.74-11.49,2.77-2.83-9.88-9.21-12.39-12.46-10.6-1.7.94-6.72-13.16-6-19.14,2.22-17.56,48.17-50.74,64.8-38.28C238.86,85.76,224.9,98.42,210.46,101.29Z"/><path class="cls-3" d="M167.56,137.54c1.71-.06,4,1,4.24,2.92"/><path class="cls-15" d="M212.37,116.53c-1.65,0-8.92,2.91-9.47,3.62"/><path class="cls-15" d="M223.6,115.5a38.23,38.23,0,0,1,6.93.32l.21,0"/><path class="cls-3" d="M224.41,234.34c1.27-1.55,3.08-3.16,4.11-6.27,2.4-7.19,3.38-15.18,1.1-22.29-.92-2.89-2.47-6.52-4.54-8.52-.8-.77-1.15-1.31-1.91-1.48m-42.23-.8c-3.28,2.32-9.15,14.35-5.76,20,4,6.72,20.41,24.95,24.59,23.12"/><path class="cls-3" d="M229.62,205.78c6.12.33,55.11,15,58.53,24.95.82,2.36,4.79,5.63,5.73,9.15C300,262.73,297,287.47,298.94,306c.24,2.37-.32,1.56-.06,3.84,15.29,2.4,13.23,5.08,21.26,10.49"/><path class="cls-3" d="M298.08,309.33c-2.8-1-9.39.48-12.22,1.23"/><path class="cls-3" d="M298.88,312.05c-4.35,1.75-5.72,1.89-9.5,5"/><path class="cls-3" d="M224.29,234.42c-1-2.32-4.55-12.49-6.63-15"/><path class="cls-3" d="M199.57,237.34c0-.05-.37-16,.65-16.69"/><path class="cls-3" d="M278.68,419.56a9.62,9.62,0,0,1-.06-2c1.75-22.53-2.86-107.94-4.85-137.43a102.47,102.47,0,0,0,4.83-12.11"/><path class="cls-3" d="M270.84,277c-.68-5.8-1.1-6.46-.78-12.62"/><path class="cls-3" d="M322.72,319.89c2.69,3.68,4,8.17,3.1,15.38-1.19,9.53-16.69,16.61-28.38,15.24-4-.47-12.16-2.15-21.79-15"/><path class="cls-3" d="M286.16,233.39c-5.35,4.68-10.56,13.84-12.69,20.51"/><path class="cls-3" d="M133.44,426.92c-.75-12.5-.72-45.69.49-57"/><path class="cls-2" d="M326.54,274.94c2.95-7.18.1-10.65-6.77-10.33-3.22.15-14,.88-17.06,1.29-7.64,1-9.8.31-12.27,6-6.14,14.2-13.55,47.44-16.68,54.85-1.05,2.48-1.81,8.18,5.39,9,3.91.41,24.84,1.48,26.47-1.51C313.48,319.8,319.15,293,326.54,274.94Z"/><path class="cls-3" d="M326.54,274.94c2.95-7.18.1-10.65-6.77-10.33-3.22.15-14,.88-17.06,1.29-7.64,1-9.8.31-12.27,6-6.14,14.2-13.55,47.44-16.68,54.85-1.05,2.48-1.81,8.18,5.39,9,3.91.41,24.84,1.48,26.47-1.51C313.48,319.8,319.15,293,326.54,274.94Z"/><path class="cls-10" d="M314.09,305.31c-10.08-7.67-17.36-13.19-20.24-15.93-4.18-4-7.64-10.77-10.15-9.11-2.35,1.56-2,2.17.45,8.48a28.65,28.65,0,0,0,7.5,10.58c5.38,5.19,5.73,6.15,2.71,4.29-1.71-1.06-4.71-4.45-7.16-7.47-.81-1-2.1-4.44-3-5.18-4-3.28-7.18.73-.73,12.3,1.33,2.39,6.88,9.29,7.67,10.35-1.24.1-5.79-5.34-8.36-9.13-2.26-3.35-4.17-3.83-5.37-2.53a3.16,3.16,0,0,0-.61,3.7c1.12,2,1.69,5.08,5,8.14,1.86,1.7,5.24,5.12,4.87,5.58s-2.43-2.51-5.16-4.74c-.92-.75-3-3.9-3.67-3.72-6.13,1.6,2.06,11.25,4.57,12.75,4.54,2.72,9.08,11.36,15.09,14.73,7,3.94,14.88,4.67,19.58-.06,14.09-14.18.85-15.63,6.33-31.36,1.46-4.19,1.54-7.24,4.1-11.09s-1.77-7.57-5.88-3.65C321.29,292.61,314.54,305.06,314.09,305.31Z"/><path class="cls-3" d="M314.09,305.31c-10.08-7.67-17.36-13.19-20.24-15.93-4.18-4-7.64-10.77-10.15-9.11-2.35,1.56-2,2.17.45,8.48a28.65,28.65,0,0,0,7.5,10.58c5.38,5.19,5.73,6.15,2.71,4.29-1.71-1.06-4.71-4.45-7.16-7.47-.81-1-2.1-4.44-3-5.18-4-3.28-7.18.73-.73,12.3,1.33,2.39,6.88,9.29,7.67,10.35-1.24.1-5.79-5.34-8.36-9.13-2.26-3.35-4.17-3.83-5.37-2.53a3.16,3.16,0,0,0-.61,3.7c1.12,2,1.69,5.08,5,8.14,1.86,1.7,5.24,5.12,4.87,5.58s-2.43-2.51-5.16-4.74c-.92-.75-3-3.9-3.67-3.72-6.13,1.6,2.06,11.25,4.57,12.75,4.54,2.72,9.08,11.36,15.09,14.73,7,3.94,14.88,4.67,19.58-.06,14.09-14.18.85-15.63,6.33-31.36,1.46-4.19,1.54-7.24,4.1-11.09s-1.77-7.57-5.88-3.65C321.29,292.61,314.54,305.06,314.09,305.31Z"/><path class="cls-16" d="M307.85,268.51c-3.89.39-6.61.59-8.56.85-5.23.71-6.19,4.57-7.35,7.74-.78,2.11-.47,1.35-1.09,3.06"/><path class="cls-3" d="M307.58,308.23c.87,1.51,1.19,3.4-1.05,3.35"/><path class="cls-3" d="M301,314.45c.19,1.75.07,3.07-1.77,3"/><line class="cls-3" x1="295.07" y1="321.88" x2="294.42" y2="322.82"/><path class="cls-17" d="M302.17,274.62h0a4.33,4.33,0,0,0-4.37,2.83l-1.57,4.7a2.6,2.6,0,0,0,2.22,3.59h0a4.31,4.31,0,0,0,4.37-2.83l1.57-4.69a2.61,2.61,0,0,0-2.22-3.6"/><path class="cls-3" d="M230.12,140.47c-2-7.18-6.72-4.85-8.83,0"/><path class="cls-2" d="M213.49,137.42c-.14.59-.49.6-1.09-1.87-.28-1.15-1.22-5.23-.62-4.84S213.71,136.56,213.49,137.42Z"/><path class="cls-3" d="M213.49,137.42c-.14.59-.49.6-1.09-1.87-.28-1.15-1.22-5.23-.62-4.84S213.71,136.56,213.49,137.42Z"/><path class="cls-2" d="M229.71,135.89c-.15.58-.49.59-1.09-1.82-.28-1.13-1.21-5.11-.61-4.73S229.93,135.05,229.71,135.89Z"/><path class="cls-3" d="M229.71,135.89c-.15.58-.49.59-1.09-1.82-.28-1.13-1.21-5.11-.61-4.73S229.93,135.05,229.71,135.89Z"/><path class="cls-3" d="M209.59,228.89c8.19,15.07,1.48,34.07,5.87,43.59,7.43,16.09-3,42.07,4.61,60.83,6.49,16.08-9.95,26.65-.26,61.34,2,7.2,2.68,14.06-.41,27.47"/><path class="cls-3" d="M218.89,156.9c1.53,2.78,3.22,2.6,5.75,2.6"/><path class="cls-18" d="M116,331.62c-3.74.07-12-7.3-17.32-8.39-1.64-7.93-4-19.23-4.4-27.39-.31-6.39-3-22-5.77-32.09C86.35,255.92,79,230.57,78,222.48c-1.44-11.69,1.88,2.83,5-1.16,5.92-7.55,6.25,11,9.83-2,.66-2.41,6.28,5.5,7.33,8.44,3.92,11.05,20.36,85.55,18.62,99.63C118.62,328.32,116.56,331.61,116,331.62Z"/><path class="cls-3" d="M116,331.62c-3.74.07-12-7.3-17.32-8.39-1.64-7.93-4-19.23-4.4-27.39-.31-6.39-3-22-5.77-32.09C86.35,255.92,79,230.57,78,222.48c-1.44-11.69,1.88,2.83,5-1.16,5.92-7.55,6.25,11,9.83-2,.66-2.41,6.28,5.5,7.33,8.44,3.92,11.05,20.36,85.55,18.62,99.63C118.62,328.32,116.56,331.61,116,331.62Z"/><path class="cls-3" d="M185,112.21c-1.79.08-7.76.39-12-2.24"/><path class="cls-18" d="M115.47,323.13c-1.86-7.85-1.53-19.48-5.09-30-1-3-14.16-73.77-11.22-71.71,2.26,1.59,4.56,3.75,5.47,3s3.1-4.8,3.67-5.11c1-.5,4.24,1.78,5.18,2.71,1.94,1.91,3.15-3.74,4.86-4.68.7-.39,3.65,1.22,5.13,3,1,1.18,2.75-5.82,3.8-5.79a15.24,15.24,0,0,1,5.38,3.57c.84,1,2.29-5.1,3.22-5.51.72-.32,3.47,1.28,4.75,3,2.53,3.36,4-4.87,5.3-5,1-.14,4.13,2.18,6,3.47,1.37.94,3.3-5.54,4.57-5.66s4.81,3.58,6,4.11,4.93-5,4.93-5c1.16-.37,1.86,1.79,4.08,3.4,1.22.88,6.25-5.72,6.4-4.23a248,248,0,0,1,3.91,24.55c1.26,12.59,17.9,79.85,13.65,84.1-3.17,3.17-30.66,13.13-35.79,13.73-12.26,1.43-23,1.74-35.19,3.4C109.18,334.38,119.49,328,115.47,323.13Z"/><path class="cls-3" d="M115.47,323.13c-1.86-7.85-1.53-19.48-5.09-30-1-3-14.16-73.77-11.22-71.71,2.26,1.59,4.56,3.75,5.47,3s3.1-4.8,3.67-5.11c1-.5,4.24,1.78,5.18,2.71,1.94,1.91,3.15-3.74,4.86-4.68.7-.39,3.65,1.22,5.13,3,1,1.18,2.75-5.82,3.8-5.79a15.24,15.24,0,0,1,5.38,3.57c.84,1,2.29-5.1,3.22-5.51.72-.32,3.47,1.28,4.75,3,2.53,3.36,4-4.87,5.3-5,1-.14,4.13,2.18,6,3.47,1.37.94,3.3-5.54,4.57-5.66s4.81,3.58,6,4.11,4.93-5,4.93-5c1.16-.37,1.86,1.79,4.08,3.4,1.22.88,6.25-5.72,6.4-4.23a248,248,0,0,1,3.91,24.55c1.26,12.59,17.9,79.85,13.65,84.1-3.17,3.17-30.66,13.13-35.79,13.73-12.26,1.43-23,1.74-35.19,3.4C109.18,334.38,119.49,328,115.47,323.13Z"/><path class="cls-3" d="M177.71,232.24c-2.6,3-4.55,7-8.09,10.08-.87.76-3.33,3.72-4.29,4.05"/><path class="cls-3" d="M123.09,287.74c11.38,5.35,31.95,12.74,44.35,7.47l.8-.19"/><path class="cls-3" d="M99.49,321.09c1.51-.64,7.65-4.64,8.78-6.12.28-.37,7.64,9.69,7.64,14.37"/><path class="cls-3" d="M108.27,315c1.16-4.34.83-21.1.83-27"/><path class="cls-1" d="M111.85,330.18c11.5-2.06,33.59-12.84,50.35-17.81a9.06,9.06,0,0,1,7.86,1.38c2.44-.61,6.88,8.79,7,15.86.21,11.84,8.39,14-4.53,20.58a388.45,388.45,0,0,1-43.36,19.52c-7.05,2.76-20,.18-28.24-.85-12.36-1.53-14.06-21.06-14.39-28.17-.32-6.89,1.23-11.7,3.76-26.85.39-2.31,4.48-20.87,4.37-17-.12,4.5,1.67,24.57,6.12,26.67C104.09,325,111,329.71,111.85,330.18Z"/><path class="cls-3" d="M111.85,330.18c11.5-2.06,33.59-12.84,50.35-17.81a9.06,9.06,0,0,1,7.86,1.38c2.44-.61,6.88,8.79,7,15.86.21,11.84,8.39,14-4.53,20.58a388.45,388.45,0,0,1-43.36,19.52c-7.05,2.76-20,.18-28.24-.85-12.36-1.53-14.06-21.06-14.39-28.17-.32-6.89,1.23-11.7,3.76-26.85.39-2.31,4.48-20.87,4.37-17-.12,4.5,1.67,24.57,6.12,26.67C104.09,325,111,329.71,111.85,330.18Z"/><path class="cls-3" d="M113.72,329.84s-10.32,2.58-11.61,3c-.3.1-.51.13-.8.23"/><path class="cls-3" d="M107.86,328.37a59,59,0,0,0-9.75-.58"/><path class="cls-10" d="M190.78,303.87c2.09-.83,4.86-2.82,4.44-4.56-.15-.63-1.2-3.53-.85-3.53,3.88,0,9-.21,8.42,4.79.59,1.48,3.15,3.2,3.36,4.09,1,4-1,4,1.8,8.49a11.22,11.22,0,0,1,.66,6.94,44,44,0,0,0-.89,9c.11,2.69-3.65,6-7.39,7.79-4.88,2.36-16.49,4.31-19.58,6.26-1.47.93-4.92,1.4-6.74,1.4-5.17.28-10.7-9.7-12.22-22a8.57,8.57,0,0,1,2.3-6.86c1.14-1.07,5.35-2.3,7.29-2.92,4-2.11,6-9,8.05-12.93a33.07,33.07,0,0,0,3.26-13.1c0-2.5,2.66-2.54,4.4-1.47,2.11,1.3,2.32,8.54,1.4,12.2C187.73,300.44,190.3,304.05,190.78,303.87Z"/><path class="cls-3" d="M190.78,303.87c2.09-.83,4.86-2.82,4.44-4.56-.15-.63-1.2-3.53-.85-3.53,3.88,0,9-.21,8.42,4.79.59,1.48,3.15,3.2,3.36,4.09,1,4-1,4,1.8,8.49a11.22,11.22,0,0,1,.66,6.94,44,44,0,0,0-.89,9c.11,2.69-3.65,6-7.39,7.79-4.88,2.36-16.49,4.31-19.58,6.26-1.47.93-4.92,1.4-6.74,1.4-5.17.28-10.7-9.7-12.22-22a8.57,8.57,0,0,1,2.3-6.86c1.14-1.07,5.35-2.3,7.29-2.92,4-2.11,6-9,8.05-12.93a33.07,33.07,0,0,0,3.26-13.1c0-2.5,2.66-2.54,4.4-1.47,2.11,1.3,2.32,8.54,1.4,12.2C187.73,300.44,190.3,304.05,190.78,303.87Z"/><path class="cls-3" d="M199,309.05c.12.93,1.37,2.31,1.41,2.49"/><path class="cls-3" d="M201.76,316.85a3,3,0,0,0,.75,1.67"/><path class="cls-3" d="M202.07,325a.89.89,0,0,0,.19.47"/><path class="cls-3" d="M188,305.51a16.54,16.54,0,0,0,7.25-3.76"/><path class="cls-2" d="M221.58,248.4c.91,0,1.66,1.07,1.66,2.4s-.75,2.4-1.66,2.4-1.66-1.07-1.66-2.4.74-2.4,1.66-2.4"/><path class="cls-2" d="M223.38,277.66c.89-.22,1.86.65,2.18,1.93s-.16,2.51-1,2.73-1.87-.65-2.18-1.94.15-2.51,1-2.72"/><path class="cls-2" d="M224.84,310.37c.91,0,1.61,1.13,1.57,2.45s-.83,2.37-1.75,2.34S223,314,223.09,312.7s.83-2.37,1.75-2.33"/><path class="cls-2" d="M228.44,340.77c.91.07,1.58,1.19,1.49,2.51s-.9,2.34-1.81,2.28-1.58-1.18-1.49-2.5.9-2.35,1.81-2.29"/><path class="cls-2" d="M223.66,375.33c.91.06,1.58,1.18,1.49,2.5s-.9,2.35-1.81,2.29-1.59-1.18-1.5-2.51.9-2.34,1.82-2.28"/><path class="cls-2" d="M227.87,411.13c.92.06,1.59,1.18,1.5,2.5s-.9,2.35-1.82,2.28-1.58-1.18-1.49-2.5.9-2.34,1.81-2.28"/><path class="cls-3" d="M97.31,181.38c-2.4,2.08-11,14.86-5.53,16.9,1.94.72,7-8,8.15-9.32"/><path class="cls-3" d="M106.49,196.68c-1.33,1.45-11.68,15.58-5.66,15.58,2.45,0,5.85-4.93,7.26-7"/><polygon class="cls-2" points="312.06 389.06 358.25 358.21 320.04 358.21 273.84 389.57 312.06 389.06"/><polygon class="cls-3" points="312.06 389.06 358.25 358.21 320.04 358.21 273.84 389.57 312.06 389.06"/><path class="cls-19" d="M308.26,422.51c-1.28,4.29,1.35,6.25,5.19,6.48,7.38.44,10.51,1.63,10.43-7.27V376.66c.16-1.31-2.89-4.78-7.06-3.34-5.07,1.75-8.07,5.12-8.56,9.31Z"/><path class="cls-3" d="M308.26,422.51V382.63c.49-4.19,3.49-7.56,8.56-9.31,4.17-1.44,7.22,2,7.06,3.34"/><line class="cls-3" x1="323.88" y1="424.2" x2="323.88" y2="376.66"/><path class="cls-19" d="M319.9,358.83l-6-13.44,33.63-.27c8.23-1.92,16.13,10.56,9.08,13.89Z"/><path class="cls-3" d="M319.9,358.83l-6-13.44,33.63-.27c8.23-1.92,16.13,10.56,9.08,13.89Z"/><path class="cls-1" d="M351.36,349.34H324.27c2.28-7.34,13.49-14,21.26-14l27.09.58C365.24,336.66,353.8,342.3,351.36,349.34Z"/><path class="cls-3" d="M351.36,349.34H324.27c2.28-7.34,13.49-14,21.26-14l27.09.58C365.24,336.66,353.8,342.3,351.36,349.34Z"/><path class="cls-19" d="M320.17,359.15l-39.11,25.48c-3.34,3.05-14.86,9.25-13.69-.84.52-4.46,19-23.14,20.76-24.34,5.09-5.63,8.07-10.38,21.26-13.8C318.9,343.19,322.94,352.72,320.17,359.15Z"/><path class="cls-3" d="M320.17,359.15l-39.11,25.48c-3.34,3.05-14.86,9.25-13.69-.84.52-4.46,19-23.14,20.76-24.34,5.09-5.63,8.07-10.38,21.26-13.8C318.9,343.19,322.94,352.72,320.17,359.15Z"/><path class="cls-3" d="M311.79,303.53c.47.73,3.13,3.41,3.28,4"/><path class="cls-3" d="M235.33,283.78c.18-2.26.15-4.15.15-6.41,3.72,0,26.89.08,28.68,1.5,1.4,1.11,1.35,2.3,1.32,3.68"/></svg>
