<svg id="Layer_1" data-name="Layer 1" xmlns="http://www.w3.org/2000/svg" viewBox="0 0 450 450"><defs><style>.cls-1{fill:#ccf;}.cls-1,.cls-10,.cls-11,.cls-12,.cls-13,.cls-4{fill-rule:evenodd;}.cls-2,.cls-4{fill:#fefefe;}.cls-3,.cls-6{fill:none;stroke-linecap:round;stroke-linejoin:round;stroke-width:2.83px;}.cls-3{stroke:#000;}.cls-5{fill:#66f;}.cls-6{stroke:#373435;}.cls-7{fill:#bdd8e3;}.cls-8{fill:#f9c;}.cls-9{fill:#f9aa75;}.cls-10{fill:#c93;}.cls-11{fill:#f7b6c8;}.cls-13{fill:#c7cae6;}</style></defs><title>Thech Peeps_Search</title><path class="cls-1" d="M139,425.57c.29-2.6.52-26.65,1.43-23.1,1.54,6,17.33,8.47,22.07,8.72,18.32,1,36.78,3.66,54.89-1.45,20.62-5.81,24.91-9.4,41.61-22,6.77-5.1,5.32,3.47,6.18,9.27.61,4.12,2.07,20.92-1.25,23.35-16.24,11.89-52.32,4.8-73.48,8.18-14.5,2.31-34.5,1.83-48.84-2-1.16-.31-2.66-.46-2.61-1"/><rect class="cls-2" x="184.59" y="21.45" width="176.39" height="39.75" rx="19.88" ry="19.88"/><rect class="cls-3" x="184.59" y="21.45" width="176.39" height="39.75" rx="19.88" ry="19.88"/><path class="cls-4" d="M202.64,33.83A4.69,4.69,0,1,1,198,38.52,4.69,4.69,0,0,1,202.64,33.83Z"/><path class="cls-3" d="M202.64,33.83A4.69,4.69,0,1,1,198,38.52,4.69,4.69,0,0,1,202.64,33.83Z"/><line class="cls-3" x1="205.68" y1="42.75" x2="209.51" y2="48"/><rect class="cls-5" x="281.68" y="70.75" width="79.2" height="91.8" rx="14.17" ry="14.17"/><rect class="cls-6" x="281.68" y="70.75" width="79.2" height="91.8" rx="14.17" ry="14.17"/><rect class="cls-7" x="281.68" y="173.95" width="79.2" height="106.65" rx="14.17" ry="14.17"/><rect class="cls-6" x="281.68" y="173.95" width="79.2" height="106.65" rx="14.17" ry="14.17"/><rect class="cls-8" x="190.76" y="70.81" width="79.2" height="69.37" rx="12.41" ry="12.41"/><rect class="cls-6" x="190.76" y="70.81" width="79.2" height="69.37" rx="12.41" ry="12.41"/><rect class="cls-9" x="190.76" y="150.98" width="79.2" height="69.37" rx="12.41" ry="12.41"/><rect class="cls-6" x="190.76" y="150.98" width="79.2" height="69.37" rx="12.41" ry="12.41"/><path class="cls-10" d="M108.86,339.51c-3.17-1.1-17-35.81-18.48-38.67-8.34-16,5.08-34.22,11.42-50.35,5.63-14.34,14.53-36.73,22.22-48.5,5.38-8.23,45.9-16.66,45.9-16.66,10.85-.13,24.39,2.39,37.47,2.39s20.58.46,33.05,3.88c.87.24,8.46,1.83,9.4,1.83L280.48,150l18.86-51c15.52-3.87,17.37.91,29.7,9.41a7.63,7.63,0,0,1,1.77,2.48l-21.14,67.47-43.81,69.11,3,138.67c-2.25,2.3-7.69-2.14-12.55,2.43-1.44,1.36-6.07,3.2-7.55,5.85-.15.26-.14.26-.42.3-2,7.88-15.55,13.52-22.52,15.68-14.34,4.45-59.76,6-72.93-2.1-5-3.05-19.45-3.68-19.45-13.58L136.26,329Z"/><path class="cls-3" d="M230.2,96.93c3.56,0,6.45,4.36,6.45,9.75s-2.89,9.75-6.45,9.75-6.45-4.37-6.45-9.75S226.64,96.93,230.2,96.93Z"/><path class="cls-11" d="M226,99.21c-.57,9,6.13,15.93,8.15,31.15,2,14.94-1.48,34.69-18.23,37.06-.76.11-1,.67-1.27,3.81-.35,3.49.38,8.85-1,15.46-2.41,11.11-38,11.67-39.11,1.37-.19-1.86,1.41-7.16,1.75-12.55.07-1-.63-2.38-.62-3.45s.34-2.29.23-3.35c-1.45-14.35-14.22-38.36-16.41-58.46C157.15,89.1,164.87,68.33,189,65,225.31,60,227,84.64,226,99.21Z"/><path class="cls-3" d="M226,99.21c-.57,9,6.13,15.93,8.15,31.15,2,14.94-1.48,34.69-18.23,37.06-.76.11-1,.67-1.27,3.81-.35,3.49.38,8.85-1,15.46-2.41,11.11-38,11.67-39.11,1.37-.19-1.86,1.41-7.16,1.75-12.55.07-1-.63-2.38-.62-3.45s.34-2.29.23-3.35c-1.45-14.35-14.22-38.36-16.41-58.46C157.15,89.1,164.87,68.33,189,65,225.31,60,227,84.64,226,99.21Z"/><path class="cls-3" d="M214.9,169.29c0-.19-.42-9.47-.43-9.54"/><path class="cls-3" d="M229,95.4c-.57-.86-1.64-2.44-2.77-2.46"/><path class="cls-12" d="M227.28,67.41c6.9,3.27,7.21,9.16,5.45,12.43-1.67,3.07-5.22,3.62-5.22,3.84.07,16.31-11.22,9.07-11.22,12.57,0,5.39-2.6,11.25-7.9,13.21-5,1.88-3-.35-.71,3.49,2.21,3.66,3.51,10.87-2.4,14,.25,1.92,6.4,8.39-4.12,14.44-2.74,1.57-.51-2.07-3.54,4.26-4.86,10.19-18.12,1.78-18.3,1.91-11,8.14-21.28,2.92-19.56-8.37,0-.09-15.42-2-9.63-17.45.17-.45-8-2-7.83-12.12.14-7.68,8-10,7.73-10.26-9.19-7-2.92-20.55,5.18-20.55-3.55-8.16,1.91-13.1,6.84-14.23s9.4,1.59,9.62,1.49c0,0-.1-5,3-8.11,4.37-4.49,12.62-5.06,16.8,1.64.25.4,3.94-6.45,9.51-6.55,2.71,0,6.69.95,9.29,6.28,0,0,4.61-7.59,13.21-2.17C228.63,60.49,227.28,67.41,227.28,67.41Z"/><path class="cls-3" d="M227.28,67.41c6.9,3.27,7.21,9.16,5.45,12.43-1.67,3.07-5.22,3.62-5.22,3.84.07,16.31-11.22,9.07-11.22,12.57,0,5.39-2.6,11.25-7.9,13.21-5,1.88-3-.35-.71,3.49,2.21,3.66,3.51,10.87-2.4,14,.25,1.92,6.4,8.39-4.12,14.44-2.74,1.57-.51-2.07-3.54,4.26-4.86,10.19-18.12,1.78-18.3,1.91-11,8.14-21.28,2.92-19.56-8.37,0-.09-15.42-2-9.63-17.45.17-.45-8-2-7.83-12.12.14-7.68,8-10,7.73-10.26-9.19-7-2.92-20.55,5.18-20.55-3.55-8.16,1.91-13.1,6.84-14.23s9.4,1.59,9.62,1.49c0,0-.1-5,3-8.11,4.37-4.49,12.62-5.06,16.8,1.64.25.4,3.94-6.45,9.51-6.55,2.71,0,6.69.95,9.29,6.28,0,0,4.61-7.59,13.21-2.17C228.63,60.49,227.28,67.41,227.28,67.41Z"/><path class="cls-3" d="M169.92,185.33S129.4,193.76,124,202c-7.69,11.77-16.59,34.16-22.22,48.5-6.34,16.13-18.26,34.95-9.92,50.95,1.49,2.86,10.66,41.32,13.83,42.42"/><path class="cls-3" d="M133.89,235.73c4.24,66.92,2.09,110.67.61,152.56"/><path class="cls-3" d="M223.32,187.13c9.91,1.33,19.55,4.2,31.2,7.8"/><path class="cls-3" d="M266.2,246.48c18.32-26.92,40.4-60,44.28-70,2.08-5.37,22.81-64.62,20.33-68.13-5.32-7.53-27.73-15.63-31.47-9.37-5.1,8.56-12,32.91-18.86,51-1.33,3.53-29.89,42.27-30.89,43.45"/><path class="cls-3" d="M265.86,247.47c0,46.59,3,96,3,138.67-1.6,1.67-4.06-.64-8.77-.13-3.89.41-8.43,3.42-14,10.6-19.5,25.3-111.68,20.95-111.68-3.6,0-1.54,0-3.26,0-4.88"/><path class="cls-10" d="M175,174.84c-1.57.24-2.22,5.4-4.9,9.53-8.23,12.68,27.94,23.86,51.89,4,2.18-1.81-4.73-11.22-5.39-12a32.15,32.15,0,0,1-14.7,6.73c-10.73,2.1-25.78,1.94-27.15-4.15C174.49,177.62,175.73,174.73,175,174.84Z"/><path class="cls-3" d="M175,174.84c-1.57.24-2.22,5.4-4.9,9.53-8.23,12.68,27.94,23.86,51.89,4,2.18-1.81-4.73-11.22-5.39-12a32.15,32.15,0,0,1-14.7,6.73c-10.73,2.1-25.78,1.94-27.15-4.15C174.49,177.62,175.73,174.73,175,174.84Z"/><path class="cls-13" d="M135.51,263.79c0,1-21.06,7.58-31,10.89-11.23,3.72-11.34,10.23-11,17.89.39,8.93-.3,39.92-.21,55.36.07,11.8-.44,25.86,16.65,19.19,7.6-3,24.3-8.24,24.87-9.15C136.36,355.41,135.52,264.08,135.51,263.79Z"/><path class="cls-3" d="M135.51,263.79c0,1-21.06,7.58-31,10.89-11.23,3.72-11.34,10.23-11,17.89.39,8.93-.3,39.92-.21,55.36.07,11.8-.44,25.86,16.65,19.19,7.6-3,24.3-8.24,24.87-9.15C136.36,355.41,135.52,264.08,135.51,263.79Z"/><path class="cls-3" d="M98.4,311.87V291c.35-4.66,0-9.63,10.65-12.6l14.45-5"/><path class="cls-3" d="M98.07,351l.08,6.3a25.53,25.53,0,0,0,.2,6.54c.55,2.76,2.3,5.31,5.35,5.31"/><line class="cls-3" x1="98.22" y1="344.21" x2="98.22" y2="322.31"/><path class="cls-3" d="M133.09,233.35c-.28-.92-3.6-5-4.42-5.78"/><path class="cls-3" d="M133.69,236.8a19.36,19.36,0,0,0-4.33-2.47l-.09-.08"/><path class="cls-11" d="M213.75,107c-4.11-5.41-17.58,7.9-4.64,14.39,3.28,1.65,8.77-.14,9.24-6.77.18-2.5-3.74-6.49-4.6-7.62"/><path class="cls-3" d="M214.44,105.86c-4.15-1.29-8.52-.84-11.27,3.66-5.59,9.19,6,15.67,11.07,11.87"/><path class="cls-3" d="M210.24,116.24c-2.78-2.13-1.25-3.42-1.42-4.42"/><line class="cls-3" x1="213.97" y1="105.72" x2="234.91" y2="102.56"/><line class="cls-3" x1="259.71" y1="386.08" x2="256.55" y2="262.81"/><path class="cls-3" d="M257.75,244.51c-6.77-5.25-9.63-20.36-7.65-30.16.44-2.13.75-7,2-8.84"/><path class="cls-3" d="M133.86,204.31c1.37,8.74,1.2,8.85,1.2,17.1"/><path class="cls-3" d="M138.55,401.34c1.12,2.35,0,17,.9,19.49"/><path class="cls-3" d="M264.57,386.28c1.54,13.08,2.08,16.36,2.08,28.25"/><path class="cls-11" d="M303.18,96.13c.72-11-6-23.9,3.25-30.63,6.32-4.58,6.12-2.7,6.8-4.53,1.24-3.34,5-16.59,6.86-22.64,1.69-5.37,6.91-5.32,6.35-.85-.19,1.51-3.79,22.09-3.79,22.09,2.94-2.61,5.67-2,7.2-.79,1.72,1.37,1.5,3.53,1.91,3.44,6.83-1.46,5.57,5.84,6.81,5.82,4.17-.05,6.17,4.63,3.19,11.78-4.6,11-11.38,27.58-12.1,27.15-3.49-2.09-11.09-10.23-24.31-10.32C304.63,96.64,303.15,96.49,303.18,96.13Z"/><path class="cls-3" d="M303.18,96.13c.72-11-6-23.9,3.25-30.63,6.32-4.58,6.12-2.7,6.8-4.53,1.24-3.34,5-16.59,6.86-22.64,1.69-5.37,6.91-5.32,6.35-.85-.19,1.51-3.79,22.09-3.79,22.09,2.94-2.61,5.67-2,7.2-.79,1.72,1.37,1.5,3.53,1.91,3.44,6.83-1.46,5.57,5.84,6.81,5.82,4.17-.05,6.17,4.63,3.19,11.78-4.6,11-11.38,27.58-12.1,27.15-3.49-2.09-11.09-10.23-24.31-10.32C304.63,96.64,303.15,96.49,303.18,96.13Z"/><line class="cls-3" x1="313.49" y1="60.23" x2="310.12" y2="73.47"/><line class="cls-3" x1="331.76" y1="62.22" x2="330.68" y2="66.72"/><line class="cls-3" x1="338.09" y1="67.71" x2="337.13" y2="71.53"/><line class="cls-3" x1="323.01" y1="59.07" x2="321.2" y2="65.89"/><path class="cls-3" d="M283.29,152.91c1.66.53,2.57,1.85,4,3"/><path class="cls-3" d="M280.86,149.4c3.46-.39,5.08-.58,8.73.32"/><path class="cls-11" d="M135.77,351.53l-.63,13.28c.06.74-.53.93-1.07,1.05-3.83.85-.86,2.48-6.32,2.13-3-.2-.94,3.14-6.75,1.59-2.8-.75-4.25-2.08-6.58-3.46,2.21-2.1,6.73-.92,6.57-5-.17-4.28-.09-5.53,1.55-6.56a2.74,2.74,0,0,1,4,1.18c.28-1.39,1.82-5.19,4.64-2.48C131.19,353.29,133,350.46,135.77,351.53Z"/><path class="cls-3" d="M135.77,351.53l-.63,13.28c.06.74-.53.93-1.07,1.05-3.83.85-.86,2.48-6.32,2.13-3-.2-.94,3.14-6.75,1.59-2.8-.75-4.25-2.08-6.58-3.46,2.21-2.1,6.73-.92,6.57-5-.17-4.28-.09-5.53,1.55-6.56a2.74,2.74,0,0,1,4,1.18c.28-1.39,1.82-5.19,4.64-2.48C131.19,353.29,133,350.46,135.77,351.53Z"/><path class="cls-3" d="M125.85,368.81c1.86-1.16,1.05-9.16,1.05-11.36"/><path class="cls-3" d="M131.18,367.67c1.59-6.27.81-8.07,0-14v-.16"/><path class="cls-4" d="M134.16,309.92c-4.62.65-6,13.11,0,13.81.14-.34.08-13.82,0-13.81"/><path class="cls-3" d="M227.55,394.1c5.39-6.36,14.55-22,17-29.56"/><path class="cls-3" d="M235,374.45c2.5-5.83,8.38-17.9,10.47-23.7l.29-.8"/><path class="cls-3" d="M143.81,384.65c-1.64-.86-5.42-5.13-6.16-6.6"/><path class="cls-3" d="M267.71,244.26c-5.74,5.83-5.78,4.46-12.31,7"/><path class="cls-3" d="M266.88,245.09s-6.07,7.57-6.68,7.71"/><path class="cls-3" d="M248.36,253.15c-31.39,7.91-54.34,2.14-68.24,1.31-4.7-.27-37.13-1-38.31-4.46"/><path class="cls-3" d="M186.26,357.24c3.91-20.2,4.69-51.8.22-71.72-.64-2.87-.28-6.84-.82-9.88"/></svg>
